<svg width="128" height="128" viewBox="0 0 128 128" fill="none" xmlns="http://www.w3.org/2000/svg">
<g clip-path="url(#clip0_1001_10769)">
<path d="M13.1647 51.1963C14.2692 51.5348 15.5675 51.0087 16.1444 50.8656L18.2596 50.3411C22.1219 65.9165 22.408 67.0703 28.37 90.2896L29.6098 95.2891L32.8507 109.182L30.5433 109.754C29.7741 109.945 29.2449 110.28 28.5234 110.663C27.3205 111.574 26.5974 112.773 26.1621 114.31C25.919 115.799 26.0605 117.193 26.9711 118.396C28.0248 120.176 30.1369 121.285 32.2998 120.953L34.0304 120.524L39.9437 118.853L51.9625 115.464C59.9433 113.077 67.9717 110.882 75.9525 108.495C67.781 110.113 59.6572 111.923 51.4857 113.542L39.2761 116.161L33.2674 117.447C32.1137 117.733 31.7291 117.828 30.8646 117.635C30.1924 117.393 29.6647 116.912 29.3294 116.382C28.6587 115.324 29.0464 113.595 30.1048 112.924C30.4417 112.637 30.634 112.589 31.0185 112.494L34.2875 111.683C34.5274 111.828 34.912 111.732 35.1043 111.684L71.8315 102.577L96.0123 96.3765C96.2046 96.3288 113.271 91.8927 112.309 92.1311L114.232 91.6543C115.386 91.3682 115.77 91.2728 116.395 91.322C117.067 91.5636 117.547 91.8528 117.882 92.382C118.553 93.4403 118.358 95.1217 117.155 96.0324C116.818 96.32 116.626 96.3677 116.241 96.4631L111.626 97.6075L99.6072 100.996C91.6264 103.383 83.598 105.578 75.6172 107.966C83.7887 106.348 91.9125 104.537 100.084 102.919L112.294 100.3L116.909 99.1551C119.024 98.6306 120.661 97 121.145 94.8387C121.436 93.5419 121.247 91.9559 120.528 90.7053C119.81 89.4546 118.562 88.5393 117.218 88.0562C116.546 87.8147 115.729 87.8132 115.104 87.7639L114.72 87.8593C113.339 81.4661 111.717 74.9282 110.144 68.5827C108.427 61.6603 106.71 54.7379 104.802 47.8631L103.753 43.6328C103.083 41.7576 101.116 40.4084 99.0977 40.5007C98.4732 40.4514 97.704 40.6422 97.3194 40.7375L95.9734 41.0713C92.5599 42.1219 89.0987 42.9802 85.6852 44.0308L84.916 44.2216C85.016 42.1556 84.9715 40.3296 84.6869 38.3591C84.4024 36.3885 84.1655 34.6102 83.6887 32.6873C84.3132 32.7366 85.1301 32.7381 85.8992 32.5474C87.2929 32.4059 88.7836 31.8321 90.0819 31.306C91.3802 30.78 92.4863 30.3016 93.64 30.0155C94.7938 29.7294 95.8029 29.6833 96.9074 30.0217C97.1474 30.1663 97.5319 30.0709 97.7242 30.0233C98.6857 29.7848 99.2641 28.825 99.0257 27.8635L98.978 27.6712C98.2643 23.97 97.3583 20.3165 96.26 16.7107L96.2123 16.5184C96.0693 15.9416 95.5417 15.4601 94.8694 15.2185C93.7141 16.3215 91.9359 16.5584 90.6375 17.0844C89.1469 17.6582 87.8962 18.3765 86.8855 19.2395C84.7688 20.5809 82.8444 21.8746 80.4892 22.2545C80.0585 21.3407 79.6755 20.6192 79.0525 19.7531C78.7078 24.125 79.4184 29.4599 80.4674 33.6902C81.0396 35.9977 81.7564 38.0652 82.5209 40.325C83.1901 42.2002 84.0038 43.8354 85.0575 45.6153C79.1442 47.2857 73.2786 49.1485 67.2207 51.059C66.2194 47.0209 65.458 43.1274 64.4566 39.0894L68.1101 38.1834C68.687 38.0403 69.2162 37.705 69.5054 37.225C71.3822 35.7391 71.916 32.9532 70.8146 30.9811L68.5642 26.8445C67.0321 23.9586 65.74 21.2173 64.0156 18.3791C62.9619 16.5993 60.4652 15.5855 58.59 16.2546L54.0228 17.5913C52.1475 18.2604 50.0324 18.785 48.1095 19.2618C11.9622 26.5926 24.3641 23.9255 21.6244 24.4007L12.3468 26.4973C10.0393 27.0695 8.11333 29.18 8.10866 31.6305L8.33931 36.6761L8.65754 46.1906C8.65288 48.6411 10.8111 50.7594 13.1647 51.1963ZM83.6596 22.6929C85.0534 22.5515 86.544 21.9777 87.8423 21.4516C89.8621 20.5425 91.785 20.0657 93.611 20.0211L95.4707 27.5204L93.3555 28.0449C91.8649 28.6187 90.6142 29.337 89.6035 30.2C87.8237 31.2537 86.2838 32.452 84.3609 32.9288L84.2655 32.5443C83.6933 30.2368 82.9765 28.1693 82.212 25.9095C81.7336 24.8035 81.2553 23.6974 80.7292 22.3991C81.4491 22.8329 82.6505 22.7391 83.6596 22.6929ZM55.8301 103.075L49.6768 104.601C49.1538 101.669 48.3909 98.5922 47.8679 95.6602C47.345 92.7282 46.582 89.6516 45.8668 86.7672L57.4041 83.9062C59.1223 90.0118 60.842 95.3005 63.3293 101.215L55.8301 103.075ZM72.058 84.5587L75.2513 98.259L64.4831 100.929L63.7616 101.312C63.1018 94.536 61.9605 88.2874 60.4839 81.5096C60.2455 80.5481 59.2856 79.9697 58.3241 80.2081L58.1318 80.2558C55.6321 80.8757 53.1323 81.4956 50.3926 81.9709L42.701 83.8782C41.7396 84.1166 41.0165 85.3165 41.255 86.2779C42.1609 89.9314 43.0192 93.3926 44.1175 96.9984C44.8328 99.8828 45.788 102.912 46.6955 105.748L36.3119 108.323L32.7341 94.7184L31.4943 89.7189C26.2046 66.7412 25.4401 64.4814 21.8161 49.8674L41.2373 45.0514L59.6494 40.2814L60.9954 39.9477C62.4259 45.7163 64.0964 51.6296 65.7192 57.3506C69.58 73.7429 68.7217 70.2817 72.058 84.5587ZM86.7358 47.4443C90.2446 46.7783 93.7059 45.92 97.2147 45.254C97.9839 45.0633 99.1376 44.7772 99.3776 44.9218C99.8099 45.0187 100.242 45.1156 100.53 45.4525C100.817 45.7894 100.865 45.9817 101.151 47.1354L101.819 49.8275C103.343 56.7976 105.06 63.72 106.776 70.6424C108.35 76.988 109.923 83.3335 111.737 89.8236C111.545 89.8713 94.3833 93.9229 95.537 93.6368L79.1447 97.4976L75.5669 83.8927L71.5122 68.365C70.5586 64.5192 69.4603 60.9134 68.5066 57.0676C68.0298 55.1447 67.553 53.2218 67.2684 51.2513C73.7093 50.0623 80.2948 48.6333 86.7358 47.4443ZM12.4541 45.8614L12.1835 36.5393L12.0483 31.8782C12.0498 31.0614 12.5313 30.5338 13.3005 30.343L22.4827 27.8619C25.127 27.0021 12.7713 30.6784 48.3956 20.4155C50.3185 19.9387 52.4813 19.6065 54.4042 19.1296L59.0668 18.1775C60.2206 17.8914 61.3728 18.4222 61.8035 19.3359C62.1388 19.8651 68.0241 32.8977 67.6411 32.1763C68.0241 32.8977 67.6857 34.0022 67.1565 34.3376C66.8196 34.6252 66.6273 34.6729 65.6658 34.9113C64.1275 35.2928 58.3112 36.531 58.6957 36.4357L40.1883 40.821L18.8442 46.1139C18.6519 46.1615 18.2673 46.2569 18.1227 46.4969L14.8538 47.3075C14.0847 47.4982 13.7001 47.5936 13.4601 47.449C13.0278 47.3521 12.4525 46.6783 12.4541 45.8614Z" fill="#FFB236"/>
<path d="M82.4347 85.2509C82.5777 85.8277 83.0084 86.7415 83.5361 87.223C84.1114 87.8968 84.7836 88.1383 85.4559 88.3798C86.1281 88.6214 87.1372 88.5752 87.7141 88.4322C89.8293 87.9077 90.2138 87.8123 94.3965 86.571C94.5888 86.5233 98.5792 85.3296 98.3869 85.3773L100.118 84.9482C101.416 84.4221 102.331 83.1745 102.382 81.7332C102.431 81.1086 102.24 80.3395 102.145 79.9549L101.811 78.6088L99.5178 71.8295C98.7088 67.7437 98.3765 65.5809 96.9507 57.3617C96.8553 56.9771 96.6646 56.2079 96.3293 55.6788C95.9462 54.9573 95.4186 54.4758 94.7464 54.2343C94.0741 53.9927 93.4019 53.7512 92.5851 53.7496C91.7682 53.7481 91.4313 54.0357 90.9991 53.9388C87.2979 54.6525 83.8367 55.5108 80.1832 56.4168C78.6449 56.7983 77.345 58.1412 76.9096 59.678C76.7158 60.5425 76.7142 61.3593 76.9049 62.1285L77.4295 64.2437L79.5721 74.5303L82.4347 85.2509ZM89.4913 63.4978C88.8699 61.8149 88.0562 60.1797 87.1947 58.3521C88.7331 57.9707 90.0791 57.6369 91.5697 57.0631C92.7235 56.777 92.6758 56.5847 93.1557 56.8739C93.3957 57.0186 93.588 56.9709 93.6357 57.1632C93.8756 57.3078 93.9233 57.5001 94.0187 57.8846L95.7384 63.1734C96.6459 66.01 97.6012 69.039 98.5087 71.8756L99.6485 78.9411L99.9822 80.2871C100.125 80.864 100.173 81.0563 100.028 81.2962C99.9314 81.7285 99.4499 82.2561 99.0654 82.3515L93.2967 83.782C93.3967 81.7161 93.1122 79.7455 93.0676 77.9195C92.6877 75.5644 92.2601 73.0169 91.6879 70.7094C91.068 68.2097 90.3035 65.9499 89.4913 63.4978ZM86.0882 84.3449L83.6102 73.529L80.7953 63.0008L80.2708 60.8856C80.2231 60.6933 80.2231 60.6933 80.3677 60.4533C80.5123 60.2134 80.6569 59.9734 80.8492 59.9257L86.2333 58.5906C86.267 66.1344 88.745 76.9503 92.4798 83.7804C91.1338 84.1142 89.7401 84.2557 88.3941 84.5895L87.0481 84.9233C86.8558 84.971 86.6635 85.0187 86.6158 84.8264C86.4235 84.8741 86.3758 84.6818 86.3281 84.4895C86.1835 84.7294 86.1835 84.7295 86.0882 84.3449ZM51.3061 56.0255C49.0018 54.964 46.3113 54.8147 44.1469 55.9638C48.7602 55.6362 52.6459 58.9591 53.1673 62.7079C53.881 66.4091 51.3751 70.2964 47.8662 70.9624C44.4526 72.013 40.4208 69.747 39.3225 66.1411C38.032 62.583 39.9149 57.8297 44.1469 55.9638C41.744 56.1514 39.3873 57.3482 37.8459 59.3633C36.3045 61.3785 35.5783 64.212 36.2459 66.9041C36.7212 69.6438 38.3502 72.0974 40.7499 73.5435C43.1496 74.9896 46.1278 75.4757 48.8198 74.8081C51.5119 74.1406 53.9178 72.3193 55.3639 69.9195C56.81 67.5198 57.1038 64.5894 56.244 61.945C55.3841 59.3006 53.6105 57.087 51.3061 56.0255Z" fill="#FFB236"/>
</g>
<defs>
<clipPath id="clip0_1001_10769">
<rect width="105" height="105" fill="white" transform="translate(0 25.2725) rotate(-13.9272)"/>
</clipPath>
</defs>
</svg>
