<svg width="114" height="115" viewBox="0 0 114 115" fill="none" xmlns="http://www.w3.org/2000/svg">
<path d="M74.4243 41.3784C78.1399 42.3409 81.7894 42.9006 85.6674 43.34C82.2225 41.5057 78.8437 40.0743 75.2905 38.5887C68.4788 35.9002 61.5046 33.7347 53.6706 31.8757C49.955 30.9132 46.3055 30.3535 42.4275 29.9141C45.8724 31.7484 49.2512 33.1798 52.8044 34.6654C60.3136 37.5705 67.2877 39.736 74.4243 41.3784ZM73.383 49.6574C67.4613 45.3336 55.9539 41.7606 48.799 42.0241C54.7207 46.3479 66.2281 49.921 73.383 49.6574Z" fill="#433C8C"/>
<path d="M109.749 26.7314C109.455 26.4488 108.932 26.2863 108.637 26.0037L33.4905 2.67073C30.5385 2.3276 27.6764 3.54172 26.1669 5.94049C25.776 6.58377 25.4512 7.6299 25.2888 8.15296L24.6932 10.0709L19.9411 25.9912C9.69097 60.8502 10.1241 59.4553 9.85338 60.3271C9.63684 61.0245 9.71486 62.0046 9.84702 62.8102C10.1113 64.4216 11.007 65.8467 12.4679 66.6826C13.1112 67.0735 13.983 67.3442 14.506 67.5066C14.6804 67.5608 20.8369 69.2812 20.4882 69.1729C25.2499 70.4603 29.9575 71.922 34.7192 73.2093C34.9835 74.8207 35.6507 76.366 36.372 77.737C36.4922 77.9654 36.6666 78.0196 36.6124 78.1939C34.8506 79.5585 33.3172 80.8029 31.6756 82.396C29.577 84.2295 27.6527 86.1171 25.9028 88.0589C25.6202 88.3535 25.5119 88.7022 25.4036 89.0509C25.3073 89.9768 26.0167 90.7705 26.9967 90.6925L27.1711 90.7467L32.8889 90.8016C33.045 92.7617 33.2551 94.5474 33.4653 96.3331L33.4112 96.5075C33.4773 96.9103 33.5434 97.3132 34.0664 97.4756C34.8299 98.095 35.81 98.017 36.4294 97.2535C38.1793 95.3117 39.809 93.1414 41.4386 90.9711C42.7316 89.2698 43.796 87.6887 44.9146 85.9332C45.9065 86.4323 46.8985 86.9315 47.7703 87.2022C48.9908 87.5812 50.4398 87.8399 51.7685 87.8701C51.6961 89.9505 51.798 92.0849 51.7255 94.1652C51.8394 96.8768 51.9533 99.5885 52.2956 102.18C52.3617 102.583 52.4278 102.986 52.7223 103.268C53.3115 103.833 54.4659 103.81 55.0311 103.22L55.0853 103.046C56.2699 101.693 57.5087 100.166 58.6934 98.8138C59.1623 99.1506 59.8056 99.5415 60.2745 99.8783C62.7935 101.616 63.2624 101.953 63.4368 102.007C63.7313 102.29 64.1342 102.224 64.7114 102.212C65.5171 102.08 66.1906 101.142 66.0584 100.336C65.74 98.899 65.5959 97.5161 65.2233 96.2534C64.9048 94.8164 64.7607 93.4335 64.3881 92.1709C63.9375 89.9281 63.2584 87.8056 62.5793 85.6831C63.9502 84.9618 65.0266 83.9579 66.103 82.954C70.7564 84.59 75.4098 86.2261 80.1174 87.6877C82.7327 88.4998 85.2939 89.4862 88.0835 90.3524C90.4043 90.8818 92.9838 89.9623 94.2648 87.6837C94.6557 87.0404 94.9263 86.1687 95.1429 85.4713L105.573 53.7268C106.168 51.8089 110.132 39.6583 111.648 34.7764L111.973 33.7302C113.08 31.3975 111.92 28.3611 109.749 26.7314ZM39.7373 89.6782C38.6609 90.6821 37.6387 91.5117 36.7367 92.5698C36.7128 91.4154 36.5687 90.0325 36.5448 88.8781C36.4668 87.8981 35.7574 87.1043 34.7773 87.1823C33.6229 87.2062 32.2942 87.176 31.0857 87.3742C33.9 83.8513 35.5838 81.5067 37.1474 78.9335C38.9387 81.7837 41.4155 84.2732 44.3374 85.9451C42.6838 86.961 41.0963 88.3797 39.7373 89.6782ZM62.3739 92.5013C62.3436 93.83 62.4877 95.2129 62.5777 96.7701C62.5236 96.9445 62.5236 96.9445 62.6438 97.173C61.7059 96.4995 60.7681 95.8259 59.6559 95.0983C58.8924 94.4789 57.8582 94.7312 57.2388 95.4947C56.5653 96.4326 55.6632 97.4907 54.9897 98.4285C54.6713 96.9915 54.3528 95.5545 53.9802 94.2918C53.4754 92.2234 52.9166 90.3294 52.4118 88.2611C55.8209 88.3637 59.2721 87.7149 62.2425 86.1521C62.2242 88.058 62.272 90.3668 62.3739 92.5013ZM68.3066 61.0809C70.1218 65.0854 70.4459 69.5828 69.0264 73.5388C67.6068 77.4948 64.7925 81.0178 61.0164 82.7127C57.3606 84.6362 52.8632 84.9603 49.0274 83.7693C45.0173 82.5241 41.6687 79.7639 39.7452 76.108C37.6474 72.398 37.2692 68.075 38.34 64.0107C39.4108 59.9465 42.2793 56.2492 46.0434 53.977C49.8075 51.7048 54.4132 51.0321 58.9344 51.8624C54.6839 50.1603 49.4891 50.2678 45.2019 52.3776C40.7403 54.4332 37.2405 58.3168 35.7788 63.0243L35.6705 63.373C31.1915 61.7911 26.538 60.1551 22.059 58.5732C23.3161 55.1402 24.3988 51.6531 25.6559 48.2202L29.4694 37.1698L35.8034 16.7703L50.5693 21.5463L66.9586 26.6352C77.4199 29.8834 87.8812 33.1316 98.3966 36.2055C95.052 47.5926 89.4457 66.8799 86.1672 78.6699L71.359 74.6455L71.4673 74.2967C72.7547 69.535 72.1241 64.1778 69.5573 60.1311C67.0447 55.91 62.9987 52.9332 58.5316 51.9285C62.9565 53.6848 66.4914 57.0763 68.3066 61.0809ZM93.1526 86.9561C92.2625 88.5913 90.4887 89.3787 88.6369 89.1861C86.1418 88.6025 83.3521 87.7363 80.7368 86.9243C75.9751 85.6369 71.2675 84.1752 66.5058 82.8879C68.887 80.7598 70.5589 77.838 71.4793 74.8739C76.4814 76.6183 81.6579 78.4167 86.66 80.161C87.0087 80.2693 87.4116 80.2032 87.5199 79.8545C88.6687 76.7703 88.4521 77.4677 94.9724 57.6996C97.4205 50.4308 99.9228 42.9878 102.197 35.6649C102.467 34.7931 101.986 33.8791 101.115 33.6084C90.1844 30.0235 79.2001 26.6128 68.2157 23.2022L51.8264 18.1134C51.6521 18.0592 35.0343 13.0906 35.2086 13.1447C34.3369 12.874 33.4229 13.3549 33.1522 14.2267L26.6255 36.4779L23.5095 47.7449C22.3726 51.4063 21.4101 55.1219 20.3934 59.0118C20.2852 59.3605 20.5797 59.6432 20.7541 59.6973C25.5158 60.9847 30.4519 62.3261 35.2136 63.6135C34.2932 66.5775 34.1905 69.9866 34.7733 73.035C24.769 69.5463 22.3281 68.7884 16.8029 66.8817L14.885 66.2862C14.1876 66.0696 13.6645 65.9072 13.1956 65.5704C11.8429 64.3858 11.1097 62.4376 11.6511 60.6941L12.2466 58.7762L22.6767 27.0318L27.7775 11.2197C28.1564 9.99919 28.6437 8.43001 29.0346 7.78672C29.8164 6.50016 31.3075 6.00735 32.7565 6.26609L38.5102 8.05261L70.3629 18.134L102.324 27.8667L107.206 29.3825C107.38 29.4367 107.729 29.5449 107.849 29.7734C108.144 30.0561 108.613 30.3928 108.853 30.8498C109.388 31.5894 109.64 32.6236 109.316 33.6697L108.125 37.5055L103.372 53.4259L93.8683 85.2667C93.6517 85.9641 93.4893 86.4871 93.1526 86.9561Z" fill="#433C8C"/>
</svg>
