<svg width="124" height="124" viewBox="0 0 124 124" fill="none" xmlns="http://www.w3.org/2000/svg">
<g clip-path="url(#clip0_1001_10726)">
<path d="M49.3085 86.2499C81.9486 80.5172 82.4634 80.0141 82.2672 80.051C83.0519 79.9034 83.689 78.9711 83.3453 78.2232C81.6984 71.6268 76.4716 66.5162 69.8248 65.7351C70.021 65.6982 69.9841 65.5021 70.1802 65.4652C72.0062 63.2936 72.8629 60.2888 72.5056 57.3092C72.1483 54.3295 70.4177 51.6082 68.05 49.8192C65.4861 48.067 62.2851 47.2472 59.3424 47.8007C56.3996 48.3542 53.519 50.3178 51.9631 52.8448C50.4071 55.3718 49.8204 58.7321 50.5331 61.4417C51.2828 64.3476 53.1726 66.8359 55.6627 68.1956C55.8589 68.1587 55.8958 68.3549 56.092 68.318C50.3793 71.4237 47.1334 77.9247 48.0693 85.0611C47.5915 85.7603 48.5238 86.3975 49.3085 86.2499ZM55.8958 68.3549C58.1159 69.3592 60.8139 69.6643 63.0943 68.8291C60.4701 68.9164 58.0538 67.949 56.3485 66.4417C54.6431 64.9343 53.4156 62.7277 53.2428 60.729C52.6272 56.3761 55.8867 52.1068 59.8473 51.5651C63.9302 50.594 68.3218 53.4242 69.3298 57.7034C69.9318 59.8245 69.553 62.1301 68.5118 64.154C67.4706 66.1779 65.5709 67.9571 63.0943 68.8291C65.5223 68.7787 67.962 67.7105 69.6286 65.772C75.1235 67.9885 78.5594 72.2172 79.8743 77.048C76.8577 77.2091 53.3896 82.0292 50.4469 82.5827C49.9168 77.6043 51.6185 72.6125 55.8958 68.3549ZM51.7555 98.1801C61.2964 99.2293 76.5618 96.1551 84.3218 92.055C75.6024 91.0544 60.2633 93.7362 51.7555 98.1801Z" fill="#FFB236"/>
<path d="M31.1674 32.9904C28.4947 33.8993 26.3871 36.7332 26.3151 39.5905C26.3655 42.0184 32.271 76.6572 32.7138 79.0114C40.1807 120.872 31.0903 70.3794 37.8192 108.316C37.9668 109.101 38.3106 109.849 38.6913 110.793C40.2625 113.747 43.8811 115.707 47.2162 115.08C50.159 114.527 86.4896 107.897 94.3 106.225C97.5982 105.401 100.294 102.457 100.685 99.1332C100.734 98.3116 100.782 97.49 100.598 96.5091C100.524 96.1167 95.1988 68.8842 88.4114 36.0363L87.4773 32.1495C87.219 30.7762 86.9976 29.5991 86.5062 28.0666C85.3642 25.2345 82.6041 23.5193 79.5876 23.6804C74.6461 24.4067 70.0115 25.6846 65.1439 26.8032C64.8604 24.216 64.54 21.4325 64.4662 21.0401C63.6292 15.5101 58.2315 11.6504 52.3091 12.5612C46.4236 13.6681 42.8339 19.4213 44.0632 24.8775C44.2108 25.6623 45.145 29.549 45.5256 30.493C40.8173 31.3786 36.0351 31.8718 31.1674 32.9904ZM47.4352 24.4464C47.212 20.0197 50.1412 17.2345 53.2802 16.6441C56.4191 16.0537 60.197 17.7807 61.5604 21.7898C62.4207 25.2842 63.6131 30.5442 65.8855 37.2261L65.6893 37.263C59.8893 37.7445 54.5924 38.7407 49.4062 40.3255L49.21 40.3624C48.715 32.3306 47.6935 25.8197 47.4352 24.4464ZM39.1254 32.103L45.5625 30.6892C46.386 33.9874 47.4056 37.2487 48.4252 40.51C45.9118 41.1859 43.6683 42.2172 41.2286 43.2854C50.7696 44.3347 65.8387 41.2973 73.7949 37.1604C71.0969 36.8553 68.6689 36.9057 66.0817 37.1892C65.8468 33.7803 65.6119 30.3714 65.1808 26.9994L71.6917 25.978L75.6522 25.4362C77.0255 25.1779 78.3988 24.9196 79.4166 24.9313C81.8815 25.0771 84.2123 26.6699 84.8513 28.9872C85.2688 30.1274 85.3309 31.5376 85.5523 32.7147L86.0941 36.6752C89.8343 58.7215 94.1649 83.9066 96.4778 97.2839C96.5516 97.6763 96.4661 98.3017 96.5399 98.6941C96.2834 100.57 94.7761 102.276 93.0104 102.608L46.319 111.39C44.3572 111.759 42.5294 110.68 41.6088 109.026C41.3388 108.67 41.2281 108.082 41.1543 107.689C41.2281 108.082 35.3379 78.9241 35.2641 78.5318C26.558 35.4823 27.3833 42.0301 27.3698 39.7983C27.3194 37.3703 28.716 35.0764 30.9595 34.0451C32.0997 33.6275 33.473 33.3693 34.6501 33.1479L39.1254 32.103Z" fill="#FFB236"/>
<path d="M55.5315 28.6115C57.0389 26.9061 57.4177 24.6005 56.0309 22.627C55.5279 22.1123 55.0248 21.5975 54.0925 20.9604C53.4184 21.6965 53.1368 22.3589 52.892 23.2174C52.317 25.5599 53.5076 27.5703 55.5315 28.6115Z" fill="#FFB236"/>
</g>
<defs>
<clipPath id="clip0_1001_10726">
<rect width="105.8" height="105.8" fill="white" transform="translate(0 19.5557) rotate(-10.6518)"/>
</clipPath>
</defs>
</svg>
