<svg width="145" height="145" viewBox="0 0 145 145" fill="none" xmlns="http://www.w3.org/2000/svg">
<g clip-path="url(#clip0_1001_10758)">
<path d="M100.45 104.991C101.375 105.918 102.463 106.192 103.716 105.812C104.261 105.486 105.024 105.215 105.678 104.453C105.462 103.472 104.918 102.873 104.592 102.328C103.667 101.401 102.578 101.127 101.326 101.507C100.781 101.833 100.018 102.104 99.3635 102.866C99.7979 103.901 100.069 104.664 100.45 104.991ZM89.5644 100.404C89.781 101.384 90.3248 101.984 90.6509 102.529C91.5755 103.456 92.6643 103.729 93.9173 103.349C94.4622 103.023 95.2249 102.752 95.8793 101.99C95.6627 101.01 95.1189 100.41 94.7928 99.8653C93.8682 98.9384 92.7794 98.6648 91.5264 99.0445C90.9815 99.3706 90.2188 99.6419 89.5644 100.404ZM84.9937 97.4028C84.0691 96.4759 82.9803 96.2023 81.7273 96.582C81.1824 96.9081 80.4197 97.1794 79.7653 97.941C79.9819 98.9215 80.5257 99.5212 80.8518 100.066C81.7764 100.993 82.8652 101.267 84.1182 100.887C84.6631 100.561 85.4258 100.29 86.0802 99.5279C85.8636 98.5475 85.3198 97.9478 84.9937 97.4028Z" fill="#433C8C"/>
<path d="M126.416 67.9922L128.113 60.316C128.387 59.2272 129.428 54.164 129.318 54.5996C129.483 53.9463 129.647 53.293 129.593 52.585C129.597 49.8078 128.184 47.1377 126.062 45.4469C124.865 44.6831 123.613 44.137 122.307 43.8087L119.911 43.2067C120.021 42.7712 119.967 42.0632 119.314 41.899L102.773 30.3341C97.2234 26.6243 91.6734 22.9145 85.851 19.3677C91.0738 23.4583 96.5143 27.6037 101.737 31.6943L115.175 41.7851C114.195 42.0017 113.051 41.9458 112.071 42.1625C107.172 40.4683 102.273 38.7742 97.3193 37.2978C93.6721 36.1498 89.9703 35.2195 85.9959 34.4523C84.6894 34.124 83.6006 33.8503 82.2393 33.7398C83.2734 34.2311 84.0897 34.6678 85.1237 35.1591C84.6335 35.2675 84.361 35.4305 83.9255 35.3211C83.2175 35.3746 82.3465 35.1558 81.7479 34.7738L79.9523 33.6281C79.6262 33.0831 79.4632 32.8106 79.5179 32.5929C79.5726 32.3751 79.8451 32.2121 80.3901 31.886C80.8803 31.7777 81.5883 31.7241 82.514 31.7252C83.1673 31.8894 84.0931 31.8905 84.6916 32.2724C85.2902 32.6544 86.0518 33.3088 86.2684 34.2892C86.9228 33.5277 86.5978 32.0569 85.891 31.1848C85.1841 30.3126 84.2048 29.6035 83.1707 29.1121C82.1366 28.6208 80.7754 28.5102 79.5224 28.8898C78.3242 29.0517 76.6893 30.03 76.2515 31.772C75.8137 33.5141 76.792 35.149 77.7713 35.8581C78.6959 36.785 80.0025 37.1133 81.0913 37.3869C82.2348 37.4428 83.3783 37.4986 84.4682 36.8465C85.0132 36.5204 85.6128 35.9766 85.777 35.3233C89.3147 36.9069 92.8524 38.4904 96.4449 39.8562C99.1663 41.0031 101.942 41.9323 104.501 42.8067C102.595 43.0222 100.471 43.183 98.5096 43.6162L79.1748 45.9342L63.2329 34.7512C58.7169 31.5328 53.9833 28.2596 49.4126 25.2589L66.0248 22.7198C72.561 21.5842 79.3148 20.5033 85.851 19.3677C78.9888 19.9584 72.3443 20.6037 65.7546 21.0313L45.7666 23.1851C45.2763 23.2935 44.7314 23.6195 44.6219 24.055L42.2266 23.4531C40.9201 23.1248 39.6135 22.7964 38.1428 23.1214C35.4738 23.6082 32.9668 25.2933 31.6569 27.7422C31.2749 28.3408 31.1108 28.994 30.9466 29.6473C30.8372 30.0828 29.1966 35.6898 29.3061 35.2543L27.173 42.8211C20.8834 65.086 19.4606 70.7477 16.6709 80.9276C15.687 83.9215 16.3905 87.5709 18.2933 90.1327C19.381 91.332 20.4686 92.5314 21.9382 93.1322C23.027 93.4058 23.8433 93.8425 24.4966 94.0066L52.1518 100.956C51.9865 102.535 51.6035 104.06 50.7849 105.475C49.9663 106.889 48.9847 108.032 47.7853 109.119L44.3012 108.244C42.7769 107.861 41.2526 107.478 39.4558 107.258C37.659 107.038 35.7528 107.253 33.9549 107.959C30.4138 109.153 27.4701 111.654 25.9413 114.974C25.4499 116.008 26.102 117.098 26.9731 117.317C37.9704 119.617 48.75 121.863 59.8567 123.728C50.0588 120.34 40.1514 117.387 30.1892 114.652C32.4249 112.205 35.5305 110.902 38.9063 111.287C40.0498 111.343 41.7372 111.998 43.2615 112.381L61.4984 117.196L79.8448 121.575C81.3691 121.958 82.9481 122.123 84.1999 122.669C87.3569 123.925 89.4775 126.542 90.2904 129.756C81.3076 127.73 68.949 125.319 59.8567 123.728C69.0014 126.953 83.4818 131.054 91.9196 133.406C93.0084 133.68 93.8805 132.973 93.9364 131.83C94.1587 128.181 92.7472 124.585 90.1911 121.86C88.8857 120.605 87.3078 119.514 85.6752 118.641C83.7701 117.931 82.4635 117.603 80.9392 117.219L77.4551 116.344C76.9124 114.818 76.6422 113.13 76.535 111.714C76.4825 110.08 76.9203 108.338 77.4664 107.086L105.122 114.036C105.775 114.2 106.646 114.419 107.572 114.42C109.205 114.368 110.894 114.098 112.202 113.5C115.089 112.142 117.435 109.259 117.928 106.373L119.626 98.6972C121.762 88.3531 124.116 78.0638 126.416 67.9922ZM77.646 49.2542C78.0268 49.5814 78.4623 49.6908 78.7348 49.5278C96.9261 47.1539 95.5101 47.2611 102.209 46.398L99.6931 55.4891L98.927 58.5377C97.8371 59.1899 96.6389 59.3518 95.6584 59.5684C93.4797 59.9469 91.4651 59.6722 89.1781 59.5605C84.8766 59.174 80.6844 58.352 76.3293 57.2576C72.1919 56.2179 67.8915 54.9057 63.9182 53.2127C62.0679 52.2847 59.945 51.5197 58.2041 50.1561C57.2247 49.447 56.2454 48.7379 55.811 47.7027L56.5771 44.6541L58.6577 35.4535C64.153 39.3811 61.9765 37.9081 77.646 49.2542ZM98.5987 59.8443L97.6137 63.7639C97.4495 64.4172 96.9046 64.7432 96.1419 65.0146C94.7795 65.8298 93.091 66.1 91.1848 66.3155C89.2785 66.531 87.427 66.5287 85.6302 66.3087C81.9819 66.0864 78.2253 65.3739 74.5235 64.4436C70.8216 63.5133 67.1744 62.3653 63.8545 60.8365C62.1671 60.1809 60.5345 59.3076 58.9566 58.2166C57.3787 57.1255 56.0186 56.0892 55.2034 54.7268C54.6596 54.1271 54.606 53.4191 54.4977 52.9289L55.4827 49.0092C55.9718 49.8267 56.4609 50.6441 57.2225 51.2985C58.854 53.0976 60.8674 54.2981 62.8808 55.4986C66.9076 57.8996 71.208 59.2118 75.5085 60.524C79.8636 61.6184 84.546 62.3321 89.0117 62.0652C91.3534 61.9592 93.6952 61.8531 95.9833 61.0391C96.9638 60.8225 97.7813 60.3334 98.5987 59.8443ZM75.6036 116.342L49.0372 109.666C52.2522 107.927 54.3249 105.207 55.2004 101.722L73.7098 106.374C73.052 109.913 73.5925 113.29 75.6036 116.342ZM114.009 105.388C113.242 108.437 110.353 110.721 107.195 110.39C106.76 110.281 106.27 110.389 105.671 110.007L96.0898 107.599C95.872 107.545 65.2229 99.6109 65.6584 99.7204L35.1176 92.277L25.5363 89.8692C24.883 89.7051 24.4475 89.5956 24.0667 89.2684C21.1276 88.0668 19.6066 84.9065 20.3728 81.8579L21.8503 75.9784C29.2529 78.7647 36.5472 81.0608 44.114 83.1938C52.0616 85.6541 60.1186 87.6788 68.3934 89.7582C76.4505 91.783 84.5622 93.5899 92.8917 95.4516C100.568 97.1491 108.081 98.5742 115.922 99.6184L114.009 105.388ZM127.574 56.0133C127.465 56.4488 124.074 68.0983 124.238 67.445C118.549 88.2403 116.362 96.0249 115.541 99.2912C108.138 96.5049 100.844 94.2088 93.2771 92.0758C85.3295 89.6156 77.2724 87.5908 68.9976 85.5114C60.9406 83.4867 52.8288 81.6797 44.4993 79.818C36.8231 78.1205 29.3099 76.6954 21.4695 75.6512C22.1809 72.8203 23.9331 64.9263 28.8604 43.4766C28.9698 43.0411 31.4893 31.1728 31.3251 31.826C31.6535 30.5195 31.764 29.1582 32.2554 28.1241C33.2929 25.8383 35.3097 24.2615 37.7609 23.7199C39.7218 23.2867 41.8994 23.8339 43.8592 24.3264C43.7498 24.7619 43.8581 25.2521 44.2389 25.5794C45.3813 26.561 46.1976 26.9976 55.991 34.0889L53.256 44.051L51.0671 52.7613C50.9566 54.1226 51.3362 55.3755 51.9884 56.4655C53.3474 58.4275 54.8705 59.7364 56.6662 60.8821C58.4618 62.0279 60.0945 62.9012 61.9448 63.8292C65.4825 65.4128 69.3475 66.6155 73.2124 67.8183C77.132 68.8033 80.8886 69.5158 85.0272 69.6298C87.0964 69.6868 88.9479 69.689 91.0719 69.5283C93.1959 69.3675 95.1568 68.9342 97.282 67.8477C98.3719 67.1956 99.2988 66.2709 99.8449 65.0191L102.034 56.3088L104.333 46.2372C106.022 45.967 107.438 45.8598 109.126 45.5896C108.36 48.6382 107.866 51.5238 107.318 54.6271C106.606 58.3837 106.111 62.1951 105.616 66.0064C108.292 59.965 110.861 51.5819 112.503 45.0492C114.409 44.8337 116.588 44.4551 118.494 44.2397C118.767 44.0766 119.257 43.9683 119.312 43.7505L119.366 43.5328C121.544 44.08 123.504 44.5725 125.027 45.8813C126.931 47.5173 127.908 50.078 127.796 52.365C128.448 53.4549 127.902 54.7067 127.574 56.0133Z" fill="#433C8C"/>
</g>
<defs>
<clipPath id="clip0_1001_10758">
<rect width="119" height="119" fill="white" transform="translate(29.2949 0.292969) rotate(14.1063)"/>
</clipPath>
</defs>
</svg>
