<svg width="134" height="134" viewBox="0 0 134 134" fill="none" xmlns="http://www.w3.org/2000/svg">
<g clip-path="url(#clip0_1001_5965)">
<path d="M28.6743 57.056C29.4984 61.7992 31.2256 66.3464 33.6725 70.4786L28.5573 73.4707C27.9492 72.3139 27.3996 71.1289 26.9275 69.9135C26.7066 69.3405 26.0584 69.0563 25.4866 69.2786C25.3502 69.3316 25.2257 69.4109 25.1201 69.512C25.0144 69.6131 24.9297 69.7341 24.8708 69.8679C24.8119 70.0018 24.7799 70.1459 24.7767 70.2921C24.7735 70.4383 24.7991 70.5838 24.8521 70.7201C29.1564 81.8032 38.9594 90.7445 51.0747 94.6372C52.0794 94.9598 53.0854 95.2382 54.0919 95.5062L52.5717 102.682C52.0399 102.553 51.4077 102.395 50.6965 102.217C42.7149 100.221 38.0407 99.2612 36.1976 99.901C32.4345 101.209 31.7557 104.247 31.4153 106.992C30.7869 112.054 32.6746 113.777 36.1153 114.849C49.3525 118.976 63.1183 121.774 76.6322 124.516C78.6487 124.926 79.6507 124.02 79.9611 122.019L80.9423 115.68C81.7007 110.795 80.2407 109.031 76.0717 108.088L62.9897 105.081C63.0928 104.721 63.1844 104.357 63.2642 103.991L64.9585 97.343C72.8794 97.8965 80.5486 96.7141 87.3609 93.7966C100.634 88.1121 115.167 65.5237 113.207 47.2639C112.206 37.9472 109.977 30.5268 107.408 25.0331C107.146 24.4759 106.485 24.2338 105.927 24.4965C105.795 24.5584 105.676 24.6457 105.577 24.7536C105.478 24.8615 105.402 24.9878 105.352 25.1253C105.302 25.2627 105.28 25.4087 105.286 25.5548C105.293 25.7009 105.328 25.8443 105.39 25.9768C105.794 26.8411 106.173 27.736 106.539 28.6479C104.603 29.7982 102.575 30.7874 100.477 31.6054C95.4676 21.9835 86.1528 15.1026 75.5003 12.5922L75.499 12.5919C62.4659 9.50051 49.4306 13.3791 40.6651 21.4494C30.6317 30.6527 26.5126 44.7398 28.6743 57.056ZM31.374 41.8428C32.6565 42.3245 33.9827 42.73 35.3882 43.1693C38.6079 44.2008 42.475 45.8046 43.8185 49.0852C44.5878 50.9459 44.463 53.2292 44.8559 55.4828C45.2971 57.9836 46.7646 60.8389 49.591 61.388C52.1432 61.8897 54.4395 60.1668 55.7347 58.3926C56.9591 56.7312 57.6997 54.7762 58.809 53.2918C60.2033 51.4278 62.4707 50.1667 65.0298 49.8312C67.5797 49.4962 70.0896 50.1285 71.9145 51.5689C73.733 52.9986 74.9316 55.2839 75.2031 57.8389C75.4763 60.4084 74.7778 62.9116 73.29 64.7023C72.3955 65.7713 71.3231 66.6075 70.3495 67.8165C69.0872 69.4099 68.571 71.1268 68.8934 72.6451C69.4292 75.2422 72.1044 76.6475 74.5239 76.8823C76.7733 77.0911 78.65 76.6212 80.6501 76.7915C83.2496 77.0159 85.7672 78.5399 87.3045 80.7646C76.9388 89.0313 64.4938 90.4078 52.6085 84.8503C41.3068 79.6021 32.9767 68.8055 30.8689 56.6729C30.046 51.989 30.1847 46.8702 31.374 41.8428ZM46.0788 115.391C45.1546 115.145 44.234 114.889 43.3135 114.633L50.2035 104.39C51.2057 104.64 52.0639 104.855 52.6835 104.997L53.0247 105.075L46.0788 115.391ZM39.4356 113.515L46.23 103.42C47.256 103.661 48.2212 103.897 49.0546 104.104L42.1806 114.323C41.2619 114.063 40.3498 113.787 39.4356 113.515ZM36.4587 102.209L33.7918 106.176C34.1472 104.222 34.8164 102.946 36.4587 102.209ZM33.5336 108.555L37.9907 101.925C38.7662 101.954 39.8204 102.098 41.0148 102.312L34.6503 111.768C33.7031 111.018 33.5127 109.797 33.5336 108.555ZM35.622 112.317L42.2046 102.538C43.1381 102.723 44.1104 102.933 45.0691 103.151L38.318 113.182C37.8055 113.027 37.2886 112.882 36.7777 112.723C36.3528 112.59 35.9715 112.461 35.622 112.317ZM47.2171 115.693L54.1869 105.343L57.0198 105.994L50.0156 116.403C49.082 116.169 48.148 115.937 47.2171 115.693ZM69.0276 108.754L62.0061 119.202C61.0554 118.995 60.1044 118.778 59.1532 118.565L66.1949 108.103L69.0276 108.754ZM73.0323 109.674L66.0419 120.063C65.0884 119.862 64.134 119.657 63.179 119.452L70.1893 109.021L73.0323 109.674ZM57.987 118.304C57.0386 118.089 56.0913 117.868 55.1436 117.646L62.1895 107.182L65.0332 107.836L57.987 118.304ZM61.0275 106.915L53.9862 117.372C53.044 117.149 52.1023 116.925 51.1617 116.693L58.1816 106.261L61.0275 106.915ZM77.5961 122.397C77.5005 122.42 77.1919 122.358 77.0746 122.334C76.498 122.217 75.9164 122.098 75.3383 121.981L78.4216 117.407L77.7602 121.678C77.6726 122.242 77.5829 122.387 77.5961 122.397ZM78.8158 114.829L74.1574 121.74C73.1995 121.546 72.2424 121.35 71.2811 121.153L78.0017 111.171C79.1083 111.995 79.0007 113.465 78.8158 114.829ZM75.5718 110.258C76.09 110.378 76.5687 110.506 77.0036 110.66L70.1031 120.909C69.1412 120.711 68.1801 120.514 67.2158 120.312L74.194 109.942L75.5718 110.258ZM60.8349 104.511L60.8153 104.581L54.7409 103.185L56.2532 96.0475C58.3837 96.5325 60.5399 96.8969 62.7115 97.1388L61.0972 103.473C61.0216 103.822 60.9341 104.168 60.8349 104.511ZM110.991 47.5018C112.824 64.5768 98.8134 86.4689 86.4837 91.7496C76.224 96.1438 63.8936 96.4148 51.7562 92.5171C42.3644 89.4994 34.4491 83.2948 29.6526 75.41L34.8625 72.3625C39.0019 78.5674 44.8137 83.6872 51.6668 86.8692C64.4949 92.8644 78.2353 91.3219 89.488 81.8846C93.8025 78.285 97.4217 73.7456 99.9545 68.7567C99.9547 68.756 99.9548 68.7556 99.956 68.7553C102.259 64.2031 103.726 59.3381 104.317 54.3016C105.122 47.783 104.387 41.2548 102.189 35.4227C101.959 34.8112 101.705 34.2116 101.442 33.6171C103.478 32.815 105.451 31.8596 107.342 30.7592C109.106 35.733 110.33 41.3416 110.991 47.5018ZM76.1291 15.0597C87.3412 18.0713 96.2409 25.9501 100.106 36.2087C101.984 41.1912 102.781 47.0428 102.204 52.9928C99.7073 52.6512 97.4611 50.9667 96.7359 48.7939C96.5698 48.3004 96.4547 47.7526 96.3322 47.1724C96.0085 45.6376 95.6417 43.8972 94.1481 42.8134C92.4651 41.6053 90.5577 42.012 88.6001 42.4898C87.3052 42.8057 86.0903 43.1076 85.079 42.7737C83.4151 42.2319 82.6749 39.9759 82.192 38.8298C81.5406 37.0836 80.8026 35.1043 79.088 33.9048C77.3791 32.71 75.035 32.5189 72.1261 33.3377C70.1225 33.8906 68.2535 34.7141 66.3986 34.6607C63.3433 34.5612 60.5471 31.6169 60.5213 28.4857C60.5033 25.368 63.0671 22.3665 66.2386 21.7949C67.7343 21.5242 69.3759 21.6958 71.0401 21.1505C73.5212 20.3254 75.4292 17.9996 76.1291 15.0597ZM42.1721 23.0891C50.0948 15.7968 61.8481 12.0334 73.9609 14.5523C73.4398 16.7455 72.0848 18.4555 70.3423 19.0357C69.0833 19.4485 67.4174 19.3182 65.842 19.6038C61.5849 20.3712 58.2694 24.278 58.2942 28.5014C58.3298 32.8313 62.0843 36.7493 66.3297 36.8868C68.6371 36.9539 70.7188 36.0356 72.7255 35.4831C74.9614 34.852 76.6762 34.936 77.8117 35.7299C78.9586 36.5323 79.542 38.0961 80.1061 39.6085C80.9545 41.5717 81.8472 44.0638 84.385 44.8901C85.986 45.4121 87.6576 45.0137 89.1287 44.6536C90.6356 44.2852 91.9378 43.9666 92.8445 44.619C93.6401 45.196 93.8777 46.3251 94.1528 47.6319C94.284 48.2494 94.4177 48.8873 94.6249 49.5012C95.5184 52.1784 97.9372 54.2553 100.835 54.9939C101.198 55.0862 101.569 55.1518 101.944 55.2006C101.307 59.5705 99.9646 63.8081 97.9699 67.7481C95.7642 72.0923 92.68 76.067 89.0205 79.3318C87.097 76.634 84.0701 74.8462 80.8395 74.573C78.79 74.3973 76.5818 74.8362 74.7364 74.6652C73.1838 74.5126 71.3794 73.675 71.0737 72.1881C70.8262 71.0235 71.6076 69.8159 72.0893 69.2067C72.8771 68.2289 74.079 67.2274 75.0001 66.13C76.8721 63.8755 77.7539 60.7674 77.4175 57.6039C77.0832 54.4549 75.5797 51.6173 73.2915 49.8192C71.0015 48.011 67.8833 47.2115 64.7394 47.6229C61.5882 48.0358 58.777 49.6162 57.0253 51.9587C55.718 53.707 55.1038 55.4954 53.9383 57.0746C53.0858 58.244 51.5483 59.5031 50.0148 59.2013C48.3225 58.866 47.3468 56.7846 47.0495 55.0972C46.6728 52.9441 46.8142 50.4997 45.8784 48.2378C44.1682 44.0625 39.4598 42.1347 36.0616 41.0461C35.0145 40.7105 33.6913 40.3229 31.9648 39.6605C33.8872 33.1957 37.3887 27.4769 42.1721 23.0891Z" fill="#FFB236"/>
<path d="M39.6102 69.9178C43.6332 75.4115 49.3593 79.7484 55.7354 82.1297C55.8039 82.1554 55.8767 82.1673 55.9498 82.1647C56.0229 82.1622 56.0948 82.1452 56.1613 82.1149C56.2279 82.0845 56.2877 82.0413 56.3376 81.9877C56.3874 81.9342 56.4261 81.8713 56.4516 81.8028C56.5031 81.6644 56.4976 81.5113 56.4363 81.377C56.375 81.2428 56.2629 81.1383 56.1247 81.0866C49.9505 78.7808 44.4038 74.5806 40.5095 69.2607C36.6161 63.9414 34.289 57.3863 33.956 50.801C33.9523 50.7279 33.9342 50.6564 33.9028 50.5904C33.8715 50.5243 33.8274 50.4651 33.7731 50.4161C33.7189 50.3671 33.6555 50.3293 33.5866 50.3048C33.5177 50.2803 33.4447 50.2696 33.3717 50.2733C33.2987 50.277 33.2271 50.2951 33.1611 50.3265C33.0951 50.3578 33.0359 50.4019 32.9869 50.4562C32.9379 50.5104 32.9 50.5738 32.8755 50.6427C32.851 50.7115 32.8403 50.7846 32.8441 50.8576C33.1876 57.6563 35.5903 64.4255 39.6102 69.9178ZM57.7434 82.7457L58.4464 82.9248C58.7447 83.0009 59.0474 82.8211 59.1234 82.5228C59.1995 82.2245 59.0197 81.9217 58.7214 81.8457L58.0184 81.6666C57.7201 81.5905 57.4173 81.7703 57.3413 82.0686C57.2653 82.3669 57.4451 82.6697 57.7434 82.7457Z" fill="#FFB236"/>
<path d="M55.5515 78.7367C55.6197 78.763 55.6924 78.7757 55.7655 78.7739C55.8385 78.7722 55.9106 78.756 55.9774 78.7264C56.0443 78.6968 56.1046 78.6544 56.1551 78.6014C56.2055 78.5485 56.245 78.4862 56.2713 78.418C56.2978 78.3498 56.3105 78.2771 56.3088 78.204C56.3071 78.1309 56.291 78.0588 56.2615 77.992C56.2319 77.9251 56.1895 77.8647 56.1366 77.8142C56.0837 77.7637 56.0214 77.7242 55.9532 77.6978C47.8092 74.5472 41.4342 68.0215 39.3166 60.6666C39.2964 60.5963 39.2625 60.5307 39.2169 60.4735C39.1713 60.4163 39.1148 60.3686 39.0508 60.3332C38.9868 60.2978 38.9164 60.2754 38.8437 60.2672C38.771 60.259 38.6974 60.2652 38.6271 60.2855C38.5568 60.3057 38.4912 60.3396 38.434 60.3852C38.3768 60.4308 38.3291 60.4873 38.2937 60.5513C38.2583 60.6153 38.2359 60.6857 38.2277 60.7584C38.2195 60.8311 38.2257 60.9047 38.2459 60.975C40.4587 68.657 47.0888 75.4628 55.5515 78.7367ZM78.191 21.625C85.2511 24.2991 91.2299 29.3669 95.0265 35.8937C95.0632 35.957 95.112 36.0124 95.1701 36.0568C95.2283 36.1012 95.2946 36.1337 95.3652 36.1524C95.4359 36.1712 95.5096 36.1758 95.5821 36.1661C95.6545 36.1563 95.7244 36.1324 95.7876 36.0957C95.915 36.0211 96.0077 35.8991 96.0453 35.7564C96.0829 35.6137 96.0624 35.4619 95.9883 35.3343C92.0639 28.5868 85.884 23.3483 78.5866 20.5835C78.3052 20.4764 77.9772 20.6184 77.8679 20.9071C77.8155 21.0452 77.8202 21.1983 77.8808 21.333C77.9414 21.4676 78.053 21.5727 78.191 21.625ZM40.9791 32.5946C41.0458 32.6246 41.1178 32.6412 41.1909 32.6433C41.264 32.6454 41.3369 32.6331 41.4052 32.6071C41.4736 32.581 41.5361 32.5417 41.5893 32.4914C41.6424 32.4411 41.6851 32.3808 41.7149 32.314C43.7698 27.7335 48.1087 24.2985 53.0393 23.3503C53.1111 23.3365 53.1796 23.3087 53.2406 23.2684C53.3017 23.2281 53.3542 23.1762 53.3952 23.1156C53.4362 23.055 53.4649 22.987 53.4795 22.9153C53.4942 22.8436 53.4945 22.7697 53.4806 22.6979C53.4669 22.6261 53.4392 22.5576 53.399 22.4965C53.3588 22.4353 53.307 22.3828 53.2464 22.3417C53.1858 22.3007 53.1178 22.272 53.0461 22.2574C52.9744 22.2427 52.9006 22.2424 52.8288 22.2563C47.5474 23.2729 42.8996 26.9519 40.6995 31.8591C40.6391 31.9937 40.6346 32.1468 40.687 32.2847C40.7394 32.4227 40.8445 32.5341 40.9791 32.5946Z" fill="#FFB236"/>
</g>
<defs>
<clipPath id="clip0_1001_5965">
<rect width="109.606" height="109.606" fill="white" transform="translate(27.0664) rotate(14.2971)"/>
</clipPath>
</defs>
</svg>
