<svg width="158" height="171" viewBox="0 0 158 171" fill="none" xmlns="http://www.w3.org/2000/svg">
<path d="M147.371 69.2526C147.535 68.9673 147.599 68.6358 147.554 68.3099C148.525 66.4076 149.155 57.5646 147.309 51.0762C145.809 45.7715 142.45 41.1836 137.847 38.1506C137.65 38.0265 137.429 37.9475 137.198 37.9194C136.382 37.0924 139.563 38.9385 83.3172 11.4815C82.8457 11.2522 82.3547 11.1308 81.8623 11.0605C79.8359 10.4226 77.4761 11.2092 75.8446 12.6394C73.6307 14.5807 72.9211 16.4594 67.2714 27.9945C61.0831 25.6091 51.4139 20.5262 47.245 26.592C45.3602 29.3352 46.7731 25.7934 18.1167 118.545C17.2645 121.297 16.4044 124.201 17.0041 127.017C17.3695 128.725 19.1311 132.058 21.813 132.9C97.2385 155.691 94.2082 155.768 98.1642 154.832C101.501 154.043 102.616 150.465 103.54 147.285C108.404 148.377 110.321 145.741 112.421 141.175C113.533 138.787 147.112 69.8577 147.371 69.2526ZM144.259 51.9432C145.427 56.0564 145.631 61.7155 144.829 66.147C132.42 60.051 131.281 60.5077 130.609 58.5749C129.909 56.5725 131.002 56.4387 137.721 41.9942C140.867 44.5639 143.15 48.0353 144.259 51.9432ZM97.4321 151.746C94.901 152.344 98.6787 153.016 22.7416 129.865C21.4923 129.485 20.7823 128.442 21.2809 126.46C22.4773 121.706 28.4924 103.921 51.8436 28.6013C52.1617 27.59 53.1785 27.0221 54.1469 27.3076L65.8561 30.8793L31.0698 101.924C29.7535 104.61 28.4927 107.269 29.6887 109.537C30.9928 112.012 33.6688 113.706 34.1916 113.961C106.582 149.181 99.54 145.771 100.54 146.234C100.003 148.062 99.2144 151.325 97.4321 151.746ZM100.498 142.701L35.5788 111.109C34.3527 110.513 33.8588 108.991 34.4785 107.718L79.4721 15.2388C79.9364 14.2845 81.0137 13.8871 81.928 14.332C138.555 41.972 135.16 40.0101 134.977 40.3865L127.895 54.9436C127.175 56.4225 127.075 58.0828 127.616 59.6227C127.957 60.5947 128.101 61.6218 129.505 63.0853C133.595 67.3531 141.228 67.4018 140.376 76.3908C114.476 129.675 110.397 137.985 109.538 139.852C107.247 144.833 106.31 145.618 100.498 142.701Z" fill="#29A55C"/>
<path d="M96.3597 105.439C86.0754 107.38 83.4448 122.794 93.9834 127.921C102.104 131.872 110.522 126.03 111.077 118.26C111.636 110.542 103.721 104.051 96.3597 105.439ZM101.277 125.806C97.7279 126.656 93.725 125.012 91.7598 121.905C88.6144 116.933 91.2912 109.628 96.9465 108.553C102.346 107.543 108.318 112.456 107.914 118.031C107.659 121.624 104.804 124.969 101.277 125.806Z" fill="#29A55C"/>
<path d="M101.53 117.628C101.475 117.693 101.271 117.702 101.196 117.638C101.044 117.549 100.746 117.282 100.447 116.471C99.9389 115.1 98.2087 115.013 97.5627 116.119C97.6081 115.909 97.6714 115.703 97.7517 115.503C97.9024 115.112 97.8942 114.678 97.729 114.292C97.5637 113.907 97.2544 113.602 96.8671 113.441C93.6957 112.176 93.039 120.334 97.6108 120.214C98.0579 120.204 98.499 120.08 98.9013 119.862C100.466 121.293 102.713 121.086 103.914 119.719C105.297 118.144 102.919 116.054 101.53 117.628ZM77.3998 107.184C77.1363 107.078 76.8492 107.045 76.5685 107.088C76.2878 107.131 76.0238 107.248 75.8041 107.428C75.5845 107.608 75.4171 107.844 75.3197 108.111C75.2222 108.377 75.1982 108.665 75.2501 108.945C75.4599 110.074 75.6759 111.244 75.4455 112.23C75.2692 112.979 74.7295 113.605 74.2129 113.652C73.6755 113.703 72.9946 113.073 72.787 112.33C71.9173 109.199 76.5637 104.094 72.7677 100.16C70.2051 97.5027 65.7838 99.381 65.6712 104.352C65.6305 106.002 65.9898 107.747 65.4573 108.861C64.8555 110.127 62.9698 110.523 61.6863 110.03C60.2519 109.49 59.0314 108.017 58.4198 106.104C57.8053 104.188 57.7781 102.026 57.7526 99.9379C57.7356 97.8421 54.5545 97.8765 54.5839 99.976C54.6108 102.192 54.6379 104.702 55.4001 107.073C57.8582 114.743 66.0189 115.06 68.3197 110.225C69.2728 108.223 68.8038 106.123 68.8383 104.424C68.8697 103.219 69.6574 101.494 70.4846 102.359C72.659 104.616 68.4982 108.728 69.7301 113.178C70.3646 115.449 72.4227 117.008 74.5156 116.808C76.5811 116.612 78.242 114.754 78.599 112.629C78.7256 112.968 78.8061 113.324 78.8336 113.683C78.998 115.766 82.1607 115.528 81.9971 113.429C81.7805 110.714 79.9408 108.194 77.3998 107.184ZM80.3456 37.3574L117.869 55.6138C119.757 56.5322 121.144 53.6808 119.257 52.7625L81.7329 34.506C79.8472 33.5886 78.458 36.439 80.3456 37.3574ZM118.203 73.9224L71.0587 50.9854C70.6806 50.8014 70.2449 50.7752 69.8475 50.9125C69.45 51.0498 69.1234 51.3393 68.9394 51.7174C68.7555 52.0955 68.7292 52.5312 68.8665 52.9287C69.0038 53.3261 69.2933 53.6528 69.6715 53.8367L116.816 76.7738C118.701 77.6912 120.091 74.8408 118.203 73.9224ZM94.9149 82.2148L66.6447 68.4605C66.2666 68.2765 65.8309 68.2503 65.4335 68.3876C65.036 68.5249 64.7094 68.8144 64.5254 69.1926C64.3414 69.5707 64.3152 70.0064 64.4525 70.4038C64.5898 70.8013 64.8793 71.1279 65.2575 71.3119L93.5277 85.0661C95.4134 85.9836 96.8025 83.1332 94.9149 82.2148ZM65.1513 82.455C64.7732 82.2711 64.3375 82.2448 63.94 82.3821C63.5426 82.5194 63.2159 82.809 63.032 83.1871C62.848 83.5652 62.8218 84.0009 62.9591 84.3983C63.0964 84.7958 63.3859 85.1224 63.764 85.3064L72.5253 89.569C72.9034 89.7529 73.3391 89.7792 73.7365 89.6419C74.134 89.5046 74.4606 89.2151 74.6446 88.8369C74.8286 88.4588 74.8548 88.0231 74.7175 87.6257C74.5802 87.2282 74.2907 86.9016 73.9125 86.7176L65.1513 82.455Z" fill="#29A55C"/>
</svg>
