<svg width="187" height="94" viewBox="0 0 187 94" fill="none" xmlns="http://www.w3.org/2000/svg">
<path d="M186.761 1.68239C187.036 1.20381 186.872 0.592392 186.393 0.316762C185.915 0.0411316 185.303 0.205661 185.028 0.684249L186.761 1.68239ZM38.4327 11.7964L39.4224 11.9399L38.4327 11.7964ZM0.299215 88.4689C0.0534927 88.9635 0.255258 89.5637 0.749871 89.8094L8.80999 93.8137C9.3046 94.0594 9.90476 93.8577 10.1505 93.3631C10.3962 92.8684 10.1944 92.2683 9.69984 92.0226L2.53528 88.4632L6.09466 81.2986C6.34038 80.804 6.13862 80.2039 5.644 79.9581C5.1494 79.7124 4.54924 79.9142 4.30352 80.4088L0.299215 88.4689ZM185.028 0.684249C179.767 9.81878 167.568 18.6142 152.132 25.7712C136.742 32.907 118.312 38.3321 100.816 40.8269C83.2914 43.3258 66.8387 42.8653 55.3296 38.3606C49.5908 36.1144 45.142 32.8872 42.366 28.5803C39.5981 24.2862 38.4256 18.8147 39.4224 11.9399L37.4431 11.6529C36.3899 18.9168 37.6106 24.8943 40.6849 29.6639C43.751 34.4207 48.5934 37.8718 54.6007 40.223C66.5839 44.9133 83.4433 45.3243 101.098 42.8069C118.782 40.2853 137.4 34.8062 152.973 27.5856C168.5 20.3862 181.18 11.3731 186.761 1.68239L185.028 0.684249ZM39.4224 11.9399C39.9524 8.28401 41.1182 6.68927 42.1991 6.20682C43.2216 5.75036 44.7104 6.07598 46.5093 7.71345C50.0554 10.9414 53.6949 18.3837 54.4207 27.8184C55.1424 37.2007 52.9686 48.4438 45.0452 59.224C37.1187 70.0084 23.3864 80.3984 0.876134 87.966L1.51345 89.8617C24.3121 82.1972 38.4298 71.6018 46.6568 60.4085C54.8869 49.2109 57.1701 37.484 56.4148 27.6651C55.6635 17.8986 51.892 9.90868 47.8556 6.23445C45.8632 4.42082 43.5179 3.42789 41.3838 4.38051C39.3079 5.30716 37.9945 7.84918 37.4431 11.6529L39.4224 11.9399Z" fill="#29A55C"/>
</svg>
