<svg width="125" height="125" viewBox="0 0 125 125" fill="none" xmlns="http://www.w3.org/2000/svg">
<g clip-path="url(#clip0_1001_7716)">
<path d="M107.358 34.108C107.316 30.8575 105.512 27.961 102.926 26.24C101.985 25.6142 101.124 25.38 100.066 25.1851C97.4807 24.4824 51.5015 22.7206 48.0552 22.8019C46.2538 22.9601 44.3747 23.745 42.9657 24.8428C41.5961 26.1364 40.6968 27.7428 40.4634 29.6229C40.2292 30.4847 40.3865 31.2678 40.3481 32.0903L40.2327 34.5576C40.1951 36.3984 40.1575 38.2391 40.1593 40.2755L35.9228 32.3682C35.2559 31.0764 34.3539 29.6281 33.2955 28.415C29.6499 24.4627 23.7746 23.6061 19.3512 25.9206C16.1802 27.3724 13.7155 30.3117 12.7392 33.5631C11.3714 36.8932 11.9229 40.6524 13.7662 43.7447L16.3551 48.5204L15.9636 48.5991C13.3406 49.7371 11.4632 52.5584 11.2307 55.4567C11.1923 56.2792 11.3103 56.8665 11.2718 57.689C11.3505 58.0806 12.256 63.6018 12.2167 63.406L15.0495 78.5206C15.6395 81.4573 13.1213 67.909 20.3611 106.988C20.5185 107.771 20.6758 108.554 21.2247 109.258C22.6371 112.234 25.6936 114.268 28.9835 114.421C30.4326 114.538 27.6917 115.088 78.5558 104.666L80.5136 104.273C81.2967 104.115 82.0405 103.762 82.7843 103.409C85.7595 101.997 87.5976 98.9795 87.7514 95.6897C87.7898 94.8672 87.6325 94.0841 87.4752 93.301L87.0032 90.9516C89.7057 91.2234 92.2124 91.5345 94.9149 91.8063C98.4006 91.9208 101.962 89.3721 103.056 85.6898L103.407 84.3971C103.484 82.7522 104.844 70.2579 107.358 34.108ZM15.3246 34.2658C16.0273 31.6805 17.7876 29.29 20.1361 27.7997C22.5239 26.5053 25.6958 26.0718 28.5163 26.9309C31.3368 27.7901 33.6101 29.9813 35.179 32.7213L40.0029 40.5107C40.0431 41.7247 39.9268 43.1738 39.967 44.3879C38.4008 44.7025 36.991 44.7821 35.4247 45.0967L32.64 40.3604C32.6007 40.1646 28.7182 34.0193 28.9927 34.3715C28.4044 33.4713 27.4246 32.6497 26.5628 32.4155C24.5648 31.5948 22.0983 32.4976 21.0425 34.3392C20.1422 34.9275 19.9473 35.985 19.9482 37.0033C19.9491 38.0215 20.5767 39.1176 21.0862 39.6262L25.5569 46.6718C25.3611 46.7111 19.6441 47.656 20.0357 47.5773L16.6628 41.9407C15.1725 39.5922 14.6219 36.8512 15.3246 34.2658ZM27.3985 47.7276L31.4706 46.7058L32.4495 46.5092L38.8824 58.2526C39.9024 60.2882 39.2391 63.0694 37.5172 64.6374C35.7954 66.2054 32.9758 66.3645 31.0949 65.1129C29.4491 64.0178 21.6046 50.3174 21.5652 50.1216L20.977 49.2213C21.5644 49.1033 26.8112 47.8456 26.4196 47.9243C28.1449 50.4292 29.6745 52.9735 31.3999 55.4785L27.3985 47.7276ZM31.2739 45.7269L26.7316 46.4358L22.7303 38.6849C22.3771 37.9411 22.1027 37.5889 22.1805 36.9622C22.2583 36.3355 22.3754 35.9046 22.6883 35.4344C23.3141 34.4939 24.4888 34.2579 25.3899 34.688C25.8208 34.8051 26.0953 35.1573 26.409 35.7053C26.4484 35.9011 29.9786 42.3208 29.7042 41.9686L31.6655 45.6483L31.2739 45.7269ZM101.175 84.4382C101.253 84.8298 101.097 85.0649 100.98 85.4958C100.512 88.2376 97.9688 90.7854 94.7576 91.0232C92.0944 90.9472 89.4706 91.0669 86.8074 90.9909L86.1781 87.8584C86.1388 87.6626 79.7687 57.9823 79.7294 57.7865C79.69 57.5908 76.859 44.5127 76.8983 44.7084C76.741 43.9253 76.4272 43.3773 76.0741 42.6335C74.7403 40.0499 71.9583 38.3682 69.0993 38.3316C68.4726 38.2538 67.6895 38.4111 67.1021 38.5291L65.1443 38.9224C59.8975 40.1802 55.3945 41.0848 46.4672 43.2857C51.5969 42.4588 56.5308 41.6713 61.6604 40.8444C62.8351 40.6084 67.5733 39.8602 67.3775 39.8996C67.9648 39.7816 68.5522 39.6636 69.1788 39.7414C71.4504 39.8961 73.6058 41.4999 74.3907 43.379C74.7045 43.9271 74.7832 44.3186 74.9011 44.906C74.9405 45.1018 77.38 58.2585 77.3406 58.0627C77.9699 61.1953 75.2945 46.8638 83.0062 88.2919L84.1469 93.9696C84.2649 94.557 84.3436 94.9485 84.2264 95.3794C84.1889 97.2201 82.9373 99.101 81.0581 99.8859C80.5494 100.395 80.1579 100.474 79.5705 100.592C27.8446 110.78 30.4291 110.465 29.2151 110.505C27.3744 110.467 25.4934 109.216 24.5521 107.572C23.9639 106.671 24.6316 108.981 14.8012 63.0905C14.5652 61.9158 13.4254 57.2563 13.4648 57.4521C13.3468 56.8648 13.2681 56.4732 13.3459 55.8465C13.3048 53.6143 14.7129 51.4982 16.7485 50.4782C16.9442 50.4389 17.14 50.3996 17.2965 50.1644L18.2771 52.0043C26.4354 66.2527 26.161 65.9004 26.7099 66.6049C27.2588 67.3094 28.0034 67.9745 28.9439 68.6003C32.2355 70.7906 37.013 70.2382 39.9479 67.6117C42.8829 64.9852 43.9754 60.2847 42.2492 56.7615C41.6216 55.6655 37.3074 48.3848 37.3467 48.5806L35.7778 45.8405C39.2626 44.9368 42.7867 44.2288 46.4672 43.2857C44.3136 43.7183 42.1206 43.9552 39.967 44.3879C40.7842 38.3168 40.8996 35.8495 41.4056 32.2852C41.4441 31.4627 41.4825 30.6402 41.7561 29.9742C42.0681 28.4857 42.811 27.1144 43.8677 26.291C44.9244 25.4677 46.4514 24.9573 47.8612 24.8777C48.057 24.8384 98.9727 28.8674 99.1685 28.8281C99.7952 28.9059 100.265 29.2188 100.736 29.5317C101.676 30.1575 102.695 31.1748 102.931 32.3495C103.206 32.7017 102.977 39.673 101.175 84.4382Z" fill="#29A55C"/>
</g>
<defs>
<clipPath id="clip0_1001_7716">
<rect width="105.838" height="105.838" fill="white" transform="translate(0 20.8462) rotate(-11.3594)"/>
</clipPath>
</defs>
</svg>
