<svg width="97" height="97" viewBox="0 0 97 97" fill="none" xmlns="http://www.w3.org/2000/svg">
<path d="M94.8772 17.7337L88.7553 20.7708C87.6981 21.2934 88.0699 22.894 89.2525 22.894C89.7214 22.894 89.4362 22.8851 95.8716 19.7405C96.0044 19.6758 96.1232 19.5855 96.2209 19.4748C96.3187 19.364 96.3936 19.2351 96.4413 19.0953C96.489 18.9555 96.5085 18.8076 96.4988 18.6602C96.4891 18.5128 96.4504 18.3688 96.3848 18.2364C96.3192 18.1041 96.2281 17.986 96.1167 17.889C96.0053 17.792 95.8758 17.718 95.7356 17.6713C95.5955 17.6246 95.4475 17.606 95.3002 17.6167C95.1529 17.6274 95.0091 17.6672 94.8772 17.7337ZM49.8662 12.8287C30.4463 10.1291 13.1302 27.2197 12.1328 46.8053C11.1144 66.7688 26.4909 85.1121 46.2124 84.4447C68.6575 83.6877 82.3407 71.305 83.7532 50.4755C85.0149 31.8768 70.4463 15.6926 49.8662 12.8287ZM81.5658 49.2093H79.0647C78.7677 49.2093 78.4829 49.3273 78.2729 49.5373C78.0629 49.7473 77.9449 50.0322 77.9449 50.3292C77.9449 50.6262 78.0629 50.911 78.2729 51.121C78.4829 51.3311 78.7677 51.449 79.0647 51.449H81.397C80.6116 59.9301 77.591 66.8524 72.6173 71.9724C72.6981 71.7693 72.7177 71.5469 72.6737 71.3328C72.6296 71.1187 72.5239 70.9222 72.3694 70.7674L71.3078 69.7058C71.2053 69.5958 71.0817 69.5075 70.9443 69.4463C70.8069 69.3851 70.6586 69.3522 70.5083 69.3495C70.3579 69.3469 70.2086 69.3745 70.0691 69.4309C69.9297 69.4872 69.803 69.571 69.6967 69.6774C69.5903 69.7837 69.5065 69.9104 69.4502 70.0498C69.3938 70.1893 69.3662 70.3386 69.3688 70.489C69.3715 70.6394 69.4044 70.7876 69.4656 70.925C69.5268 71.0624 69.6151 71.186 69.7251 71.2885L70.7852 72.3502C70.9399 72.5057 71.137 72.6121 71.3518 72.6562C71.5667 72.7003 71.7898 72.6801 71.9932 72.598C66.7433 77.6792 59.4806 80.8701 50.4769 81.878V78.7722C50.4769 78.4752 50.3589 78.1904 50.1489 77.9803C49.9389 77.7703 49.654 77.6523 49.357 77.6523C49.06 77.6523 48.7752 77.7703 48.5652 77.9803C48.3551 78.1904 48.2372 78.4752 48.2372 78.7722C48.2521 80.7581 48.2088 81.6659 48.2715 82.0601C47.5608 82.1109 46.8649 82.1796 46.1363 82.205C38.9931 82.4842 32.1126 79.9802 26.4805 75.2021C27.2061 75.1215 27.2046 74.7198 29.6489 72.3994C29.7558 72.2961 29.8411 72.1725 29.8997 72.0358C29.9583 71.8992 29.9892 71.7522 29.9904 71.6035C29.9916 71.4548 29.9632 71.3074 29.9068 71.1698C29.8504 71.0322 29.7672 70.9072 29.662 70.8021C29.5568 70.697 29.4318 70.6139 29.2941 70.5576C29.1565 70.5014 29.009 70.4731 28.8603 70.4745C28.7116 70.4759 28.5647 70.5068 28.4281 70.5656C28.2915 70.6243 28.1679 70.7097 28.0647 70.8167C25.8623 73.1505 25.2785 73.2834 25.2471 74.0628C19.2894 68.456 15.7148 61.0186 14.6562 53.2901H19.7941C20.0911 53.2901 20.376 53.1721 20.586 52.9621C20.796 52.7521 20.914 52.4672 20.914 52.1702C20.914 51.8732 20.796 51.5884 20.586 51.3784C20.376 51.1684 20.0911 51.0504 19.7941 51.0504C17.4499 51.0578 14.8085 51.031 14.4233 51.0728C13.8588 43.2487 16.0538 35.7277 20.2794 29.3877C20.3281 29.4946 20.3936 29.5929 20.4735 29.6789C23.7136 32.7742 23.8659 33.4342 24.6917 33.4342C24.913 33.434 25.1293 33.3682 25.3133 33.2451C25.4973 33.1221 25.6407 32.9472 25.7253 32.7427C25.81 32.5382 25.8322 32.3132 25.7891 32.0961C25.7459 31.879 25.6394 31.6796 25.483 31.5229L22.0562 28.0947C21.8792 27.9253 21.6505 27.8202 21.4067 27.796C27.1897 20.0675 35.9321 14.8848 45.5793 14.7997C45.5286 15.1685 45.5584 17.0274 45.5495 18.5549C45.5495 18.8519 45.6675 19.1368 45.8775 19.3468C46.0875 19.5568 46.3723 19.6748 46.6693 19.6748C46.9663 19.6748 47.2512 19.5568 47.4612 19.3468C47.6712 19.1368 47.7892 18.8519 47.7892 18.5549C47.7832 16.914 47.8041 15.2566 47.7713 14.8624C56.5256 15.4955 66.3386 19.621 73.1265 27.0315L70.7867 29.3698C70.6767 29.4723 70.5884 29.596 70.5272 29.7333C70.466 29.8707 70.4331 30.019 70.4305 30.1694C70.4278 30.3197 70.4555 30.4691 70.5118 30.6085C70.5681 30.748 70.6519 30.8746 70.7583 30.981C70.8646 31.0873 70.9913 31.1712 71.1307 31.2275C71.2702 31.2838 71.4195 31.3115 71.5699 31.3088C71.7203 31.3062 71.8686 31.2733 72.0059 31.212C72.1433 31.1508 72.2669 31.0626 72.3694 30.9526L74.5853 28.7382C79.22 34.5167 81.8047 41.6241 81.5658 49.2093Z" fill="#29A55C"/>
<path d="M61.4828 47.4399C57.5544 46.3499 54.0141 48.1656 50.4903 47.419C50.1155 46.0662 48.9911 44.9941 47.6473 44.5775V24.4305C47.6473 24.1334 47.5293 23.8486 47.3193 23.6386C47.1093 23.4286 46.8245 23.3106 46.5274 23.3106C46.2304 23.3106 45.9456 23.4286 45.7356 23.6386C45.5256 23.8486 45.4076 24.1334 45.4076 24.4305V44.5581C43.459 45.1509 42.1869 47.307 42.6244 49.3004C43.0618 51.2922 45.1328 52.7436 47.1904 52.436C48.6776 52.2105 49.9079 51.0802 50.3977 49.6916C54.1604 50.3217 57.7843 48.7434 60.8841 49.6005C61.1677 49.6723 61.4682 49.6302 61.7212 49.4833C61.9742 49.3363 62.1597 49.0962 62.2379 48.8143C62.3161 48.5324 62.2809 48.231 62.1398 47.9747C61.9987 47.7184 61.7629 47.5275 61.4828 47.4429V47.4399ZM77.0325 1.03726L75.0959 9.73636C75.0439 10.0212 75.1042 10.3151 75.2642 10.5564C75.4242 10.7977 75.6714 10.9676 75.954 11.0306C76.2366 11.0936 76.5326 11.0446 76.7799 10.8941C77.0272 10.7435 77.2066 10.5031 77.2804 10.2231L79.217 1.52552C79.2549 1.38004 79.263 1.22842 79.241 1.07971C79.219 0.930997 79.1673 0.788234 79.089 0.659931C79.0107 0.531628 78.9073 0.420412 78.785 0.332911C78.6628 0.24541 78.5242 0.183416 78.3775 0.150624C78.2308 0.117833 78.079 0.114915 77.9311 0.142045C77.7833 0.169175 77.6424 0.225798 77.5169 0.308537C77.3913 0.391277 77.2838 0.498439 77.2006 0.623638C77.1174 0.748836 77.0602 0.889506 77.0325 1.03726ZM90.1274 6.79634C90.0188 6.69707 89.8917 6.62017 89.7534 6.57005C89.6151 6.51992 89.4682 6.49754 89.3212 6.5042C89.1742 6.51085 89.03 6.54641 88.8968 6.60884C88.7635 6.67126 88.6439 6.75933 88.5447 6.86802L81.9629 14.0859C81.3059 14.8041 81.824 15.9598 82.7901 15.9598C83.7218 15.9598 83.6815 15.3312 90.2006 8.37759C90.2998 8.26889 90.3766 8.14172 90.4266 8.00333C90.4766 7.86494 90.4988 7.71805 90.492 7.57106C90.4852 7.42407 90.4495 7.27986 90.387 7.14668C90.3244 7.01349 90.2362 6.89543 90.1274 6.79634Z" fill="#29A55C"/>
<path d="M84.1745 21.5995C84.8614 22.5655 85.493 23.5734 86.0858 24.6082C70.6197 -0.0273242 38.3841 -3.10471 17.7592 15.2401C8.7316 22.2579 2.13187 32.3815 0.832832 43.5682C-0.176537 52.2524 1.124 62.1251 4.9166 70.0014C24.3933 110.446 85.4571 104.468 92.3824 56.8438C93.3873 51.343 93.4291 45.8691 92.257 40.0369C91.0923 33.1042 88.4733 26.6284 84.1745 21.5995ZM76.7327 80.5132C68.2172 88.2029 57.2246 92.118 45.7558 91.5327C22.1013 90.3262 3.83556 70.0985 5.04202 46.444C6.92638 9.47658 53.3649 -8.5338 79.1172 19.1776C95.7793 37.1058 94.531 64.4409 76.7327 80.5132Z" fill="#29A55C"/>
</svg>
