<svg width="92" height="81" viewBox="0 0 92 81" fill="none" xmlns="http://www.w3.org/2000/svg">
<path d="M61.4235 45.8706H18.4C17.8588 45.8706 17.3176 46.2764 17.3176 46.9529C17.3176 47.6294 17.7235 48.0353 18.4 48.0353H61.4235C61.9647 48.0353 62.5058 47.6294 62.5058 46.9529C62.5058 46.2764 61.9647 45.8706 61.4235 45.8706ZM46.5411 61.2941H28.1411C27.5999 61.2941 27.0588 61.7 27.0588 62.3764C27.0588 63.0529 27.4647 63.4588 28.1411 63.4588H46.5411C47.0823 63.4588 47.6235 63.0529 47.6235 62.3764C47.6235 61.7 47.0823 61.2941 46.5411 61.2941ZM8.52348 15.4294C7.71172 14.347 6.08819 15.5647 6.89995 16.647L8.65877 18.947C9.47054 20.0294 11.0941 18.8117 10.2823 17.7294L8.52348 15.4294ZM13.5294 15.8353L12.447 10.4235C12.1764 9.07056 10.147 9.47644 10.4176 10.8294L11.5 16.2411C11.7705 17.4588 13.6647 17.1882 13.5294 15.8353ZM17.9941 16.5117C18.4 15.0235 18.6705 13.4 18.5352 11.7764C18.4 10.4235 16.3705 10.5588 16.5058 11.9117C16.6411 13.2647 16.3705 14.6176 15.9647 15.9706C15.5588 17.1882 17.5882 17.7294 17.9941 16.5117Z" fill="#29A55C"/>
<path d="M1.08187 66.9764C1.21716 71.0353 1.35246 75.2294 4.32893 77.9353C5.54658 79.6941 7.57599 80.7765 9.87599 80.7765C65.7525 80.7765 60.7466 80.6412 64.2642 80.9117C73.3289 81.4529 76.4407 79.5588 76.1701 70.4941V70.0882C81.0407 57.7764 84.5583 44.9235 91.0525 29.9059C91.8642 27.7412 91.1878 25.9823 91.1878 25.7117C90.5113 23.547 89.6995 20.8412 88.8877 18C88.2113 15.8353 86.3172 14.347 84.9642 13.9412C73.4642 11.5059 62.2348 3.92939 49.5172 0.952919C49.1113 0.817624 48.5701 1.08821 48.4348 1.4941C48.4348 1.4941 48.4348 1.62939 48.2995 1.62939C47.7583 1.89998 47.2172 2.03527 46.676 2.30586C43.1583 10.0176 40.1819 18 36.6642 25.7117C36.123 25.5764 35.5819 24.9 35.5819 24.0882V23.547C35.5819 21.3823 33.9583 19.6235 32.0642 19.6235H13.9348C12.0407 19.6235 10.5525 21.3823 10.5525 23.4117V28.4176C7.44069 28.5529 6.22305 28.147 4.87011 28.9588C3.24658 29.3647 2.02893 30.7176 1.35246 32.3412C0.134812 35.047 0.540694 35.9941 1.08187 66.9764ZM64.3995 78.8823C60.7466 78.6117 65.6172 78.8823 9.87599 78.747C7.17011 78.747 4.87011 76.447 4.87011 73.6059V32.3412C4.87011 31.3941 5.68187 30.5823 6.76422 30.5823H28.4113C29.4936 30.5823 30.4407 31.3941 30.4407 32.4764V33.0176C30.4407 35.047 32.1995 36.8059 34.3642 36.8059H72.3819C73.3289 36.8059 74.276 37.6176 74.276 38.5647V70.6294C74.276 77.2588 73.4642 79.4235 64.3995 78.8823ZM89.4289 27.8764L82.2583 25.5764C81.9878 25.4412 81.8525 25.1706 81.9878 25.0353L86.0466 17.1882C86.4525 17.5941 86.723 18.1353 86.8583 18.6764C89.1583 25.9823 89.4289 26.9294 89.4289 27.8764ZM84.2878 15.9706L80.0936 24.0882C79.4172 25.4412 80.0936 27.0647 81.5819 27.4706L88.8877 29.7706C83.6113 42.3529 80.2289 53.447 76.1701 64.2706V38.5647C76.1701 36.5353 74.4113 34.7764 72.2466 34.7764H71.976V29.7706C71.976 27.7412 70.4878 25.9823 68.5936 25.9823H40.3172C43.6995 16.647 46.5407 9.61174 49.6525 3.11762C61.6936 6.09409 72.7878 13.4 84.2878 15.9706ZM12.5819 23.547C12.5819 22.6 13.2583 21.7882 13.9348 21.7882H31.9289C32.7407 21.7882 33.4172 22.6 33.4172 23.6823V24.2235C33.4172 26.2529 34.9054 28.0117 36.7995 28.0117H68.4583C69.2701 28.0117 69.8113 28.8235 69.8113 29.7706V34.7764H34.2289C33.2819 34.7764 32.3348 33.9647 32.3348 33.0176V32.4764C32.3348 30.3117 30.576 28.5529 28.276 28.5529H12.5819V23.547Z" fill="#29A55C"/>
</svg>
