<svg width="27" height="51" viewBox="0 0 27 51" fill="none" xmlns="http://www.w3.org/2000/svg">
<path d="M23.6706 1.34704C23.448 0.84159 22.8578 0.612274 22.3524 0.834849C21.8469 1.05742 21.6176 1.6476 21.8402 2.15305L23.6706 1.34704ZM0.122178 44.936C-0.141688 45.4211 0.0377173 46.0284 0.522891 46.2922L8.42925 50.5922C8.91443 50.856 9.52164 50.6766 9.78551 50.1915C10.0494 49.7063 9.86997 49.0991 9.38479 48.8352L2.35692 45.013L6.17908 37.9852C6.44295 37.5 6.26354 36.8928 5.77837 36.6289C5.29319 36.365 4.68598 36.5444 4.42211 37.0296L0.122178 44.936ZM21.8402 2.15305C24.1925 7.49495 25.9452 16.0236 23.6092 24.2119C21.2959 32.3204 14.9296 40.2556 0.717314 44.4547L1.28401 46.3728C16.0829 42.0004 23.0121 33.5952 25.5325 24.7606C28.0301 16.0057 26.1547 6.98824 23.6706 1.34704L21.8402 2.15305Z" fill="#29A55C"/>
</svg>
