<svg width="258" height="202" viewBox="0 0 258 202" fill="none" xmlns="http://www.w3.org/2000/svg">
<path d="M1.59735 0.198016C1.15442 -0.131889 0.527921 -0.040269 0.198016 0.402655C-0.131889 0.845578 -0.040269 1.47208 0.402655 1.80198L1.59735 0.198016ZM251.172 68.6733L251.93 68.0217L251.172 68.6733ZM167.605 199.915C167.558 200.465 167.966 200.949 168.517 200.996L177.484 201.762C178.034 201.809 178.519 201.401 178.565 200.85C178.612 200.3 178.204 199.816 177.654 199.769L169.683 199.089L170.363 191.118C170.41 190.567 170.002 190.083 169.452 190.036C168.902 189.989 168.417 190.397 168.37 190.948L167.605 199.915ZM0.402655 1.80198C7.41058 7.02173 16.7043 10.4003 27.5253 12.4673C38.3532 14.5356 50.7749 15.3025 64.0921 15.253C90.7176 15.154 121.067 11.7884 149.622 8.94282C178.228 6.09223 204.992 3.76905 224.598 5.70058C234.407 6.66692 242.295 8.68854 247.706 12.1447C253.049 15.5565 256 20.3734 256 27.147H258C258 19.6459 254.662 14.2136 248.783 10.4591C242.974 6.74888 234.71 4.68703 224.794 3.71022C204.952 1.75545 177.977 4.10729 149.424 6.95268C120.82 9.80311 90.5898 13.1544 64.0846 13.253C50.8364 13.3022 38.5549 12.538 27.9005 10.5028C17.2392 8.46635 8.2714 5.16908 1.59735 0.198016L0.402655 1.80198ZM256 27.147C256 41.0196 248.173 53.6164 235.797 64.5414C223.427 75.4604 206.623 84.6054 188.959 91.5554C171.301 98.5028 152.841 103.234 137.2 105.356C129.379 106.417 122.284 106.823 116.359 106.533C110.409 106.243 105.74 105.256 102.698 103.61L101.746 105.369C105.18 107.227 110.205 108.235 116.261 108.531C122.342 108.828 129.565 108.41 137.469 107.338C153.277 105.193 171.892 100.419 189.691 93.4165C207.483 86.4163 224.517 77.1665 237.12 66.0408C249.717 54.9213 258 41.8237 258 27.147H256ZM102.698 103.61C101.218 102.809 100.502 101.939 100.245 101.093C99.9875 100.249 100.121 99.2099 100.805 97.929C102.2 95.3186 105.636 92.1735 110.791 88.7792C121.034 82.0347 137.484 74.6715 155.751 68.8474C174.012 63.0251 194.003 58.768 211.311 58.1881C228.699 57.6055 243.044 60.7444 250.413 69.3248L251.93 68.0217C243.919 58.694 228.716 55.6038 211.244 56.1892C193.694 56.7772 173.513 61.085 155.143 66.9419C136.78 72.797 120.142 80.2275 109.691 87.1088C104.499 90.5275 100.688 93.9032 99.0411 96.9865C98.2045 98.5524 97.8681 100.154 98.3312 101.675C98.794 103.196 99.9883 104.418 101.746 105.369L102.698 103.61ZM250.413 69.3248C256.234 76.1022 256.602 85.4718 253.013 96.4945C249.428 107.508 241.955 119.941 232.482 132.542C213.547 157.731 186.813 183.345 167.957 199.235L169.246 200.765C188.167 184.819 215.023 159.096 234.081 133.744C243.605 121.074 251.229 108.435 254.915 97.1136C258.598 85.8008 258.414 75.5709 251.93 68.0217L250.413 69.3248Z" fill="#37A4DA"/>
</svg>
