<svg width="36" height="37" viewBox="0 0 36 37" fill="none" xmlns="http://www.w3.org/2000/svg">
<g clip-path="url(#clip0_1001_7177)">
<path d="M5.50739 4.99841H5.50436C5.33668 4.99805 5.17059 5.03091 5.01568 5.0951C4.86077 5.15928 4.72011 5.25351 4.60181 5.37236C4.48121 5.49205 4.38559 5.63451 4.3205 5.79147C4.25541 5.94842 4.22216 6.11675 4.22266 6.28666V25.6037C4.22266 26.3121 4.80121 26.8898 5.51248 26.8916C8.51104 26.8987 13.5348 27.5237 17.0005 31.1505V10.9347C17.0005 10.6946 16.9392 10.469 16.8234 10.2823C13.9789 5.70145 8.51274 5.00544 5.50739 4.99841ZM31.7784 25.6037V6.28654C31.7784 5.94084 31.6437 5.61611 31.3992 5.37223C31.2809 5.25342 31.1403 5.15921 30.9854 5.09503C30.8305 5.03084 30.6645 4.99797 30.4968 4.99829H30.4937C27.4884 5.00544 22.0222 5.70145 19.1776 10.2823C19.0619 10.469 19.0007 10.6946 19.0007 10.9347V31.1504C22.4664 27.5236 27.4901 26.8986 30.4887 26.8915C31.1998 26.8896 31.7784 26.3119 31.7784 25.6037Z" fill="#29A55C"/>
<path d="M34.712 9.45312H33.7779V25.6036C33.7779 27.4122 32.3044 28.887 30.493 28.8915C27.9495 28.8976 23.7558 29.3949 20.7858 32.2059C25.9225 30.9482 31.3376 31.7658 34.4236 32.4691C34.6127 32.5127 34.8091 32.5129 34.9983 32.4698C35.1875 32.4267 35.3644 32.3413 35.5159 32.2201C35.6673 32.0998 35.7895 31.9468 35.8734 31.7726C35.9572 31.5983 36.0005 31.4073 36 31.2139V10.7411C36.0001 10.0309 35.4222 9.45312 34.712 9.45312ZM2.22207 25.6036V9.45312H1.288C0.577941 9.45312 0 10.0309 0 10.7411V31.2136C0 31.6075 0.176485 31.9743 0.484123 32.2197C0.635561 32.341 0.812507 32.4264 1.00168 32.4696C1.19085 32.5127 1.38733 32.5124 1.57637 32.4687C4.66244 31.7653 10.0776 30.9479 15.2141 32.2056C12.2442 29.3946 8.05045 28.8974 5.50705 28.8914C3.69577 28.887 2.22207 27.4122 2.22207 25.6036Z" fill="#29A55C"/>
</g>
<defs>
<clipPath id="clip0_1001_7177">
<rect width="36" height="36" fill="white" transform="translate(0 0.75)"/>
</clipPath>
</defs>
</svg>
