<svg width="20" height="20" viewBox="0 0 20 20" fill="none" xmlns="http://www.w3.org/2000/svg">
<g clip-path="url(#clip0_2622_13026)">
<path d="M10.0004 11.2652C3.99113 11.2652 0.681641 14.108 0.681641 19.2701C0.681641 19.6732 1.0084 20 1.41156 20H18.5892C18.9923 20 19.3191 19.6732 19.3191 19.2701C19.3191 14.1083 16.0096 11.2652 10.0004 11.2652ZM2.16805 18.5402C2.45516 14.6805 5.08652 12.7251 10.0004 12.7251C14.9143 12.7251 17.5457 14.6805 17.833 18.5402H2.16805ZM10.0004 0C7.24004 0 5.15855 2.12336 5.15855 4.93895C5.15855 7.83699 7.33059 10.1944 10.0004 10.1944C12.6702 10.1944 14.8422 7.83699 14.8422 4.93918C14.8422 2.12336 12.7607 0 10.0004 0ZM10.0004 8.7348C8.13543 8.7348 6.6184 7.03211 6.6184 4.93918C6.6184 2.92313 8.04078 1.45984 10.0004 1.45984C11.9286 1.45984 13.3824 2.95547 13.3824 4.93918C13.3824 7.03211 11.8654 8.7348 10.0004 8.7348Z" fill="white"/>
</g>
<defs>
<clipPath id="clip0_2622_13026">
<rect width="20" height="20" fill="white"/>
</clipPath>
</defs>
</svg>
