<svg width="25" height="25" viewBox="0 0 25 25" fill="none" xmlns="http://www.w3.org/2000/svg">
<g clip-path="url(#clip0_1001_5617)">
<path d="M0.731334 19.0926H19.8728C20.0445 19.0926 20.2104 19.0325 20.342 18.923C20.5259 18.7691 24.7198 15.1613 24.9755 7.37331H4.41792C4.16318 14.4427 0.300797 17.7655 0.260658 17.7986C0.025345 17.9975 -0.0612312 18.3222 0.044633 18.6112C0.149765 18.8995 0.423752 19.0926 0.731334 19.0926ZM24.2675 2.97858H20.6052V2.24613C20.6052 1.83595 20.2829 1.51367 19.8728 1.51367C19.4626 1.51367 19.1403 1.83595 19.1403 2.24613V2.97858H15.4292V2.24613C15.4292 1.83595 15.1069 1.51367 14.6968 1.51367C14.2866 1.51367 13.9643 1.83595 13.9643 2.24613V2.97858H10.302V2.24613C10.302 1.83595 9.97975 1.51367 9.56957 1.51367C9.1594 1.51367 8.83712 1.83595 8.83712 2.24613V2.97858H5.17484C4.76467 2.97858 4.44239 3.30086 4.44239 3.71104V5.9084H25V3.71104C25 3.30086 24.6777 2.97858 24.2675 2.97858Z" fill="#433C8C"/>
<path d="M21.2836 20.0467C20.8858 20.3779 20.3866 20.5582 19.8737 20.5582H4.44336V22.7555C4.44336 23.1604 4.77096 23.488 5.17581 23.488H24.2685C24.6733 23.488 25.0009 23.1604 25.0009 22.7555V14.5449C23.5888 18.0095 21.6182 19.7667 21.2836 20.0467Z" fill="#433C8C"/>
</g>
<defs>
<clipPath id="clip0_1001_5617">
<rect width="25" height="25" fill="white"/>
</clipPath>
</defs>
</svg>
