<svg width="26" height="25" viewBox="0 0 26 25" fill="none" xmlns="http://www.w3.org/2000/svg">
<path fill-rule="evenodd" clip-rule="evenodd" d="M12.8093 2.08398C10.749 2.08398 8.73507 2.69491 7.02206 3.83951C5.30905 4.98411 3.97392 6.61097 3.1855 8.51436C2.39709 10.4178 2.19081 12.5122 2.59274 14.5328C2.99467 16.5535 3.98676 18.4095 5.44355 19.8663C6.90035 21.3231 8.75642 22.3152 10.7771 22.7172C12.7977 23.1191 14.8921 22.9128 16.7955 22.1244C18.6989 21.336 20.3258 20.0009 21.4704 18.2878C22.615 16.5748 23.2259 14.5609 23.2259 12.5007C23.2259 11.1327 22.9565 9.77817 22.433 8.51436C21.9095 7.25056 21.1422 6.10223 20.1749 5.13496C19.2077 4.16768 18.0593 3.40039 16.7955 2.87691C15.5317 2.35342 14.1772 2.08398 12.8093 2.08398ZM16.4863 16.1777C16.4139 16.2504 16.3279 16.3081 16.2332 16.3475C16.1384 16.3868 16.0368 16.4071 15.9343 16.4071C15.8317 16.4071 15.7301 16.3868 15.6353 16.3475C15.5406 16.3081 15.4546 16.2504 15.3822 16.1777L12.2572 13.0527C12.1845 12.9804 12.1268 12.8943 12.0875 12.7996C12.0481 12.7048 12.0279 12.6032 12.028 12.5007V7.29232C12.028 7.08512 12.1103 6.8864 12.2568 6.73989C12.4033 6.59338 12.602 6.51107 12.8093 6.51107C13.0165 6.51107 13.2152 6.59338 13.3617 6.73989C13.5082 6.8864 13.5905 7.08512 13.5905 7.29232V12.1767L16.4863 15.0736C16.5589 15.146 16.6165 15.2321 16.6557 15.3268C16.695 15.4216 16.7152 15.5231 16.7152 15.6257C16.7152 15.7282 16.695 15.8297 16.6557 15.9245C16.6165 16.0192 16.5589 16.1053 16.4863 16.1777Z" fill="#433C8C"/>
</svg>
