<svg width="23" height="24" viewBox="0 0 23 24" fill="none" xmlns="http://www.w3.org/2000/svg">
<path d="M6.70866 20.3856C9.79928 20.3856 12.2191 16.7027 12.2191 12.0002C12.2191 7.29762 9.79928 3.61475 6.70866 3.61475C3.61803 3.61475 1.19824 7.29762 1.19824 12.0002C1.19824 16.7027 3.61803 20.3856 6.70866 20.3856ZM6.70866 5.05225C8.59849 5.05225 10.2334 7.38579 10.6666 10.4189C10.3787 10.2217 10.0424 10.1068 9.69402 10.0867C9.34564 10.0666 8.99837 10.1419 8.68967 10.3046C8.38096 10.4673 8.12254 10.7113 7.94228 11.0101C7.76201 11.3089 7.66674 11.6512 7.66674 12.0002C7.66674 12.3491 7.76201 12.6915 7.94228 12.9903C8.12254 13.2891 8.38096 13.533 8.68967 13.6957C8.99837 13.8584 9.34564 13.9338 9.69402 13.9136C10.0424 13.8935 10.3787 13.7786 10.6666 13.5814C10.2334 16.6145 8.59849 18.9481 6.70866 18.9481C4.50066 18.9481 2.63574 15.7664 2.63574 12.0002C2.63574 8.23391 4.50066 5.05225 6.70866 5.05225ZM21.8024 12.0002C21.8024 16.7027 19.3826 20.3856 16.292 20.3856C15.601 20.3605 14.9249 20.1778 14.3153 19.8515C13.7057 19.5251 13.1788 19.0637 12.7749 18.5025C13.0507 18.0148 13.29 17.5075 13.4908 16.9845C13.7505 17.5242 14.1445 17.9882 14.635 18.3321C15.1255 18.6759 15.696 18.888 16.292 18.9481C18.1818 18.9481 19.8167 16.6145 20.2499 13.5814C19.962 13.7786 19.6257 13.8935 19.2774 13.9136C18.929 13.9338 18.5817 13.8584 18.273 13.6957C17.9643 13.533 17.7059 13.2891 17.5256 12.9903C17.3453 12.6915 17.2501 12.3491 17.2501 12.0002C17.2501 11.6512 17.3453 11.3089 17.5256 11.0101C17.7059 10.7113 17.9643 10.4673 18.273 10.3046C18.5817 10.1419 18.929 10.0666 19.2774 10.0867C19.6257 10.1068 19.962 10.2217 20.2499 10.4189C19.8167 7.38579 18.1818 5.05225 16.292 5.05225C15.696 5.11232 15.1255 5.32443 14.635 5.66826C14.1445 6.01209 13.7505 6.47611 13.4908 7.01587C13.29 6.49288 13.0507 5.98549 12.7749 5.49787C13.1788 4.93667 13.7057 4.47525 14.3153 4.14887C14.9249 3.82249 15.601 3.63979 16.292 3.61475C19.3826 3.61475 21.8024 7.29762 21.8024 12.0002Z" fill="#29A55C"/>
</svg>
