<svg width="92" height="94" viewBox="0 0 92 94" fill="none" xmlns="http://www.w3.org/2000/svg">
<path d="M82.5241 63.886L82.5213 63.8913C82.0084 64.868 81.3373 65.3355 80.6559 65.8102C80.6089 65.843 80.5619 65.8757 80.5148 65.9087C80.621 66.0908 80.775 66.3244 80.9472 66.578C81.0203 66.6856 81.0975 66.7982 81.1742 66.9098C81.286 67.0726 81.3965 67.2335 81.4908 67.3746C81.5719 67.4958 81.647 67.6113 81.7077 67.7117C81.7628 67.8028 81.8254 67.9125 81.862 68.0118L81.863 68.0146C82.163 68.8443 82.2278 69.8382 82.1458 70.7845C82.0635 71.734 81.8298 72.6792 81.4953 73.425M82.5241 63.886L81.0391 73.2203M82.5241 63.886C83.6747 61.6294 84.0318 59.2445 84.0355 56.7943L84.0355 56.7928M82.5241 63.886L84.0355 56.7928M81.4953 73.425L81.0391 73.2203M81.4953 73.425C81.4953 73.4249 81.4953 73.4249 81.4953 73.4248L81.0391 73.2203M81.4953 73.425C80.625 75.3665 79.3905 77.6362 77.1729 78.6636L77.171 78.6645C76.4721 78.9849 76.0107 79.3353 75.6801 79.7061C75.3488 80.0778 75.1287 80.4925 74.9393 80.9722C74.8191 81.2767 74.721 81.5782 74.6139 81.9077C74.5432 82.1251 74.4685 82.3548 74.3808 82.6056C74.169 83.2119 73.9022 83.8717 73.4842 84.5712M81.0391 73.2203C80.169 75.1616 78.9968 77.2675 76.9627 78.21C74.9996 79.1099 74.6073 80.3136 74.1305 81.7767C73.8779 82.5521 73.6015 83.4002 73.055 84.3147M73.4842 84.5712C73.4843 84.571 73.4844 84.5708 73.4845 84.5706L73.055 84.3147M73.4842 84.5712C71.5873 87.7544 68.6986 89.7677 64.7534 89.3513C61.74 89.0409 58.8881 88.0774 56.1047 87.0319C55.5809 86.8352 55.0602 86.6358 54.5412 86.4372C52.2845 85.5732 50.0613 84.7221 47.7696 84.1563C47.77 84.1564 47.7703 84.1564 47.7707 84.1565L47.8895 83.6708C50.2142 84.2448 52.4729 85.1097 54.7315 85.9745C58.0222 87.2345 61.3125 88.4945 64.8059 88.8541C68.5091 89.2449 71.2305 87.3767 73.055 84.3147M73.4842 84.5712L73.055 84.3147M84.0355 56.7928C84.0346 56.1489 83.8052 55.476 83.5233 54.8421C83.3134 54.3702 83.0551 53.8802 82.8072 53.4098C82.7214 53.2471 82.6369 53.0868 82.556 52.9303C82.2317 52.3029 81.9618 51.7304 81.8267 51.2206C81.6918 50.7114 81.7127 50.3441 81.8681 50.0693L81.8682 50.069L84.0355 56.7928ZM23.5805 31.8663L23.5823 31.867C24.8578 32.3964 25.6279 33.3631 26.0472 34.5268C26.3943 35.4901 26.5033 36.5909 26.4791 37.709C31.6278 35.6055 36.3324 33.265 39.0833 28.1921C41.2684 24.1536 43.289 20.1203 44.3243 15.732C45.1742 12.1294 46.6124 9.46121 48.5451 7.87301C50.4996 6.26694 52.9054 5.81093 55.5528 6.53721C58.1445 7.24812 59.7246 9.24126 60.5887 11.8048C61.4491 14.3573 61.6234 17.5297 61.3896 20.751C61.1553 23.9795 60.5081 27.2955 59.6956 30.1562C59.0064 32.5826 58.1904 34.7094 57.391 36.1845C60.1597 36.3495 62.9073 36.2818 65.682 36.2135C67.3717 36.1719 69.0715 36.13 70.7923 36.1403C70.8863 36.1406 70.982 36.1409 71.0793 36.1412C72.237 36.1446 73.6178 36.1488 74.9789 36.292C76.4498 36.4468 77.9508 36.7683 79.1584 37.4639C79.1584 37.4639 79.1584 37.4639 79.1585 37.4639L78.9089 37.8972L23.5805 31.8663ZM23.5805 31.8663C22.1096 31.2627 19.4416 30.4535 16.792 30.1031C15.4666 29.9278 14.1253 29.8644 12.9304 30.0082C11.7437 30.151 10.6445 30.5049 9.86384 31.2151M23.5805 31.8663L9.86384 31.2151M9.86384 31.2151C7.96764 32.931 7.58732 35.3216 7.52875 37.6386L9.86384 31.2151ZM73.5172 76.7205L73.5176 76.7203C75.8323 75.6302 77.3693 74.3953 78.0861 72.9478C78.7881 71.5303 78.754 69.8015 77.6788 67.5842C77.6786 67.584 77.6786 67.5838 77.6784 67.5835L78.1283 67.3654L73.5172 76.7205ZM73.5172 76.7205C72.9323 76.9966 72.5219 77.4998 72.2208 78.0554C71.9192 78.612 71.7034 79.2655 71.5294 79.9067C71.414 80.3318 71.3115 80.7743 71.2154 81.1885C71.1678 81.3938 71.1219 81.5921 71.0767 81.7779C70.9347 82.3629 70.8009 82.8248 70.645 83.1315C69.7681 84.8432 68.5671 85.709 67.1858 86.0627C65.7772 86.4234 64.1334 86.2632 62.3783 85.8136C60.6275 85.3652 58.8184 84.6433 57.0919 83.928C56.8868 83.843 56.6825 83.758 56.4794 83.6734C54.9915 83.054 53.5702 82.4623 52.3628 82.1199C45.1112 80.0595 37.7135 78.7368 30.3377 77.4181C27.8142 76.9669 25.2932 76.5162 22.7815 76.0365C22.9081 75.2456 23.0087 74.4254 23.1082 73.6135C23.1647 73.1527 23.2209 72.6945 23.2813 72.2459L23.2817 72.2434C23.5757 69.9773 23.8991 67.683 24.2251 65.3707C25.3548 57.3571 26.5149 49.128 26.5848 41.1126M73.5172 76.7205L26.5848 41.1126M26.5848 41.1126C27.0734 40.93 27.6259 40.7479 28.2286 40.5492C30.7329 39.7236 34.1054 38.6119 37.3732 35.9886C41.6354 32.5671 45.7293 26.6009 47.9042 15.4128C48.4406 12.6547 49.4686 10.9869 50.6064 10.0592C51.7388 9.1358 53.027 8.90606 54.1816 9.10844L54.1818 9.10846C55.9283 9.41412 57.0767 10.7793 57.7242 12.9475C58.3724 15.1181 58.4767 17.9843 58.1906 21.0296C57.9053 24.0666 57.2356 27.2416 56.3668 30.0095C55.4955 32.7852 54.4379 35.1069 53.3965 36.4724C53.242 36.6652 53.1364 36.8926 53.0889 37.1351C53.0445 37.3612 53.0518 37.5941 53.1099 37.8166C53.1383 38.1056 53.2455 38.3995 53.4563 38.641C53.6856 38.9037 54.0108 39.0734 54.4053 39.1207L54.4062 39.1208C58.6124 39.6179 62.7566 39.4936 66.9357 39.3632L66.9373 39.3632C69.9713 39.2591 72.9558 39.3478 75.9292 39.7872C77.3272 39.9966 78.2435 40.5318 78.8302 41.2293C79.4218 41.9327 79.7207 42.852 79.7856 43.9003C79.9164 46.014 79.0849 48.5183 78.0468 50.3494L78.046 50.3507C77.9022 50.6063 77.8562 50.914 77.8746 51.1879C77.893 51.4615 77.9806 51.7731 78.1845 52.0175L78.1844 52.0175L78.1894 52.0232C79.7443 53.8312 80.7226 56.0294 80.7874 58.148C80.8516 60.2445 80.025 62.2966 77.8994 63.8823L26.5848 41.1126ZM21.5793 78.9865C21.6343 78.827 21.6863 78.6641 21.7355 78.4982C21.8427 78.5688 21.9624 78.6185 22.0881 78.6446C22.1277 78.6522 22.1672 78.6598 22.2068 78.6674C22.1584 78.8292 22.1072 78.9892 22.0529 79.1469C22.0332 79.1432 22.0134 79.1394 21.9937 79.1356L21.9864 79.1342C21.8441 79.1046 21.7071 79.0548 21.5793 78.9865ZM78.4817 50.596C78.3119 50.8976 78.3341 51.4162 78.5684 51.6972L78.4817 50.596Z" fill="#37A4DA" stroke="#37A4DA"/>
</svg>
