<svg width="22" height="22" viewBox="0 0 22 22" fill="none" xmlns="http://www.w3.org/2000/svg">
<g clip-path="url(#clip0_1001_8817)">
<path fill-rule="evenodd" clip-rule="evenodd" d="M21.5983 19.3511C21.4522 19.4967 21.276 19.683 21.0892 19.8799C20.6231 20.3746 20.0408 20.9896 19.6758 21.239C17.7555 22.5512 15.1865 21.9233 13.3693 21.1661C10.9721 20.1673 8.36225 18.3263 6.01887 15.9826C3.67329 13.6388 1.83242 11.0281 0.833613 8.63225C0.0773629 6.81467 -0.551829 4.24514 0.760566 2.32444C1.00978 1.9592 1.62617 1.37779 2.12023 0.910766C2.31788 0.724539 2.50265 0.548582 2.64874 0.402961C2.90811 0.14488 3.25912 0 3.62501 0C3.99091 0 4.34191 0.14488 4.60128 0.402961L8.13452 3.93516C8.39246 4.19452 8.53725 4.54544 8.53725 4.91122C8.53725 5.27701 8.39246 5.62792 8.13452 5.88728L7.17202 6.84784C6.85058 7.16693 6.64076 7.58129 6.5738 8.02924C6.50684 8.47719 6.58631 8.93479 6.80038 9.33393C8.12424 11.8326 10.168 13.876 12.6669 15.1995C13.066 15.4135 13.5235 15.4928 13.9713 15.4258C14.4191 15.3587 14.8333 15.1488 15.1521 14.8272L16.1123 13.8666C16.3716 13.6085 16.7226 13.4637 17.0885 13.4637C17.4544 13.4637 17.8054 13.6085 18.0648 13.8666L21.5983 17.3994C21.8562 17.6587 22.001 18.0095 22.001 18.3753C22.001 18.741 21.8562 19.0918 21.5983 19.3511Z" fill="white"/>
</g>
<defs>
<clipPath id="clip0_1001_8817">
<rect width="22" height="22" fill="white"/>
</clipPath>
</defs>
</svg>
