<svg width="25" height="26" viewBox="0 0 25 26" fill="none" xmlns="http://www.w3.org/2000/svg">
<path fill-rule="evenodd" clip-rule="evenodd" d="M12.5246 1.53906C10.0338 1.54219 7.64591 2.53275 5.8843 4.29363C4.12269 6.0545 3.13112 8.442 3.12695 10.9328C3.12695 14.5273 5.39861 17.8028 7.56396 20.2359C9.72932 22.669 11.8947 24.291 11.8947 24.291C12.0753 24.4265 12.2949 24.4997 12.5207 24.4997C12.7464 24.4997 12.966 24.4265 13.1466 24.291C13.1466 24.291 15.312 22.669 17.4773 20.2359C19.6427 17.8028 21.9144 14.5273 21.9144 10.9328C21.9123 8.44204 20.9219 6.05393 19.1607 4.29272C17.3995 2.53151 15.0153 1.54115 12.5246 1.53906ZM12.5207 6.75954C13.6275 6.75954 14.6889 7.19921 15.4716 7.98185C16.2542 8.76448 16.6939 9.82596 16.6939 10.9328C16.6939 12.0396 16.2542 13.1011 15.4716 13.8837C14.6889 14.6663 13.6275 15.106 12.5207 15.106C11.4138 15.106 10.3524 14.6663 9.56974 13.8837C8.7871 13.1011 8.34742 12.0396 8.34742 10.9328C8.34742 9.82596 8.7871 8.76448 9.56974 7.98185C10.3524 7.19921 11.4138 6.75954 12.5207 6.75954Z" fill="#433C8C"/>
</svg>
