<svg width="24" height="14" viewBox="0 0 24 14" fill="none" xmlns="http://www.w3.org/2000/svg">
<path fill-rule="evenodd" clip-rule="evenodd" d="M22.7795 1.17344C22.9358 0.647774 22.7795 0.260742 22.031 0.260742H19.5596C18.9307 0.260742 18.6407 0.594822 18.4834 0.963561C18.4834 0.963561 17.2265 4.04056 15.4461 6.03926C14.8699 6.61885 14.6082 6.80274 14.2937 6.80274C14.1365 6.80274 13.9002 6.61885 13.9002 6.09222V1.17344C13.9002 0.54187 13.7269 0.260742 13.2035 0.260742H9.31692C8.92431 0.260742 8.68799 0.553423 8.68799 0.831662C8.68799 1.42954 9.57866 1.56818 9.66998 3.25109V6.90768C9.66998 7.70966 9.52593 7.85504 9.21147 7.85504C8.37353 7.85504 6.33516 4.7636 5.12532 1.2264C4.89088 0.538019 4.65363 0.260742 4.02187 0.260742H1.54853C0.842398 0.260742 0.701172 0.594822 0.701172 0.963561C0.701172 1.62017 1.53911 4.88202 4.60372 9.19617C6.6468 12.1422 9.52311 13.7395 12.1433 13.7395C13.7147 13.7395 13.9087 13.3852 13.9087 12.7738V10.5469C13.9087 9.83737 14.0574 9.69585 14.5555 9.69585C14.9227 9.69585 15.5506 9.8807 17.0175 11.3008C18.6934 12.9847 18.9693 13.7395 19.9127 13.7395H22.3841C23.0902 13.7395 23.4443 13.3852 23.2409 12.6843C23.0168 11.9872 22.2165 10.9754 21.1554 9.77479C20.5792 9.09123 19.7149 8.35471 19.4523 7.98598C19.086 7.51326 19.1905 7.30241 19.4523 6.88168C19.4523 6.88168 22.4651 2.62048 22.7786 1.17344H22.7795Z" fill="white"/>
</svg>
