<svg width="23" height="23" viewBox="0 0 23 23" fill="none" xmlns="http://www.w3.org/2000/svg">
<g clip-path="url(#clip0_1001_8811)">
<path fill-rule="evenodd" clip-rule="evenodd" d="M22.0102 6.83437H16.8938C16.639 5.23147 16.2514 3.75493 15.7452 2.48966C15.4311 1.70344 15.0779 1.02211 14.6933 0.451959C17.9656 1.399 20.6415 3.76391 22.0102 6.83437ZM14.6933 22.5488C15.0779 21.978 15.4311 21.2971 15.7452 20.5107C16.2514 19.2451 16.639 17.7686 16.8938 16.1657H22.0102C20.6415 19.2369 17.9656 21.6016 14.6933 22.5488ZM0.989675 16.1657H6.10632C6.36089 17.7686 6.74866 19.2452 7.25461 20.5107C7.56947 21.2971 7.92215 21.978 8.30678 22.5489C5.03431 21.6016 2.35862 19.2369 0.989675 16.1657ZM8.30678 0.451959C7.92215 1.02211 7.56952 1.70344 7.25461 2.48966C6.74861 3.75493 6.36089 5.23147 6.10632 6.83437H0.989675C2.35862 3.76391 5.03431 1.399 8.30678 0.451959ZM11.5 0C10.5734 0 9.55632 1.15872 8.78003 3.09952C8.34455 4.18896 8.00423 5.455 7.76978 6.83437H15.2303C14.9956 5.455 14.6558 4.18896 14.22 3.09952C13.4438 1.15876 12.4267 0 11.5 0ZM9.85732e-07 11.5C9.85732e-07 10.4544 0.14119 9.44078 0.403983 8.4773H5.89582C5.79942 9.45677 5.74951 10.4697 5.74951 11.5C5.74951 12.5304 5.79942 13.5433 5.89582 14.523H0.404028C0.135453 13.5378 -0.000422259 12.5212 9.85732e-07 11.5ZM7.54625 14.5231C7.44477 13.5492 7.39221 12.5353 7.39221 11.5001C7.39221 10.4656 7.44477 9.45174 7.54625 8.47734H15.4536C15.5553 9.45174 15.6077 10.4656 15.6077 11.5001C15.6077 12.5353 15.5553 13.5492 15.4536 14.5231H7.54625ZM11.5 23.0001C12.4267 23.0001 13.4438 21.8414 14.22 19.9008C14.6558 18.8118 14.9956 17.5453 15.2303 16.1657H7.76978C8.00423 17.5453 8.34455 18.8118 8.78003 19.9008C9.55632 21.8414 10.5734 23.0001 11.5 23.0001ZM23.0001 11.5C23.0001 12.5459 22.8589 13.5593 22.5961 14.523H17.1043C17.2007 13.5433 17.2506 12.5304 17.2506 11.5C17.2506 10.4697 17.2007 9.45677 17.1043 8.4773H22.5961C22.8647 9.46242 23.0005 10.479 23.0001 11.5Z" fill="white"/>
</g>
<defs>
<clipPath id="clip0_1001_8811">
<rect width="23" height="23" fill="white"/>
</clipPath>
</defs>
</svg>
