<svg width="20" height="24" viewBox="0 0 20 24" fill="none" xmlns="http://www.w3.org/2000/svg">
<path d="M15.4229 10.3066C15.4229 11.0593 14.8071 11.6408 14.0715 11.6408C13.3189 11.6408 12.7373 11.025 12.7373 10.2895C12.7373 9.55399 13.3531 8.9553 14.0887 8.9553C14.8242 8.9382 15.4229 9.55399 15.4229 10.3066ZM7.26365 10.3066C7.26365 11.0593 6.64786 11.6408 5.91234 11.6408C5.17681 11.6408 4.57812 11.025 4.57812 10.2895C4.57812 9.55399 5.19391 8.9553 5.92944 8.9553C6.66497 8.9382 7.26365 9.55399 7.26365 10.3066Z" fill="#433C8C"/>
<path d="M14.0714 8.93817C13.3188 8.93817 12.7201 9.53685 12.7201 10.2895C12.7201 11.0421 13.3188 11.6408 14.0714 11.6408C14.8241 11.6408 15.4228 11.0421 15.4228 10.2895C15.4228 9.55396 14.8241 8.93817 14.0714 8.93817ZM14.0714 8.93817C13.3188 8.93817 12.7201 9.53685 12.7201 10.2895C12.7201 11.0421 13.3188 11.6408 14.0714 11.6408C14.8241 11.6408 15.4228 11.0421 15.4228 10.2895C15.4228 9.55396 14.8241 8.93817 14.0714 8.93817ZM16.7912 14.0184V12.9408C21.2385 9.22896 17.2701 5.36317 17.2701 5.36317C17.2701 5.36317 18.1767 4.86712 18.1767 3.92633C18.1767 2.98554 18.1425 0.881592 18.1425 0.881592L11.2833 4.33686C11.2833 4.33686 10.0688 4.8158 10.0004 5.85922C9.93197 4.7987 8.7175 4.33686 8.7175 4.33686L1.85829 0.881592C1.85829 0.881592 1.84118 2.98554 1.84118 3.94343C1.84118 4.90133 2.74776 5.38028 2.74776 5.38028C2.74776 5.38028 -1.22066 9.22896 3.22671 12.9579V14.0526L0.900391 12.9066V16.3276C0.900391 16.3276 1.05434 18.1066 3.22671 18.8763C3.22671 18.8763 3.68855 22.2119 7.26355 21.8697C8.27276 21.9553 9.47013 22.2803 10.0175 23.1355C10.5649 22.2803 11.7622 21.9553 12.7714 21.8697C16.3464 22.1947 16.8083 18.8763 16.8083 18.8763C18.9635 18.1237 19.1346 16.3276 19.1346 16.3276V12.9066L16.7912 14.0184ZM14.0714 5.63686C15.9188 5.63686 17.407 7.12501 17.407 8.97238C17.407 10.8197 15.9188 12.3079 14.0714 12.3079C12.2241 12.3079 10.7359 10.8197 10.7359 8.97238C10.7359 7.12501 12.2412 5.63686 14.0714 5.63686ZM2.57671 8.97238C2.57671 7.12501 4.06486 5.63686 5.91223 5.63686C7.7596 5.63686 9.24776 7.12501 9.24776 8.97238C9.24776 10.8197 7.7596 12.3079 5.91223 12.3079C4.08197 12.3079 2.57671 10.8197 2.57671 8.97238ZM17.1675 17.6276L10.0004 21.2197L2.83329 17.6276C1.77276 16.8579 1.87539 16.0711 1.87539 16.0711V14.4119L9.09381 18.004C9.09381 18.004 9.86355 18.3461 10.0175 19.4579C10.1714 18.3461 10.9412 18.004 10.9412 18.004L18.1596 14.4119V16.0711C18.1596 16.0711 18.228 16.8408 17.1675 17.6276ZM14.0714 11.6579C14.8241 11.6579 15.4228 11.0592 15.4228 10.3066C15.4228 9.55396 14.8241 8.95528 14.0714 8.95528C13.3188 8.95528 12.7201 9.55396 12.7201 10.3066C12.7372 11.0421 13.3359 11.6579 14.0714 11.6579Z" fill="#433C8C"/>
</svg>
