<svg width="27" height="51" viewBox="0 0 27 51" fill="none" xmlns="http://www.w3.org/2000/svg">
<path d="M23.6706 1.03893C23.448 0.533484 22.8578 0.304169 22.3524 0.526743C21.8469 0.749318 21.6176 1.3395 21.8402 1.84495L23.6706 1.03893ZM0.122178 44.6279C-0.141688 45.113 0.0377173 45.7203 0.522891 45.9841L8.42925 50.2841C8.91443 50.5479 9.52164 50.3685 9.78551 49.8833C10.0494 49.3982 9.86997 48.791 9.38479 48.5271L2.35692 44.7049L6.17908 37.677C6.44295 37.1919 6.26354 36.5847 5.77837 36.3208C5.29319 36.0569 4.68598 36.2363 4.42211 36.7215L0.122178 44.6279ZM21.8402 1.84495C24.1925 7.18684 25.9452 15.7155 23.6092 23.9038C21.2959 32.0123 14.9296 39.9475 0.717314 44.1466L1.28401 46.0647C16.0829 41.6922 23.0121 33.2871 25.5325 24.4525C28.0301 15.6976 26.1547 6.68014 23.6706 1.03893L21.8402 1.84495Z" fill="#29A55C"/>
</svg>
