<svg width="27" height="51" viewBox="0 0 27 51" fill="none" xmlns="http://www.w3.org/2000/svg">
<path d="M23.6696 1.03893C23.447 0.533484 22.8568 0.304169 22.3514 0.526743C21.8459 0.749318 21.6166 1.3395 21.8392 1.84495L23.6696 1.03893ZM0.121201 44.6279C-0.142664 45.113 0.0367407 45.7203 0.521914 45.9841L8.42828 50.2841C8.91345 50.5479 9.52067 50.3685 9.78453 49.8833C10.0484 49.3982 9.86899 48.791 9.38382 48.5271L2.35594 44.7049L6.17811 37.677C6.44197 37.1919 6.26256 36.5847 5.77739 36.3208C5.29222 36.0569 4.685 36.2363 4.42114 36.7215L0.121201 44.6279ZM21.8392 1.84495C24.1915 7.18684 25.9443 15.7155 23.6082 23.9038C21.295 32.0123 14.9286 39.9475 0.716338 44.1466L1.28303 46.0647C16.0819 41.6922 23.0111 33.2871 25.5315 24.4525C28.0291 15.6976 26.1537 6.68014 23.6696 1.03893L21.8392 1.84495Z" fill="#433C8C"/>
</svg>
