<svg width="27" height="50" viewBox="0 0 27 50" fill="none" xmlns="http://www.w3.org/2000/svg">
<path d="M23.6706 0.597039C23.448 0.0915898 22.8578 -0.137726 22.3524 0.0848486C21.8469 0.307423 21.6176 0.897603 21.8402 1.40305L23.6706 0.597039ZM0.122178 44.186C-0.141688 44.6711 0.0377173 45.2784 0.522891 45.5422L8.42925 49.8422C8.91443 50.106 9.52164 49.9266 9.78551 49.4415C10.0494 48.9563 9.86997 48.3491 9.38479 48.0852L2.35692 44.263L6.17908 37.2352C6.44295 36.75 6.26354 36.1428 5.77837 35.8789C5.29319 35.615 4.68598 35.7944 4.42211 36.2796L0.122178 44.186ZM21.8402 1.40305C24.1925 6.74495 25.9452 15.2736 23.6092 23.4619C21.2959 31.5704 14.9296 39.5056 0.717314 43.7047L1.28401 45.6228C16.0829 41.2504 23.0121 32.8452 25.5325 24.0106C28.0301 15.2557 26.1547 6.23824 23.6706 0.597039L21.8402 1.40305Z" fill="#FFB236"/>
</svg>
