<svg width="188" height="95" viewBox="0 0 188 95" fill="none" xmlns="http://www.w3.org/2000/svg">
<path d="M187.016 1.75703C187.291 1.27844 187.127 0.667026 186.648 0.391396C186.169 0.115765 185.558 0.280295 185.282 0.758883L187.016 1.75703ZM38.5098 11.8838L39.4994 12.0273L38.5098 11.8838ZM0.331454 88.6492C0.085731 89.1438 0.287496 89.744 0.78211 89.9897L8.84222 93.994C9.33684 94.2397 9.937 94.038 10.1827 93.5433C10.4284 93.0487 10.2267 92.4486 9.73207 92.2029L2.56752 88.6435L6.1269 81.4789C6.37262 80.9843 6.17086 80.3842 5.67624 80.1384C5.18163 79.8927 4.58148 80.0945 4.33576 80.5891L0.331454 88.6492ZM185.282 0.758883C180.015 9.90475 167.801 18.7109 152.346 25.8765C136.938 33.021 118.486 38.4526 100.969 40.9505C83.4226 43.4524 66.9498 42.9914 55.4266 38.4811C49.6807 36.2322 45.2263 33.0009 42.4468 28.6886C39.6754 24.389 38.5015 18.9107 39.4994 12.0273L37.5201 11.7403C36.4658 19.0127 37.6879 24.9971 40.7657 29.7721C43.8353 34.5344 48.6834 37.9895 54.6977 40.3436C66.695 45.0394 83.5745 45.4509 101.251 42.9304C118.956 40.4059 137.596 34.9202 153.188 27.691C168.734 20.4829 181.428 11.459 187.016 1.75703L185.282 0.758883ZM39.4994 12.0273C40.0301 8.36693 41.1975 6.7697 42.2802 6.2864C43.3047 5.82909 44.7958 6.15552 46.5969 7.79506C50.1476 11.0272 53.7916 18.4788 54.5182 27.9251C55.2408 37.3189 53.0643 48.5759 45.1313 59.3692C37.195 70.1669 23.4459 80.5696 0.908372 88.1463L1.54568 90.042C24.3716 82.3684 38.5061 71.7602 46.7428 60.5537C54.9827 49.3429 57.2685 37.6021 56.5123 27.7717C55.7602 17.9937 51.9842 9.99443 47.9432 6.31606C45.9486 4.50036 43.6009 3.50662 41.4649 4.4601C39.3872 5.38759 38.0723 7.93211 37.5201 11.7403L39.4994 12.0273Z" fill="#A14BC5"/>
</svg>
