<svg width="59" height="59" viewBox="0 0 59 59" fill="none" xmlns="http://www.w3.org/2000/svg">
<rect width="59" height="59" rx="29.5" fill="#433C8C"/>
<g clip-path="url(#clip0_1001_7094)">
<path d="M18.959 31.8662C18.6842 31.8662 18.4148 31.8428 18.1523 31.7986V43.2667H19.7656V31.8662H18.959ZM40.0392 31.8662H39.2326V43.2667H40.8458V31.7986C40.5793 31.8436 40.3095 31.8662 40.0392 31.8662ZM40.0392 15.7334H18.959C17.1799 15.7334 15.7324 17.1808 15.7324 18.96V27.0264C15.7324 28.8055 17.1799 30.2529 18.959 30.2529H40.0392C41.8183 30.2529 43.2658 28.8055 43.2658 27.0264V18.96C43.2658 17.1808 41.8183 15.7334 40.0392 15.7334ZM34.3927 25.4131H24.6055V23.7998H34.3927V25.4131ZM38.4259 22.1865H20.5723V20.5732H38.4259V22.1865Z" fill="white"/>
</g>
<defs>
<clipPath id="clip0_1001_7094">
<rect width="27.5333" height="27.5333" fill="white" transform="translate(15.7324 15.7334)"/>
</clipPath>
</defs>
</svg>
