<svg width="59" height="59" viewBox="0 0 59 59" fill="none" xmlns="http://www.w3.org/2000/svg">
<rect width="59" height="59" rx="29.5" fill="#37A4DA"/>
<g clip-path="url(#clip0_1001_7134)">
<path d="M29.5 13.5C20.6773 13.5 13.5 20.6773 13.5 29.5C13.5 38.3227 20.6773 45.5 29.5 45.5C38.3227 45.5 45.5 38.3227 45.5 29.5C45.5 20.6773 38.3227 13.5 29.5 13.5ZM37.1093 37.776C36.9858 37.9002 36.8389 37.9988 36.6771 38.0661C36.5154 38.1334 36.3419 38.168 36.1667 38.168C35.9915 38.168 35.818 38.1334 35.6562 38.0661C35.4944 37.9988 35.3475 37.9002 35.224 37.776L28.5573 31.1093C28.4333 30.9857 28.3349 30.8388 28.2678 30.677C28.2008 30.5152 28.1664 30.3418 28.1667 30.1667V21.5C28.1667 21.1464 28.3071 20.8072 28.5572 20.5572C28.8072 20.3071 29.1464 20.1667 29.5 20.1667C29.8536 20.1667 30.1928 20.3071 30.4428 20.5572C30.6929 20.8072 30.8333 21.1464 30.8333 21.5V29.6147L37.1093 35.8907C37.2333 36.0144 37.3316 36.1613 37.3987 36.3231C37.4657 36.4848 37.5003 36.6582 37.5003 36.8333C37.5003 37.0084 37.4657 37.1818 37.3987 37.3436C37.3316 37.5053 37.2333 37.6523 37.1093 37.776Z" fill="white"/>
</g>
<defs>
<clipPath id="clip0_1001_7134">
<rect width="32" height="32" fill="white" transform="translate(13.5 13.5)"/>
</clipPath>
</defs>
</svg>
