<svg width="27" height="50" viewBox="0 0 27 50" fill="none" xmlns="http://www.w3.org/2000/svg">
<path d="M23.6696 0.597527C23.447 0.0920781 22.8568 -0.137237 22.3514 0.0853369C21.8459 0.307911 21.6166 0.898091 21.8392 1.40354L23.6696 0.597527ZM0.121201 44.1865C-0.142664 44.6716 0.0367407 45.2789 0.521914 45.5427L8.42828 49.8427C8.91345 50.1065 9.52067 49.9271 9.78453 49.4419C10.0484 48.9568 9.86899 48.3495 9.38382 48.0857L2.35594 44.2635L6.17811 37.2356C6.44197 36.7505 6.26256 36.1433 5.77739 35.8794C5.29222 35.6155 4.685 35.7949 4.42114 36.2801L0.121201 44.1865ZM21.8392 1.40354C24.1915 6.74544 25.9443 15.274 23.6082 23.4624C21.295 31.5709 14.9286 39.5061 0.716338 43.7052L1.28303 45.6233C16.0819 41.2508 23.0111 32.8457 25.5315 24.0111C28.0291 15.2562 26.1537 6.23873 23.6696 0.597527L21.8392 1.40354Z" fill="#29A55C"/>
</svg>
