<svg width="59" height="59" viewBox="0 0 59 59" fill="none" xmlns="http://www.w3.org/2000/svg">
<rect width="59" height="59" rx="29.5" fill="#FFB236"/>
<g clip-path="url(#clip0_1001_7117)">
<path fill-rule="evenodd" clip-rule="evenodd" d="M42.507 39.7493C42.3277 39.928 42.1114 40.1566 41.8822 40.3983C41.3102 41.0055 40.5955 41.7602 40.1476 42.0663C37.7909 43.6767 34.638 42.9061 32.4078 41.9769C29.4658 40.7511 26.2628 38.4916 23.3868 35.6153C20.5081 32.7387 18.2489 29.5347 17.0231 26.5944C16.0949 24.3637 15.3228 21.2102 16.9334 18.853C17.2393 18.4047 17.9958 17.6912 18.6021 17.118C18.8447 16.8895 19.0714 16.6735 19.2507 16.4948C19.569 16.1781 19.9998 16.0002 20.4489 16.0002C20.8979 16.0002 21.3287 16.1781 21.647 16.4948L25.9833 20.8298C26.2998 21.1481 26.4775 21.5787 26.4775 22.0277C26.4775 22.4766 26.2998 22.9072 25.9833 23.2255L24.802 24.4044C24.4075 24.796 24.15 25.3046 24.0678 25.8543C23.9857 26.4041 24.0832 26.9657 24.3459 27.4555C25.9707 30.522 28.4789 33.0299 31.5457 34.6541C32.0355 34.9168 32.597 35.0142 33.1466 34.9319C33.6962 34.8495 34.2045 34.5919 34.5958 34.1973L35.7741 33.0184C36.0925 32.7016 36.5232 32.5238 36.9723 32.5238C37.4214 32.5238 37.8521 32.7016 38.1705 33.0184L42.507 37.3541C42.8235 37.6723 43.0012 38.1029 43.0012 38.5517C43.0012 39.0005 42.8235 39.4311 42.507 39.7493Z" fill="white"/>
</g>
<defs>
<clipPath id="clip0_1001_7117">
<rect width="27" height="27" fill="white" transform="translate(16 16)"/>
</clipPath>
</defs>
</svg>
