<svg width="59" height="59" viewBox="0 0 59 59" fill="none" xmlns="http://www.w3.org/2000/svg">
<rect width="59" height="59" rx="29.5" fill="#29A55C"/>
<path fill-rule="evenodd" clip-rule="evenodd" d="M28.5312 17.875V15.9375C28.5312 15.6806 28.6333 15.4342 28.815 15.2525C28.9967 15.0708 29.2431 14.9688 29.5 14.9688C29.7569 14.9688 30.0033 15.0708 30.185 15.2525C30.3667 15.4342 30.4688 15.6806 30.4688 15.9375V17.875C30.4688 18.1319 30.3667 18.3783 30.185 18.56C30.0033 18.7417 29.7569 18.8438 29.5 18.8438C29.2431 18.8438 28.9967 18.7417 28.815 18.56C28.6333 18.3783 28.5312 18.1319 28.5312 17.875ZM27.5625 15.9375H20.7812C20.0105 15.9375 19.2712 16.2437 18.7262 16.7887C18.1812 17.3337 17.875 18.073 17.875 18.8438V41.125C17.875 41.8958 18.1812 42.635 18.7262 43.18C19.2712 43.7251 20.0105 44.0312 20.7812 44.0312H38.2188C38.9895 44.0312 39.7288 43.7251 40.2738 43.18C40.8188 42.635 41.125 41.8958 41.125 41.125V18.8438C41.125 18.073 40.8188 17.3337 40.2738 16.7887C39.7288 16.2437 38.9895 15.9375 38.2188 15.9375H31.4375V17.875C31.4375 18.3889 31.2334 18.8817 30.87 19.245C30.5067 19.6084 30.0139 19.8125 29.5 19.8125C28.9861 19.8125 28.4933 19.6084 28.13 19.245C27.7666 18.8817 27.5625 18.3889 27.5625 17.875V15.9375ZM29.5 28.5312C30.3993 28.5312 31.2617 28.174 31.8975 27.5382C32.5334 26.9023 32.8906 26.0399 32.8906 25.1406C32.8906 24.2414 32.5334 23.379 31.8975 22.7431C31.2617 22.1072 30.3993 21.75 29.5 21.75C28.6007 21.75 27.7383 22.1072 27.1025 22.7431C26.4666 23.379 26.1094 24.2414 26.1094 25.1406C26.1094 26.0399 26.4666 26.9023 27.1025 27.5382C27.7383 28.174 28.6007 28.5312 29.5 28.5312ZM23.6875 31.9335C23.6875 31.6807 23.8202 31.4472 24.0527 31.3474C24.7541 31.0471 26.492 30.4688 29.5 30.4688C32.508 30.4688 34.2459 31.0461 34.9473 31.3474C35.1798 31.4472 35.3125 31.6807 35.3125 31.9335C35.3125 33.0866 34.8544 34.1925 34.0391 35.0078C33.2237 35.8232 32.1178 36.2812 30.9647 36.2812H28.0352C26.8822 36.2812 25.7763 35.8232 24.9609 35.0078C24.1456 34.1925 23.6875 33.0866 23.6875 31.9335ZM24.6562 39.1875V41.125H34.3438V39.1875H24.6562Z" fill="white"/>
</svg>
