<svg width="59" height="59" viewBox="0 0 59 59" fill="none" xmlns="http://www.w3.org/2000/svg">
<rect width="59" height="59" rx="29.5" fill="#37A4DA"/>
<g clip-path="url(#clip0_1001_7111)">
<path d="M29.5 12.5C22.4705 12.5 16.75 18.2602 16.75 25.3421C16.75 35.4047 28.3015 45.7945 28.7931 46.2308C28.9874 46.4048 29.2389 46.5011 29.4997 46.5013C29.7605 46.5016 30.0123 46.4058 30.2069 46.2323C30.6985 45.7945 42.25 35.4047 42.25 25.3421C42.25 18.2602 36.5295 12.5 29.5 12.5ZM29.5 32.3333C25.5942 32.3333 22.4167 29.1558 22.4167 25.25C22.4167 21.3443 25.5942 18.1667 29.5 18.1667C33.4058 18.1667 36.5833 21.3443 36.5833 25.25C36.5833 29.1558 33.4058 32.3333 29.5 32.3333Z" fill="white"/>
</g>
<defs>
<clipPath id="clip0_1001_7111">
<rect width="34" height="34" fill="white" transform="translate(12.5 12.5)"/>
</clipPath>
</defs>
</svg>
