<svg width="60" height="60" viewBox="0 0 60 60" fill="none" xmlns="http://www.w3.org/2000/svg">
<rect width="60" height="60" rx="30" fill="#433C8C"/>
<path d="M19.64 36.56C19.64 37.5733 19.84 38.2933 20.24 38.72C20.6667 39.12 21.2267 39.32 21.92 39.32C22.6133 39.32 23.16 39.12 23.56 38.72C23.9867 38.2933 24.2 37.5733 24.2 36.56V21.44C24.2 20.4267 23.9867 19.72 23.56 19.32C23.16 18.8933 22.6133 18.68 21.92 18.68C21.2267 18.68 20.6667 18.8933 20.24 19.32C19.84 19.72 19.64 20.4267 19.64 21.44V36.56ZM15.24 21.72C15.24 19.4533 15.8133 17.72 16.96 16.52C18.1067 15.2933 19.76 14.68 21.92 14.68C24.08 14.68 25.7333 15.2933 26.88 16.52C28.0267 17.72 28.6 19.4533 28.6 21.72V36.28C28.6 38.5467 28.0267 40.2933 26.88 41.52C25.7333 42.72 24.08 43.32 21.92 43.32C19.76 43.32 18.1067 42.72 16.96 41.52C15.8133 40.2933 15.24 38.5467 15.24 36.28V21.72ZM34.1794 18.52C35.0327 18.52 35.726 18.4267 36.2594 18.24C36.8194 18.0533 37.2727 17.8 37.6194 17.48C37.966 17.16 38.246 16.7867 38.4594 16.36C38.6727 15.9333 38.8594 15.48 39.0194 15H41.9794V43H37.5794V21.64H34.1794V18.52Z" fill="white"/>
</svg>
