<svg width="60" height="60" viewBox="0 0 60 60" fill="none" xmlns="http://www.w3.org/2000/svg">
<rect width="60" height="60" rx="30" fill="#433C8C"/>
<path d="M15.24 21.72C15.24 19.48 15.8133 17.7467 16.96 16.52C18.1067 15.2933 19.76 14.68 21.92 14.68C24.08 14.68 25.7333 15.2933 26.88 16.52C28.0267 17.7467 28.6 19.48 28.6 21.72V36.28C28.6 38.52 28.0267 40.2533 26.88 41.48C25.7333 42.7067 24.08 43.32 21.92 43.32C19.76 43.32 18.1067 42.7067 16.96 41.48C15.8133 40.2533 15.24 38.52 15.24 36.28V21.72ZM19.64 36.56C19.64 38.4 20.4 39.32 21.92 39.32C23.44 39.32 24.2 38.4 24.2 36.56V21.44C24.2 19.6 23.44 18.68 21.92 18.68C20.4 18.68 19.64 19.6 19.64 21.44V36.56ZM40.1794 21.88C40.1794 20.68 39.9794 19.8533 39.5794 19.4C39.206 18.92 38.646 18.68 37.8994 18.68C36.3794 18.68 35.6194 19.6 35.6194 21.44V24.44H31.4594V21.72C31.4594 19.4533 32.0194 17.72 33.1394 16.52C34.2594 15.2933 35.886 14.68 38.0194 14.68C40.1527 14.68 41.7794 15.2933 42.8994 16.52C44.0194 17.72 44.5794 19.4533 44.5794 21.72C44.5794 23.2933 44.3127 24.7467 43.7794 26.08C43.2727 27.3867 42.6594 28.52 41.9394 29.48C41.2194 30.44 40.286 31.5467 39.1394 32.8C37.9927 34.08 37.1527 35.12 36.6194 35.92C36.086 36.72 35.8194 37.5467 35.8194 38.4C35.8194 38.6667 35.8327 38.8667 35.8594 39H44.1794V43H31.4594V39.56C31.4594 38.2533 31.6594 37.0933 32.0594 36.08C32.4594 35.04 32.9527 34.1333 33.5394 33.36C34.126 32.5867 34.8994 31.68 35.8594 30.64C36.846 29.5467 37.6194 28.64 38.1794 27.92C38.7394 27.1733 39.206 26.2933 39.5794 25.28C39.9794 24.2667 40.1794 23.1333 40.1794 21.88Z" fill="white"/>
</svg>
