<svg width="60" height="60" viewBox="0 0 60 60" fill="none" xmlns="http://www.w3.org/2000/svg">
<rect width="60" height="60" rx="30" fill="#433C8C"/>
<path d="M15.24 21.72C15.24 19.48 15.8133 17.7467 16.96 16.52C18.1067 15.2933 19.76 14.68 21.92 14.68C24.08 14.68 25.7333 15.2933 26.88 16.52C28.0267 17.7467 28.6 19.48 28.6 21.72V36.28C28.6 38.52 28.0267 40.2533 26.88 41.48C25.7333 42.7067 24.08 43.32 21.92 43.32C19.76 43.32 18.1067 42.7067 16.96 41.48C15.8133 40.2533 15.24 38.52 15.24 36.28V21.72ZM19.64 36.56C19.64 38.4 20.4 39.32 21.92 39.32C23.44 39.32 24.2 38.4 24.2 36.56V21.44C24.2 19.6 23.44 18.68 21.92 18.68C20.4 18.68 19.64 19.6 19.64 21.44V36.56ZM39.9394 21.88C39.9394 20.68 39.7394 19.8533 39.3394 19.4C38.966 18.92 38.406 18.68 37.6594 18.68C36.1394 18.68 35.3794 19.6 35.3794 21.44V23.24H31.2194V21.72C31.2194 19.4533 31.7794 17.72 32.8994 16.52C34.0194 15.2933 35.646 14.68 37.7794 14.68C39.9127 14.68 41.5394 15.2933 42.6594 16.52C43.7794 17.72 44.3394 19.4533 44.3394 21.72V22.44C44.3394 23.96 44.086 25.2 43.5794 26.16C43.0727 27.0933 42.2994 27.7733 41.2594 28.2C43.3127 29.1067 44.3394 31.0667 44.3394 34.08V36.28C44.3394 38.5467 43.7794 40.2933 42.6594 41.52C41.5394 42.72 39.9127 43.32 37.7794 43.32C35.646 43.32 34.0194 42.72 32.8994 41.52C31.7794 40.2933 31.2194 38.5467 31.2194 36.28V33.96H35.3794V36.56C35.3794 38.4 36.1394 39.32 37.6594 39.32C38.406 39.32 38.966 39.0933 39.3394 38.64C39.7394 38.16 39.9394 37.3333 39.9394 36.16V33.96C39.9394 32.68 39.7127 31.7733 39.2594 31.24C38.806 30.68 38.0727 30.4 37.0594 30.4H35.5794V26.4H37.2994C38.1794 26.4 38.8327 26.1733 39.2594 25.72C39.7127 25.2667 39.9394 24.5067 39.9394 23.44V21.88Z" fill="white"/>
</svg>
