<svg width="80" height="80" viewBox="0 0 80 80" fill="none" xmlns="http://www.w3.org/2000/svg">
<rect width="80" height="80" rx="20" fill="#FFB236"/>
<path fill-rule="evenodd" clip-rule="evenodd" d="M60.514 58.4876C60.4227 59.4407 60.2644 59.9818 59.7792 60.7954C59.6851 60.9532 59.3829 61.2413 59.2489 61.3831C58.9509 61.6984 58.3443 62.0042 57.9389 62.1595C56.9747 62.5288 55.9011 62.5982 54.8717 62.6239C52.5266 62.6825 50.0203 62.8591 47.6701 63.0172C47.1508 63.0531 46.631 63.083 46.111 63.107C46.0599 63.0786 45.9831 63.0979 45.9512 63.0559C46.0199 62.9588 46.0876 62.9756 45.964 62.9383C46.047 62.9258 46.2686 62.906 46.3283 62.8614C46.1034 62.7099 45.5228 62.6629 45.2356 62.698C45.2045 62.7019 44.7689 62.6945 44.7116 62.647C44.6066 62.5598 44.0533 62.6781 43.7276 62.64C43.7276 62.4986 43.8129 62.1225 43.8489 62.02C43.8988 61.8781 44.1234 59.4356 44.162 59.0735C44.2472 58.278 44.2739 57.6363 44.3282 56.8633L47.8555 56.966L51.8621 57.0073C52.2299 57.0064 52.5333 56.977 52.8845 56.8348C53.632 56.5655 54.2008 55.8776 54.3542 55.087C54.488 54.4343 54.3351 54.0302 54.1945 53.4439L52.744 47.5437L55.0827 39.7816L55.7026 37.6656L56.6994 41.5519C56.8208 41.9956 56.9487 42.438 57.0636 42.8824L58.9104 50.0762L59.8306 53.6919C60.2318 55.218 60.6529 56.9226 60.514 58.4876ZM42.2578 62.5527C42.104 62.5465 41.5037 62.5482 41.4207 62.5107C41.2463 62.4319 41.0612 62.4764 40.8583 62.4732C40.7688 62.4712 40.6794 62.4622 40.59 62.4609L34.6984 62.3899L32.973 62.3472C32.3754 62.3357 31.9852 62.3715 31.4203 62.0249C31.1335 61.849 30.898 61.6016 30.7046 61.3248C30.2309 60.6468 30.3456 59.8719 30.3212 59.1075C30.2988 58.7099 30.2974 58.2664 30.7493 58.0714C30.9508 57.9845 31.3703 58.0173 31.6312 58.0133L36.0978 57.9855C36.7172 57.9834 36.8438 57.4625 37.0754 57.0845L37.7144 55.9665C37.8957 55.6304 38.1037 55.3364 38.4877 55.3007L38.9797 55.4027L39.2162 55.5642C39.3635 55.6146 39.5311 55.8041 39.7274 55.8762C39.8456 55.9196 40.4685 56.3751 40.5518 56.438C40.8924 56.6957 41.2881 56.8746 41.5742 57.1052C41.6817 57.1919 41.9995 57.4389 42.1301 57.4772L42.4944 57.5974C42.7111 57.5101 43.0555 57.539 43.1909 57.4766C43.1909 57.5406 43.1973 57.6032 43.1973 57.6678C43.2229 58.0579 43.2421 58.4577 43.2421 58.8543C43.2421 59.1475 43.2556 60.1426 43.306 60.4128C43.3763 60.8236 43.4146 61.2719 43.4338 61.7478C43.4587 62.2051 43.536 62.2755 43.536 62.6198L42.2578 62.5527ZM27.401 62.4572L29.5097 62.463C29.4206 62.3372 29.1955 62.0722 29.1391 61.9218C29.0673 61.7306 28.9397 61.4987 28.858 61.2507C28.6613 60.654 28.6855 60.1078 28.6855 59.4997C28.6855 59.3634 28.6663 59.2271 28.6663 59.0895L28.6855 58.4081C28.8746 57.1798 29.7978 56.317 31.0178 56.2825L35.5867 56.234C35.9076 55.6887 36.2118 55.1454 36.558 54.6207C36.4256 54.4184 36.32 54.302 36.2001 54.0594C36.0084 53.6816 35.8103 53.3277 35.5803 53.0144C35.4411 52.8212 35.0866 52.046 34.9796 51.8111C34.6334 51.0508 34.2442 50.4213 33.8805 49.6351L32.9923 47.8428C32.7545 47.4842 32.591 47.0144 32.4299 46.7758C32.4165 46.7581 32.4057 46.7385 32.3979 46.7176C32.219 46.3017 31.989 45.9387 31.778 45.559C31.6566 45.3323 31.5545 45.0908 31.4457 44.8575L30.1933 42.3392L27.2859 42.3354C26.9983 42.3301 26.7043 42.3424 26.4105 42.3424L18.9341 42.3527C18.3973 42.3585 17.8542 42.3644 17.3111 42.3708L14.2439 42.3747C14.3066 42.5772 15.972 46.0044 16.1993 46.4856L18.308 51.0281L20.0142 54.78L23.5159 62.4234L27.401 62.4572ZM29.0815 40.2383L28.9537 40.6258L30.7237 40.6328C31.4804 40.6535 31.5605 41.3406 31.8674 41.9762C32.4827 43.2506 33.0137 44.4791 33.5928 45.7579L34.9219 48.8452C34.9782 48.9786 35.0294 49.1141 35.0753 49.2515C35.3651 50.1226 35.7623 50.9574 36.0529 51.8143L36.6791 53.5898L36.8773 54.2938C37.5656 53.6675 38.6231 53.4893 39.4525 53.9186C39.984 54.1936 41.1523 55.2304 41.3568 55.479C41.5102 55.6637 41.6891 55.8264 41.8679 55.9905L42.6283 56.7778C42.6913 56.8528 42.7182 56.8303 42.8966 56.874C42.9862 56.8965 43.0756 56.9302 43.165 56.9625C43.1521 56.6968 43.1457 56.4308 43.1457 56.1648C43.1457 55.8354 43.4078 55.566 43.7336 55.5654C44.0439 55.5652 45.7931 55.5598 46.0852 55.5215C46.5301 55.4631 47.0676 55.5137 47.4015 55.4634C47.4248 55.4598 47.4483 55.4585 47.4719 55.4595C47.9702 55.4756 48.4367 55.424 48.9096 55.3943C49.1907 55.3762 49.4783 55.3904 49.7595 55.3859L51.651 55.3426L51.9961 55.3335C52.517 55.2841 52.8103 54.8698 52.6799 54.3867L52.1047 52.0757C52.0281 51.7579 51.9386 51.444 51.8555 51.1276L50.9993 47.7316C50.9618 47.581 50.9662 47.4231 51.0121 47.2749L52.4306 42.6504C52.5968 42.0723 52.7693 41.495 52.9419 40.9175L54.469 35.9487C54.5841 35.5747 54.6927 35.1943 54.8141 34.8249C54.7812 34.8214 54.7864 34.7902 54.7438 34.8074C54.7438 34.8094 54.7374 34.8094 54.7374 34.8074C54.7182 34.7738 54.6608 34.7945 54.616 34.7978C54.5904 34.7997 54.584 34.7758 54.5649 34.7668L54.4371 34.719L53.1334 33.7611L52.7117 33.4725C52.5694 33.3724 52.1186 32.8308 52.0472 32.7937L51.421 32.2214C51.3442 32.2029 51.4463 32.1861 51.3635 32.0858C51.2247 32.268 51.1622 32.4089 51.0759 32.5417C50.8714 32.7981 50.7308 33.0797 50.5711 33.3529C50.4753 33.5156 50.3539 33.6617 50.2452 33.8173L49.7597 34.5433C50.0792 34.9715 50.3923 35.4069 50.7117 35.8306C50.8651 36.0262 51.0057 36.2226 51.1462 36.4215C51.5283 36.926 51.2036 37.3444 50.9608 37.7877C50.8587 37.975 50.7691 38.1713 50.6733 38.3612L48.1366 43.2242C47.9573 43.5768 47.7805 43.9308 47.6063 44.286L46.7691 45.8929L46.0215 47.3178C45.8809 47.5807 45.7532 47.8532 45.6063 48.1045C45.3507 48.5294 45.159 48.9861 44.9225 49.4181C44.6375 49.931 44.3851 50.4885 44.1174 51.0089L43.3634 52.455C43.1333 52.8974 42.5965 53.0705 42.1556 52.8393C41.636 52.5673 41.6944 52.0635 41.638 51.8775C41.5232 51.6459 41.4017 51.4176 41.2737 51.1929C40.9175 50.5712 40.5678 49.8577 40.2258 49.2217C40.1299 49.048 40.0278 48.8787 39.9319 48.7044C39.6755 48.205 39.4135 47.7085 39.146 47.215C38.8137 46.5976 38.4686 45.9846 38.1299 45.3704L36.2384 41.8297C35.4494 40.3357 34.6496 38.8528 33.8869 37.3421C33.7272 37.0257 33.7644 36.6676 33.9637 36.3979L35.3504 34.5584L33.6378 32.0628C33.625 32.0803 33.6123 32.0964 33.6058 32.1145C33.5243 32.2711 33.2202 32.463 33.2032 32.5402C33.1835 32.6305 33.0753 32.6555 33.0753 32.721C33.005 32.7546 32.9795 32.8398 32.9412 32.9083L32.8005 33.031C32.6005 33.2745 32.2373 33.573 31.9762 33.7454C31.9379 33.7719 31.9059 33.8112 31.8676 33.843L30.187 35.1948L30.0784 36.008L29.6056 38.0179L29.2414 39.7824C29.2197 39.8644 29.2597 39.9156 29.1711 39.9646C29.1314 39.9863 29.0817 40.238 29.0815 40.2383ZM35.8614 30.4041C36.1782 30.1109 36.895 29.5691 37.0754 29.3584C37.4006 28.9787 37.8078 28.7037 37.9956 28.4806C38.034 28.4347 38.0723 28.3953 38.117 28.3586L38.6091 28.7092L38.8263 30.5513C38.8103 30.7529 39.0004 31.6625 39.0308 31.9915L39.2736 34.1365C39.3082 34.3982 39.4173 35.1628 39.4142 35.3643C39.4089 35.709 39.4636 35.8788 39.5036 36.189L40.6794 44.9258L40.9669 47.0824C40.8711 46.8862 40.756 46.693 40.6538 46.4979L39.0691 43.4687C38.8774 43.1213 38.6922 42.7725 38.5005 42.4244L37.5547 40.6237L35.9508 37.5713C35.8549 37.3827 35.7398 37.1999 35.6504 37.0107C36.0764 36.3793 36.6278 35.6952 37.0882 35.0265C37.2799 34.7488 37.2799 34.3671 37.0627 34.0887L36.1425 32.9009C36.0338 32.7504 35.9315 32.5883 35.8102 32.4468C35.5994 32.2079 35.3821 31.9883 35.2032 31.7119C35.1441 31.6303 34.9512 31.4479 34.8325 31.2501C35.2385 30.9296 35.4434 30.7901 35.8614 30.4041ZM40.0916 29.4294C39.6891 29.2841 39.2929 29.1091 38.9223 28.8985L39.9511 33.3796C40.2004 34.4487 40.4222 35.7247 40.6221 36.8073L40.9287 38.4692L41.2929 40.4261L41.6891 42.5439L42.5007 47.2646L44.373 37.0087L44.7244 35.1169C44.7844 34.8242 44.7768 34.5908 44.8969 34.3173L45.3506 32.0747C45.4209 31.735 45.4848 31.3831 45.5615 31.0588C45.6265 30.8003 45.7748 29.6537 45.8235 29.603L45.9769 28.9003C45.668 29.0903 44.727 29.5263 44.3794 29.5992C43.766 29.7277 43.5786 29.8074 42.9096 29.8421C41.9242 29.8932 41.0234 29.7668 40.0916 29.4294ZM47.0567 28.272C47.0375 28.2436 47.0119 28.2151 46.9928 28.1867L46.3156 28.6841C46.3028 28.8113 46.2836 28.9385 46.2708 29.0645L45.8938 32.9321C45.7335 34.618 45.5668 35.9787 45.3443 37.6457L45.127 39.263L44.7308 42.2334L43.9577 47.6731C44.4885 46.6568 45.0782 45.5117 45.5616 44.4844L46.731 42.1851L47.3508 40.9967L48.4244 38.9028L49.4468 36.991L48.0793 35.0797C47.9755 34.935 47.9191 34.7616 47.918 34.5835C47.9168 34.4053 47.9709 34.2312 48.0729 34.0851L50.1752 31.2607L49.8941 30.9958C49.6768 30.7619 49.434 30.5463 49.1911 30.3253L47.0567 28.272ZM61.5173 54.5161C61.2879 53.4309 60.9649 52.263 60.7185 51.1665C60.416 49.8196 60.0484 48.3826 59.7217 47.0284C59.0795 44.3666 58.4647 41.7434 57.7791 39.0918C57.5492 38.2029 57.3105 37.3767 57.0954 36.4695C56.9357 35.8089 56.7375 35.1629 56.5841 34.4977C56.4956 34.1134 56.1618 33.8324 55.7598 33.8324C55.7179 33.6926 55.5333 33.4411 55.4019 33.3706C55.3955 33.3687 55.3955 33.3668 55.3955 33.3616C55.3885 33.3142 55.2872 33.252 55.2548 33.2183C55.2421 33.2054 55.2356 33.1846 55.2228 33.1724L54.6733 32.7454C54.4052 32.5715 54.2992 32.5546 54.0854 32.3915C54.0662 32.378 54.0406 32.3773 54.0279 32.3658C53.8071 32.193 53.6629 32.1517 53.5038 32.0558C53.2581 31.9074 53.0612 31.7122 52.6924 31.5087L52.5199 31.415C52.4895 31.4194 52.5328 31.3824 52.4688 31.3744C52.3901 31.3645 52.199 31.1147 51.8234 31.1528C51.8234 30.7938 51.587 30.6624 51.3314 30.4837C50.8265 30.1309 50.0723 29.626 49.5549 29.3315C49.1041 29.0748 48.6268 28.7519 48.1811 28.4725C48.1226 28.4356 48.0605 28.4046 47.9958 28.3801C47.753 28.293 47.4973 28.1567 47.2354 27.9939C47.2354 27.9907 47.2289 27.9887 47.2226 27.9855C48.2434 27.07 49.0214 25.8089 49.3249 24.4583C49.4549 23.8802 49.4678 23.7748 49.5038 23.2091C49.543 22.5953 49.4887 21.8617 49.3505 21.2547C49.201 20.6732 49.0266 20.1147 48.7243 19.5561C47.9613 18.1462 46.9916 17.2079 45.4717 16.6716C44.8566 16.4544 44.1552 16.3303 43.5101 16.3169C43.4409 16.3156 42.7812 16.3101 42.8008 16.397C42.8519 16.4274 42.9349 16.4113 42.9669 16.457C42.9115 16.5327 42.8124 16.5318 42.9477 16.5726C42.8602 16.5771 42.6356 16.5957 42.5706 16.6372C42.6712 16.705 43.0429 16.8129 43.1648 16.831L43.7207 16.9163C44.3073 17.0609 44.0297 17.0845 44.2639 17.1424C44.7791 17.2697 44.9055 17.3237 45.331 17.6074C45.8187 17.9326 46.2929 18.2976 46.6729 18.7493C46.7613 18.8543 46.7197 18.9222 46.9222 19.1284C47.1444 19.3548 47.5326 20.0679 47.6442 20.3206C48.1837 21.5419 48.2616 22.9351 47.9062 24.2211C47.8176 24.5421 47.5723 25.0927 47.4077 25.3708C46.3979 27.0776 44.7858 27.9878 42.8644 28.1765C42.4389 28.1977 41.6363 28.1736 41.2477 28.0351C40.6458 27.827 40.5106 27.8503 39.8099 27.4318C38.1443 26.4371 37.1854 24.815 37.0942 22.837C37.048 21.8368 37.4315 20.4725 37.9376 19.625C38.0016 19.5203 38.0846 19.4306 38.1421 19.3221C38.2379 19.1438 38.3274 18.9525 38.4872 18.808L38.5894 18.6582C38.6804 18.5616 38.7919 18.49 38.8769 18.3442C39.0237 18.0925 40.1906 17.3753 40.4233 17.2657C40.7075 17.1317 41.1285 17.0453 41.2668 16.9569C41.6618 16.7043 41.9024 16.7747 42.0464 16.6624C42.1572 16.576 42.2988 16.6113 42.3275 16.5797C42.385 16.5221 42.4744 16.508 42.5703 16.4802C42.3474 16.416 42.3389 16.354 42.2892 16.3355C42.0152 16.2341 42.09 16.2066 42.0016 16.185C41.4882 16.0602 41.1018 16.1128 40.583 16.1681C39.9844 16.232 39.5851 16.4538 39.0686 16.6202C38.4909 16.8064 37.6883 17.4719 37.2603 17.9294C36.6469 18.5853 36.2649 19.1917 35.9376 20.0265C35.8655 20.2105 35.8335 20.2327 35.7395 20.5128C35.439 21.4087 35.3158 22.5167 35.4072 23.4387C35.5908 25.2909 36.4572 26.9279 37.8481 28.1421L36.5765 28.7905C35.9425 29.0981 35.3478 29.495 34.7297 29.7973C34.4052 29.9562 33.8135 30.338 33.5029 30.5401V30.5407C33.3997 30.6087 33.3156 30.702 33.2585 30.8116C33.2015 30.9212 33.1734 31.0436 33.177 31.1672C32.9839 31.1916 32.8633 31.284 32.7042 31.2886C32.5375 31.2934 31.9785 31.6389 31.8032 31.76L31.5157 31.9776L30.5253 32.6733L29.4006 33.6234L28.883 34.0903C28.6609 34.2569 28.6095 34.5141 28.5699 34.7788C28.5635 34.8241 28.5699 34.8712 28.5635 34.9171L28.4548 35.687C28.4548 35.7586 28.4613 35.8304 28.4548 35.9007C28.4421 35.9963 28.4165 36.0887 28.4228 36.1876L28.1736 37.8759C28.1661 37.9545 28.1619 38.0334 28.1608 38.1123C28.1496 38.2596 28.0745 38.6549 28.0905 38.7886C28.097 38.8424 28.0532 38.7819 28.065 38.9301C28.0714 39.0114 27.9469 39.6899 27.9882 40.012L28.0905 40.6088C23.9456 40.5882 19.7714 40.58 15.63 40.6442L12.8504 40.6875C12.3185 40.692 11.8836 41.259 12.1539 41.8437C12.8486 43.3461 13.5791 44.8199 14.2818 46.3171C14.4735 46.7279 14.6652 47.1418 14.8697 47.5476C15.0421 47.8932 15.2147 48.2374 15.3617 48.5933C15.4128 48.7062 15.4703 48.8181 15.5278 48.9298L17.2467 52.4725C18.9576 56.0903 20.6586 59.7075 22.3971 63.3116C22.5212 63.5677 22.6555 63.8216 23.036 63.8186C23.3811 63.8166 23.7198 63.8148 24.0584 63.8076C24.4994 63.7985 24.9403 63.8198 25.3748 63.7875C25.4301 63.7826 25.4857 63.7826 25.541 63.7875C25.8309 63.816 26.2929 63.7838 26.6209 63.781L31.407 63.7333C31.6486 63.8238 32.1953 63.8846 32.4677 63.8831L37.305 63.8198L38.5574 63.7876C38.6309 63.7756 38.7341 63.8134 38.9791 63.7896L39.7715 63.7728C41.4107 63.7415 41.9665 63.7293 43.6374 63.5029C43.9024 63.4669 43.8458 63.4595 44.1039 63.4958C44.5551 63.5593 45.3997 63.5877 45.8675 63.5759C46.0423 63.5715 46.9504 63.6017 47.0433 63.6418C47.2048 63.7116 48.8766 63.6563 49.3181 63.6877C50.2915 63.757 51.6218 63.7849 52.6217 63.8058C52.965 63.8126 54.3517 63.8174 54.5451 63.8536C54.9441 63.9285 55.6892 63.8765 56.1426 63.8433C59.5854 63.5909 61.7843 61.7591 61.9192 58.1621C61.9665 56.9222 61.7891 55.6725 61.5173 54.5161Z" fill="white"/>
</svg>
