<svg width="80" height="80" viewBox="0 0 80 80" fill="none" xmlns="http://www.w3.org/2000/svg">
<rect width="80" height="80" rx="20" fill="#FFB236"/>
<g clip-path="url(#clip0_1001_10262)">
<path d="M65.2038 35.1381C65.0179 37.457 64.2252 39.6774 63.908 41.9668C63.4337 45.1314 63.2405 48.3401 63.2127 51.5402C63.1709 53.914 63.1981 56.5792 63.2128 58.9716C63.1749 59.7149 63.5377 61.3688 62.3232 61.3631C60.5899 61.3817 58.481 61.3693 56.7346 61.3653C56.2218 61.369 55.8051 60.9455 55.8173 60.4328C55.8394 59.4575 55.8667 58.4846 55.8997 57.5139C56.1286 51.4803 56.3427 45.4353 56.4899 39.4018C56.3533 39.597 56.1373 39.7751 56.0069 39.9706C55.6914 40.3854 55.4117 40.9053 54.9653 41.215C55.0847 44.1879 54.7058 47.4534 53.059 49.9839C53.0833 49.7803 53.1823 49.5853 53.2363 49.3842C53.1229 49.5607 53.1766 49.4137 53.1353 49.3156C53.0721 49.3548 53.0417 49.4784 52.9837 49.5368C53.6554 47.1398 54.0476 44.5573 53.7403 42.0325C53.274 42.4912 52.71 43.1177 52.238 43.5591C51.1526 44.8531 50.7827 44.8403 49.998 43.3275C49.5985 42.6579 49.1941 41.9911 48.7849 41.3273C48.305 40.5217 47.4819 38.8506 46.386 39.2238C46.9428 41.7518 49.0856 44.1938 48.1013 46.9399C47.4343 48.7823 45.9173 50.339 45.7625 52.3266C45.5948 54.5497 45.7623 57.268 45.7278 59.535C46.7937 59.5418 48.0526 59.5642 49.1136 59.5702C49.1956 57.8726 48.9703 56.0969 49.5645 54.4715C50.4035 52.777 51.4824 51.1374 52.9165 49.9119C52.5258 51.2427 51.9201 52.4725 51.2699 53.6977C50.1983 55.7221 50.8633 58.0171 50.8115 60.1914C50.9053 60.7183 50.6073 61.286 50.0258 61.2959C48.2867 61.3296 46.5419 61.2974 44.8022 61.3126C44.6886 61.3128 44.5761 61.2906 44.4712 61.2473C44.3662 61.2039 44.2709 61.1403 44.1906 61.06C44.1103 60.9797 44.0466 60.8843 44.0032 60.7793C43.9599 60.6744 43.9377 60.5619 43.9379 60.4483L43.9324 57.191C43.9736 55.3854 43.7898 53.5761 44.0574 51.769C43.1497 52.8008 42.1122 53.7873 41.2037 54.8132C40.1168 55.9625 38.9956 54.994 38.1356 54.1385C37.4821 53.5319 36.7325 52.8344 36.1275 52.1818C36.3725 54.4657 36.2147 57.0419 36.2779 59.3242C36.3026 60.1974 36.4115 61.5081 35.1489 61.3668C33.7458 61.3435 32.0085 61.3576 30.6199 61.3093C30.0247 61.3821 29.3166 61.1578 29.3237 60.4483C29.2228 58.3273 29.6939 56.1327 29.0359 54.0738C28.4443 52.6564 27.6876 51.3007 27.5349 49.762C28.6848 51.1331 29.7067 52.6226 30.4298 54.2774C31.0135 55.9834 30.9123 57.8158 31.0018 59.5887C32.1636 59.5859 33.3245 59.5853 34.4859 59.5898C34.4193 57.126 34.6531 54.178 34.2766 51.7617C33.8753 50.1981 32.8254 48.8939 32.1446 47.4303C30.734 44.6341 32.823 41.8951 33.6241 39.3154C32.8382 39.1685 32.2235 40.06 31.8796 40.669C31.3142 41.6441 30.7235 42.6056 30.1543 43.5784C29.4274 45.0338 28.8674 44.8674 27.8954 43.7371C27.8166 43.6697 26.5248 42.3277 26.5008 42.316C26.3859 43.9611 26.5522 45.6277 26.987 47.2069C27.0905 48.0548 27.6124 48.8284 27.6773 49.6899C27.5466 49.5538 27.4752 49.3566 27.3755 49.1922C27.4226 49.3928 27.3531 49.2533 27.2558 49.2165C27.2394 49.2882 27.3071 49.3947 27.3089 49.4767C25.8162 47.0392 25.0511 43.9278 25.3587 41.037C25.1182 40.872 24.8936 40.6849 24.6879 40.4781C24.3408 40.2469 23.9963 39.9888 23.6605 39.7189C23.6054 46.6333 24.2116 53.5194 24.2825 60.4341C24.2941 60.9166 23.9017 61.3152 23.4192 61.3119L17.8431 61.3176C17.0062 61.3039 16.9127 60.4728 16.9764 59.8146C16.9817 58.5216 16.9913 57.2327 16.9877 55.9445C16.9701 54.1289 16.9405 52.0762 16.8797 50.2652C16.7428 46.6696 16.4914 43.0567 15.6551 39.55C14.1678 34.4178 14.1053 28.3285 17.528 23.9353C19.0222 21.9792 21.1621 20.3682 23.6574 20.0308C24.5013 19.962 25.6401 19.7426 26.1724 20.5814C28.5697 18.961 31.752 19.0111 34.4064 19.94C36.505 20.7252 38.3864 22.0159 40.0638 23.4806C43.7782 19.7821 49.4268 17.336 54.2691 20.428C54.6288 20.0593 55.1755 20.0794 55.6514 20.0881C56.8279 20.1099 57.9944 20.4146 59.0328 20.961C64.0597 23.6309 65.7913 29.7964 65.2038 35.1381ZM40.1472 53.6686C40.144 53.6579 40.142 53.64 40.1286 53.6452C40.1346 53.653 40.1405 53.6613 40.1472 53.6686ZM63.6576 32.5333C63.7086 27.8881 61.0938 22.2804 56.062 21.5585C58.2744 23.3191 59.8489 25.8631 60.3347 28.6562C60.4249 29.3767 60.892 32.3766 59.7414 32.2848C59.0048 32.2374 58.1524 32.4597 57.6298 31.8081C56.7423 31.0313 55.8615 30.2422 54.9867 29.4523C54.6715 29.1979 54.1643 28.4993 53.7743 28.9395C53.7801 28.9418 53.7738 28.9368 53.781 28.9395C53.7804 28.936 53.7834 28.9479 53.7796 28.949C53.8203 30.535 55.311 31.6883 55.8746 33.1181C55.6339 32.8752 55.4313 32.5869 55.206 32.3239C55.2185 32.3476 55.2278 32.3683 55.2412 32.3902C55.3749 32.609 55.1715 32.3867 55.085 32.3611C55.1104 32.4695 55.253 32.6293 55.3053 32.7526C54.3551 31.8588 51.2353 27.9052 54.3822 28.0111C55.9403 28.776 57.1585 30.098 58.5699 31.1023C58.783 31.0948 58.9966 31.0882 59.2105 31.0827C59.3154 27.9668 57.9 24.8912 55.493 22.9176C50.8265 18.7712 44.5741 21.1849 40.7102 25.2233C40.0739 25.87 39.3677 25.2012 38.8879 24.7225C38.7019 24.5485 38.3097 24.2086 38.1158 24.0429C34.8589 21.1084 30.4543 19.5507 26.3435 21.6723C26.2448 21.9863 25.9404 22.1113 25.6961 22.2888C25.1043 22.6972 24.5424 23.1596 24.0313 23.6704C22.0731 25.5665 21.0781 28.2672 21.0772 30.9673C21.2239 30.9696 21.37 30.9755 21.5167 30.9789C22.7977 29.9391 23.9832 28.8338 25.3525 27.9026C25.8625 27.5648 26.6711 27.6433 27.1287 28.0842C28.5082 29.2898 25.7512 32.5372 24.8228 33.4795C24.9427 33.1894 25.1808 32.897 25.3498 32.6162C25.3309 32.6354 25.314 32.6508 25.297 32.6704C25.1287 32.8657 25.2792 32.603 25.2773 32.5124C25.182 32.5704 25.0723 32.7549 24.9707 32.842C25.2461 32.082 28.1703 28.3781 25.9345 28.5453C24.5406 29.5215 23.3951 30.9019 22.0888 32.0106C21.6003 32.283 20.9604 32.099 20.4127 32.1724C19.87 32.1932 19.8322 31.5783 19.8252 31.1796C19.7951 30.7093 19.8024 30.222 19.8401 29.7523C20.023 27.1096 21.1916 24.5698 23.0424 22.6818C23.499 22.2319 23.9741 21.7992 24.4846 21.4082C19.2629 21.837 16.3452 27.591 16.3237 32.356C16.1376 35.5627 17.3301 38.5822 17.8204 41.7142C18.7581 47.5856 18.7808 53.5988 18.7593 59.5294C19.8932 59.5237 21.3396 59.5201 22.4858 59.5273C22.4116 53.8145 22.0958 48.0837 22.3391 42.3722C22.5304 40.1422 22.6085 37.8787 23.202 35.7108C23.4418 34.7578 24.0258 34.1044 24.6901 33.3911C23.9642 34.7625 23.8248 36.2481 23.7633 37.768C23.7911 37.8214 23.896 37.7842 23.9279 37.8284C23.9532 37.8531 23.9896 37.8672 24.0188 37.8879C24.0374 37.8986 24.0896 37.8684 24.099 37.8888C24.1093 37.8978 24.1145 37.9122 24.1453 37.9001C24.1652 37.9255 24.2075 37.9183 24.2576 37.912C24.5101 38.0145 24.7056 38.2633 24.9119 38.4503C25.1107 38.6239 25.3034 38.8042 25.4898 38.991C25.7679 39.1681 25.9207 39.4692 26.1069 39.7325C26.2776 39.9425 26.4526 40.1638 26.6269 40.3654C26.6465 40.3696 26.657 40.3822 26.6307 40.43C26.6246 40.6331 27.2441 41.1469 27.3766 41.2917C27.8558 41.7602 28.4681 42.3608 28.9442 42.8213C29.5633 41.7542 30.2795 40.4717 30.8931 39.4052C32.3247 36.8258 36.416 37.3041 34.8494 40.7186C34.1149 42.6154 32.759 44.7787 33.7252 46.808C34.2655 47.7457 34.6618 48.8516 35.6068 49.4457C35.9489 49.6535 36.2635 49.9031 36.5797 50.1598C37.7396 51.2557 38.9098 52.4466 40.0602 53.5575C41.2437 52.443 42.4695 51.3642 43.6407 50.2351C43.8355 50.0723 44.0699 49.7459 44.2959 49.6577C45.2138 49.1157 45.6419 48.0727 46.1269 47.1805C47.4959 44.9482 45.6903 42.5064 45.0004 40.3207C44.0279 37.8453 46.77 36.7919 48.4654 38.3426C48.9611 38.7306 49.3305 39.2828 49.6202 39.8324C50.1684 40.7537 50.6935 41.6906 51.2369 42.6144C51.8119 42.0544 52.9657 40.9176 53.53 40.3524C53.533 40.0713 53.8853 39.85 54.0577 39.6353C54.2301 39.4378 54.4093 39.2462 54.5949 39.061C54.7569 38.813 55.0123 38.6562 55.2609 38.4992C55.4999 38.3333 55.7116 38.1207 55.9483 37.952C55.9711 37.9007 55.9844 37.9122 56.0476 37.9328C56.1349 37.8893 56.2125 37.8207 56.3211 37.8162C56.3843 37.8174 56.3365 37.6755 56.4106 37.7344C56.451 37.7625 56.4518 37.7387 56.4853 37.7314C56.4294 36.1868 56.3188 34.6634 55.7422 33.2063C58.0662 35.9796 57.5406 40.3343 57.7481 43.7628C57.9304 49.0395 57.7774 54.3091 57.6111 59.5833L61.4374 59.5795C61.4094 54.3817 61.3124 49.1485 61.9377 43.9798C62.1949 40.1136 63.7728 36.4305 63.6576 32.5333Z" fill="white"/>
</g>
<defs>
<clipPath id="clip0_1001_10262">
<rect width="52" height="43" fill="white" transform="translate(14 19)"/>
</clipPath>
</defs>
</svg>
