<svg width="80" height="80" viewBox="0 0 80 80" fill="none" xmlns="http://www.w3.org/2000/svg">
<rect width="80" height="80" rx="20" fill="#29A55C"/>
<path d="M19.9398 36.0306C18.5248 40.3777 21.8236 46.4338 28.0064 46.9834C28.873 47.0534 29.524 46.9874 30.0056 46.895C30.0618 46.954 30.1221 47.0143 30.1914 47.0775C30.6285 47.4731 31.3349 47.9322 32.2162 48.2158C32.8611 48.4333 33.5957 48.5502 34.3282 48.5498C44.6315 58.0856 42.0522 66.7145 53.3252 67.192C54.4349 67.2311 55.5602 67.148 56.6374 66.8538C65.1693 64.5561 59.7039 57.3572 58.0975 52.9722C56.6056 48.7258 56.3758 44.9545 55.9375 40.9232C55.8523 40.0342 55.7753 39.4084 55.7028 38.964C55.9449 38.6845 56.1629 38.3849 56.3542 38.0685C57.1528 36.7183 57.3267 35.5124 57.3504 34.6397C57.3622 33.9667 57.2668 33.4672 57.1548 33.103C57.4168 32.7567 57.7712 32.2254 58.1053 31.3621C60.2808 25.6764 57.1748 19.8537 54.1494 19.0148C53.9111 18.9442 53.6648 18.9038 53.4164 18.8947C53.3602 18.7199 53.2926 18.5349 53.2082 18.3365C51.0714 13.4545 45.0528 12.5949 41.6994 15.3616C41.2402 15.7462 40.9954 16.073 40.953 16.2274C40.6618 15.9871 40.3505 15.7723 40.0225 15.5853C35.6649 13.1172 30.8762 14.9428 29.3839 18.0375C29.0967 18.6372 29.0518 19.0503 29.1451 19.0988C28.9668 19.0427 28.7875 18.9897 28.6074 18.9399C22.7024 17.3836 18.885 22.3495 20.1439 26.3266C20.2571 26.6945 20.3899 26.9662 20.5052 27.1402C20.4194 27.1756 20.3349 27.214 20.2518 27.2555C16.1399 29.3516 17.7129 35.0557 19.9398 36.0306ZM56.5645 53.5117C57.8604 57.1698 63.8114 65.9046 53.3655 65.6638C42.2034 65.3868 44.6767 54.7261 35.2713 48.908C35.0568 48.775 34.8371 48.6508 34.6125 48.5356C34.7784 48.5282 34.9446 48.5242 35.1079 48.5042C36.0898 48.3914 36.9755 48.0284 37.5931 47.6597C37.7944 47.5378 37.9753 47.4119 38.1472 47.2848C38.4316 47.5814 38.7917 47.9522 39.2052 48.3942C45.738 55.2875 47.8781 61.9295 51.3484 60.0493C51.7312 59.8291 52.0456 59.5073 52.2569 59.1196C52.6489 58.3952 52.6949 57.6387 52.5413 56.942C52.4032 56.3692 52.1575 55.9023 51.9098 55.5092C51.8284 53.0036 51.0763 48.7458 51.2238 43.4658C51.2299 43.0698 51.2401 42.7382 51.2494 42.4595C51.2547 42.1808 51.2445 41.9527 51.2425 41.7689C51.2398 41.6134 51.2207 41.4585 51.1855 41.307C52.1979 41.1978 53.2706 40.8425 54.1795 40.2762C54.395 40.1434 54.5963 39.9971 54.7878 39.8444C54.775 40.2227 54.7675 40.6012 54.7654 40.9798C54.7939 45.2462 55.1797 49.4392 56.5645 53.5117ZM47.6264 40.7011C47.7771 40.7908 47.9727 40.8865 48.2118 40.979C48.7088 41.1664 49.3986 41.3277 50.182 41.3518C50.1463 41.4289 50.1134 41.5073 50.0834 41.5868C50.0101 41.7689 49.951 42.0004 49.8838 42.2896C49.8133 42.5789 49.7502 42.9264 49.6996 43.3448C48.8417 49.8605 53.8348 62.9004 45.9438 45.1985L45.7091 44.6721L45.6125 44.4713C45.8448 44.303 46.0621 44.1148 46.2619 43.9091C47.001 43.1236 47.3261 42.3552 47.4931 41.7767C47.6206 41.3196 47.6431 40.9664 47.6264 40.7011ZM50.424 56.2608C50.6526 56.6043 50.8445 56.962 50.9361 57.327C51.016 57.6419 50.9862 58.0547 50.8314 58.339C50.7589 58.4857 50.6591 58.5814 50.5528 58.6527C49.3839 59.2789 47.6508 56.6931 46.5337 55.3364C44.6075 52.9902 42.0942 49.9362 39.6489 47.9249C39.2716 47.6086 38.8823 47.307 38.4817 47.0208C38.9831 46.6001 39.4172 46.1052 39.7691 45.5534C39.9312 45.2947 40.0494 45.0604 40.1386 44.8498C40.2054 44.895 40.2792 44.9414 40.3643 44.9883C40.7819 45.2136 41.4244 45.4311 42.1691 45.4727C42.9127 45.5265 43.7491 45.3998 44.4909 45.1019C44.5655 45.0726 44.6331 45.0343 44.7052 45.0017C44.7378 45.1704 44.7769 45.3611 44.8328 45.5749C46.1576 50.7951 49.4308 54.8109 50.424 56.2608ZM21.0157 28.5791C21.4024 28.3062 21.6969 28.1746 21.8978 28.0585C22.3052 27.8393 22.3431 27.6511 22.3296 27.4156C22.319 27.1972 22.3064 26.956 21.6708 26.9075C21.4598 26.8978 21.1693 26.9206 20.8141 27.029C20.8079 26.8326 20.7855 26.5572 20.7815 26.2211C20.7041 22.7785 23.1342 19.6712 28.2814 20.4338C29.073 20.5683 29.643 20.6628 30.0374 20.6775C30.8306 20.7117 30.9051 20.5035 30.9491 20.2823C30.9948 20.0541 31.0045 19.8561 30.3132 19.5375C29.9365 19.3686 29.5498 19.223 29.1553 19.1016C29.2694 19.1379 29.5094 18.8291 29.9168 18.4033C32.1335 16.0958 35.4005 15.2724 39.3258 16.9456C39.9642 17.2251 40.3851 17.4524 40.6906 17.5824C41.2969 17.8525 41.4505 17.7311 41.6004 17.5514C41.7438 17.3803 41.8754 17.1962 41.3853 16.6368C41.2849 16.5273 41.1788 16.4231 41.0675 16.3247C41.2374 16.2921 41.5711 16.1165 42.0412 15.9092C45.8765 14.2559 49.7718 15.3592 51.8296 18.9973C52.1971 19.6606 52.3637 20.1523 52.5059 20.4811C52.9487 21.5998 53.9888 21.4434 53.559 19.4227C53.6637 19.4756 53.7741 19.5347 53.8919 19.6072C56.3172 21.0592 58.3827 26.0349 56.2202 32.212C56.0287 32.2869 55.9 32.4287 55.8983 33.0321C55.8874 33.3658 55.9134 33.8469 55.825 34.5436C55.7305 35.2313 55.5529 36.1663 54.9312 37.2158C54.5877 37.7841 54.0634 38.4637 53.3244 39.0092C52.5878 39.5555 51.6613 39.9743 50.7552 40.1719C49.8508 40.3899 48.9851 40.3858 48.3532 40.3487C48.0146 40.3255 47.7425 40.2958 47.553 40.2901C47.4365 39.9421 47.243 39.9344 47.0523 39.9324C46.8185 39.9291 46.6258 39.9637 46.4396 40.3675C46.3406 40.5671 46.2424 40.8604 46.0525 41.2666C45.8602 41.6679 45.5905 42.2024 45.0593 42.7659C44.7664 43.0714 44.3626 43.4328 43.8485 43.7151C43.3119 44.0071 42.7293 44.205 42.1259 44.3002C41.4057 44.4293 40.7448 44.3743 40.3097 44.3564C40.3354 44.2578 40.3545 44.1678 40.368 44.0875C40.4645 43.4067 40.2437 43.3322 40.0315 43.2707C39.8058 43.2034 39.6135 43.1916 39.2798 43.6491C39.1062 43.8732 38.8948 44.2175 38.5204 44.6721C38.1456 45.1199 37.6159 45.707 36.7412 46.2366C36.2609 46.5201 35.6131 46.833 34.8598 46.9956C34.1082 47.1634 33.2612 47.1899 32.492 47.075C31.8658 46.9919 31.304 46.8184 30.8469 46.6497C31.0599 46.5568 31.1854 46.4664 31.2563 46.3849C31.3663 46.2602 31.3484 46.1527 31.3215 46.041C31.2946 45.9298 31.2579 45.8259 31.1137 45.7554C30.9695 45.6862 30.7189 45.6519 30.2643 45.6393C29.8096 45.6132 29.1447 45.6214 28.1865 45.4649C22.0461 44.4216 19.6697 38.405 21.1412 35.0532C21.4643 34.3036 21.8713 33.9296 21.791 33.8274C21.7434 33.7451 21.1599 33.9516 20.5831 34.7281C20.394 34.9803 20.2233 35.2965 20.0779 35.653C19.9129 35.215 19.5397 34.4731 19.3274 33.5768C18.8308 31.5927 19.3706 29.7671 21.0157 28.5791Z" fill="white"/>
<path d="M28.4492 31.9819C28.6566 32.3119 28.8635 32.2895 29.0892 32.2516C29.3153 32.2137 29.517 32.1636 29.6066 31.7896C29.6519 31.6034 29.6677 31.3362 29.6584 30.9589C29.6519 30.5824 29.6107 30.094 29.6111 29.4792C29.6136 29.1451 29.6152 28.7149 29.671 28.2843C29.7264 27.8483 29.8393 27.3888 30.001 26.9875C30.1574 26.5821 30.3669 26.2407 30.5347 25.98C30.7026 25.7209 30.8264 25.5367 30.7694 25.4328C30.7176 25.3363 30.4769 25.331 30.1322 25.4744C29.792 25.6174 29.3593 25.9254 29.002 26.3727C28.6378 26.8147 28.3502 27.3806 28.1803 27.9453C28.0327 28.4407 27.9559 28.9545 27.9521 29.4714C27.9521 30.228 28.0503 30.7686 28.1436 31.1663C28.2406 31.5627 28.3461 31.8161 28.4492 31.9819ZM34.3867 40.6707C35.0557 41.0972 35.886 41.4439 36.7244 41.6049C37.5588 41.7764 38.4062 41.7364 39.0239 41.6081C40.1642 41.3702 40.9444 40.8935 41.4577 40.4694C41.9739 40.038 42.2244 39.6395 42.3511 39.3592C42.5903 38.7844 42.3903 38.6593 42.202 38.5452C42.0008 38.423 41.8183 38.3619 41.4271 38.6365C41.2267 38.7681 40.9709 38.9836 40.55 39.239C40.1316 39.4892 39.5466 39.8037 38.6898 39.983C38.2188 40.0771 37.6171 40.1516 36.9428 40.0917C36.273 40.0396 35.556 39.8669 34.9139 39.6228C33.62 39.1466 32.6561 38.4267 32.4907 38.5978C32.3318 38.7428 33.0301 39.8171 34.3867 40.6707ZM42.0977 23.6533C49.4384 26.1719 49.8222 29.5566 50.9523 28.8534C51.1467 28.7328 51.3157 28.6118 51.121 28.0443C50.419 25.7852 46.1722 22.7619 42.1694 23.0116C41.6455 23.0625 41.3294 23.157 41.3253 23.2691C41.3212 23.3856 41.6247 23.5094 42.0977 23.6533Z" fill="white"/>
</svg>
