<svg width="80" height="80" viewBox="0 0 80 80" fill="none" xmlns="http://www.w3.org/2000/svg">
<rect width="80" height="80" rx="20" fill="#7B1FA2"/>
<path d="M64.7198 44.1144C64.6109 42.4736 64.6075 40.6964 63.9337 39.1678C64.5147 38.1824 64.9432 35.6501 64.0002 34.3863C63.6885 33.8076 62.294 32.9013 61.6157 33.1958C61.1367 32.7787 60.306 32.97 59.7033 32.8417C62.6939 30.581 63.2875 25.6378 60.1227 22.8328C53.6957 17.0647 44.3881 26.2978 50.8758 32.4464C48.5798 32.4443 46.2845 32.5219 43.9939 32.679C48.2805 29.3205 46.4002 21.2058 39.6226 20.9434C32.8816 20.9411 30.8627 29.1704 35.0266 32.6205C32.7002 32.4841 30.3697 32.4283 28.0393 32.4533C30.5797 30.055 30.9566 25.4648 28.0222 22.8752C24.0805 19.0218 16.8961 21.852 16.7426 27.3807C16.5581 29.5635 17.6948 31.6707 19.4227 32.9036C18.7695 33.017 18.0064 32.9047 17.4071 33.1889C16.762 32.8978 15.3114 33.7721 15.0135 34.3496C14.0831 35.6983 14.2985 38.0163 15.1155 39.2114C14.5724 40.5463 14.6262 43.5025 14.5082 44.1339C14.1232 49.2354 14.2241 54.3621 14.8095 59.4445C14.8817 60.14 15.8236 60.3944 15.9554 59.4411C16.8319 53.0874 16.6223 46.6673 16.361 40.2598C19.1076 41.0791 21.1552 39.8084 20.9959 36.2242C20.9959 35.6536 20.824 35.0795 20.5295 34.5845C25.593 33.2221 30.8638 37.0778 30.3253 42.4678C30.3791 47.3388 30.5625 54.3295 30.9922 59.0996C31.1159 60.4735 32.0223 60.3234 32.138 59.1065C32.6823 52.5592 32.57 46.0692 32.6147 39.5402C32.5413 38.7061 32.6914 37.0297 31.4321 37.1936C30.8761 36.252 30.1472 35.4239 29.2837 34.7529C32.6521 34.7137 36.0164 34.5037 39.3636 34.1239C42.8492 34.6659 46.43 34.7048 49.9431 34.7575C49.0024 35.407 48.204 36.2413 47.5964 37.2096C46.0622 36.9266 46.383 39.7637 46.4632 40.6941C46.2214 46.8358 46.5824 52.9591 46.9376 59.1088C47.0143 60.4345 47.9791 60.297 48.0834 59.1099C48.5784 53.6363 48.6838 48.087 48.6563 42.6134C47.9952 37.3162 53.1079 33.7079 58.2573 34.8503C57.0071 38.0736 59.2759 41.6864 62.789 40.2392C62.7145 46.6467 62.2642 52.9981 63.072 59.4399C63.1076 59.7092 63.3012 60.0346 63.5613 60.0759C63.8776 60.1251 64.172 59.786 64.2179 59.4422C64.9226 54.3822 65.0165 49.2111 64.7198 44.1144ZM18.9815 36.7158C18.9815 37.8077 18.5358 38.171 17.7188 38.1893C16.8686 38.1561 16.4561 37.5763 16.4653 36.694C16.2785 35.5722 16.4 34.722 17.5286 34.1514C18.9632 34.3152 19.0606 35.437 18.9815 36.7158ZM24.2638 32.8715C23.9098 32.9425 23.676 33.1052 23.5603 33.284L23.3162 33.221C23.1936 33.0732 22.9828 32.9414 22.6551 32.8715C20.2202 32.3284 18.451 29.9805 18.781 27.5342C19.0617 23.8755 23.8536 22.0376 26.5211 24.5161C28.2949 26.0366 28.6145 28.9287 27.2521 30.8479C26.5784 31.8357 25.5059 32.5759 24.2638 32.8715ZM40.3158 32.9173C39.9801 33.0663 39.5813 32.9918 39.2949 33.198C39.1202 33.0531 38.911 32.956 38.6876 32.9162C34.8341 32.1301 33.4912 26.9154 36.4555 24.4049C39.1757 21.8119 43.9538 23.8492 44.2941 27.5273C44.6425 29.8694 42.8676 32.3352 40.3158 32.9173ZM55.9037 33.0686C55.6613 33.0573 55.4186 33.0558 55.1761 33.064C52.6106 32.4819 50.3854 30.259 50.7761 27.5308C51.1015 23.8469 55.9255 21.9609 58.6262 24.4805C61.8265 27.3967 59.9966 32.2275 55.9037 33.0686ZM62.5346 36.7455C62.6412 38.7977 59.8236 38.8264 60.0092 36.6734C59.937 35.3648 60.0333 34.29 61.3945 34.0677C61.4395 34.1482 61.5057 34.2148 61.5859 34.2602C62.71 34.738 62.5346 35.665 62.5346 36.7455Z" fill="white"/>
</svg>
