<svg width="80" height="80" viewBox="0 0 80 80" fill="none" xmlns="http://www.w3.org/2000/svg">
<rect width="80" height="80" rx="20" fill="#29A55C"/>
<path d="M28.6551 53.5244C27.3281 52.9884 25.6672 53.6123 25.0257 54.8865C24.9466 55.0359 24.9378 55.2029 24.9818 55.3523C24.8588 55.449 24.7709 55.5896 24.7533 55.7565C24.5424 57.1714 25.5442 58.639 26.9415 58.9553C27.1348 58.9993 27.3281 59.0168 27.5303 59.0168C28.743 59.0168 29.9381 58.1996 30.3072 57.0308C30.7291 55.6687 29.9733 54.0605 28.6551 53.5244ZM29.0945 56.6529C28.866 57.3823 27.9697 57.892 27.2227 57.725C26.4757 57.5493 25.8957 56.7056 26.01 55.9411C26.0275 55.8444 26.0188 55.7565 25.9924 55.6687C26.0627 55.6159 26.1242 55.5456 26.1594 55.4577C26.5021 54.7723 27.4688 54.412 28.1806 54.6932C28.8924 54.9832 29.323 55.9147 29.0945 56.6529ZM37.9351 56.3717C36.3533 55.7302 34.376 56.4771 33.6115 57.9974C33.5661 58.0842 33.5423 58.1807 33.5423 58.2787C33.5423 58.3766 33.5661 58.4731 33.6115 58.5599C33.4445 58.6477 33.3127 58.8147 33.2863 59.0256C33.0403 60.7129 34.2354 62.4617 35.8875 62.8396C36.116 62.8923 36.3533 62.9187 36.5906 62.9187C38.0406 62.9187 39.4554 61.9432 39.9036 60.5459C40.4133 58.929 39.5169 57.0132 37.9351 56.3717ZM38.6909 60.1681C38.3745 61.1699 37.1969 61.8465 36.1688 61.6093C35.1406 61.372 34.376 60.2559 34.5342 59.2102C34.5518 59.0784 34.5342 58.9465 34.4727 58.8323C34.5869 58.7708 34.6748 58.6829 34.7363 58.5599C35.2109 57.6196 36.4763 57.145 37.4518 57.5405C38.436 57.9359 39.0072 59.1662 38.6909 60.1681ZM23.2506 45.0265C23.4791 45.0793 23.7163 45.1056 23.9536 45.1056C25.4036 45.1056 26.8184 44.1302 27.2666 42.7329C27.7763 41.1071 26.88 39.1914 25.2981 38.5587C23.7163 37.9171 21.7391 38.6641 20.9745 40.1844C20.9291 40.2712 20.9054 40.3677 20.9054 40.4656C20.9054 40.5636 20.9291 40.6601 20.9745 40.7468C20.8075 40.8347 20.6757 41.0017 20.6494 41.2126C20.4033 42.8999 21.5897 44.6487 23.2506 45.0265ZM22.1081 40.7556C22.5827 39.8153 23.8481 39.3408 24.8236 39.7362C25.7991 40.1317 26.3791 41.362 26.0627 42.3638C25.7463 43.3656 24.5688 44.0423 23.5406 43.805C22.5124 43.5677 21.7478 42.4517 21.906 41.4059C21.9236 41.2741 21.906 41.1423 21.8445 41.028C21.95 40.9665 22.0466 40.8699 22.1081 40.7556ZM18.6018 52.9971C18.5787 52.8589 18.5021 52.7354 18.3887 52.6532C18.2752 52.5709 18.1339 52.5367 17.9954 52.5577C17.7054 52.6017 17.5121 52.8741 17.556 53.1641C17.9954 55.9323 19.5069 58.5159 21.6863 60.2647C21.783 60.3438 21.8972 60.379 22.0115 60.379C22.1697 60.379 22.3191 60.3087 22.4245 60.1856C22.6091 59.9571 22.5739 59.6232 22.3454 59.4474C20.3681 57.8568 18.9972 55.5017 18.6018 52.9971ZM24.3754 61.1347C24.1294 60.9765 23.8042 61.0381 23.646 61.2841C23.4878 61.5302 23.5494 61.8553 23.7954 62.0135L24.2084 62.2859C24.2661 62.3243 24.3307 62.3508 24.3986 62.364C24.4666 62.3773 24.5364 62.3769 24.6042 62.363C24.672 62.3492 24.7364 62.322 24.7937 62.2831C24.8509 62.2442 24.8999 62.1944 24.9378 62.1365C25.096 61.8905 25.0345 61.5653 24.7884 61.4071L24.3754 61.1347Z" fill="white"/>
<path d="M66.267 62.4269L66.2494 62.3653C66.2319 62.3038 66.2143 62.2423 66.1967 62.1896C66.0561 61.715 65.8188 61.2669 65.5025 60.8802L59.3773 53.182L59.0698 52.8041C58.5513 52.1714 57.6725 51.9781 56.9519 52.312C56.7058 51.9429 56.4685 51.5826 56.2313 51.2311C56.2225 51.2135 56.2049 51.1959 56.1961 51.1784C57.7867 49.7459 59.1049 48.0235 59.9925 46.0726C62.8046 39.9123 61.2316 32.135 56.2488 27.5917C51.3716 23.1362 43.4888 22.275 37.7767 25.5266L37.8031 23.7778C37.8207 22.7496 37.8295 21.7126 37.847 20.5702L38.5413 20.579H38.5588C39.0949 20.579 39.6046 20.3681 39.9913 19.9902C40.3779 19.6035 40.5976 19.0938 40.5976 18.5402V14.5505C40.5976 13.4432 39.6925 12.5293 38.5852 12.5205L26.4579 12.3799H26.4316C25.8955 12.3799 25.3858 12.5908 24.9991 12.9687C24.6125 13.3553 24.3928 13.865 24.3928 14.4187V18.4084C24.3928 19.5156 25.2891 20.4296 26.3964 20.4384L28.2243 20.4559C28.2155 21.4402 28.1979 22.3278 28.1891 23.2153C28.1716 24.6214 28.154 26.0187 28.1276 27.7675C28.1013 29.7447 26.8885 31.5111 25.1046 32.1614C18.7685 34.4462 14.6382 40.0178 13.7682 47.4347C12.9158 54.7023 15.5346 60.722 21.1501 64.3953C24.4279 66.5396 28.4001 67.6205 32.3458 67.6205C32.4688 67.6205 32.5831 67.6117 32.7061 67.6117C32.917 67.6205 33.1367 67.6205 33.3476 67.6205C36.8452 67.6205 40.3164 66.7681 43.2428 65.0544C47.2588 62.7081 49.8073 59.0523 50.7125 54.5002C51.2925 54.2805 51.8549 54.0344 52.4085 53.7532C52.4261 53.7796 52.4437 53.806 52.4613 53.8411C52.7073 54.219 52.971 54.6056 53.2434 55.0187C52.7513 55.625 52.6985 56.5126 53.1731 57.1805L59.2543 65.6344C59.571 66.0758 59.9758 66.4467 60.4433 66.7235C60.9107 67.0003 61.4305 67.1771 61.9698 67.2426C62.5107 67.3058 63.0589 67.2555 63.5793 67.0951C64.0998 66.9348 64.5812 66.6678 64.9928 66.3111C66.1352 65.3356 66.601 63.8505 66.267 62.4269ZM26.4228 18.1623C26.2219 18.1589 26.0303 18.0769 25.8891 17.9341C25.7479 17.7912 25.6681 17.5987 25.667 17.3978V14.4099C25.667 14.199 25.7461 14.0056 25.8955 13.865C26.0361 13.7244 26.2294 13.6453 26.4316 13.6453H26.4404L38.5764 13.7859C38.9982 13.7947 39.3322 14.1375 39.3322 14.5505V17.5296C39.3322 17.7405 39.2531 17.9338 39.1037 18.0744C38.9631 18.215 38.7698 18.2941 38.5676 18.2941H38.5588L37.3901 18.2853C37.3461 18.2766 37.3022 18.2678 37.2495 18.2678L29.9116 18.1887C29.8764 18.1887 29.8413 18.1975 29.8061 18.1975L28.9098 18.1887H28.8746L26.4228 18.1623ZM25.5528 33.3478C27.8288 32.5217 29.3755 30.2808 29.4107 27.785C29.4282 26.0362 29.4458 24.639 29.4722 23.2417C29.481 22.3541 29.4985 21.4578 29.5073 20.4735L35.5798 20.5438C35.5622 21.6687 35.5534 22.6881 35.5358 23.7075C35.5182 24.7972 35.5095 25.8869 35.4919 27.1084C30.2279 31.4584 28.9273 38.2338 30.1137 43.4714C30.2807 44.2184 30.5004 44.9302 30.7552 45.6156C29.8061 45.8178 28.8043 46.3275 27.8025 47.1447C27.5213 47.3732 27.2401 47.6193 26.9676 47.8653C26.0273 48.6826 25.1485 49.4647 24.0676 49.7811C22.2573 50.3172 20.3767 49.3944 19.2167 48.3575C17.8107 47.1008 16.8704 45.3696 15.9564 43.6999C15.941 43.6749 15.9233 43.6514 15.9037 43.6296C17.4855 38.6908 20.8688 35.0438 25.5528 33.3478ZM41.6258 63.9647C35.7819 67.3832 27.6531 67.1284 21.8619 63.3408C16.6682 59.9399 14.2428 54.3508 15.0425 47.5841C15.1304 46.8196 15.2622 46.0814 15.4291 45.3696C16.2113 46.7581 17.1252 48.1817 18.3731 49.2978C20.1834 50.9147 22.5034 51.565 24.4279 50.9938C25.7725 50.5984 26.8007 49.6932 27.7937 48.8144C28.0573 48.5772 28.3298 48.3487 28.6022 48.1202C29.1998 47.6281 30.2104 46.9514 31.2473 46.802C33.5146 51.7144 38.014 54.9484 43.6294 55.4844C44.104 55.5284 44.5785 55.5547 45.0531 55.5547C46.134 55.5547 47.2061 55.4317 48.2607 55.212C47.2676 58.9644 45.0179 61.9787 41.6258 63.9647ZM43.7437 54.2366C36.2828 53.5247 32.4513 48.0675 31.344 43.199C29.8501 36.5905 32.5304 30.1402 38.1722 26.7656C43.4361 23.6108 50.8443 24.3666 55.3964 28.532C59.9837 32.715 61.4249 39.8772 58.8413 45.5541C56.284 51.1696 49.9391 54.8253 43.7437 54.2366ZM53.551 53.1381C54.131 52.7866 54.6934 52.4087 55.2295 51.9956C55.4491 52.3296 55.6776 52.6723 55.9149 53.0238L54.2716 54.219C54.0167 53.8411 53.7794 53.4896 53.551 53.1381ZM64.2019 65.3444C63.6307 65.8366 62.9101 66.0563 62.1631 65.9684C61.4161 65.8805 60.7658 65.4938 60.3264 64.8787L54.2364 56.4335C54.1567 56.3226 54.124 56.1847 54.1453 56.0497C54.1667 55.9148 54.2405 55.7938 54.3507 55.7129L57.3913 53.5159C57.4981 53.4378 57.6312 53.4041 57.7623 53.4222C57.8935 53.4402 58.0125 53.5085 58.0943 53.6126L64.5182 61.6887C64.7379 61.9523 64.8961 62.2511 64.9928 62.5938C65.0016 62.6202 65.0104 62.6378 65.0104 62.6641V62.6729L65.0279 62.7344C65.2652 63.6835 64.9401 64.6941 64.2019 65.3444Z" fill="white"/>
<path d="M56.5566 37.4697C56.249 34.7718 55.0275 32.1882 53.0151 30.3427C49.5087 27.144 43.8054 26.564 39.7541 28.9806C35.6414 31.4412 33.5499 36.2394 34.4111 41.0376C34.4638 41.4506 34.5254 41.8724 34.622 42.2943C35.7029 47.0837 39.3675 50.344 44.192 50.8097C44.526 50.8449 44.8599 50.8537 45.1938 50.8537C49.6054 50.8537 53.9378 48.147 55.7657 44.1397C56.7147 42.057 56.952 39.7018 56.5566 37.4697ZM54.6144 43.6124C52.8657 47.4527 48.5244 49.9485 44.3063 49.5443C39.2181 49.0609 36.6081 45.3349 35.8523 42.0131C34.8329 37.5049 36.6608 33.0934 40.5099 30.7909C44.1041 28.6379 49.1572 29.1564 52.2681 31.9949C55.3966 34.8509 56.3808 39.737 54.6144 43.6124Z" fill="white"/>
</svg>
