<svg width="80" height="80" viewBox="0 0 80 80" fill="none" xmlns="http://www.w3.org/2000/svg">
<rect width="80" height="80" rx="20" fill="#7B1FA2"/>
<path fill-rule="evenodd" clip-rule="evenodd" d="M44.0222 49.7027C45.0523 49.7043 46.1999 49.4544 47.2055 49.2952C48.2944 49.0317 49.1385 49.2469 50.3324 48.835L50.7677 48.5741C50.6845 48.7033 50.5186 50.6826 50.7812 50.1333C50.8834 50.2098 50.8508 50.2467 50.8973 50.1533C50.9062 50.227 50.917 50.4031 50.957 50.4568C51.3832 48.2593 53.1497 46.2255 55.6219 46.41C59.6144 46.662 59.5715 50.8625 59.3678 53.8816C57.0542 54.1491 53.8059 53.8828 51.4593 54.0453C51.4473 54.0298 51.4311 54.0738 51.3705 53.9855C51.2567 53.8198 51.2648 54.0479 51.2428 53.541C51.2053 52.5228 51.1623 51.2818 50.8013 50.4568C50.7297 50.6508 50.7253 50.5602 50.6195 50.748C49.4008 49.0449 45.4455 52.1926 44.2826 53.071C44.0545 51.9401 43.8574 50.8031 43.6916 49.6614C43.8045 49.6917 43.9145 49.7099 44.0222 49.7027ZM45.2719 59.6249C41.0605 55.2233 41.2239 39.4002 42.0544 33.3456L37.999 33.3559C37.999 43.6117 40.238 56.5639 30.6544 63.3417L32.6162 63.3385L37.1817 59.611C37.633 59.2378 38.3443 59.5253 38.3656 60.1552L38.3954 63.2626L41.6499 63.2559L41.639 60.1765C41.6327 59.506 42.412 59.1137 42.9537 59.5489C44.3767 60.6699 46.0929 62.0271 47.521 63.1677L48.9075 63.1597C47.5936 62.0278 46.4162 60.9432 45.2719 59.6249ZM35.4669 52.6331C33.8789 51.4792 31.7901 50.1349 29.8141 50.3254C29.9847 49.8291 29.8277 49.5343 29.7423 49.0198C30.7937 49.2311 32.3023 49.3572 33.3957 49.4412C34.3997 49.5064 35.501 49.7435 36.4819 49.5762C36.3331 50.7457 36.1718 51.8158 35.9297 52.9731L35.4669 52.6331ZM29.4572 50.6884C28.7566 51.6383 29.0805 53.0881 28.5634 53.9831C26.3464 54.0127 23.0745 53.8759 20.8448 53.9641C20.7531 53.9745 20.6501 53.8998 20.6307 53.797C20.5135 50.8522 20.1178 47.0706 23.8378 46.4518C24.4219 46.5858 25.0702 46.4815 25.6408 46.3734C27.3435 46.8034 28.9395 48.2442 29.3921 49.9636C29.4397 50.0831 29.4746 50.4732 29.5533 50.115C29.6624 50.1831 29.6344 50.23 29.6707 50.1211L29.7224 50.3607C29.6189 50.3607 29.6491 50.4427 29.5898 50.4342C29.5539 50.4291 29.5923 50.449 29.4907 50.5175C29.5316 50.6499 29.4817 50.6476 29.4572 50.6884ZM36.6783 43.0032C35.1623 40.6741 33.1544 38.2576 30.8132 36.7812C30.5465 36.7189 30.0133 36.2875 29.6919 36.2115C29.6918 35.7581 29.6654 35.1643 29.6092 34.7581C31.0348 35.6641 32.8765 36.5863 34.3123 37.5305C34.9948 37.8807 35.7476 38.6359 36.4534 38.8986C36.6579 38.9434 36.7348 39.0561 37.0226 39.1863C37.2016 39.2549 37.2193 39.3933 37.3679 39.3431C37.2764 40.768 37.1829 42.1927 37.0876 43.6174L36.6783 43.0032ZM37.8008 33.3559L37.7801 33.5086C37.7783 33.4569 37.7758 33.4077 37.774 33.3559H37.8008ZM37.8963 33.5505L37.8307 33.3558H37.9286C37.9237 33.4313 37.9163 33.5031 37.8963 33.5505ZM42.8468 39.2416C44.2408 38.9537 45.4281 37.6647 46.5963 36.906C47.7013 36.114 48.8975 35.5819 50.1111 34.833L50.5415 34.3915C50.4555 35.0757 50.2738 35.6572 50.2747 36.3289C47.7379 36.7894 44.3705 41.7112 43.0165 43.8663C42.8894 42.3436 42.853 40.7668 42.7294 39.2569C42.7689 39.2513 42.806 39.2453 42.8468 39.2416ZM43.2475 45.4709C43.3444 45.4903 43.3312 45.2663 43.439 45.1936C43.6269 45.0669 43.9162 44.6323 43.9753 44.6286C46.0279 41.9836 48.4115 39.7371 50.6576 37.2939C51.2186 38.1105 52.4758 37.9703 53.3356 37.987C55.2476 37.7358 61.5909 39.1834 61.4427 36.1368C61.5218 32.9953 61.5099 29.1977 58.0989 27.7978C60.3614 26.0146 58.8584 21.5081 55.9163 22.5432C55.9277 22.5751 56.0236 22.5535 55.9651 22.6498C55.9373 22.6953 55.9312 22.6667 55.9718 22.7142C55.913 22.732 55.8421 22.7418 55.8173 22.7817C55.8727 22.8838 56.0699 23.0029 56.2327 22.9848C56.2384 22.9842 56.4064 23.0229 56.4145 23.0797C58.6804 24.0204 58.0121 27.4776 55.3593 27.0402C54.1393 26.7222 53.5406 25.3967 54.1664 24.133C54.2876 23.9706 54.23 23.8749 54.3938 23.7067C54.4612 23.646 54.3921 23.5722 54.7082 23.3723C55.003 23.1857 54.8621 23.1683 55.2646 23.0531C55.3283 23.0349 55.3083 22.9243 55.5213 22.8579C55.6305 22.8238 55.588 22.7502 55.6769 22.7417C55.7521 22.7346 55.6564 22.7376 55.8175 22.6261C55.5956 22.4424 55.679 22.3354 55.39 22.2345C52.2735 21.5679 51.0999 26.3118 53.4562 27.9414C51.7652 28.7521 50.7746 30.7042 51.05 32.5471C51.0886 32.6845 51.1081 32.4807 51.1461 32.4553C51.2416 32.5302 51.2182 32.569 51.2611 32.476C51.2717 32.551 51.2799 32.7257 51.3219 32.7801C51.8791 29.8956 54.4916 27.8448 57.4637 29.0939C60.2563 30.4248 59.7665 33.6514 59.7323 36.205C57.4174 36.4704 54.1696 36.2067 51.8229 36.3687C51.8111 36.3511 51.7947 36.3951 51.7341 36.3089C51.6173 36.1428 51.6284 36.3549 51.607 35.8638C51.5421 34.7989 51.5848 33.8451 51.1661 32.7802C51.0968 32.9632 51.0423 32.9577 51.0153 33.0101C50.8149 33.3997 50.9663 32.898 50.7277 33.5683C47.8227 34.1311 44.7047 35.6741 42.6686 37.9235C42.6676 36.4191 42.4454 34.8289 42.3311 33.3457C46.8206 33.9028 46.64 30.9641 45.7699 27.4576C45.7021 27.6693 45.6507 27.6556 45.6203 27.7246C45.5038 27.9887 45.4793 27.8993 45.4507 27.9861C45.2711 28.4958 45.1514 29.3488 45.0627 29.9034C44.9296 30.4284 45.038 31.3031 44.6645 31.6311C42.0053 31.7551 38.5732 31.5221 35.8574 31.6446C35.6265 31.6684 35.3347 31.6347 35.29 31.321C35.3666 29.5443 34.9719 27.4822 35.4941 25.7631C36.0322 24.2152 37.4427 23.0617 39.0049 22.6533C39.0193 22.6527 39.4651 22.8065 40.1384 22.7591C42.4942 22.2605 44.7659 24.4641 45.4617 26.5876L45.6289 27.1854C45.6814 27.3423 45.6806 27.0983 45.7133 27.0651C45.8239 27.141 45.7931 27.1995 45.8307 27.0718C45.8482 27.1655 45.8788 27.3886 45.9256 27.4579C46.405 25.2994 44.6831 22.7301 42.6917 21.771C45.5042 19.6951 43.4993 14.1871 40.0423 15.3696C40.7194 16.1566 41.4201 16.3944 42.0009 17.4037C43.0828 19.0996 41.4385 21.6019 39.4244 21.0492C36.7415 20.3747 37.1549 17.0627 39.1775 15.8477C39.3718 15.6525 40.1333 15.5409 39.8312 15.417C39.8717 15.2953 39.9061 15.3557 39.8324 15.3003C39.8891 15.282 40.0049 15.2589 40.0421 15.214C36.553 14.4643 34.7743 19.5059 37.3696 21.7206C33.7629 23.2835 33.3441 26.8089 33.6107 30.2985C33.4149 33.4516 34.9849 33.4723 37.5952 33.3577C37.478 34.7601 37.5023 36.3667 37.3879 37.7427C36.2002 36.3927 31.3429 33.6468 29.5714 33.9579C29.5526 33.8631 29.4758 33.7805 29.4547 33.4264C29.4405 33.1885 29.3576 33.2699 29.3525 33.0737C29.3489 32.9341 29.3342 33.075 29.2443 32.7805C29.1747 32.964 29.1219 32.9553 29.0935 33.0105C28.9741 33.2427 28.9519 33.1632 28.9238 33.2373C28.7433 33.675 28.6282 34.4093 28.537 34.8955C28.4273 35.3011 28.4707 36.0835 28.1996 36.307C25.9739 36.337 22.7251 36.1996 20.4809 36.2869C20.3978 36.3007 20.2834 36.2247 20.2669 36.1203C20.1658 33.1866 19.7299 29.7031 23.3095 28.7345C23.3228 28.7338 23.9869 28.9546 24.8421 28.78C26.6801 28.5889 28.5655 30.6036 29.0271 32.286C29.0777 32.4121 29.1093 32.791 29.1893 32.4389C29.2977 32.5038 29.2697 32.5548 29.3067 32.4437C29.3247 32.5272 29.3524 32.7205 29.3997 32.7805C29.885 31.003 28.3744 28.6957 26.7478 27.8447C29.1034 25.9373 27.2626 21.1221 24.2674 22.3025C24.4958 22.515 24.374 22.5376 24.6207 22.7574C24.7943 22.8965 25.2551 23.2467 25.3243 23.4019C25.4303 23.6399 25.9647 23.9814 26.1172 24.8406C25.6286 30.0576 18.9551 25.5514 24.0832 22.3487C24.1251 22.2273 24.1397 22.2742 24.0832 22.2319C24.1454 22.2108 24.2366 22.1895 24.2674 22.1469C21.2056 21.4243 19.6265 25.8225 21.7651 27.7906C18.0641 29.6403 18.5419 32.8773 18.5971 36.3556C18.7514 37.6945 20.0595 38.1771 21.2641 37.9997L24.5338 37.9895C26.0101 37.8198 28.3216 38.4849 29.362 37.2045C30.2593 38.6445 31.8845 39.7383 33.0664 40.9516C34.2067 42.067 35.3019 43.521 36.3909 44.7345L36.9711 45.1601C36.8348 46.1692 36.7421 47.2793 36.6287 48.2937C34.8274 47.5271 31.8837 47.7078 29.9282 47.9349L29.4655 48.1933C29.0249 47.0938 28.1881 46.0764 27.1121 45.522C29.4897 43.6111 27.5986 38.7958 24.6323 39.9804C25.1543 40.6969 25.7684 40.978 26.2328 41.8236C26.906 42.9107 26.227 44.5912 24.9491 44.8197C23.4903 45.184 22.234 43.6945 22.5667 42.3058C22.8425 41.4417 23.4993 40.5465 24.3715 40.1842C24.6591 40.0632 24.4695 40.0701 24.4469 40.0255C24.482 39.9237 24.5068 39.9426 24.4469 39.9094C24.4969 39.8921 24.6011 39.8668 24.6325 39.8249C21.587 39.0936 19.9745 43.5118 22.1295 45.4674C19.5832 46.5988 18.6179 49.4313 18.9464 52.0306C18.9487 53.6686 18.6805 55.6033 20.9194 55.6949C22.1567 55.6584 24.8089 55.6708 26.0359 55.6675C29.6389 55.8245 30.5128 55.2703 29.8948 51.5221C30.7286 52.197 31.9576 52.4445 32.92 52.8855C33.9244 53.1993 34.5675 53.899 35.668 54.1181C34.9565 58.2891 31.2369 60.8826 28.2395 63.4086C27.6623 63.8763 27.9623 64.8465 28.7577 64.8498C34.2233 64.9069 32.4721 65.361 36.7407 62.0386C36.5437 66.0897 37.2155 64.675 41.2607 64.9083C44.0246 65.0967 43.171 64.0804 43.3203 62.0063C47.5862 65.3835 45.8443 64.9315 51.332 64.8831C55.0664 63.9511 44.9842 59.7905 44.5571 54.2781C45.368 53.9863 46.222 53.3761 47.0704 53.0869C47.9876 52.471 49.4524 52.1038 50.3462 51.3131C49.6863 54.1435 49.4257 55.8738 52.9713 55.6651C54.4294 55.5759 59.4055 56.1135 60.3663 55.2927C61.3431 54.6001 61.0463 53.1525 61.0455 52.134C61.2551 49.4724 60.3922 46.5856 57.7351 45.4755C60.0743 43.5417 58.3736 39.1985 55.5525 40.2209C55.5649 40.2559 55.6581 40.2295 55.6 40.3279C55.5808 40.3605 55.5617 40.347 55.6079 40.393C55.5656 40.4038 55.4776 40.4202 55.4535 40.4605C55.571 40.7043 55.8929 40.594 56.0507 40.7584C58.3168 41.6969 57.6466 45.1566 54.9956 44.7177C53.1688 44.359 53.0655 41.3968 54.9008 40.7304C54.9619 40.7125 54.9512 40.5983 55.1573 40.5365C55.2602 40.5057 55.2281 40.426 55.313 40.4197C55.3885 40.4141 55.2964 40.4056 55.4535 40.3048C55.2395 40.1244 55.3019 40.0027 55.0261 39.9119C51.9062 39.2451 50.7364 43.9967 53.0923 45.6201C52.0391 46.1584 51.4061 46.8736 50.9615 47.9607C50.8875 47.9394 50.7523 47.9813 50.7335 47.9035C50.7116 47.8125 50.5855 47.9407 50.5079 47.8926C50.363 47.8027 50.0158 47.8066 49.9917 47.7612C47.9517 47.5797 45.4213 47.5041 43.5221 48.3706C43.4387 47.4061 43.2596 46.4843 43.1841 45.504L43.2475 45.4709Z" fill="white"/>
</svg>
