<svg width="80" height="80" viewBox="0 0 80 80" fill="none" xmlns="http://www.w3.org/2000/svg">
<rect width="80" height="80" rx="20" fill="#37A4DA"/>
<path d="M41.9196 49.3226C40.6713 49.3226 39.4472 48.9877 38.2502 48.6614L38.0009 48.5944C32.3935 47.0711 27.4316 45.5677 22.8332 43.9988C21.5108 43.5471 20.9094 43.0669 20.9422 42.4869C20.9807 41.8371 21.8357 41.3398 23.5571 40.9664C26.2047 40.3921 29.572 39.6953 32.2325 39.1538C32.2783 39.1445 32.3256 39.1442 32.3715 39.1531C32.4174 39.162 32.4612 39.1799 32.5002 39.2057C32.5392 39.2315 32.5728 39.2647 32.599 39.3035C32.6252 39.3423 32.6435 39.3858 32.6528 39.4317C32.6622 39.4775 32.6624 39.5248 32.6535 39.5707C32.6446 39.6167 32.6268 39.6604 32.601 39.6994C32.5752 39.7385 32.5419 39.772 32.5031 39.7982C32.4644 39.8244 32.4208 39.8427 32.375 39.8521C29.7173 40.3936 26.3515 41.0904 23.7081 41.6618C21.7673 42.0836 21.6561 42.5225 21.6561 42.5268C21.6533 42.5296 21.6989 42.8574 23.064 43.3234C27.6468 44.8894 32.5944 46.3871 38.1875 47.9062L38.4383 47.9746C40.0586 48.4163 41.7358 48.8752 43.366 48.4206C47.6852 47.215 51.6652 45.9311 55.8775 44.5731C57.0645 44.1883 58.2572 43.8036 59.4685 43.4174C59.5483 43.3918 59.5768 43.3576 59.5796 43.349C59.5754 43.349 59.5497 43.3205 59.4813 43.2977L46.8701 38.923C46.7811 38.8916 46.7082 38.8264 46.6671 38.7415C46.626 38.6567 46.6201 38.559 46.6506 38.4698C46.7162 38.2846 46.9185 38.1848 47.1052 38.2489L59.7136 42.6237C60.0727 42.7491 60.295 43.0312 60.2907 43.3618C60.2864 43.6924 60.0485 43.9803 59.6865 44.0957C58.4753 44.4819 57.2825 44.8666 56.0969 45.25C51.8761 46.6123 47.8918 47.8976 43.5569 49.1074C43.0083 49.2599 42.4611 49.3226 41.9196 49.3226Z" fill="white"/>
<path d="M33.8328 54.3268C33.5378 54.3268 33.2343 54.3026 32.9208 54.2556C30.5852 53.8922 28.3494 53.0515 26.1862 52.2364C25.26 51.8872 24.3352 51.5381 23.4046 51.2275L22.7563 51.0123C20.8482 50.3796 18.876 49.7241 17.0748 48.7907L16.8211 48.6653C16.2697 48.4017 15.5173 48.0383 15.4674 47.2802C15.342 45.4021 18.1891 43.8716 20.073 42.8584C20.4934 42.6319 20.8624 42.4338 21.1275 42.2685C21.2076 42.2187 21.3043 42.2027 21.3962 42.2241C21.4881 42.2455 21.5677 42.3024 21.6177 42.3825C21.6675 42.4626 21.6834 42.5593 21.6621 42.6512C21.6407 42.7431 21.5837 42.8227 21.5037 42.8727C21.2301 43.0437 20.8468 43.2503 20.4093 43.4854C18.7919 44.3561 16.083 45.8125 16.177 47.2332C16.1998 47.5766 16.6943 47.8146 17.1304 48.0241L17.4025 48.158C19.1539 49.0657 21.099 49.7113 22.98 50.3354L23.6298 50.552C24.5703 50.8655 25.5037 51.2175 26.437 51.5695C28.566 52.3717 30.7676 53.2011 33.0305 53.5502C36.1712 54.0347 38.3044 51.5951 40.3579 49.231L40.7768 48.7494C40.8392 48.6781 40.9273 48.6346 41.0217 48.6283C41.1162 48.622 41.2093 48.6535 41.2806 48.7159C41.3518 48.7782 41.3953 48.8664 41.4016 48.9608C41.4079 49.0553 41.3764 49.1484 41.314 49.2196L40.8951 49.6984C39.0013 51.8787 36.8766 54.3254 33.8328 54.3268ZM47.547 53.3436C46.4056 53.3436 45.5862 52.8876 44.5189 52.0525C43.7722 51.4683 43.1651 50.8242 42.578 50.2C42.2688 49.8723 41.9581 49.5431 41.6275 49.2211C41.5935 49.1886 41.5663 49.1497 41.5474 49.1067C41.5284 49.0636 41.5182 49.0173 41.5173 48.9703C41.5164 48.9233 41.5248 48.8765 41.542 48.8328C41.5593 48.789 41.585 48.7491 41.6177 48.7154C41.6504 48.6816 41.6895 48.6547 41.7327 48.6361C41.7759 48.6175 41.8223 48.6077 41.8693 48.6071C41.9164 48.6066 41.963 48.6153 42.0066 48.6329C42.0502 48.6505 42.0899 48.6765 42.1234 48.7095C42.4626 49.0401 42.7789 49.375 43.0953 49.7113C43.6909 50.344 44.2538 50.9396 44.9592 51.4925C46.4412 52.651 47.2278 52.9204 49.2598 52.3418C53.7249 51.035 58.1359 49.5504 62.4824 47.8915C62.7902 47.7747 62.8116 47.6493 62.8201 47.6065C62.9356 46.9795 61.3666 45.583 60.5245 44.8321C60.2238 44.5732 59.9338 44.3022 59.6552 44.0198C59.6234 43.9855 59.5987 43.9452 59.5824 43.9013C59.5662 43.8574 59.5587 43.8107 59.5605 43.7639C59.5623 43.7172 59.5733 43.6712 59.5928 43.6287C59.6124 43.5861 59.6401 43.5479 59.6744 43.5161C59.7088 43.4843 59.7491 43.4595 59.793 43.4433C59.8369 43.427 59.8835 43.4196 59.9303 43.4214C59.9771 43.4231 60.023 43.4341 60.0656 43.4537C60.1081 43.4732 60.1464 43.501 60.1782 43.5353C60.3577 43.7291 60.6556 43.9942 60.999 44.2991C62.481 45.6215 63.6951 46.7929 63.5212 47.7362C63.4728 47.9927 63.2989 48.3433 62.7361 48.557C58.3708 50.2228 53.9407 51.7136 49.4565 53.0258C48.7069 53.2396 48.0899 53.3436 47.547 53.3436Z" fill="white"/>
<path d="M33.8328 54.3268C33.5378 54.3268 33.2343 54.3026 32.9208 54.2556C30.5852 53.8922 28.3494 53.0515 26.1862 52.2364C25.26 51.8872 24.3352 51.5381 23.4046 51.2275L22.7563 51.0123C20.8482 50.3796 18.876 49.7241 17.0748 48.7907L16.8211 48.6653C16.2697 48.4017 15.5173 48.0383 15.4674 47.2802C15.342 45.4021 18.1891 43.8716 20.073 42.8584C20.4934 42.6319 20.8624 42.4338 21.1275 42.2685C21.2076 42.2187 21.3043 42.2027 21.3962 42.2241C21.4881 42.2455 21.5677 42.3024 21.6177 42.3825C21.6675 42.4626 21.6834 42.5593 21.6621 42.6512C21.6407 42.7431 21.5837 42.8227 21.5037 42.8727C21.2301 43.0437 20.8468 43.2503 20.4093 43.4854C18.7919 44.3561 16.083 45.8125 16.177 47.2332C16.1998 47.5766 16.6943 47.8146 17.1304 48.0241L17.4025 48.158C19.1539 49.0657 21.099 49.7113 22.98 50.3354L23.6298 50.552C24.5703 50.8655 25.5037 51.2175 26.437 51.5695C28.566 52.3717 30.7676 53.2011 33.0305 53.5502C36.1712 54.0347 38.3044 51.5951 40.3579 49.231L40.7768 48.7494C40.8392 48.6781 40.9273 48.6346 41.0217 48.6283C41.1162 48.622 41.2093 48.6535 41.2805 48.7159C41.3518 48.7782 41.3953 48.8664 41.4016 48.9608C41.4079 49.0553 41.3764 49.1484 41.314 49.2196L40.8951 49.6984C39.0013 51.8787 36.8766 54.3254 33.8328 54.3268ZM47.547 53.3436C46.4056 53.3436 45.5862 52.8876 44.5189 52.0525C43.7722 51.4683 43.1651 50.8242 42.578 50.2C42.2688 49.8723 41.9581 49.5431 41.6275 49.2211C41.5935 49.1886 41.5663 49.1497 41.5474 49.1067C41.5284 49.0636 41.5182 49.0173 41.5173 48.9703C41.5164 48.9233 41.5248 48.8765 41.542 48.8328C41.5593 48.789 41.585 48.7491 41.6177 48.7154C41.6504 48.6816 41.6895 48.6547 41.7327 48.6361C41.7759 48.6175 41.8223 48.6077 41.8693 48.6071C41.9164 48.6066 41.963 48.6153 42.0066 48.6329C42.0502 48.6505 42.0899 48.6765 42.1234 48.7095C42.4626 49.0401 42.7789 49.375 43.0953 49.7113C43.6909 50.344 44.2538 50.9396 44.9592 51.4925C46.4412 52.651 47.2278 52.9204 49.2598 52.3418C53.7248 51.035 58.1359 49.5504 62.4824 47.8915C62.776 47.7804 62.7988 47.6564 62.8059 47.6151C62.927 46.9667 61.284 45.4975 60.4005 44.7095C60.03 44.3789 59.7122 44.0939 59.5241 43.8901C59.4599 43.8208 59.4258 43.7287 59.4294 43.6343C59.433 43.5398 59.474 43.4506 59.5433 43.3864C59.6127 43.3221 59.7047 43.2881 59.7992 43.2917C59.8937 43.2953 59.9828 43.3363 60.0471 43.4056C60.2252 43.598 60.5259 43.8659 60.8736 44.178C62.4211 45.5602 63.6865 46.7815 63.507 47.7448C63.4585 48.0013 63.2875 48.3475 62.7361 48.557C58.3708 50.2228 53.9407 51.7136 49.4565 53.0258C48.7069 53.2396 48.0899 53.3436 47.547 53.3436Z" fill="white"/>
<path d="M41.0417 66.3357C40.8868 66.3407 40.7331 66.3075 40.5942 66.2388C40.4989 66.1882 40.4177 66.1147 40.3577 66.025L22.0037 59.2777C21.2171 58.9912 20.5944 58.7647 20.1911 57.7814C19.7721 56.7597 19.8206 55.6881 19.8676 54.6521C19.8819 54.3343 19.8961 54.0166 19.8961 53.7045V49.9453C19.8961 49.8509 19.9337 49.7602 20.0005 49.6934C20.0673 49.6266 20.1579 49.5891 20.2524 49.5891C20.3469 49.5891 20.4375 49.6266 20.5043 49.6934C20.5711 49.7602 20.6086 49.8509 20.6086 49.9453V53.7045C20.6086 54.028 20.5944 54.3557 20.5787 54.6835C20.5331 55.6867 20.4918 56.6357 20.8509 57.5107C21.1359 58.2032 21.5064 58.3386 22.2474 58.6079L40.7382 65.4052C40.845 65.4436 40.9277 65.5334 40.9576 65.6431C40.9576 65.6232 41.1129 65.6759 41.7499 65.4707C46.9002 63.8106 52.0077 62.0203 57.0672 60.1013C59.4071 59.215 59.4 58.7932 59.3672 57.0233L59.3601 56.4932C59.3529 55.4045 59.4114 54.1747 59.4698 52.9863C59.5268 51.8064 59.5838 50.5866 59.5781 49.5178C59.5777 49.4236 59.6147 49.3331 59.6809 49.266C59.7472 49.199 59.8373 49.1609 59.9315 49.1602C60.1281 49.1131 60.2877 49.3169 60.2906 49.5136C60.2977 50.6023 60.2393 51.832 60.1823 53.0205C60.1253 54.2004 60.0654 55.4202 60.0726 56.4889L60.0797 57.0105C60.1167 59.0112 59.9928 59.755 57.3209 60.7682C52.25 62.6908 47.1312 64.4845 41.9694 66.1476C41.663 66.2473 41.3338 66.3357 41.0417 66.3357Z" fill="white"/>
<path d="M41.2157 66.3354C41.1217 66.3354 41.0315 66.2983 40.9648 66.2321C40.8981 66.1659 40.8602 66.076 40.8594 65.982C40.8509 64.7565 40.8338 63.6265 40.8167 62.4737C40.7668 59.0893 40.7141 55.5881 40.8594 48.9176C40.8604 48.8708 40.8705 48.8247 40.8893 48.7818C40.908 48.739 40.9351 48.7002 40.9688 48.6678C41.0026 48.6354 41.0424 48.6099 41.0859 48.5929C41.1295 48.5759 41.176 48.5676 41.2228 48.5685C41.2696 48.5694 41.3157 48.5796 41.3586 48.5984C41.4015 48.6171 41.4402 48.6441 41.4726 48.6779C41.505 48.7116 41.5305 48.7514 41.5475 48.795C41.5646 48.8386 41.5729 48.8851 41.5719 48.9319C41.4614 53.4417 41.4472 57.9533 41.5292 62.4637C41.5463 63.6179 41.5634 64.7494 41.5719 65.9777C41.5723 66.0245 41.5635 66.0709 41.5459 66.1143C41.5284 66.1576 41.5024 66.1971 41.4696 66.2305C41.4368 66.2638 41.3977 66.2904 41.3546 66.3086C41.3116 66.3269 41.2653 66.3365 41.2185 66.3368L41.2157 66.3354ZM40.1298 41.435C38.8032 41.435 37.4964 41.1856 36.4961 40.6868C31.7922 38.337 32.4477 30.8714 32.9478 27.7692C33.5378 24.0941 35.054 20.2737 37.3283 16.7226C38.3543 15.1309 39.5541 14.4269 40.7084 14.7347C41.7572 15.0155 42.34 16.0244 42.7718 16.9748C44.7027 21.2156 45.8797 25.4279 46.2702 29.4963C46.32 30.0164 46.3984 30.5893 46.4796 31.1963C46.8259 33.7371 47.2563 36.8978 45.9723 38.9498C45.5306 39.6566 44.8494 40.2323 43.946 40.6598C42.8544 41.177 41.4822 41.435 40.1298 41.435ZM40.1726 15.376C39.1979 15.376 38.3643 16.4291 37.9282 17.1074C35.7052 20.5772 34.2261 24.3036 33.6504 27.8818C33.2799 30.1817 32.4135 37.8511 36.8139 40.0499C38.6293 40.9562 41.6916 40.9405 43.6396 40.0171C44.4177 39.648 44.9991 39.1621 45.3681 38.5721C46.5167 36.7382 46.1049 33.7186 45.7743 31.2932C45.6888 30.6762 45.6104 30.092 45.5605 29.5647C45.1786 25.5747 44.0215 21.4379 42.1234 17.2698C41.7415 16.4291 41.2827 15.6254 40.5246 15.423C40.4098 15.392 40.2915 15.3762 40.1726 15.376Z" fill="white"/>
<path d="M39.8176 22.8512C38.2871 22.8512 36.7325 22.4166 35.2291 21.5459C35.1885 21.5225 35.153 21.4912 35.1246 21.4541C35.0961 21.4169 35.0752 21.3744 35.0632 21.3291C35.0511 21.2839 35.0481 21.2367 35.0544 21.1902C35.0606 21.1438 35.0759 21.0991 35.0994 21.0586C35.123 21.0181 35.1543 20.9828 35.1915 20.9544C35.2288 20.9261 35.2713 20.9054 35.3165 20.8935C35.3618 20.8816 35.4089 20.8787 35.4553 20.885C35.5017 20.8913 35.5464 20.9067 35.5868 20.9303C38.357 22.5334 41.3096 22.5363 43.8974 20.9346C43.9777 20.8847 44.0746 20.8687 44.1667 20.8901C44.2589 20.9115 44.3388 20.9685 44.389 21.0486C44.4137 21.0885 44.4304 21.1329 44.4379 21.1793C44.4454 21.2256 44.4437 21.273 44.4328 21.3187C44.422 21.3644 44.4022 21.4075 44.3746 21.4455C44.347 21.4835 44.3122 21.5157 44.2722 21.5402C42.8614 22.4137 41.3509 22.8512 39.8176 22.8512ZM39.9701 29.5929C39.8988 29.5929 39.8219 29.59 39.7463 29.5858C38.4382 29.5003 37.331 28.7094 36.9932 27.6193C36.7795 26.9381 36.8607 26.294 37.2241 25.7596C37.6758 25.0927 38.5379 24.6481 39.5297 24.5698C40.4232 24.4985 41.3851 24.8548 42.0078 25.5046C42.7118 26.237 42.8671 27.1932 42.4325 28.1266C42.0092 29.0443 41.0787 29.5943 39.9715 29.5943L39.9701 29.5929ZM39.7563 25.2723C39.6993 25.2725 39.6422 25.2749 39.5853 25.2794C38.8187 25.3393 38.1404 25.6784 37.814 26.1586C37.5732 26.5149 37.5262 26.9353 37.6715 27.4084C37.9651 28.3446 38.9469 28.8191 39.7934 28.8747C40.6868 28.9274 41.4563 28.5441 41.7884 27.8273C42.2016 26.9324 41.7798 26.2969 41.492 25.9976C41.0313 25.537 40.4078 25.2764 39.7563 25.2723ZM39.8133 36.7065C38.6619 36.7065 37.4649 35.984 36.9576 34.9751C36.5344 34.1372 36.6299 33.2452 37.2241 32.4643C37.6017 31.9684 38.1888 31.6834 38.9241 31.6406C39.9188 31.5736 41.0759 31.9912 41.71 32.6424C42.3712 33.3264 42.565 34.321 42.1931 35.1162C41.7185 36.1265 40.8878 36.6908 39.8532 36.7051H39.8147L39.8133 36.7065ZM39.1151 32.346C39.0652 32.346 39.0153 32.3474 38.9654 32.3517C38.6021 32.3731 38.1033 32.4842 37.7927 32.896C37.2512 33.6043 37.3851 34.2427 37.5932 34.6545C37.9836 35.4311 38.9697 36.0125 39.8447 35.994C40.3719 35.9854 41.0972 35.7745 41.5461 34.8141C41.7912 34.2925 41.6459 33.6028 41.197 33.1383C40.7453 32.6737 39.8746 32.346 39.1165 32.346H39.1151ZM30.8558 44.5853C30.7834 44.585 30.7111 44.5812 30.6392 44.5739C30.0777 44.5198 29.4521 44.1863 29.3282 43.5622C29.227 43.0363 29.522 42.5704 29.7186 42.2611C30.4952 41.1012 31.44 40.021 32.352 38.9751C32.828 38.4307 33.3011 37.8878 33.7471 37.3406C33.8066 37.2671 33.8929 37.2203 33.987 37.2104C34.081 37.2005 34.1752 37.2284 34.2487 37.2879C34.3222 37.3474 34.3691 37.4337 34.3789 37.5278C34.3888 37.6218 34.3609 37.716 34.3014 37.7895C33.8483 38.3452 33.3695 38.8924 32.8907 39.4425C31.9901 40.4713 31.061 41.5358 30.3157 42.6502C30.1333 42.9352 29.9822 43.1988 30.025 43.4268C30.0763 43.6719 30.4154 43.8372 30.709 43.8643C31.4728 43.9426 32.2238 43.4111 32.865 42.9124C34.042 41.9929 35.1906 41.0377 36.3092 40.0481C36.3442 40.0171 36.385 39.9932 36.4292 39.9779C36.4734 39.9626 36.5202 39.9561 36.567 39.9589C36.6137 39.9617 36.6594 39.9736 36.7015 39.9941C36.7436 40.0145 36.7812 40.0431 36.8123 40.078C36.8433 40.113 36.8672 40.1538 36.8825 40.198C36.8978 40.2422 36.9043 40.289 36.9015 40.3358C36.8987 40.3825 36.8868 40.4282 36.8663 40.4703C36.8459 40.5124 36.8173 40.55 36.7823 40.5811C35.6851 41.5543 34.5451 42.5005 33.3025 43.4738C32.5586 44.0552 31.7492 44.5853 30.8558 44.5853ZM48.6654 44.0695C48.0213 44.0695 47.2304 43.6648 46.6562 43.3712L46.4396 43.2615C45.2126 42.6559 44.0313 41.7795 43.0338 41.0043C42.9592 40.9459 42.9108 40.8603 42.8993 40.7662C42.8878 40.6721 42.9142 40.5773 42.9725 40.5027C43.0309 40.4281 43.1166 40.3797 43.2107 40.3682C43.3047 40.3567 43.3995 40.383 43.4741 40.4414C44.4403 41.1967 45.5846 42.046 46.7545 42.6217L46.9811 42.7357C47.4057 42.9537 48.5386 43.5294 48.8564 43.3171C48.9319 43.2686 48.9675 43.1133 48.9547 42.891C48.9205 42.2782 48.5457 41.6897 48.2151 41.1724L45.9522 37.6256C45.9261 37.5861 45.9081 37.5418 45.8992 37.4953C45.8904 37.4488 45.8909 37.401 45.9008 37.3546C45.9107 37.3083 45.9297 37.2644 45.9567 37.2256C45.9838 37.1867 46.0183 37.1536 46.0582 37.1282C46.0982 37.1028 46.1429 37.0856 46.1896 37.0777C46.2362 37.0698 46.284 37.0712 46.3302 37.082C46.3763 37.0927 46.4198 37.1126 46.4582 37.1403C46.4965 37.1681 46.529 37.2033 46.5536 37.2437L48.8165 40.7891C49.1756 41.352 49.6202 42.0517 49.6672 42.8511C49.6957 43.3555 49.5532 43.7132 49.2468 43.9141C49.0726 44.0221 48.8703 44.0761 48.6654 44.0695Z" fill="white"/>
</svg>
