<svg width="382" height="205" viewBox="0 0 382 205" fill="none" xmlns="http://www.w3.org/2000/svg">
<mask id="path-1-inside-1_2608_12922" fill="white">
<path d="M108.862 182.095C127.564 167.919 120.382 148.46 114.454 140.502L156.586 134.926C157.881 162.999 125.31 178.069 108.862 182.095Z"/>
</mask>
<path d="M114.454 140.502L101.334 41.3665L-67.4635 63.7059L34.2627 200.246L114.454 140.502ZM108.862 182.095L48.4544 102.403L132.639 279.228L108.862 182.095ZM156.586 134.926L256.48 130.32L251.463 21.4978L143.466 35.7905L156.586 134.926ZM34.2627 200.246C27.8272 191.609 21.382 178.984 20.9284 161.571C20.6695 151.632 22.4567 139.831 28.0562 127.989C33.7154 116.02 41.56 107.629 48.4544 102.403L169.271 261.788C205.051 234.665 221.873 195.233 220.861 156.362C220.009 123.686 207.009 97.3532 194.645 80.7577L34.2627 200.246ZM132.639 279.228C150.98 274.738 176.978 264.907 200.641 246.565C224.722 227.899 259.197 189.247 256.48 130.32L56.6925 139.532C56.054 125.684 59.8804 113.118 65.3669 103.606C70.341 94.9833 75.7847 90.2972 78.1137 88.4919C80.5598 86.5958 82.0815 85.9276 82.2358 85.8579C82.3982 85.7844 83.1069 85.4474 85.0861 84.9629L132.639 279.228ZM143.466 35.7905L101.334 41.3665L127.574 239.638L169.706 234.062L143.466 35.7905Z" fill="#FFB236" mask="url(#path-1-inside-1_2608_12922)"/>
<rect x="9.5498" y="64.8926" width="356.011" height="99.1368" rx="49.5684" transform="rotate(-5.53354 9.5498 64.8926)" fill="#FFB236"/>
</svg>
