<svg width="259" height="129" viewBox="0 0 259 129" fill="none" xmlns="http://www.w3.org/2000/svg">
<path d="M258.798 1.87122C259.073 1.39263 258.909 0.781217 258.43 0.505586C257.952 0.229956 257.34 0.394486 257.064 0.873074L258.798 1.87122ZM53.1075 16.1136L54.0971 16.2571L53.1075 16.1136ZM0.488562 122.785C0.242839 123.279 0.444616 123.879 0.939205 124.125L8.99935 128.129C9.49396 128.375 10.0941 128.173 10.3398 127.679C10.5856 127.184 10.3838 126.584 9.88919 126.338L2.72462 122.779L6.28399 115.614C6.52972 115.12 6.32796 114.52 5.83335 114.274C5.33874 114.028 4.73859 114.23 4.49287 114.724L0.488562 122.785ZM257.064 0.873074C249.695 13.6691 232.657 25.9282 211.199 35.8775C189.786 45.8056 164.151 53.3515 139.813 56.822C115.446 60.2966 92.5137 59.6666 76.4355 53.3735C68.412 50.2331 62.1561 45.7069 58.2438 39.6372C54.3396 33.5802 52.7017 25.882 54.0971 16.2571L52.1178 15.9702C50.666 25.984 52.3521 34.1883 56.5627 40.7208C60.7651 47.2404 67.4146 51.9905 75.7065 55.2359C92.2589 61.7146 115.597 62.2951 140.095 58.802C164.621 55.3048 190.445 47.7048 212.04 37.692C233.59 27.7003 251.108 15.2233 258.798 1.87122L257.064 0.873074ZM54.0971 16.2571C54.8375 11.1504 56.4856 8.75107 58.1803 7.99455C59.8169 7.26402 62.0514 7.84612 64.5877 10.1548C69.6086 14.7252 74.6895 25.1691 75.7025 38.3384C76.7115 51.4552 73.6708 67.166 62.6057 82.2208C51.5374 97.2799 32.3883 111.752 1.06548 122.282L1.7028 124.177C33.314 113.55 52.8484 98.8732 64.2172 83.4053C75.5892 67.933 78.7392 51.7385 77.6966 38.185C76.6581 24.684 71.4452 13.6925 65.934 8.67581C63.2042 6.19095 60.1132 4.94156 57.3651 6.16825C54.6752 7.36895 52.8796 10.7156 52.1178 15.9702L54.0971 16.2571Z" fill="#29A55C"/>
</svg>
