<svg width="170" height="165" viewBox="0 0 170 165" fill="none" xmlns="http://www.w3.org/2000/svg">
<g clip-path="url(#clip0_1001_10146)">
<path d="M144.627 103.036C145.569 100.081 145.094 96.9093 144.529 93.9134C141.905 80.0349 137.718 66.3317 133.667 53.0796C132.139 48.0789 130.559 42.9093 128.076 38.1523C127.961 37.9324 127.843 37.7138 127.723 37.4966C127.716 37.473 127.713 37.4504 127.706 37.4267C127.661 37.2878 127.583 37.1622 127.477 37.0613C125.561 33.7063 123.105 30.6886 120.719 27.7623C120.041 26.9302 119.341 26.0705 118.666 25.2191C118.563 25.0902 118.427 24.9925 118.272 24.9367C118.117 24.881 117.949 24.8695 117.788 24.9035C117.627 24.9378 117.479 25.0162 117.36 25.1301C117.241 25.244 117.156 25.3888 117.115 25.5482C116.83 26.659 116.502 27.7933 116.185 28.8911C115.071 32.7546 113.918 36.7491 114.188 40.8907C114.498 45.6348 115.821 50.2254 117.101 54.6632L130.078 99.6651C130.598 101.471 131.137 103.336 132.205 105.004C133.089 106.383 134.254 107.421 135.533 108.002C136.07 108.246 136.628 108.411 137.193 108.485C139.842 108.84 143.347 107.05 144.627 103.036ZM130.499 94.7412L129.986 92.9613C132.199 93.7349 134.602 93.7738 136.838 93.0724C138.805 92.4523 140.554 91.2767 141.875 89.7103C141.982 90.2121 142.088 90.7144 142.191 91.2169C142.105 91.2765 142.026 91.3511 141.964 91.4432C140.76 93.2072 138.895 94.5589 136.844 95.1527C134.794 95.7463 132.494 95.6008 130.535 94.7529C130.523 94.7477 130.511 94.7455 130.499 94.7412ZM129.352 90.7654C131.591 91.4959 134.105 91.4656 136.318 90.671C138.272 89.9697 140.024 88.6593 141.279 86.9958C141.387 87.4702 141.492 87.9462 141.597 88.4215C140.37 90.1404 138.544 91.4744 136.533 92.1079C134.406 92.7775 131.998 92.6871 129.927 91.8592C129.838 91.8245 129.747 91.8181 129.66 91.8314L129.352 90.7654ZM128.685 88.4493C131.084 88.9312 133.61 88.6687 135.857 87.6907C137.717 86.8817 139.349 85.5991 140.585 84.0001C140.716 84.551 140.844 85.1029 140.972 85.6552C139.831 87.5099 138.025 88.9844 135.977 89.719C133.843 90.4851 131.401 90.4663 129.279 89.669C129.2 89.6396 129.113 89.6313 129.029 89.6447L128.685 88.4493ZM131.976 53.5957C134.779 62.771 137.649 72.1644 140.014 81.6666C138.985 83.506 137.391 85.0003 135.494 85.9108L121.959 41.8087C122.883 42.16 123.934 42.1781 124.864 41.7755C125.712 41.4089 126.527 40.8333 127.087 40.1301C129.17 44.4271 130.595 49.0812 131.976 53.5957ZM119.348 28.8802C119.815 29.4523 120.283 30.0285 120.751 30.6091C119.909 31.6217 118.468 32.1511 117.176 31.8978C117.406 31.0572 117.642 30.2185 117.886 29.3817C118.048 28.822 118.212 28.2531 118.373 27.6806C118.699 28.0846 119.026 28.4857 119.348 28.8801L119.348 28.8802ZM116.918 32.8751C118.532 33.2188 120.287 32.6271 121.392 31.4119C123.088 33.5523 124.722 35.7682 126.051 38.1329C126.119 38.9315 125.029 39.7773 124.162 40.1512C123.237 40.5522 121.992 40.1321 121.498 39.2524C121.415 39.1044 121.291 38.9835 121.141 38.904C120.991 38.8246 120.821 38.7899 120.652 38.8043C120.482 38.8189 120.321 38.8819 120.187 38.9857C120.052 39.0895 119.95 39.2298 119.893 39.3897C119.614 40.1753 118.997 40.8597 118.244 41.2181C117.559 41.5441 116.739 41.6111 116.004 41.4117C115.986 41.1991 115.967 40.9878 115.954 40.7757C115.781 38.1321 116.256 35.4832 116.918 32.875L116.918 32.8751ZM116.209 43.2536C117.158 43.3767 118.136 43.2299 119.005 42.8157C119.695 42.4843 120.301 41.999 120.774 41.3971L134.556 86.303C132.649 86.992 130.551 87.1057 128.579 86.6137C128.44 86.5797 128.295 86.5806 128.156 86.6162L118.801 54.1743C117.776 50.6168 116.722 46.9599 116.21 43.2535L116.209 43.2536ZM137.427 106.733C136.029 106.546 134.669 105.569 133.695 104.05C132.765 102.599 132.263 100.859 131.777 99.176L131.102 96.835C133.136 97.4343 135.299 97.4402 137.336 96.8521C139.392 96.2546 141.232 95.0764 142.636 93.4589C142.686 93.7204 142.74 93.9809 142.79 94.2429C143.335 97.1312 143.757 99.9352 142.94 102.498C142.194 104.841 139.927 107.066 137.427 106.733L137.427 106.733ZM115.984 82.1088C115.113 80.8255 113.687 80.2056 112.539 79.7095L58.2404 56.166C56.7448 55.5174 55.2489 54.8671 53.7535 54.2161C50.8127 52.9359 47.77 51.6127 44.7712 50.3256C44.4927 50.2064 44.1988 50.0728 43.895 49.9354C41.7607 48.9694 38.8371 47.6467 36.374 48.9024C33.7738 50.2272 32.3073 54.0573 31.1293 57.1348C30.7686 58.077 30.4272 58.9668 30.1046 59.6461L9.5677 102.903C8.78518 104.55 8.01838 106.459 8.82108 108.268C9.5327 109.873 11.2347 110.657 12.3608 111.176L83.9686 144.198C84.0586 144.239 84.1516 144.283 84.2468 144.326C85.273 144.793 86.6027 145.328 87.9897 145.054C90.1068 144.635 91.2542 142.695 92.1799 140.662L115.481 89.4356C116.567 87.0468 117.477 84.308 115.984 82.1088ZM83.6955 69.131L90.4816 72.0735C90.4455 72.1203 90.4124 72.1713 90.3855 72.2264L85.0339 83.0039L83.4349 77.9507C83.3948 77.8232 83.3262 77.7066 83.2343 77.6095C83.1424 77.5125 83.0296 77.4376 82.9046 77.3906C82.7797 77.3429 82.6457 77.3244 82.5126 77.3363C82.3795 77.3482 82.2508 77.3902 82.1364 77.4593L78.1885 79.8259L83.6955 69.131ZM10.4374 107.55C9.93922 106.427 10.5521 104.954 11.1656 103.662L31.7034 60.4052C32.0543 59.6637 32.4075 58.743 32.7807 57.7686C33.8512 54.9729 35.1834 51.495 37.1781 50.4786C38.8826 49.6094 41.2571 50.6846 43.1652 51.5478C43.4807 51.6902 43.7851 51.8286 44.0736 51.9524C47.0689 53.2381 50.1086 54.56 53.0481 55.8385C54.5446 56.4898 56.04 57.1408 57.5361 57.79L75.3643 65.5192L47.0963 124.915C47.0512 125.011 47.0274 125.111 47.0175 125.211L13.1018 109.57C11.9308 109.03 10.8455 108.469 10.4377 107.55L10.4374 107.55ZM90.5687 139.929C89.8391 141.534 88.9804 143.054 87.6456 143.318C86.766 143.493 85.7958 143.093 84.7099 142.591L48.5286 125.907C48.5937 125.84 48.6508 125.764 48.6933 125.675L76.9881 66.2231L82.068 68.4253L75.1946 81.7759C75.1065 81.9471 75.0765 82.1422 75.1093 82.3319C75.142 82.5216 75.2356 82.6954 75.376 82.8271C75.4463 82.8926 75.5267 82.9463 75.6142 82.986C75.8739 83.1041 76.1812 83.0923 76.4355 82.9393L82.0862 79.552L84.008 85.6262C84.0612 85.7943 84.1634 85.9426 84.3015 86.0522C84.4395 86.1619 84.6071 86.2278 84.7829 86.2417C84.9588 86.2552 85.1348 86.2159 85.2883 86.1288C85.4418 86.0417 85.5658 85.9107 85.6444 85.7527L91.9697 73.0144C92.0092 72.932 92.0356 72.844 92.0479 72.7535L111.835 81.3324C113.026 81.8493 113.981 82.3074 114.52 83.1022C115.521 84.5776 114.753 86.7619 113.87 88.7032L90.5687 139.929Z" fill="#29A55C"/>
<path d="M121.46 80.7353C120.515 79.3411 118.952 78.6627 117.695 78.1181L103.668 72.0367C104.459 65.4656 105.095 58.9498 105.71 52.6452C106.432 45.245 107.178 37.5945 108.178 29.8282C108.558 26.8817 108.773 23.8115 106.924 21.5056C105.101 19.2334 102.103 18.7552 99.1877 18.4583L49.0668 13.3793C47.9321 13.2643 46.0332 13.071 44.6929 14.1973C43.4335 15.2571 43.235 16.9455 43.1472 18.4448L41.5935 45.106C39.1792 44.0168 36.2466 42.7897 33.6744 44.1001C30.835 45.547 29.2221 49.7584 27.9264 53.1421C27.5281 54.1832 27.1513 55.1678 26.793 55.9208L4.11651 103.684C3.26155 105.484 2.42197 107.569 3.2928 109.53C4.06522 111.271 5.92526 112.129 7.15594 112.696L86.2241 149.158C86.3233 149.204 86.4242 149.251 86.5293 149.299C87.6517 149.809 89.1041 150.394 90.607 150.096C92.9039 149.641 94.1562 147.522 95.1667 145.3L120.896 88.7354C122.086 86.1216 123.082 83.1261 121.46 80.7355L121.46 80.7353ZM45.8321 15.5517C46.54 14.9564 47.7294 15.0212 48.8884 15.139L99.0099 20.2196C101.551 20.4771 104.15 20.8747 105.544 22.6127C106.96 24.3776 106.754 27.0336 106.423 29.6031C105.421 37.3958 104.673 45.0605 103.949 52.4731C103.352 58.5996 102.733 64.9276 101.974 71.302L57.7401 52.1228C56.0814 51.403 54.4243 50.6828 52.7663 49.9614C49.673 48.6148 46.4789 47.2261 43.3213 45.8698L44.9138 18.5475C44.9833 17.3643 45.1108 16.158 45.8321 15.5517ZM93.5567 144.566C92.7411 146.359 91.7774 148.061 90.2633 148.36C89.2647 148.558 88.1754 148.112 86.9645 147.551L7.89729 111.089C6.58786 110.486 5.37318 109.857 4.90982 108.812C4.34377 107.536 5.02878 105.887 5.71493 104.442L28.3913 56.6785C28.779 55.8633 29.1674 54.8488 29.5788 53.7741C30.766 50.6738 32.2447 46.8146 34.4777 45.6756C36.4005 44.6972 39.0449 45.893 41.1692 46.8545C41.5174 47.012 41.8521 47.1642 42.1703 47.3001C45.4714 48.7163 48.821 50.1747 52.06 51.5831C53.7188 52.3051 55.3773 53.0271 57.0365 53.746L116.991 79.7421C117.186 79.8263 117.375 79.9091 117.559 79.9925C118.624 80.4769 119.477 80.9625 119.996 81.7277C121.127 83.3956 120.272 85.8358 119.286 88.0027L93.5567 144.566ZM128.251 121.221C128.347 120.915 128.511 120.508 128.684 120.076C129.22 118.737 129.828 117.22 129.642 116.047C129.302 113.91 126.441 112.77 124.351 111.938C123.845 111.737 123.368 111.547 123.032 111.383C120.317 110.056 117.911 109.855 116.071 110.805C114.1 111.82 113.122 113.951 112.407 115.506L101.806 138.584C101.061 140.206 100.387 141.934 101.03 143.655C101.677 145.386 103.433 146.291 104.596 146.89L110.601 149.987C110.861 150.121 111.152 150.271 111.471 150.416C112.422 150.848 113.601 151.225 114.807 150.923C116.626 150.469 117.602 148.8 118.385 147.065C121.433 140.311 124.158 133.417 126.551 126.404C127.138 124.683 127.704 122.955 128.251 121.221ZM106.192 133.275L120.181 138.385C119.83 139.247 119.475 140.106 119.115 140.962L105.162 135.548C105.158 135.546 105.153 135.546 105.149 135.544L106.192 133.275ZM125.564 123.776C125.335 124.472 125.102 125.167 124.866 125.861L112.116 120.38L113.033 118.382L125.535 123.767C125.545 123.771 125.554 123.772 125.564 123.776ZM111.693 121.3L124.533 126.819C123.299 130.382 121.972 133.933 120.558 137.447L106.615 132.353L111.693 121.3ZM116.882 112.378C118.434 111.576 120.418 112.131 121.917 112.813C122.032 112.866 122.145 112.919 122.254 112.973C122.65 113.165 123.158 113.369 123.697 113.582C125.199 114.181 127.713 115.182 127.895 116.325C128.005 117.015 127.448 118.404 127.041 119.418C126.856 119.881 126.681 120.319 126.563 120.689C126.417 121.155 126.263 121.622 126.113 122.09L113.772 116.775L114.015 116.245C114.802 114.531 115.561 113.058 116.882 112.378ZM114.377 149.207C113.49 149.429 112.469 148.959 111.412 148.414L105.406 145.318C104.188 144.69 103.063 144.043 102.687 143.036C102.282 141.951 102.824 140.606 103.413 139.322L104.415 137.143C104.435 137.154 104.453 137.168 104.475 137.178C104.49 137.185 104.506 137.192 104.522 137.198L118.419 142.59C117.879 143.845 117.332 145.096 116.772 146.337C116.172 147.667 115.466 148.934 114.377 149.207Z" fill="#29A55C"/>
<path d="M65.8081 74.6154L65.8045 74.6137L36.6902 61.594C36.5676 61.5397 36.4285 61.5361 36.3033 61.584C36.1781 61.632 36.077 61.7275 36.022 61.8498C35.9677 61.9718 35.9639 62.1103 36.0114 62.2351C36.0588 62.3599 36.1537 62.4609 36.2754 62.516L36.2781 62.5172L65.3924 75.5369C65.5148 75.5913 65.6538 75.5951 65.7789 75.5473C65.9041 75.4996 66.0053 75.4043 66.0604 75.2822C66.1148 75.1602 66.1188 75.0217 66.0716 74.8968C66.0243 74.7719 65.9296 74.6708 65.8081 74.6154ZM63.6204 79.4269L63.6168 79.4252L34.5025 66.4055C34.38 66.3512 34.2411 66.3475 34.1159 66.3953C33.9908 66.4431 33.8897 66.5385 33.8347 66.6606C33.7803 66.7827 33.7764 66.9213 33.8238 67.0462C33.8712 67.1711 33.966 67.2722 34.0877 67.3275L34.0904 67.3287L63.2047 80.3484C63.3273 80.4028 63.4664 80.4065 63.5917 80.3586C63.7169 80.3107 63.8181 80.2151 63.8731 80.0928C63.9273 79.9709 63.9311 79.8325 63.8838 79.7078C63.8365 79.5831 63.7418 79.4822 63.6204 79.4269ZM61.4326 84.2386L61.429 84.237L32.3148 71.2171C32.1923 71.1627 32.0534 71.159 31.9282 71.2068C31.8031 71.2546 31.702 71.35 31.647 71.4721C31.5925 71.5942 31.5886 71.7328 31.636 71.8578C31.6833 71.9828 31.7782 72.0839 31.8999 72.1392L31.9026 72.1405L61.0169 85.1601C61.1395 85.2146 61.2787 85.2182 61.404 85.1703C61.5293 85.1223 61.6305 85.0267 61.6854 84.9043C61.7395 84.7824 61.7433 84.6441 61.6959 84.5194C61.6486 84.3948 61.554 84.2939 61.4326 84.2386ZM59.2454 89.049L59.2418 89.0473L30.127 76.0288C30.0046 75.9745 29.8657 75.9708 29.7407 76.0185C29.6156 76.0662 29.5145 76.1614 29.4594 76.2834C29.4049 76.4055 29.4009 76.5441 29.4482 76.6692C29.4956 76.7942 29.5905 76.8954 29.7122 76.9507L29.7149 76.952L58.8296 89.9707C58.8902 89.998 58.9555 90.0132 59.0218 90.0152C59.0882 90.0173 59.1543 90.0063 59.2164 89.9828C59.2785 89.9593 59.3354 89.9238 59.3838 89.8783C59.4322 89.8328 59.4711 89.7783 59.4984 89.7178C59.5257 89.6572 59.5408 89.5919 59.5429 89.5256C59.545 89.4592 59.5339 89.3931 59.5104 89.331C59.487 89.2689 59.4515 89.212 59.406 89.1636C59.3605 89.1153 59.306 89.0763 59.2454 89.049ZM57.0576 93.8607L57.054 93.8591L27.9393 80.8403C27.8169 80.786 27.678 80.7823 27.5528 80.83C27.4277 80.8778 27.3266 80.9731 27.2716 81.0951C27.2171 81.2172 27.2132 81.3558 27.2606 81.4808C27.3079 81.6058 27.4028 81.7069 27.5245 81.7622L27.5272 81.7635L56.6419 94.7823C56.7636 94.8339 56.9006 94.8359 57.0237 94.7878C57.1468 94.7397 57.2462 94.6453 57.3005 94.5248C57.3548 94.4043 57.3599 94.2674 57.3145 94.1432C57.2691 94.0191 57.1769 93.9177 57.0576 93.8607ZM54.8699 98.6722L54.8663 98.6706L25.7516 85.6518C25.6293 85.5967 25.4902 85.5923 25.3648 85.6398C25.2394 85.6872 25.1379 85.7825 25.0828 85.9048C25.0276 86.027 25.0233 86.1661 25.0708 86.2916C25.1182 86.417 25.2135 86.5184 25.3358 86.5736L25.3394 86.5752L54.4542 99.5938C54.5148 99.6209 54.5801 99.6359 54.6464 99.6377C54.7127 99.6396 54.7788 99.6284 54.8407 99.6047C54.9027 99.581 54.9594 99.5453 55.0075 99.4996C55.0557 99.4539 55.0943 99.3992 55.1213 99.3386C55.1758 99.2169 55.18 99.0785 55.1329 98.9536C55.0859 98.8288 54.9913 98.7276 54.8699 98.6722ZM52.6822 103.484L52.6786 103.482L23.5639 90.4633C23.4415 90.409 23.3026 90.4053 23.1774 90.453C23.0523 90.5008 22.9512 90.5961 22.8962 90.7181C22.8417 90.8402 22.8378 90.9788 22.8852 91.1038C22.9325 91.2288 23.0274 91.3299 23.1491 91.3853L23.1518 91.3865L52.2665 104.405C52.3882 104.457 52.5252 104.459 52.6483 104.411C52.7714 104.363 52.8708 104.268 52.9251 104.148C52.9795 104.027 52.9845 103.89 52.9391 103.766C52.8937 103.642 52.8015 103.541 52.6822 103.484ZM50.4944 108.295L50.4908 108.294L21.3762 95.2748C21.2539 95.2198 21.1147 95.2156 20.9894 95.2632C20.864 95.3107 20.7626 95.4062 20.7076 95.5284C20.6526 95.6507 20.6484 95.7899 20.696 95.9152C20.7436 96.0406 20.839 96.142 20.9613 96.197L20.964 96.1982L50.0787 109.217C50.2012 109.271 50.3402 109.275 50.4654 109.227C50.5906 109.18 50.6917 109.084 50.7468 108.962C50.8011 108.84 50.8051 108.702 50.7578 108.577C50.7106 108.452 50.6159 108.351 50.4944 108.295ZM103.181 97.4143L103.178 97.413L74.0638 84.3933C73.9416 84.3382 73.8024 84.3339 73.677 84.3813C73.5516 84.4287 73.4502 84.5241 73.395 84.6463C73.3399 84.7685 73.3356 84.9077 73.383 85.0331C73.4304 85.1585 73.5258 85.2599 73.648 85.3151L73.6507 85.3163L102.765 98.3358C102.887 98.3875 103.024 98.3894 103.147 98.3413C103.27 98.2932 103.369 98.1988 103.424 98.0783C103.478 97.9579 103.483 97.8209 103.438 97.6968C103.392 97.5727 103.3 97.4712 103.181 97.4143ZM100.993 102.226L100.99 102.225L71.8761 89.2048C71.7539 89.1497 71.6147 89.1454 71.4893 89.1928C71.3639 89.2403 71.2625 89.3356 71.2073 89.4578C71.1522 89.58 71.1479 89.7192 71.1953 89.8446C71.2427 89.97 71.3381 90.0714 71.4603 90.1266L71.463 90.1278L100.577 103.148C100.7 103.203 100.839 103.207 100.964 103.16C101.09 103.112 101.191 103.017 101.246 102.895C101.301 102.772 101.306 102.633 101.258 102.508C101.211 102.382 101.115 102.281 100.993 102.226ZM98.8059 107.036L98.8031 107.035L69.6883 94.0166C69.5667 93.9649 69.4296 93.9629 69.3065 94.011C69.1834 94.0591 69.0841 94.1535 69.0297 94.274C68.9754 94.3945 68.9704 94.5315 69.0158 94.6556C69.0612 94.7797 69.1533 94.8811 69.2726 94.9381L69.2753 94.9393L98.3901 107.958C98.4506 107.985 98.516 108 98.5824 108.002C98.6488 108.004 98.7149 107.993 98.777 107.97C98.839 107.946 98.8958 107.91 98.944 107.864C98.9922 107.819 99.031 107.764 99.058 107.703C99.1124 107.581 99.1165 107.443 99.0692 107.318C99.022 107.193 98.9273 107.092 98.8058 107.037L98.8059 107.036ZM96.6181 111.848L96.6153 111.847L67.5006 98.8281C67.379 98.7764 67.2419 98.7744 67.1188 98.8225C66.9957 98.8706 66.8964 98.965 66.842 99.0855C66.7877 99.206 66.7827 99.343 66.8281 99.4671C66.8735 99.5912 66.9656 99.6926 67.0849 99.7496L67.0876 99.7508L96.2024 112.77C96.2629 112.797 96.3283 112.812 96.3947 112.814C96.4611 112.816 96.5272 112.805 96.5893 112.781C96.6513 112.757 96.7081 112.722 96.7563 112.676C96.8045 112.63 96.8433 112.576 96.8703 112.515C96.9247 112.393 96.9288 112.254 96.8815 112.13C96.8343 112.005 96.7396 111.903 96.6181 111.848ZM94.4304 116.66L94.4276 116.658L65.3129 103.64C65.1907 103.584 65.0515 103.58 64.9261 103.628C64.8007 103.675 64.6993 103.77 64.6441 103.893C64.589 104.015 64.5847 104.154 64.6321 104.279C64.6795 104.405 64.7749 104.506 64.8971 104.561L64.8998 104.563L94.0147 117.581C94.0752 117.608 94.1406 117.623 94.207 117.625C94.2734 117.627 94.3395 117.616 94.4016 117.593C94.4636 117.569 94.5204 117.533 94.5686 117.487C94.6168 117.442 94.6556 117.387 94.6826 117.326C94.737 117.204 94.7411 117.066 94.6938 116.941C94.6466 116.816 94.5519 116.715 94.4304 116.66ZM92.2427 121.471L92.2399 121.47L63.1252 108.451C63.003 108.396 62.8638 108.392 62.7384 108.439C62.613 108.487 62.5116 108.582 62.4564 108.704C62.4013 108.826 62.397 108.965 62.4444 109.091C62.4918 109.216 62.5872 109.318 62.7094 109.373L62.7121 109.374L91.827 122.393C91.9492 122.448 92.0883 122.452 92.2138 122.405C92.3392 122.357 92.4406 122.262 92.4957 122.14C92.5509 122.017 92.5552 121.878 92.5078 121.753C92.4603 121.627 92.365 121.526 92.2428 121.471L92.2427 121.471ZM90.0549 126.283L90.0521 126.282L60.9375 113.263C60.8769 113.235 60.8116 113.22 60.7452 113.218C60.6788 113.216 60.6127 113.228 60.5506 113.251C60.4886 113.275 60.4318 113.311 60.3836 113.356C60.3354 113.402 60.2967 113.457 60.2697 113.518C60.2153 113.64 60.2114 113.778 60.2586 113.903C60.3059 114.028 60.4006 114.129 60.522 114.184L60.5243 114.185L89.6392 127.204C89.7614 127.259 89.9005 127.264 90.0259 127.216C90.1514 127.169 90.2528 127.074 90.3079 126.951C90.3631 126.829 90.3674 126.69 90.32 126.565C90.2725 126.439 90.1771 126.338 90.0549 126.283ZM87.8672 131.094L87.8644 131.093L58.7497 118.074C58.6892 118.047 58.6238 118.032 58.5575 118.03C58.4911 118.028 58.4251 118.039 58.363 118.063C58.301 118.087 58.2443 118.122 58.1961 118.168C58.1479 118.214 58.1091 118.268 58.0821 118.329C58.0277 118.451 58.0237 118.589 58.071 118.714C58.1184 118.839 58.2131 118.94 58.3346 118.995L58.3369 118.996L87.4515 132.016C87.5737 132.071 87.7128 132.075 87.8383 132.028C87.9637 131.98 88.0651 131.885 88.1202 131.763C88.1754 131.641 88.1797 131.502 88.1323 131.376C88.0848 131.251 87.9895 131.149 87.8673 131.094L87.8672 131.094ZM48.3067 113.107L48.3031 113.105L19.1884 100.087C19.1278 100.059 19.0625 100.044 18.9962 100.042C18.9298 100.04 18.8637 100.052 18.8017 100.075C18.7397 100.099 18.6829 100.135 18.6347 100.18C18.5865 100.226 18.5478 100.281 18.5208 100.341C18.4664 100.463 18.4624 100.601 18.5097 100.726C18.557 100.851 18.6518 100.952 18.7733 101.007L18.7767 101.009L47.891 114.028C47.9516 114.056 48.0169 114.071 48.0832 114.073C48.1496 114.075 48.2157 114.064 48.2778 114.041C48.3399 114.017 48.3968 113.982 48.4452 113.936C48.4936 113.891 48.5325 113.836 48.5598 113.776C48.5871 113.715 48.6022 113.65 48.6043 113.583C48.6064 113.517 48.5953 113.451 48.5718 113.389C48.5484 113.327 48.5129 113.27 48.4674 113.221C48.4219 113.173 48.3674 113.134 48.3069 113.107L48.3067 113.107ZM54.1561 26.2989C54.2051 26.3212 54.2577 26.3355 54.3142 26.3406L93.8592 30.2103C93.9927 30.2232 94.1259 30.1826 94.2295 30.0974C94.3331 30.0122 94.3986 29.8894 94.4117 29.7559C94.4183 29.6899 94.4118 29.6231 94.3926 29.5596C94.3734 29.496 94.3418 29.4369 94.2996 29.3856C94.2575 29.3343 94.2056 29.2918 94.147 29.2606C94.0884 29.2294 94.0241 29.2101 93.958 29.2038L54.4133 25.3342C54.3471 25.3277 54.2804 25.3343 54.2168 25.3536C54.1532 25.3729 54.094 25.4046 54.0427 25.4468C53.9914 25.4891 53.9489 25.541 53.9176 25.5997C53.8864 25.6583 53.8671 25.7226 53.8607 25.7887C53.8503 25.894 53.8733 25.9999 53.9263 26.0914C53.9793 26.1829 54.0597 26.2555 54.1561 26.2989ZM54.5444 31.4752C54.5925 31.4971 54.646 31.5118 54.7027 31.517L94.2477 35.3867C94.3812 35.3993 94.5142 35.3586 94.6177 35.2735C94.7212 35.1883 94.7867 35.0656 94.8 34.9322C94.8065 34.8662 94.7999 34.7996 94.7806 34.7361C94.7613 34.6726 94.7297 34.6136 94.6876 34.5623C94.6455 34.511 94.5937 34.4686 94.5352 34.4373C94.4767 34.4061 94.4126 34.3866 94.3465 34.3802L54.8007 30.5101C54.6811 30.4983 54.5613 30.5294 54.4626 30.5978C54.364 30.6663 54.2929 30.7676 54.262 30.8837C54.2312 30.9997 54.2427 31.123 54.2944 31.2314C54.3462 31.3397 54.4348 31.4262 54.5444 31.4752ZM53.9605 37.016C54.0086 37.0378 54.0621 37.0525 54.1189 37.0577L93.6639 40.9274C93.7973 40.9401 93.9303 40.8994 94.0338 40.8142C94.1373 40.729 94.2028 40.6063 94.2161 40.473C94.2227 40.4069 94.2162 40.3402 94.197 40.2767C94.1778 40.2132 94.1462 40.1541 94.1041 40.1028C94.0619 40.0515 94.0101 40.009 93.9515 39.9778C93.8929 39.9466 93.8288 39.9273 93.7627 39.9209L54.2168 36.0508C54.0833 36.0381 53.9502 36.0788 53.8467 36.1641C53.7432 36.2493 53.6776 36.372 53.6644 36.5055C53.6544 36.6108 53.6775 36.7167 53.7306 36.8082C53.7837 36.8997 53.8641 36.9724 53.9605 37.016ZM54.3494 42.1923C54.3972 42.214 54.4507 42.2287 54.5074 42.2341L94.0521 46.1037C94.1856 46.1165 94.3188 46.0758 94.4223 45.9906C94.5259 45.9054 94.5915 45.7826 94.6047 45.6492C94.6177 45.5158 94.5773 45.3828 94.4922 45.2793C94.4072 45.1758 94.2845 45.1104 94.1512 45.0973L54.6053 41.2272C54.4718 41.2145 54.3388 41.2552 54.2352 41.3403C54.1317 41.4255 54.0661 41.5482 54.0528 41.6816C54.0428 41.7869 54.0659 41.8928 54.1191 41.9844C54.1722 42.0759 54.2529 42.1487 54.3494 42.1923Z" fill="#29A55C"/>
</g>
<defs>
<clipPath id="clip0_1001_10146">
<rect width="128.152" height="128.152" fill="white" transform="translate(53.043 -5) rotate(24.4504)"/>
</clipPath>
</defs>
</svg>
