<svg width="155" height="155" viewBox="0 0 155 155" fill="none" xmlns="http://www.w3.org/2000/svg">
<g clip-path="url(#clip0_1001_10161)">
<path d="M137.742 69.0905C136.454 59.5793 129.926 50.9803 121.112 47.1821C114.704 44.4212 107.282 44.2848 100.712 46.5645L98.2206 15.6133C98.0221 13.1442 97.6705 10.5972 95.7929 8.95535C93.8265 7.23792 91.0329 7.32169 88.5678 7.53366L24.6723 13.0491C21.8325 13.2954 18.9017 13.7122 17.0262 15.8454C15.0642 18.0757 15.1119 21.1589 15.3286 24.1261L19.8322 85.7657C19.7448 85.6823 19.6557 85.6035 19.5673 85.5213C19.5533 85.5015 19.5436 85.4812 19.5296 85.4614C19.4373 85.3347 19.3184 85.2397 19.1876 85.1733C16.7554 83.0015 13.9903 81.245 11.3041 79.5438C10.5275 79.0541 9.75398 78.5594 8.98368 78.0598C8.83352 77.9621 8.65913 77.9082 8.48004 77.9041C8.30096 77.8999 8.12426 77.9457 7.96974 78.0363C7.81538 78.1273 7.68942 78.2594 7.606 78.418C7.52258 78.5765 7.48499 78.7552 7.49746 78.9339C7.56523 79.8938 7.60687 80.887 7.64591 81.8474C7.78755 85.253 7.93374 88.7751 9.26929 92.0492C10.7932 95.7818 13.0832 99.1085 15.2987 102.325L21.6596 111.562C21.7943 113.396 21.9663 115.544 22.1322 117.627C22.3032 119.775 22.4806 121.997 22.6169 123.863C22.7374 125.526 22.9039 127.803 24.3269 129.44C26.2082 131.604 29.2642 131.683 32.1431 131.361C32.3853 131.334 32.6273 131.305 32.8666 131.273C33.4004 131.201 33.7499 131.131 34.0893 131.063C34.3617 131.009 34.6222 130.956 34.9784 130.904L37.6902 134.842C38.5544 136.099 39.534 137.521 40.859 138.589C42.316 139.764 44.0141 140.319 45.5745 140.144C45.7025 140.13 45.8289 140.11 45.9544 140.085C48.2529 139.644 50.6689 137.195 50.6189 133.526C50.5976 131.997 50.1798 130.543 49.5895 129.153C64.9702 127.151 80.0762 125.145 91.7239 123.594C91.9297 128.174 95.241 132.505 99.6812 133.76C100.891 134.102 102.131 134.192 103.349 134.055C106.82 133.666 110.1 131.444 111.893 127.998C111.917 127.952 111.933 127.904 111.95 127.858C112.47 127.572 112.936 127.241 113.339 126.851C114.874 125.363 115.173 123.366 114.659 121.869C116.21 120.899 117.306 119.238 117.542 117.406C117.808 115.336 116.954 113.198 115.354 111.866C115.612 111.427 115.84 110.971 116.035 110.501C116.524 109.313 116.797 108.075 117.063 106.877C117.347 105.592 117.615 104.379 118.125 103.266C119.398 100.488 121.977 98.6583 124.707 96.7231C125.651 96.0542 126.626 95.3626 127.537 94.6324C135.024 88.6282 139.03 78.6021 137.742 69.0905ZM39.4374 123.763C40.6252 122.695 41.5479 121.357 42.1352 119.881C42.3156 120.172 42.4961 120.465 42.6754 120.757C42.2378 122.45 41.2245 124.014 39.8532 125.094C38.3746 126.259 36.4472 126.887 34.5657 126.816C34.5443 126.815 34.5241 126.818 34.5031 126.82L34.1373 126.289C36.1001 125.975 37.9572 125.095 39.4374 123.763ZM43.8999 122.78C43.3663 124.392 42.3101 125.859 40.9397 126.852C39.4407 127.94 37.5198 128.501 35.6705 128.394C35.6436 128.393 35.6166 128.395 35.5898 128.398L35.2534 127.91C35.4517 127.902 35.6496 127.886 35.8469 127.865C37.5427 127.675 39.1984 127.01 40.5335 125.959C41.8271 124.941 42.8377 123.544 43.4301 121.999C43.5866 122.259 43.7444 122.519 43.8999 122.78ZM36.353 129.505C36.6264 129.499 36.8985 129.482 37.1691 129.451C38.755 129.274 40.2833 128.687 41.5865 127.742C42.9088 126.781 43.9541 125.488 44.6171 123.993C44.76 124.236 44.903 124.48 45.0448 124.724C45.0128 124.783 44.9877 124.845 44.9683 124.912C44.4909 126.596 43.3913 128.132 41.9513 129.125C40.5292 130.107 38.731 130.589 37.0075 130.455L36.353 129.505ZM38.4856 122.003L16.2306 90.837C17.0147 90.8027 17.7886 90.5233 18.3881 89.9861C18.9064 89.5214 19.3611 88.9341 19.6534 88.3039C22.3558 91.1187 24.6672 94.3575 26.9078 97.5023C31.5816 104.064 36.3635 110.78 40.7757 117.714C40.4477 119.337 39.6516 120.828 38.4856 122.003ZM18.0347 86.7284C18.1794 87.1981 17.7083 88.01 17.1032 88.5519C16.5572 89.0404 15.5655 89.0366 15.0234 88.5451C14.8865 88.4207 14.7166 88.3384 14.5341 88.3081C14.3517 88.2777 14.1643 88.3006 13.9945 88.3739C13.8247 88.4473 13.6796 88.568 13.5766 88.7217C13.4736 88.8753 13.4171 89.0554 13.4138 89.2404C13.4018 89.8871 13.1163 90.5412 12.6506 90.9905C12.2621 91.3638 11.7376 91.6045 11.2 91.6691C11.1506 91.5537 11.1002 91.4383 11.0531 91.3216C10.2253 89.2946 9.90223 87.1563 9.73561 84.9224C10.9964 84.7072 12.1235 83.8648 12.7096 82.733C14.572 83.9524 16.3993 85.2499 18.0347 86.7284ZM9.52437 80.6947C9.77585 80.8551 10.0268 81.0134 10.2737 81.1699C10.7765 81.4883 11.2782 81.8082 11.779 82.1296C11.3829 82.9683 10.5698 83.6245 9.66456 83.8182C9.62727 83.1427 9.59896 82.4593 9.57083 81.7677L9.52464 80.6947L9.52437 80.6947ZM12.036 93.466C12.7631 93.2744 13.4409 92.903 13.9859 92.376C14.405 91.9728 14.7316 91.4846 14.9626 90.9555L37.658 122.739C36.3597 123.737 34.8001 124.337 33.1677 124.467C33.0839 124.475 33.0014 124.494 32.9225 124.524L16.8844 101.233C15.1701 98.7443 13.4114 96.1875 12.036 93.466ZM33.7112 129.175C33.3474 129.251 32.9809 129.314 32.6126 129.364C29.9143 129.723 27.2161 129.829 25.7796 128.177C24.853 127.11 24.6686 125.53 24.537 123.723C24.3999 121.851 24.2225 119.626 24.0508 117.474L23.8323 114.718L33.7791 129.162C33.7563 129.166 33.7331 129.17 33.7112 129.175ZM48.694 133.552C48.7203 135.536 47.5676 137.815 45.5922 138.195C44.4852 138.405 43.2028 138.004 42.068 137.089C40.961 136.198 40.1044 134.954 39.2757 133.751L38.3296 132.376C38.4399 132.368 38.5514 132.359 38.6613 132.347C40.2348 132.171 41.7403 131.609 43.044 130.711C44.4412 129.744 45.5569 128.425 46.2772 126.886C46.316 126.956 46.3569 127.025 46.3957 127.095C47.5892 129.233 48.663 131.335 48.694 133.552ZM48.0774 126.156C42.2675 115.747 35.2564 105.904 28.4764 96.3857C26.4274 93.5073 24.3205 90.5531 21.8861 87.8696C21.899 87.7942 21.9066 87.7174 21.9007 87.6378L17.2496 23.9847C17.0627 21.4255 17.0026 18.7866 18.4718 17.1169C19.8772 15.5184 22.2854 15.1878 24.8377 14.9672L88.7333 9.4517C90.8987 9.26481 93.1293 9.18407 94.5248 10.4047C95.86 11.5707 96.1343 13.6942 96.3012 15.7674L98.8383 47.2916C97.0539 48.0576 95.349 49.0078 93.7666 50.1443C87.7617 54.4557 83.3631 61.2744 81.3816 69.3449C79.1896 78.276 80.8379 86.6848 85.7899 91.8407C86.9958 93.0965 88.3815 94.1511 89.7215 95.1721C91.4129 96.4599 93.0114 97.6772 94.2483 99.2461C95.5672 100.918 96.3868 102.989 96.619 105.234C96.7092 106.105 96.5735 107.006 96.4194 107.954C94.8117 108.625 93.4997 109.977 92.8892 111.611C92.3795 112.977 92.3679 114.518 92.8322 115.898C92.3114 116.22 91.8617 116.678 91.5188 117.247C90.8504 118.354 90.6447 119.757 90.9669 121C91.0305 121.244 91.111 121.483 91.2059 121.719C79.4371 123.288 64.1916 125.311 48.7127 127.325C48.5059 126.933 48.2941 126.543 48.0774 126.156ZM96.5412 118.55C100.382 121.334 105.253 122.528 109.935 122.003C110.771 121.91 111.599 121.758 112.416 121.554C112.419 121.582 112.419 121.609 112.424 121.635C109.557 123.33 106.037 123.869 102.798 123.062C99.4639 122.231 96.5323 120.003 94.8147 117.035C95.2903 117.554 95.8653 118.061 96.5412 118.55ZM100.205 131.907C97.0295 131.009 94.5537 128.201 93.8441 125.008C94.1234 125.228 94.4195 125.447 94.7383 125.663C98.5735 128.255 103.413 129.461 108.016 128.973L108.111 128.962C108.438 128.925 108.751 128.879 109.054 128.824C106.837 131.528 103.375 132.804 100.205 131.907ZM111.999 125.468C111.105 126.334 109.738 126.856 107.812 127.058C103.653 127.5 99.2811 126.41 95.8165 124.068C94.1322 122.929 93.1553 121.767 92.8302 120.517C92.6379 119.776 92.7676 118.905 93.1664 118.243C93.3062 118.011 93.5252 117.737 93.8362 117.543C95.6987 120.786 98.8951 123.223 102.532 124.129C104.123 124.526 105.779 124.624 107.403 124.442C109.337 124.225 111.206 123.609 112.89 122.634C113.155 123.586 112.722 124.768 111.999 125.468ZM115.631 117.161C115.499 118.196 114.939 119.176 114.141 119.862C108.581 121.99 102.018 121.162 97.1875 117.66C95.7694 116.631 94.8591 115.559 94.4673 114.459C94.3665 113.73 94.4359 112.975 94.6938 112.284C94.9794 111.519 95.4883 110.843 96.1299 110.339C96.1157 110.748 96.1278 111.162 96.1842 111.58C96.8073 116.177 103.419 117.819 106.872 117.433C106.902 117.429 106.933 117.426 106.961 117.422C109.791 117.07 112.403 115.593 114.23 113.439C115.249 114.355 115.806 115.805 115.631 117.161ZM113.139 87.5946C110.135 96.4975 108.11 105.701 107.099 115.042C107.085 115.178 107.1 115.315 107.143 115.444C107.003 115.468 106.864 115.493 106.723 115.511C106.701 115.514 106.679 115.517 106.656 115.52C105.489 115.65 103.843 115.477 102.303 114.994L103.096 95.1334C103.202 92.5081 103.319 89.5852 103.106 86.6274C104.997 86.4863 106.903 85.896 108.621 84.8781L108.635 84.8702C109.841 86.1471 111.422 87.0888 113.139 87.5946ZM110.718 73.214C111.179 72.8515 111.778 72.5298 112.341 72.4667C112.611 72.4365 112.872 72.4648 113.106 72.5779C113.668 72.8493 113.941 73.5688 113.964 74.1605C113.994 74.9826 113.665 75.8287 113.341 76.5491C112.302 78.8507 110.814 80.818 109.06 82.2329C107.418 79.3314 108.173 75.2095 110.718 73.214ZM126.332 93.1312C125.465 93.8257 124.515 94.5006 123.594 95.1519C120.776 97.1492 117.863 99.2152 116.374 102.464C115.779 103.763 115.476 105.136 115.183 106.462C114.924 107.631 114.68 108.734 114.254 109.767C113.311 112.055 111.355 113.929 109.055 114.886C110.072 105.723 112.081 96.6971 115.046 87.9672C116.127 88.0744 117.228 88.0079 118.292 87.7473C122.263 86.7694 125.548 83.1822 126.28 79.0212C126.595 77.2388 126.224 75.79 125.237 74.9435C123.633 73.5675 121.302 74.3277 119.703 75.6907C116.585 78.3493 115.016 82.2581 113.79 85.7142C113.782 85.7376 113.773 85.761 113.765 85.7844C112.433 85.4112 111.201 84.713 110.237 83.7623C112.247 82.1593 113.908 79.9723 115.096 77.3417C115.513 76.4171 115.933 75.3089 115.887 74.0895C115.834 72.6628 115.071 71.3887 113.941 70.844C112.653 70.2228 111.003 70.5427 109.529 71.6989C106.207 74.3032 105.256 79.4734 107.409 83.2247C107.428 83.258 107.446 83.2901 107.466 83.3222C106.036 84.1355 104.466 84.6045 102.921 84.7135C102.573 81.9206 101.868 79.1453 100.519 76.6116C100.081 75.7902 99.4528 74.7514 98.4639 74.009C97.344 73.1675 95.9819 72.9057 94.8213 73.3078C92.7685 74.0174 92.0599 76.4187 92.2706 78.3489C92.6451 81.7685 95.2186 84.8737 98.6754 86.0765C99.487 86.3569 100.33 86.5371 101.185 86.6132C101.396 89.464 101.281 92.3461 101.174 95.0572L100.409 114.19C99.1828 113.498 98.258 112.545 98.0922 111.322C97.9703 110.415 98.1277 109.442 98.296 108.412C98.4722 107.328 98.6551 106.208 98.5347 105.037C98.2649 102.428 97.3053 100.015 95.7602 98.0551C94.3726 96.2942 92.6006 94.9447 90.8883 93.6409C89.5472 92.6197 88.2807 91.6557 87.1789 90.5072C82.6855 85.8311 81.2181 78.0912 83.252 69.8041C85.1235 62.1784 89.2568 55.7526 94.8893 51.7084C98.4933 49.1221 102.769 47.5535 107.166 47.0609C111.629 46.5611 116.216 47.1702 120.35 48.9509C128.557 52.4864 134.636 60.4934 135.834 69.35C137.033 78.2044 133.303 87.539 126.332 93.1312ZM115.7 86.0903C116.829 82.9381 118.273 79.4406 120.953 77.1554C121.903 76.3458 123.288 75.8075 123.984 76.4048C124.613 76.9447 124.474 78.1807 124.384 78.6877C123.781 82.12 121.086 85.077 117.833 85.8769C117.135 86.0473 116.418 86.1191 115.7 86.0903ZM100.984 84.6542C100.413 84.5788 99.8521 84.4458 99.3086 84.2572C96.5383 83.2934 94.4793 80.8348 94.1849 78.14C94.0534 76.9365 94.4526 75.4721 95.4501 75.1268C95.5463 75.0936 95.6458 75.0714 95.7469 75.0607C96.2385 75.0056 96.8212 75.1821 97.3077 75.5472C97.9939 76.0624 98.4759 76.8692 98.819 77.5149C100.004 79.7427 100.65 82.1683 100.984 84.6542Z" fill="#37A4DA"/>
<path d="M87.1819 43.4137L92.2348 47.0465C92.4363 47.1911 92.6749 47.2466 92.9034 47.221C93.0967 47.1995 93.279 47.1198 93.4262 46.9925C93.5734 46.8653 93.6785 46.6964 93.7278 46.5082C93.7771 46.32 93.7682 46.1213 93.7023 45.9383C93.6363 45.7552 93.5165 45.5964 93.3585 45.4829L88.3061 41.85C88.0988 41.7012 87.8408 41.6407 87.5889 41.682C87.337 41.7232 87.1117 41.8627 86.9626 42.0698C86.8136 42.2771 86.7529 42.5351 86.794 42.7871C86.8351 43.0391 86.9745 43.2645 87.1816 43.4137L87.1819 43.4137ZM83.7949 53.226L78.2555 52.145C78.1315 52.1208 78.0038 52.1212 77.88 52.1463C77.7561 52.1714 77.6383 52.2207 77.5335 52.2913C77.4287 52.3619 77.3388 52.4525 77.2689 52.5579C77.1991 52.6632 77.1507 52.7813 77.1265 52.9054C77.1022 53.0295 77.1026 53.1572 77.1277 53.2812C77.1528 53.4052 77.202 53.5231 77.2726 53.628C77.3433 53.7329 77.4339 53.8229 77.5393 53.8929C77.6447 53.9628 77.7629 54.0112 77.887 54.0354L83.4275 55.116C83.5258 55.1349 83.6239 55.139 83.7189 55.1283C83.9224 55.1052 84.1133 55.0179 84.2639 54.8789C84.4145 54.74 84.5168 54.5567 84.5562 54.3557C84.5804 54.2315 84.58 54.1038 84.5548 53.9798C84.5296 53.8558 84.4803 53.7379 84.4096 53.633C84.3389 53.5281 84.2483 53.4381 84.1428 53.3682C84.0373 53.2984 83.9191 53.2499 83.7949 53.2257L83.7949 53.226ZM72.0763 68.5564C72.2008 68.5425 72.3252 68.503 72.4411 68.4388C73.6806 67.7409 75.1945 67.4836 76.5958 67.7304C76.847 67.7743 77.1054 67.7169 77.3143 67.5707C77.5233 67.4245 77.6657 67.2015 77.7105 66.9505C77.755 66.699 77.6979 66.4402 77.5516 66.231C77.4053 66.0217 77.1819 65.879 76.9305 65.8344C75.0669 65.507 73.1473 65.8339 71.4971 66.7598C71.3869 66.8218 71.2901 66.9048 71.212 67.0042C71.1339 67.1037 71.0762 67.2175 71.0421 67.3392C71.008 67.4609 70.9982 67.5882 71.0133 67.7137C71.0284 67.8392 71.0681 67.9605 71.1301 68.0707C71.2226 68.2356 71.3618 68.3697 71.53 68.4561C71.6983 68.5426 71.8883 68.5773 72.0763 68.5564ZM71.5258 83.1901C71.6433 83.1769 71.7615 83.1412 71.8724 83.0817L77.2215 80.2193C77.4465 80.0986 77.6145 79.8936 77.6885 79.6493C77.7625 79.4049 77.7365 79.1412 77.6163 78.916C77.4956 78.6909 77.2906 78.523 77.0463 78.449C76.8019 78.375 76.5382 78.4011 76.313 78.5215L70.9639 81.3839C70.7668 81.4897 70.6127 81.6609 70.528 81.868C70.4433 82.075 70.4334 82.3051 70.4998 82.5188C70.5663 82.7324 70.705 82.9162 70.8922 83.0387C71.0794 83.1612 71.3034 83.2147 71.5258 83.1901ZM82.6109 93.5803L78.2231 96.8448C78.0531 96.9709 77.9295 97.1495 77.8714 97.353C77.8132 97.5565 77.8238 97.7735 77.9014 97.9703C77.9791 98.1672 78.1195 98.3329 78.3008 98.4419C78.4822 98.5509 78.6945 98.5971 78.9048 98.5732C79.0742 98.5546 79.2356 98.4911 79.3723 98.3893L83.7591 95.1252C83.8605 95.0498 83.9462 94.9552 84.0111 94.8467C84.076 94.7383 84.1189 94.6181 84.1373 94.493C84.1557 94.368 84.1493 94.2405 84.1184 94.1179C84.0876 93.9954 84.0328 93.8801 83.9574 93.7787C83.8821 93.6772 83.7874 93.5915 83.679 93.5266C83.5705 93.4618 83.4503 93.4189 83.3253 93.4004C83.2002 93.382 83.0727 93.3884 82.9502 93.4193C82.8276 93.4502 82.7123 93.5049 82.6109 93.5803ZM106.681 42.4351C106.816 42.4203 106.946 42.3771 107.063 42.3084C107.18 42.2397 107.281 42.1471 107.36 42.0366C107.438 41.926 107.493 41.8001 107.519 41.6671C107.546 41.5341 107.544 41.397 107.513 41.2647C107.113 39.4969 107.166 37.6563 107.669 35.9147C107.74 35.6696 107.71 35.4063 107.587 35.1829C107.464 34.9594 107.257 34.794 107.012 34.7229C106.891 34.6875 106.763 34.6764 106.637 34.6903C106.512 34.7041 106.39 34.7427 106.279 34.8038C106.168 34.8648 106.07 34.9471 105.992 35.046C105.913 35.1449 105.854 35.2584 105.819 35.38C105.226 37.4349 105.163 39.6066 105.636 41.6923C105.689 41.9228 105.824 42.1259 106.017 42.2629C106.21 42.3998 106.446 42.4611 106.681 42.4351ZM117.411 42.4C117.526 42.4523 117.65 42.4814 117.776 42.4856C117.903 42.4898 118.029 42.469 118.147 42.4245C118.265 42.3799 118.374 42.3124 118.466 42.2259C118.558 42.1394 118.633 42.0355 118.685 41.9202L121.014 36.7743C121.11 36.5431 121.112 36.2835 121.02 36.0505C120.928 35.8175 120.749 35.6295 120.521 35.5262C120.293 35.423 120.034 35.4127 119.798 35.4976C119.562 35.5824 119.369 35.7557 119.259 35.9807L116.931 41.1264C116.826 41.359 116.817 41.6238 116.907 41.8626C116.997 42.1015 117.178 42.2946 117.411 42.4ZM126.641 46.2216C126.836 46.1998 127.026 46.1182 127.182 45.9757L131.622 41.9251C131.802 41.751 131.908 41.5135 131.916 41.2629C131.924 41.0123 131.834 40.7685 131.665 40.5833C131.496 40.398 131.261 40.286 131.011 40.271C130.761 40.256 130.515 40.3393 130.325 40.503L125.884 44.5537C125.733 44.6908 125.63 44.872 125.589 45.0714C125.548 45.2707 125.571 45.4779 125.655 45.6633C125.74 45.8486 125.88 46.0024 126.057 46.1027C126.234 46.2031 126.439 46.2447 126.641 46.2216ZM134.656 52.6346C134.804 52.6181 134.951 52.5663 135.083 52.4789C136.361 51.6274 137.824 51.0932 139.35 50.9206C139.604 50.8918 139.836 50.7635 139.995 50.5638C140.154 50.3641 140.228 50.1094 140.199 49.8555C140.17 49.6021 140.042 49.3705 139.843 49.2115C139.643 49.0525 139.389 48.979 139.135 49.0072L139.134 49.0073C137.303 49.2156 135.548 49.8565 134.014 50.8772C133.909 50.9473 133.819 51.0374 133.748 51.1425C133.678 51.2475 133.629 51.3654 133.605 51.4894C133.58 51.6133 133.58 51.7409 133.605 51.8649C133.629 51.9888 133.678 52.1067 133.748 52.2118C133.846 52.3589 133.983 52.4762 134.143 52.5509C134.303 52.6255 134.481 52.6544 134.656 52.6346ZM139.638 65.6089C139.642 65.7352 139.671 65.8596 139.723 65.9748C139.775 66.09 139.85 66.1939 139.942 66.2804C140.034 66.3669 140.142 66.4344 140.261 66.479C140.379 66.5236 140.505 66.5445 140.631 66.5405L144.978 66.4028C145.23 66.3914 145.469 66.2808 145.641 66.095C145.813 65.9093 145.904 65.6632 145.896 65.4102C145.888 65.1572 145.781 64.9176 145.597 64.7432C145.414 64.5688 145.169 64.4736 144.916 64.4784L140.57 64.616C140.315 64.625 140.074 64.7345 139.9 64.9205C139.725 65.1065 139.631 65.3539 139.638 65.6089ZM142.807 90.6312C141.223 89.6932 139.336 89.2352 137.497 89.3438C136.971 89.3781 136.561 89.8307 136.593 90.3616C136.601 90.4878 136.633 90.6113 136.688 90.725C136.743 90.8388 136.82 90.9405 136.915 91.0245C137.009 91.1085 137.119 91.173 137.239 91.2144C137.358 91.2558 137.485 91.2732 137.611 91.2658C139.071 91.1803 140.568 91.5436 141.827 92.2881C142.006 92.3945 142.216 92.4394 142.423 92.4159C142.624 92.3941 142.813 92.3096 142.964 92.1743C143.114 92.039 143.217 91.8598 143.26 91.6622C143.302 91.4645 143.282 91.2585 143.2 91.0734C143.119 90.8884 142.982 90.7336 142.807 90.6311L142.807 90.6312ZM131.428 98.9759C131.226 98.8199 130.97 98.7508 130.716 98.7836C130.463 98.8163 130.233 98.9484 130.077 99.1507C129.921 99.353 129.852 99.609 129.885 99.8623C129.918 100.116 130.05 100.346 130.252 100.502L134.148 103.504C134.248 103.585 134.363 103.646 134.486 103.682C134.61 103.718 134.739 103.729 134.867 103.714C134.995 103.699 135.119 103.659 135.231 103.595C135.343 103.532 135.441 103.447 135.519 103.345C135.598 103.243 135.655 103.126 135.688 103.002C135.721 102.877 135.728 102.748 135.71 102.62C135.691 102.493 135.648 102.37 135.581 102.26C135.515 102.15 135.427 102.054 135.323 101.978L131.428 98.9759ZM146.574 78.2209L142.146 76.49C141.908 76.3971 141.643 76.4024 141.409 76.5046C141.175 76.6069 140.991 76.7978 140.898 77.0355C140.805 77.2733 140.81 77.5383 140.913 77.7721C141.015 78.006 141.206 78.1896 141.444 78.2827L145.874 80.0134C146.023 80.0725 146.18 80.0914 146.33 80.0746C146.674 80.0361 146.986 79.8129 147.12 79.4671C147.166 79.3494 147.188 79.2239 147.186 79.0976C147.183 78.9713 147.156 78.8467 147.105 78.7309C147.055 78.6152 146.982 78.5106 146.89 78.423C146.799 78.3355 146.692 78.2668 146.574 78.2209Z" fill="#37A4DA"/>
<path d="M27.4691 23.6889C45.351 21.7288 67.293 19.3131 85.1747 17.353L27.4691 23.6889ZM28.1736 29.9788C46.0554 28.0179 67.9974 25.602 85.8791 23.6419L28.1736 29.9788ZM28.915 36.5987C46.797 34.6389 68.739 32.2229 86.6205 30.2618L28.915 36.5987ZM29.6196 42.8889C47.5014 40.9277 69.4434 38.5118 87.325 36.5517L29.6196 42.8889ZM27.5459 52.8871C38.5266 51.7567 51.9995 50.359 62.9803 49.2275L27.5459 52.8871ZM28.1053 59.19C39.0859 58.0596 52.5589 56.6621 63.5396 55.5306L28.1053 59.19ZM28.693 65.8249C39.6737 64.6948 53.1469 63.297 64.1274 62.1658L28.693 65.8249ZM29.2525 72.1292C40.233 70.998 53.7062 69.5999 64.6869 68.4698L29.2525 72.1292ZM30.4379 78.7068C41.4184 77.5756 54.8914 76.1778 65.8722 75.0474L30.4379 78.7068ZM30.9972 85.0099C41.9778 83.8787 55.4508 82.482 66.4316 81.3505L30.9972 85.0099ZM31.585 91.6448C42.5656 90.5145 56.0388 89.1169 67.0194 87.9854L31.585 91.6448Z" fill="#37A4DA"/>
<path d="M27.4691 23.6889C45.351 21.7288 67.293 19.3131 85.1747 17.353M28.1736 29.9788C46.0554 28.0179 67.9974 25.602 85.8791 23.6419M28.915 36.5987C46.797 34.6389 68.739 32.2229 86.6205 30.2618M29.6196 42.8889C47.5014 40.9277 69.4434 38.5118 87.325 36.5517M27.5459 52.8871C38.5266 51.7567 51.9995 50.359 62.9803 49.2275M28.1053 59.19C39.0859 58.0596 52.5589 56.6621 63.5396 55.5306M28.693 65.8249C39.6737 64.6948 53.1469 63.297 64.1274 62.1658M29.2525 72.1292C40.233 70.998 53.7062 69.5999 64.6869 68.4698M30.4379 78.7068C41.4184 77.5756 54.8913 76.1778 65.8722 75.0474M30.9972 85.0099C41.9778 83.8787 55.4508 82.482 66.4316 81.3505M31.585 91.6448C42.5656 90.5144 56.0388 89.1169 67.0194 87.9854" stroke="#37A4DA" stroke-miterlimit="10" stroke-linecap="round"/>
</g>
<defs>
<clipPath id="clip0_1001_10161">
<rect width="139.452" height="139.452" fill="white" transform="translate(0 15.5225) rotate(-6.39078)"/>
</clipPath>
</defs>
</svg>
