<svg width="152" height="128" viewBox="0 0 152 128" fill="none" xmlns="http://www.w3.org/2000/svg">
<path d="M33.5582 0C15.0542 0 0 15.0542 0 33.5582C0 52.0621 15.0542 67.1163 33.5582 67.1163C35.6569 67.1163 37.7952 66.9019 39.9399 66.478C39.0214 79.8416 35.5153 107.823 22.1715 124.806C21.9772 125.054 21.8563 125.351 21.8229 125.664C21.7894 125.977 21.8447 126.294 21.9823 126.577C22.12 126.86 22.3345 127.098 22.6013 127.265C22.8682 127.432 23.1766 127.521 23.4914 127.521C23.7239 127.521 23.9538 127.473 24.1666 127.379C24.6112 127.183 35.1743 122.428 45.8022 108.399C52.0044 100.212 56.9428 90.5366 60.4802 79.6419C64.8837 66.079 67.1163 50.5742 67.1163 33.5582C67.1163 15.0542 52.0621 0 33.5582 0ZM43.2672 106.188C38.2043 112.911 33.1061 117.435 29.2661 120.281C40.2144 101.496 42.8145 75.5807 43.429 64.4283C43.4436 64.1638 43.3953 63.8997 43.2882 63.6574C43.1811 63.4151 43.0182 63.2017 42.8128 63.0345C42.6073 62.8673 42.3652 62.7511 42.1063 62.6954C41.8473 62.6397 41.5788 62.6462 41.3228 62.7142C38.7107 63.4085 36.0985 63.7605 33.5582 63.7605C16.9046 63.7605 3.35582 50.2117 3.35582 33.5582C3.35582 16.9046 16.9046 3.35582 33.5582 3.35582C50.2117 3.35582 63.7605 16.9046 63.7605 33.5582C63.7605 71.093 52.6162 93.7719 43.2672 106.188ZM117.454 0C98.9493 0 83.8954 15.0542 83.8954 33.5582C83.8954 52.0621 98.9493 67.1163 117.454 67.1163C119.553 67.1163 121.691 66.9019 123.835 66.478C122.917 79.8416 119.411 107.823 106.067 124.806C105.873 125.054 105.752 125.351 105.718 125.664C105.685 125.977 105.74 126.294 105.878 126.577C106.015 126.86 106.23 127.098 106.497 127.265C106.764 127.432 107.072 127.521 107.387 127.521C107.614 127.521 107.844 127.475 108.062 127.379C108.506 127.183 119.07 122.428 129.698 108.399C135.9 100.212 140.838 90.5366 144.376 79.6419C148.779 66.079 151.012 50.5742 151.012 33.5582C151.012 15.0542 135.958 0 117.454 0ZM127.163 106.188C122.099 112.911 117.002 117.435 113.161 120.281C124.11 101.496 126.71 75.5807 127.324 64.4283C127.337 64.2006 127.303 63.9727 127.224 63.7586C127.145 63.5444 127.024 63.3486 126.867 63.1829C126.711 63.0172 126.522 62.8852 126.312 62.7949C126.103 62.7047 125.877 62.658 125.649 62.6578C125.505 62.6578 125.361 62.6762 125.218 62.7142C122.606 63.4085 119.994 63.7605 117.454 63.7605C100.8 63.7605 87.2512 50.2117 87.2512 33.5582C87.2512 16.9046 100.8 3.35582 117.454 3.35582C134.107 3.35582 147.656 16.9046 147.656 33.5582C147.656 71.093 136.512 93.7719 127.163 106.188Z" fill="#433C8C"/>
<path d="M33.5582 0C15.0542 0 0 15.0542 0 33.5582C0 52.0621 15.0542 67.1163 33.5582 67.1163C35.6569 67.1163 37.7952 66.9019 39.9399 66.478C39.0214 79.8416 35.5153 107.823 22.1715 124.806C21.9772 125.054 21.8563 125.351 21.8229 125.664C21.7894 125.977 21.8447 126.294 21.9823 126.577C22.12 126.86 22.3345 127.098 22.6013 127.265C22.8682 127.432 23.1766 127.521 23.4914 127.521C23.7239 127.521 23.9538 127.473 24.1666 127.379C24.6112 127.183 35.1743 122.428 45.8022 108.399C52.0044 100.212 56.9428 90.5366 60.4802 79.6419C64.8837 66.079 67.1163 50.5742 67.1163 33.5582C67.1163 15.0542 52.0621 0 33.5582 0ZM43.2672 106.188C38.2043 112.911 33.1061 117.435 29.2661 120.281C40.2144 101.496 42.8145 75.5807 43.429 64.4283C43.4436 64.1638 43.3953 63.8997 43.2882 63.6574C43.1811 63.4151 43.0182 63.2017 42.8128 63.0345C42.6073 62.8673 42.3652 62.7511 42.1063 62.6954C41.8473 62.6397 41.5788 62.6462 41.3228 62.7142C38.7107 63.4085 36.0985 63.7605 33.5582 63.7605C16.9046 63.7605 3.35582 50.2117 3.35582 33.5582C3.35582 16.9046 16.9046 3.35582 33.5582 3.35582C50.2117 3.35582 63.7605 16.9046 63.7605 33.5582C63.7605 71.093 52.6162 93.7719 43.2672 106.188ZM117.454 0C98.9493 0 83.8954 15.0542 83.8954 33.5582C83.8954 52.0621 98.9493 67.1163 117.454 67.1163C119.553 67.1163 121.691 66.9019 123.835 66.478C122.917 79.8416 119.411 107.823 106.067 124.806C105.873 125.054 105.752 125.351 105.718 125.664C105.685 125.977 105.74 126.294 105.878 126.577C106.015 126.86 106.23 127.098 106.497 127.265C106.764 127.432 107.072 127.521 107.387 127.521C107.614 127.521 107.844 127.475 108.062 127.379C108.506 127.183 119.07 122.428 129.698 108.399C135.9 100.212 140.838 90.5366 144.376 79.6419C148.779 66.079 151.012 50.5742 151.012 33.5582C151.012 15.0542 135.958 0 117.454 0ZM127.163 106.188C122.099 112.911 117.002 117.435 113.161 120.281C124.11 101.496 126.71 75.5807 127.324 64.4283C127.337 64.2006 127.303 63.9727 127.224 63.7586C127.145 63.5444 127.024 63.3486 126.867 63.1829C126.711 63.0172 126.522 62.8852 126.312 62.7949C126.103 62.7047 125.877 62.658 125.649 62.6578C125.505 62.6578 125.361 62.6762 125.218 62.7142C122.606 63.4085 119.994 63.7605 117.454 63.7605C100.8 63.7605 87.2512 50.2117 87.2512 33.5582C87.2512 16.9046 100.8 3.35582 117.454 3.35582C134.107 3.35582 147.656 16.9046 147.656 33.5582C147.656 71.093 136.512 93.7719 127.163 106.188Z" stroke="#433C8C"/>
</svg>
