<svg width="82" height="83" viewBox="0 0 82 83" fill="none" xmlns="http://www.w3.org/2000/svg">
<path d="M63.8371 67.6685C67.096 62.5777 68.8073 56.571 68.6232 50.6691C69.35 40.7352 65.5947 32.0619 58.8313 25.8469L60.1377 24.4552C63.908 24.3858 67.6851 24.6387 71.4077 25.2192C74.8671 22.0782 78.5965 18.6805 82 15.4832C81.8827 15.1792 81.7368 14.8214 81.5937 14.4676C81.6899 14.3399 81.7514 14.1911 81.7726 14.0347C81.7937 13.8783 81.7739 13.7193 81.7148 13.5721C81.6557 13.425 81.5593 13.2944 81.4343 13.1922C81.3093 13.09 81.1597 13.0194 80.9991 12.9869C78.2583 12.3776 73.3249 11.7316 70.4136 11.138C69.5232 8.55527 68.2823 3.83665 67.4137 1.49372C67.3566 1.33969 67.2604 1.20179 67.1338 1.09251C67.0073 0.983232 66.8543 0.906034 66.6888 0.867908C66.5234 0.829782 66.3506 0.831934 66.1862 0.874169C66.0219 0.916403 65.871 0.997386 65.7474 1.10978C62.1858 4.35162 59.3331 8.67059 56.5242 12.5047C56.4362 12.6247 56.3774 12.762 56.3519 12.9067C56.3264 13.0513 56.3349 13.1996 56.3769 13.3407C57.086 15.7203 58.7263 19.5021 59.5854 22.111C58.8341 22.9182 58.0691 23.7227 57.3137 24.5286C47.6459 16.6717 33.7196 13.9356 21.4323 18.8731C21.0731 18.945 20.7223 19.0513 20.3851 19.1902C10.0709 23.863 2.39395 33.5649 0.461752 44.3649C-1.47045 55.1663 2.78666 66.3961 10.885 74.1102C25.7699 88.291 53.0497 84.5263 63.8371 67.6685ZM78.7083 14.541C76.2743 16.8997 73.0876 20.0315 70.7095 22.3233C68.1296 22.166 65.3506 22.0769 62.5526 21.7205C64.2816 19.869 70.3291 13.4456 70.5363 13.1678C72.9308 13.6264 76.2089 14.0929 78.7083 14.541ZM65.997 3.65451C66.7974 6.16517 67.8924 10.1932 68.656 12.2688L61.1194 20.3145C60.2876 18.0227 59.1041 15.1726 58.4823 13.2451C60.8031 10.057 63.2194 6.49669 65.997 3.65451ZM55.9405 25.991C54.3408 27.6901 52.734 29.3831 51.1203 31.07C41.7524 23.4371 27.7007 23.386 18.7624 31.1617C10.8332 38.0621 8.42509 49.5592 13.0367 58.4985C16.9993 66.1773 26.8076 71.8551 35.8631 71.8551C57.4555 71.8551 66.9774 46.244 52.6339 32.3921C54.249 30.7035 55.8571 29.0088 57.4582 27.3079C71.3531 40.1429 68.5851 61.7705 55.4128 72.1814C37.3099 86.4906 4.82386 75.3131 3.38664 49.761C2.37759 22.0232 34.8473 8.89859 55.9405 25.991ZM38.8044 43.6914C36.3322 41.8503 34.0877 42.7139 33.9514 42.7126C31.276 43.487 29.5565 46.5061 30.3188 49.0901C31.081 51.6742 34.1941 53.375 36.8954 52.6831C39.9157 51.91 42.0388 48.1676 40.1693 45.1616C41.6759 43.6495 43.1768 42.1321 44.6719 40.6094C53.362 49.9458 42.9769 64.8957 30.0052 59.2651C26.3971 57.6992 23.7913 54.8583 22.8532 51.471C21.5578 46.7865 23.0932 41.9067 26.7626 39.0396C31.516 35.3247 38.3394 35.4623 43.1938 39.2519C41.7361 40.7367 40.273 42.2166 38.8044 43.6914ZM44.6133 37.8013C39.1657 33.464 31.141 33.0866 25.4713 37.5143C21.1787 40.8689 19.376 46.5454 20.8773 51.9755C22.6159 58.2679 29.0861 62.4218 35.6204 62.4218C48.0931 62.4218 54.4106 47.8636 46.0927 39.1562C47.8176 37.391 49.5348 35.619 51.2444 33.8401C55.3447 37.8315 57.3723 42.782 57.4118 48.2934C57.5182 63.2958 43.2906 73.1877 29.472 68.9343C22.9432 66.9229 17.4847 62.6956 14.868 57.6258C10.6545 49.457 12.869 38.94 20.1342 32.6188C28.3211 25.4957 41.1797 25.5979 49.7349 32.514C48.0348 34.2832 46.3272 36.0457 44.6119 37.8013H44.6133Z" fill="#37A4DA"/>
</svg>
