<svg width="60" height="60" viewBox="0 0 60 60" fill="none" xmlns="http://www.w3.org/2000/svg">
<rect width="60" height="60" rx="20" fill="#37A4DA"/>
<g clip-path="url(#clip0_1001_10033)">
<path d="M44.9756 19.9421C44.9634 19.7651 44.9695 19.5941 44.939 19.4171C44.8962 19.0691 44.8169 18.7272 44.7009 18.3915C44.2369 17.0606 43.1991 15.9556 41.8988 15.4245C41.7339 15.3635 41.5691 15.2963 41.4043 15.2475C41.2272 15.2048 41.0746 15.1559 40.8793 15.1254L40.5862 15.0827L40.4397 15.0643L40.3359 15.0582L40.1345 15.046L40.0368 15.0399H39.8781L38.2847 15.046L35.098 15.0521C30.849 15.0582 26.6062 15.0582 22.3694 15.0216C21.6186 15.0155 20.4342 15.2292 20.0618 15.3757C19.3231 15.6748 20.2816 15.9251 21.7162 16.1144C26.4475 16.7432 32.186 17.0179 38.0283 17.0911L39.3469 17.1095L39.9635 17.1156L40.2932 17.1339C40.3848 17.1461 40.4397 17.1644 40.5191 17.1705C41.1601 17.2987 41.7828 17.6711 42.1979 18.19C42.6191 18.715 42.8389 19.3682 42.8267 20.0337L42.7901 22.671C42.7473 26.1873 42.7107 29.7037 42.668 33.2262L42.6313 38.5069L42.6252 39.8255C42.6313 40.32 42.6069 40.5947 42.5337 40.8511C42.3871 41.4433 42.0209 41.9805 41.5203 42.3346C41.27 42.5116 40.9952 42.6459 40.7022 42.7314C40.5557 42.7741 40.4031 42.7985 40.2505 42.823L40.0185 42.8352C39.933 42.8413 39.8048 42.8352 39.701 42.8413L37.0515 42.8535L31.7526 42.9084C30.0005 42.884 28.2545 42.8657 26.5024 42.8413L22.3389 42.8046L20.2572 42.7924H19.7993L19.5368 42.7802C19.488 42.7802 19.4636 42.7741 19.4452 42.768L19.3781 42.7558C19.2987 42.7497 19.1766 42.707 19.0606 42.6826C18.9507 42.6398 18.8348 42.6093 18.731 42.5543C18.3036 42.359 17.9373 42.0354 17.6748 41.6447C17.4184 41.2479 17.2658 40.7962 17.2536 40.3261L17.2475 36.2175C17.2414 33.446 17.2231 30.6744 17.1926 27.9089L17.1376 23.7637L17.0888 21.6942L17.0705 20.6564L17.0583 20.1375V20.0398L17.0644 19.9299C17.0705 19.8505 17.0644 19.7406 17.0766 19.6857C17.0888 19.6308 17.0949 19.5697 17.101 19.5148C17.1071 19.4598 17.1315 19.3805 17.1376 19.3133C17.1498 19.2461 17.1681 19.179 17.1926 19.1118C17.217 19.0447 17.2292 18.9775 17.2536 18.9165C17.3452 18.6601 17.4856 18.4281 17.626 18.2144C17.9251 17.7993 18.2914 17.4757 18.6394 17.2499C19.3292 16.8103 19.9092 16.676 19.7993 16.383C19.7505 16.267 19.5673 16.1327 19.2499 16.0777C18.9324 16.0045 18.4746 16.0167 17.9373 16.1876C17.4062 16.3586 16.7774 16.7004 16.2585 17.2987C15.7335 17.8909 15.3184 18.715 15.2329 19.7284L15.2146 19.997L15.2085 20.3084L15.1963 20.8517L15.1658 21.9384L15.1291 24.1178C15.1047 25.5707 15.0803 27.0237 15.062 28.4766C15.0192 31.3825 14.9948 34.2945 15.0009 37.2004L15.007 38.9525L15.0131 39.8316C15.0131 39.9842 15.0131 40.1124 15.0192 40.2834C15.0315 40.4665 15.0253 40.6496 15.062 40.8328C15.1597 41.5654 15.4283 42.2735 15.8434 42.884C16.2585 43.4884 16.8141 44.0012 17.4551 44.3614C17.6138 44.4529 17.7847 44.5262 17.9496 44.6056C18.1205 44.6666 18.2914 44.7399 18.4685 44.7887C18.6516 44.8314 18.8103 44.8864 19.024 44.9108L19.3231 44.9535C19.4269 44.9658 19.4758 44.9597 19.5551 44.9658L19.8237 44.978H20.0435L20.4831 44.9719L21.356 44.9658L24.8602 44.9352C29.5304 44.8925 34.2006 44.8437 38.8708 44.8009L39.6583 44.8314C39.7926 44.8376 39.9086 44.8437 40.0673 44.8437C40.226 44.8376 40.3848 44.8437 40.5435 44.8253C41.1845 44.7704 41.8133 44.575 42.381 44.2576C43.5165 43.6288 44.3895 42.4933 44.6826 41.193C44.8474 40.3871 44.7924 39.9659 44.823 39.4165L44.8596 37.8353L44.9145 34.6669C44.9756 30.4424 45 26.2056 45 21.9567V20.1619C44.9817 20.1008 44.9817 20.0398 44.9756 19.9421Z" fill="white"/>
<path d="M26.4108 35.5582C26.7527 35.949 27.3449 35.9978 27.7356 35.6559L27.8455 35.5582C29.2007 34.3922 30.5316 33.1896 31.7037 31.8282C31.9479 31.6206 32.1921 31.4131 32.4241 31.2055C33.9259 29.8563 35.3788 28.4583 36.6242 26.865C36.9783 26.4132 37.1187 25.8821 36.6975 25.5158C36.3129 25.1862 35.7634 25.2045 35.3056 25.5769C34.4875 26.2423 33.6512 26.9077 32.9125 27.6647C31.722 28.8796 30.6049 30.1616 29.4633 31.4131C28.6391 31.9259 27.8821 32.5241 27.1678 33.159C26.2216 32.2189 25.257 31.3032 24.3657 30.3203C24.2742 30.2165 23.9689 30.2165 23.8163 30.2715C23.5111 30.3875 23.4561 30.6866 23.5049 31.0102C23.6637 32.0663 24.207 33.0003 24.903 33.8001L26.4108 35.5582Z" fill="white"/>
</g>
<defs>
<clipPath id="clip0_1001_10033">
<rect width="30" height="30" fill="white" transform="translate(15 15)"/>
</clipPath>
</defs>
</svg>
