<svg width="228" height="122" viewBox="0 0 228 122" fill="none" xmlns="http://www.w3.org/2000/svg">
<path d="M14.929 79.2187C21.1583 80.0501 27.0423 81.872 32.5467 84.3562C33.52 84.7936 34.487 85.2581 35.4485 85.7443C36.3848 86.1962 37.2433 86.733 38.1886 87.3213C41.112 89.1468 44.097 91.1593 47.466 92.7191C52.4752 109.844 51.6772 107.468 52.8277 109.696C54.0043 111.558 55.7502 113.125 57.8279 114.051C63.6007 116.794 68.806 113.737 68.9018 113.716L69.5778 113.365C70.026 113.13 70.4779 112.895 70.9415 112.677C74.6205 110.878 78.6456 109.416 82.8948 108.323C87.998 107.01 93.4636 106.26 96.1205 106.169C100.718 105.996 105.578 106.073 110.506 105.166C111.74 104.931 112.985 104.624 114.226 104.161C119.257 102.257 121.194 98.7233 118.852 93.6761C117.702 91.3039 116.182 89.3619 114.808 87.4605C112.028 83.7128 108.029 74.9306 105.954 68.9951C104.456 64.7811 103.389 60.5653 102.508 56.4083C102.076 54.3506 101.637 52.2458 101.293 50.3056C101.003 48.4232 101.041 46.4106 101.047 44.4722C101.067 42.5202 101.113 40.5926 101.046 38.693C100.967 36.7988 100.833 34.9092 100.1 33.0611C99.6955 32.1945 99.2383 31.3531 98.5731 30.6573C97.9332 29.9685 97.1628 29.4137 96.3066 29.0252C95.4635 28.6682 94.5986 28.483 93.7618 28.3944C92.9268 28.3402 92.1144 28.3438 91.3435 28.4414C90.6531 28.5227 89.9943 28.642 89.3554 28.7794C89.2925 28.5769 89.2176 28.3783 89.1312 28.1847C88.3568 26.5047 86.9154 25.5369 85.6194 24.8591C82.949 23.5334 80.387 23.0589 78.1793 22.6107C75.9598 22.2004 74.0484 21.932 72.4922 21.6907C69.3745 21.2443 67.7144 20.778 67.6674 20.8937C67.6159 21.0147 69.2561 21.7341 72.3522 22.4191C73.893 22.7788 75.7862 23.1638 77.9497 23.6816C80.0897 24.2238 82.5929 24.8302 84.9399 26.1198C86.0858 26.7668 87.1946 27.6452 87.67 28.8255C87.7197 28.9375 87.7576 29.0541 87.7929 29.1716C86.2159 29.6234 84.7944 30.181 83.4957 30.6907C81.297 31.589 79.4526 32.4421 77.9389 33.1153C74.9259 34.4953 73.1872 35.024 73.2116 35.1469C73.2324 35.2752 75.0913 34.9706 78.2163 33.8031C79.7824 33.2382 81.6739 32.4927 83.8825 31.7155C86.0867 30.9672 88.6405 30.0934 91.4718 29.8674C92.1776 29.8042 92.8906 29.8331 93.6019 29.9009C94.3067 30.0021 94.999 30.181 95.6424 30.4765C96.2829 30.7956 96.8545 31.2371 97.3251 31.776C97.8176 32.3156 98.1665 33.0159 98.4791 33.7317C99.0033 35.1577 99.1244 36.9317 99.138 38.7382C99.1533 40.5564 99.0593 42.4551 98.9888 44.4243C98.9391 46.4016 98.8352 48.4313 99.1145 50.6228C99.438 52.7338 99.8148 54.7437 100.213 56.8737C101.011 61.085 102.033 65.4806 103.488 69.8301C105.344 75.4656 109.1 84.4358 112.407 89.173C113.787 91.1286 115.178 93.0083 116.085 94.963C117.462 97.9416 116.877 99.8231 113.12 101.166C112.116 101.528 111.029 101.786 109.918 101.984C105.429 102.761 100.737 102.658 95.9958 102.78C93.5015 102.822 87.5977 103.531 82.0326 104.916C77.5638 106.026 73.2956 107.541 69.3699 109.431C67.1685 110.453 63.7471 112.862 59.3569 110.724C57.8965 110.072 56.7407 108.991 55.9608 107.776C55.0544 105.83 56.9485 111.958 45.0278 71.5372C42.3845 62.2869 40.3367 54.2747 38.2699 47.4354C35.1232 37.0148 43.3957 46.3781 71.537 36.2774C73.1989 35.6593 73.2694 35.3945 73.2116 35.1478C73.1529 34.9002 72.9694 34.6941 71.2108 34.8821C71.1195 34.8911 39.4465 38.8692 39.3534 38.8828C33.7161 40.0025 33.3763 42.6765 35.012 48.3753C36.9767 55.1982 38.9603 63.2502 41.5549 72.5096L46.1818 88.3253C45.9957 88.2196 45.8059 88.1247 45.6215 88.0162C43.731 86.9011 41.8974 85.6775 40.0059 84.4575C39.0724 83.861 38.0539 83.214 37.0083 82.6952C29.7127 78.9178 22.4795 76.6323 15.417 75.6463C6.65653 74.4001 3.7936 72.1861 7.91901 63.8196C29.2536 20.3867 28.8217 16.0444 34.8783 11.3704C35.9302 10.5408 36.9568 10.1143 38.0385 10.0465C42.4504 9.79165 51.3501 17.6195 65.7343 20.9551C67.3845 21.3229 67.5815 21.1313 67.6674 20.8937C67.7532 20.6533 67.7153 20.3876 66.2278 19.6104C62.1358 17.427 54.335 14.6626 46.0264 9.67598C44.9871 9.05784 43.8692 8.39814 42.5571 7.81977C41.2503 7.25947 39.6914 6.74436 37.8958 6.81395C36.1073 6.85642 34.2629 7.64355 32.8685 8.7307C27.4905 12.7431 28.5732 13.7137 4.60151 62.2263L3.50351 64.4549C0.38031 70.2467 2.12898 77.4818 14.9299 79.2196L14.929 79.2187Z" fill="#37A4DA"/>
<path d="M68.2126 53.0971C67.2185 53.6376 66.191 54.0469 65.121 54.3289C62.9955 54.9046 60.9215 55.013 59.4204 54.9904C57.9112 54.9814 56.9443 54.8558 56.8584 55.1115C56.7771 55.3338 57.6193 55.9366 59.1963 56.4047C60.7624 56.8819 63.0542 57.2 65.6099 56.8846C68.9093 56.505 70.9372 55.0998 72.8992 54.3262C73.8153 53.9454 74.7876 53.7174 75.7775 53.6511C76.7327 53.5806 77.6933 53.6123 78.5636 53.6403C80.1505 53.7008 81.6976 53.7731 83.0694 53.6547C84.2328 53.5652 85.3877 53.3878 86.5243 53.1243C88.4365 52.6751 89.6448 52.2025 90.441 51.8283C92.0224 51.062 91.9565 50.5966 91.8263 50.1077C91.6944 49.6152 91.4992 49.1977 89.7794 49.3106C88.9218 49.3585 87.6883 49.5546 85.9224 49.7869C85.0395 49.8962 84.0238 50.0137 82.8607 50.0553C81.7103 50.1113 80.3782 50.0282 78.6901 49.9631C77.7665 49.9342 76.6667 49.9161 75.4124 50.0634C74.1634 50.1954 72.7193 50.6174 71.5102 51.2328C70.2829 51.8374 69.2202 52.5522 68.2126 53.0971ZM84.9654 61.8098C79.1293 61.4817 76.9197 60.4 72.6967 65.1779C70.9688 67.1154 69.6061 68.1239 66.6871 68.8243C64.3384 69.3783 62.0041 69.4415 60.316 69.5265C58.6197 69.6015 57.5398 69.6991 57.5109 69.9566C57.482 70.2043 58.495 70.5865 60.1985 70.9543C61.9002 71.305 64.3194 71.6728 67.1209 71.3899C69.4371 71.1414 71.6105 70.4049 73.4712 69.0023C74.1309 68.5324 74.6767 67.9793 75.1611 67.5067C78.4461 64.1847 79.113 65.2447 84.7783 65.4101C86.0742 65.4584 87.3718 65.3834 88.6534 65.186C90.8359 64.8335 92.2312 64.2733 93.1231 63.8214C94.8917 62.8617 94.7335 62.3556 94.5465 61.9046C94.3468 61.4194 94.0928 61.0895 92.3243 61.3443C91.4359 61.4474 90.1599 61.6878 88.2712 61.817C87.1703 61.8892 86.0659 61.8868 84.9654 61.8098ZM93.0996 76.4977C92.7047 76.523 92.2547 76.5022 91.7667 76.4886C90.7952 76.4669 89.6294 76.3639 88.2422 76.2383C86.8505 76.1118 85.2184 75.9265 83.2646 75.884C82.2019 75.8461 80.9268 75.9184 79.5414 76.1362C78.1587 76.4226 76.6242 76.8501 75.2398 77.7556C73.8056 78.6223 72.8232 79.7492 71.8563 80.4767C70.902 81.2204 69.7841 81.7599 68.6301 82.1467C66.3075 82.9103 63.9064 83.0459 62.1821 83.195C60.4443 83.3306 59.3373 83.4616 59.3174 83.7219C59.2993 83.9686 60.3521 84.3201 62.1162 84.6265C63.8748 84.9093 66.3925 85.2157 69.2771 84.668C70.7059 84.3834 72.2232 83.8574 73.5932 82.9862C74.9524 82.1187 75.9654 81.149 76.9622 80.6773C77.9436 80.117 79.0579 79.882 80.1125 79.6959C81.1366 79.576 82.1681 79.5319 83.1987 79.5639C84.9329 79.6001 86.5243 79.7501 87.9666 79.8332C89.4107 79.9146 90.6904 79.9534 91.8218 79.8784C99.1798 79.4058 99.3045 75.6879 96.3792 76.2311C95.6345 76.2988 95.7791 76.279 95.0905 76.3865C94.8176 76.4001 94.5203 76.4217 94.1958 76.4534C93.8777 76.5004 93.4991 76.4805 93.0996 76.4977Z" fill="#37A4DA"/>
<path d="M212.149 112.064C213.971 90.0227 203.693 46.5682 148 49.078" stroke="#37A4DA" stroke-width="4" stroke-linecap="round"/>
</svg>
