<svg width="110" height="110" viewBox="0 0 110 110" fill="none" xmlns="http://www.w3.org/2000/svg">
<path d="M6.58733 22.0078C6.57075 22.0832 6.55569 22.1585 6.54212 22.2369C6.23774 23.9095 6.71692 25.6107 7.07103 27.2366C7.4387 28.9243 7.80637 30.615 8.17103 32.3041C9.78553 39.7393 11.3617 47.1827 12.8995 54.6341C14.4467 62.1302 15.9285 69.6396 17.3447 77.1615C18.7401 84.5948 20.0571 92.0417 21.261 99.5066C21.4946 100.953 22.7784 101.643 24.1165 101.05C24.2355 100.997 24.3561 100.941 24.4917 100.885C24.7147 100.793 24.6123 100.439 24.5791 100.2C21.4403 77.4719 17.3387 52.9073 12.4761 30.508C12.0271 28.4451 11.019 26.7182 10.371 24.7126C10.0124 23.6021 9.97623 22.1645 9.56486 20.9998C9.39459 20.5176 9.2213 20.0354 9.04048 19.5532C8.97569 19.3799 8.38952 18.3266 8.43473 18.2573C7.67075 19.4326 6.89171 20.6456 6.58733 22.0093V22.0078ZM97.2198 22.7492C97.0336 22.7488 96.8503 22.7024 96.6863 22.6141C96.5223 22.5259 96.3826 22.3986 96.2796 22.2434C96.1766 22.0882 96.1135 21.9101 96.0959 21.7247C96.0782 21.5393 96.1066 21.3524 96.1786 21.1806C96.3518 20.7707 96.2177 19.7943 95.5276 18.5361C94.5135 16.6871 92.4928 14.6439 90.5927 14.3199C90.2971 14.2695 90.0337 14.1038 89.8603 13.8593C89.687 13.6147 89.6179 13.3112 89.6682 13.0157C89.7186 12.7202 89.8843 12.4567 90.1288 12.2834C90.3734 12.11 90.6769 12.0409 90.9724 12.0913C93.7149 12.5584 96.2313 15.12 97.5091 17.4511C98.4931 19.2413 98.7598 20.8777 98.2625 22.0576C98.1764 22.263 98.0315 22.4384 97.8459 22.5617C97.6604 22.6851 97.4426 22.7493 97.2198 22.7492ZM58.2632 41.1282C59.4476 42.2493 60.305 43.8963 61.3312 45.1636L57.6364 46.143C56.336 46.4896 56.782 45.4348 57.005 44.5955C57.2792 43.5693 57.8669 42.1137 58.2632 41.1282Z" fill="#FFB236"/>
<path d="M97.3672 21.4311C98.7489 20.2164 100.089 18.9555 101.386 17.6505C102.063 16.9709 102.763 16.2039 102.869 15.25C103.004 14.0491 102.159 12.9747 101.312 12.1128C100.364 11.1484 99.2824 10.2202 97.9609 9.94293C96.6062 9.65663 95.1807 10.1207 94.1274 10.9857C93.3032 11.6637 92.1128 12.9702 92.5257 14.1425C92.9416 15.3284 94.4695 15.8573 95.2079 16.8865C96.0969 18.1236 96.8503 19.9996 97.3672 21.4311ZM30.2717 91.6187C29.785 92.2455 30.5279 93.0095 31.1276 93.3289C49.5443 88.8717 69.1544 84.4204 87.8876 81.5635C88.4059 80.902 88.8806 80.0355 88.3894 78.7984C81.5724 80.0355 73.6177 81.021 66.8022 82.2566C54.3225 84.5214 42.1668 87.2232 30.2717 91.6187Z" fill="#FFB236"/>
<path d="M24.115 100.929C23.8416 100.928 23.5775 100.829 23.3717 100.649C23.1659 100.469 23.0322 100.22 22.9955 99.9492C20.6719 82.6234 18.3634 67.3545 16.1348 54.5704C16.1227 54.4996 16.1016 54.4047 16.0926 54.2902C13.7946 41.173 11.7333 31.3378 9.79847 24.2255L9.7834 24.1773L9.73217 24.0191L9.7382 24.016C9.6354 23.8374 9.58218 23.6345 9.58403 23.4284C9.58589 23.2223 9.64275 23.0205 9.74874 22.8437C10.1918 22.128 11.3882 22.2244 11.7287 22.9386C11.7634 22.9989 11.792 23.0607 11.8146 23.124L11.8689 23.2807L11.9442 23.5113C11.9556 23.5435 11.9657 23.5761 11.9744 23.6092C13.9333 30.8029 16.0127 40.7345 18.3303 53.9677C18.3421 54.0323 18.3482 54.0979 18.3483 54.1636C20.5438 66.7006 22.8011 81.5928 25.0764 98.4604C43.585 94.8244 62.4267 93.2241 80.6581 91.6751L80.8313 91.66C80.3537 88.8136 79.867 85.9114 79.3667 82.9655C79.3418 82.8192 79.3461 82.6694 79.3791 82.5247C79.4122 82.38 79.4734 82.2432 79.5593 82.1221C79.6452 82.0011 79.7541 81.8982 79.8798 81.8192C80.0055 81.7403 80.1456 81.6869 80.2919 81.6621C80.8916 81.5445 81.4898 81.971 81.5953 82.5873C82.1679 85.9671 82.7255 89.2897 83.2694 92.5325C83.2997 92.7115 83.2864 92.8952 83.2307 93.068C83.175 93.2408 83.0784 93.3977 82.9492 93.5253C82.82 93.6528 82.6619 93.7474 82.4884 93.801C82.3149 93.8545 82.1311 93.8655 81.9524 93.8329L80.8494 93.9263C62.4222 95.4934 43.3681 97.1118 24.7283 100.832L24.3667 100.902C24.2841 100.92 24.1997 100.929 24.115 100.929ZM73.0409 41.0254C72.8929 41.0262 72.7462 40.9977 72.6092 40.9417C72.4723 40.8856 72.3477 40.8031 72.2427 40.6988C72.1377 40.5945 72.0543 40.4705 71.9974 40.3339C71.9404 40.1973 71.911 40.0508 71.9108 39.9028V39.8877C71.9108 39.588 72.0299 39.3005 72.2418 39.0886C72.4537 38.8766 72.7412 38.7576 73.0409 38.7576C73.3407 38.7576 73.6281 38.8766 73.8401 39.0886C74.052 39.3005 74.1711 39.588 74.1711 39.8877C74.1715 40.1882 74.0528 40.4767 73.841 40.6899C73.6292 40.9032 73.3415 41.0238 73.0409 41.0254Z" fill="#FFB236"/>
<path d="M31.0267 92.569C30.7547 92.5688 30.492 92.4706 30.2866 92.2924C30.0812 92.1141 29.947 91.8678 29.9086 91.5986L29.9041 91.576L21.6872 61.3154L14.6894 38.3963L11.849 29.9489L11.1468 27.9553L10.3542 25.7583C10.2397 25.4419 10.1282 25.1405 10.0001 24.8196C9.90364 24.5785 9.81323 24.3389 9.72885 24.0993C9.69178 23.9915 9.6586 23.8825 9.6294 23.7723C9.60378 23.6864 9.58419 23.599 9.54803 23.5207C9.39131 23.1741 9.24816 22.7959 9.11104 22.4267L8.10597 19.8304C8.09428 19.7979 8.08323 19.7653 8.07282 19.7324C7.9463 19.5831 7.86069 19.4034 7.82435 19.2111C7.78802 19.0187 7.8022 18.8202 7.86551 18.635C7.92882 18.4498 8.0391 18.2841 8.18557 18.1543C8.33204 18.0244 8.5097 17.9348 8.70118 17.8941C14.4446 16.6808 20.2065 15.5566 25.9847 14.5217C32.7852 13.3072 39.3324 12.3217 45.9957 11.5111C51.7609 10.7938 57.8546 10.185 64.6203 9.6486L67.845 9.4075C68.1435 9.38881 68.4373 9.48837 68.6629 9.68464C68.8885 9.88091 69.0277 10.1581 69.0505 10.4563C69.0712 10.7552 68.9723 11.0501 68.7757 11.2761C68.579 11.5022 68.3006 11.6409 68.0017 11.6617L64.7891 11.9028C58.0656 12.4348 52.0065 13.0405 46.273 13.7548C39.6161 14.5656 32.9833 15.5635 26.3825 16.7474C21.3195 17.65 16.1209 18.658 10.5305 19.8198L11.2282 21.6356C11.3487 21.955 11.4693 22.2835 11.6049 22.5834C11.6862 22.7642 11.7465 22.9571 11.8023 23.153L11.8625 23.3489C11.9349 23.5598 12.0132 23.7663 12.0961 23.9727C12.2332 24.3117 12.3553 24.6417 12.4804 24.9853L13.276 27.1959C13.5125 27.8634 13.7491 28.5324 13.9827 29.2045L18.9854 44.4342L27.689 74.3226L31.8343 89.9938C44.8249 85.8997 58.4634 83.4737 71.6664 81.1275C74.4284 80.6348 77.186 80.145 79.9284 79.6417C82.0877 79.2439 84.2456 78.8341 86.3943 78.4137C82.909 66.2474 79.0424 53.1287 75.3024 40.4335L74.656 38.2441C74.614 38.1016 74.6005 37.9523 74.6163 37.8046C74.6321 37.6569 74.6768 37.5138 74.7478 37.3833C74.8189 37.2529 74.915 37.1378 75.0306 37.0445C75.1462 36.9512 75.279 36.8816 75.4214 36.8397C75.5639 36.7977 75.7133 36.7843 75.861 36.8C76.0086 36.8158 76.1518 36.8605 76.2822 36.9316C76.4126 37.0027 76.5277 37.0987 76.621 37.2143C76.7143 37.3299 76.7839 37.4627 76.8258 37.6052L77.4693 39.7946C81.3072 52.8183 85.2762 66.285 88.7947 78.602C88.8505 78.7602 88.8957 78.8989 88.9304 79.0526C88.9681 79.218 88.9682 79.3897 88.9305 79.5551C88.8929 79.7206 88.8184 79.8754 88.7128 80.0081C88.6071 80.1408 88.4729 80.248 88.3202 80.3218C88.1674 80.3956 88 80.4341 87.8304 80.4343C85.4179 80.912 82.8788 81.3957 80.3383 81.8643C77.5883 82.3691 74.8278 82.8604 72.0627 83.3516C58.5417 85.7565 44.5627 88.2413 31.3762 92.5133C31.2632 92.5494 31.1453 92.5692 31.0267 92.569Z" fill="#FFB236"/>
<path d="M72.361 27.4972C72.1163 27.4969 71.8784 27.4173 71.6828 27.2703C71.4872 27.1233 71.3445 26.9169 71.276 26.682C69.7561 21.4457 68.2412 16.2079 66.7314 10.9686C66.6904 10.8259 66.678 10.6766 66.6947 10.5291C66.7115 10.3816 66.7571 10.2389 66.829 10.109C66.901 9.97918 66.9977 9.86477 67.1139 9.77232C67.23 9.67988 67.3632 9.61122 67.5059 9.57026C67.6486 9.52929 67.7979 9.51684 67.9454 9.53359C68.0929 9.55035 68.2356 9.59599 68.3655 9.66791C68.4953 9.73983 68.6098 9.83662 68.7022 9.95276C68.7946 10.0689 68.8633 10.2021 68.9043 10.3448C70.3689 15.4289 71.8923 20.6968 73.4459 26.0522C73.4941 26.2205 73.5026 26.3977 73.4709 26.5698C73.4391 26.742 73.3678 26.9044 73.2627 27.0444C73.1576 27.1844 73.0215 27.2982 72.865 27.3768C72.7086 27.4553 72.536 27.4966 72.361 27.4972Z" fill="#FFB236"/>
<path d="M55.1302 47.9016C54.9589 47.901 54.7899 47.8615 54.6361 47.7862C54.4822 47.711 54.3474 47.6018 54.2418 47.4669C54.1363 47.332 54.0626 47.1749 54.0265 47.0075C53.9903 46.8401 53.9926 46.6666 54.0332 46.5002C54.6555 43.9852 55.6048 41.7536 56.7018 39.1739C57.181 38.0483 57.6888 36.8518 58.2117 35.5333C58.2901 35.3345 58.4233 35.1621 58.5959 35.0361L93.0681 9.82648C95.9311 7.73045 100.019 8.90128 102.037 11.3107C103.202 12.7 103.753 14.6966 103.517 16.651C103.313 18.3176 102.549 19.7129 101.368 20.5763L67.6506 45.2344C67.5595 45.3012 67.4589 45.3541 67.3522 45.3911C64.9172 46.2305 61.798 46.7488 59.045 47.2069C57.6722 47.4344 56.3748 47.6514 55.3773 47.8729C55.2963 47.8919 55.2134 47.9015 55.1302 47.9016ZM60.1932 36.6695C59.7346 37.8041 59.264 38.9338 58.7813 40.0584C57.9887 41.9254 57.2744 43.601 56.7244 45.3083C57.3422 45.1983 57.9992 45.0898 58.6743 44.9768C61.2766 44.5443 64.2195 44.0546 66.4572 43.3087L100.034 18.7516C100.705 18.2603 101.145 17.4165 101.271 16.3768C101.434 15.0522 101.06 13.6674 100.304 12.7603C98.9735 11.1721 96.1677 10.3614 94.4017 11.6513L60.1932 36.6695Z" fill="#FFB236"/>
<path d="M66.5678 45.5566C66.3528 45.5571 66.1421 45.4962 65.9606 45.381C65.779 45.2659 65.6341 45.1013 65.5429 44.9066C65.4517 44.7119 65.418 44.4952 65.4459 44.282C65.4737 44.0688 65.5618 43.8679 65.6999 43.7031C65.8626 43.4394 65.8144 42.2656 65.5401 41.5333C65.3759 41.0933 64.5125 40.4287 64.0016 40.3459C63.7902 40.3126 63.5926 40.2198 63.432 40.0784C63.2714 39.937 63.1543 39.7527 63.0945 39.5472C62.9281 38.9928 62.5711 38.5151 62.0864 38.1986C61.4641 37.7948 60.1501 37.3593 59.7312 37.4331C59.584 37.4539 59.4341 37.4452 59.2902 37.4077C59.1463 37.3701 59.0113 37.3043 58.8931 37.2142C58.7748 37.1241 58.6755 37.0114 58.6011 36.8827C58.5267 36.7539 58.4785 36.6117 58.4595 36.4642C58.4395 36.3171 58.4488 36.1675 58.4867 36.0239C58.5246 35.8804 58.5904 35.7457 58.6804 35.6276C58.7704 35.5095 58.8827 35.4102 59.0111 35.3356C59.1394 35.2609 59.2812 35.2123 59.4284 35.1924C60.7122 35.0207 62.5882 35.8313 63.316 36.3015C64.0755 36.7927 64.6722 37.4904 65.0384 38.3041C66.161 38.7381 67.2866 39.7507 67.6573 40.7392C67.9345 41.4805 68.4905 43.8824 67.4358 45.1497C67.3301 45.2774 67.1975 45.3801 67.0474 45.4504C66.8973 45.5208 66.7335 45.557 66.5678 45.5566Z" fill="#FFB236"/>
<path d="M65.2744 39.5625C65.0349 39.5632 64.8014 39.4879 64.6076 39.3473C64.4137 39.2068 64.2695 39.0083 64.1958 38.7805C64.122 38.5527 64.1225 38.3073 64.1972 38.0798C64.2719 37.8523 64.4169 37.6544 64.6113 37.5147C66.6908 36.0184 68.8531 34.4859 71.0531 32.9233C78.7079 27.4941 86.6249 21.8796 93.3274 16.232C93.5566 16.0387 93.8531 15.9445 94.1518 15.9699C94.4505 15.9953 94.7269 16.1384 94.9201 16.3676C95.1133 16.5968 95.2076 16.8933 95.1822 17.192C95.1567 17.4907 95.0137 17.7671 94.7845 17.9603C88.0097 23.6698 80.0535 29.3114 72.3611 34.7677C70.1641 36.3258 68.0078 37.8552 65.9328 39.3485C65.7413 39.4874 65.5109 39.5622 65.2744 39.5625ZM23.3146 30.4928C23.0368 30.4916 22.7691 30.388 22.5627 30.2019C22.3564 30.0158 22.2258 29.7602 22.196 29.484C22.1662 29.2077 22.2392 28.9301 22.401 28.7043C22.5629 28.4784 22.8023 28.3201 23.0735 28.2596L47.1018 23.0128C47.2467 22.9811 47.3965 22.9783 47.5425 23.0045C47.6885 23.0308 47.828 23.0855 47.9528 23.1656C48.0777 23.2457 48.1856 23.3496 48.2703 23.4714C48.355 23.5932 48.415 23.7305 48.4466 23.8754C48.4783 24.0204 48.4811 24.1702 48.4549 24.3162C48.4286 24.4622 48.3739 24.6017 48.2938 24.7265C48.2137 24.8514 48.1098 24.9593 47.988 25.044C47.8662 25.1288 47.7289 25.1887 47.5839 25.2203L23.5572 30.4657C23.4776 30.4834 23.3962 30.4925 23.3146 30.4928ZM24.6587 47.5126C24.3791 47.5111 24.11 47.4059 23.9034 47.2175C23.6968 47.029 23.5674 46.7707 23.5403 46.4923C23.5131 46.214 23.5901 45.9355 23.7563 45.7107C23.9225 45.4858 24.1662 45.3306 24.4402 45.275L47.6427 40.6911C47.9305 40.6473 48.224 40.7162 48.4622 40.8835C48.7004 41.0507 48.8649 41.3034 48.9214 41.5889C48.978 41.8744 48.9222 42.1708 48.7656 42.4162C48.6091 42.6615 48.3639 42.8371 48.0812 42.9062L24.8787 47.49C24.8063 47.5047 24.7326 47.5123 24.6587 47.5126ZM30.769 65.6024C30.49 65.6028 30.2206 65.5 30.0128 65.3137C29.805 65.1275 29.6735 64.8709 29.6435 64.5935C29.6136 64.316 29.6874 64.0373 29.8507 63.811C30.0139 63.5847 30.2552 63.4268 30.5279 63.3677L66.7556 55.3739C66.9009 55.341 67.0513 55.3371 67.1982 55.3626C67.345 55.388 67.4853 55.4422 67.6111 55.5221C67.7369 55.602 67.8457 55.706 67.9311 55.8281C68.0166 55.9502 68.077 56.0879 68.109 56.2335C68.141 56.379 68.1439 56.5295 68.1175 56.6761C68.0911 56.8228 68.036 56.9628 67.9553 57.0881C67.8746 57.2133 67.7699 57.3214 67.6473 57.4061C67.5247 57.4908 67.3865 57.5503 67.2408 57.5814L31.0116 65.5752C30.9314 65.593 30.8511 65.6021 30.769 65.6024ZM41.8202 74.6118C41.5379 74.61 41.2665 74.5025 41.0594 74.3106C40.8523 74.1186 40.7246 73.8561 40.7013 73.5747C40.6781 73.2933 40.761 73.0134 40.9338 72.7901C41.1066 72.5668 41.3567 72.4163 41.6349 72.3681C45.4523 71.7273 49.212 70.7805 52.8775 69.5367C53.018 69.4885 53.1666 69.4685 53.3148 69.4779C53.463 69.4874 53.6079 69.5261 53.7411 69.5917C53.8744 69.6574 53.9932 69.7488 54.091 69.8607C54.1887 69.9726 54.2633 70.1026 54.3105 70.2435C54.3584 70.3839 54.3781 70.5323 54.3686 70.6803C54.3591 70.8284 54.3205 70.9731 54.255 71.1062C54.1895 71.2392 54.0984 71.3581 53.9869 71.456C53.8754 71.5538 53.7458 71.6288 53.6053 71.6765C49.8382 72.9573 45.9354 73.9398 42.0086 74.5967C41.9464 74.6075 41.8834 74.6126 41.8202 74.6118Z" fill="#FFB236"/>
<path d="M12.8997 54.6341C15.9345 69.3817 18.8563 84.5843 21.2612 99.5066C21.4947 100.953 22.7786 101.643 24.1167 101.05C24.2674 100.982 24.1317 101.045 24.5009 100.876C29.5353 100.161 35.2764 97.8024 80.8495 93.9267L81.9526 93.8333C82.1311 93.8658 82.3147 93.8549 82.4881 93.8014C82.6615 93.7479 82.8194 93.6535 82.9486 93.5261C83.0778 93.3987 83.1743 93.2421 83.2302 93.0695C83.2861 92.8969 83.2996 92.7133 83.2695 92.5344C82.3624 87.1098 82.0384 85.2202 81.5924 82.5817C83.699 82.2261 85.7995 81.8825 87.888 81.563C88.1969 81.1698 88.4847 80.6996 88.5676 80.1255C88.6143 80.0833 88.6731 80.0592 88.7123 80.0095C88.8183 79.877 88.8932 79.7223 88.9313 79.5569C88.9694 79.3915 88.9697 79.2197 88.9323 79.0541C88.8953 78.901 88.8495 78.75 88.7952 78.6021C85.2767 66.2881 81.3076 52.8199 77.4697 39.7962L77.0478 38.3617L101.368 20.5763C102.55 19.7129 103.312 18.3176 103.517 16.651C103.754 14.6966 103.201 12.7 102.037 11.3107C100.02 8.90128 95.9316 7.73045 93.0686 9.82648L72.9974 24.5032C71.6412 19.8169 70.3031 15.2014 69.0163 10.7306C69.1639 9.90634 68.5039 9.37744 67.8469 9.40908C46.8731 11.2173 35.293 12.3098 8.7016 17.8957C8.41057 17.9567 8.1553 18.1299 7.99114 18.3778C7.82697 18.6258 7.76714 18.9284 7.82461 19.2202C7.28817 20.0987 6.8105 21.0133 6.589 22.0079C6.04954 24.4294 6.58598 23.9442 12.8997 54.6341ZM80.8315 91.6604C62.1767 93.2457 43.5174 94.8399 25.0765 98.4609C22.8087 81.6505 19.8568 61.6666 16.6894 44.9451L21.6876 61.3155C30.3068 93.0151 29.8698 91.7358 30.1185 92.0854C30.138 92.5872 30.673 93.0859 31.128 93.3285C46.7721 89.5433 63.2721 85.7702 79.3653 82.9674C79.8641 85.9133 80.3538 88.814 80.8299 91.6604H80.8315ZM67.9931 42.1861C67.8093 40.7877 67.4778 39.9966 66.3175 39.0744C68.9967 37.1502 93.6743 19.7762 94.9958 17.6922C95.1917 17.974 95.3741 18.2573 95.5278 18.5361C96.2179 19.7943 96.352 20.7707 96.1772 21.1806C96.1177 21.3247 96.0889 21.4797 96.0928 21.6357L67.9931 42.1861ZM56.8168 45.2932L56.7249 45.3083C56.8379 44.9557 56.9856 44.6 57.1121 44.2474C57.0293 44.5217 56.8816 45.0159 56.8168 45.2932ZM60.9094 44.5955C60.0761 43.4503 59.3046 42.1424 58.3131 41.1825C58.3794 41.0258 59.5472 38.2442 59.8757 37.4425C60.382 37.4455 61.5137 37.8268 62.0863 38.1989C63.3761 39.0337 62.8306 40.1624 64 40.3462C64.5123 40.4291 65.3757 41.0936 65.54 41.5336C65.7765 42.165 65.8353 43.0902 65.7449 43.5136C64.2727 43.9461 62.5956 44.2972 60.9094 44.5955ZM90.7089 14.3531C91.7064 14.558 92.725 15.2225 93.6141 16.0754C92.4282 16.5862 93.6442 16.9026 71.0535 32.9235C70.4854 33.3258 64.996 37.218 64.5665 37.5646C63.9126 36.6333 63.2646 36.0999 61.7156 35.5559L90.7089 14.3531ZM66.9549 11.7402C68.2824 16.3481 69.6567 21.0947 71.0565 25.9242C58.0946 35.4776 58.4291 34.9788 58.2121 35.5318C56.5124 39.8218 54.9287 42.8792 54.0337 46.4987C53.9886 46.6854 53.9917 46.8805 54.0428 47.0657C54.0938 47.2509 54.1911 47.4201 54.3255 47.5573C54.4599 47.6946 54.627 47.7954 54.8111 47.8503C54.9951 47.9053 55.1901 47.9125 55.3778 47.8714C57.4994 47.3998 66.4154 46.1295 67.6511 45.2344L75.11 39.7796L75.3028 40.4336C79.0428 53.1288 82.9094 66.2459 86.3947 78.4137C68.0157 82.0151 49.489 84.4291 31.8348 89.9924L27.6909 74.3211L18.9858 44.4373L13.9831 29.2061C13.4406 27.6435 11.8886 23.3444 11.869 23.2811C11.8503 23.2291 11.8322 23.1769 11.8147 23.1244C11.7319 22.8863 11.878 23.3746 11.2286 21.6372L10.5324 19.8214C34.85 14.7644 46.308 13.5363 66.9549 11.7402Z" fill="#FFB236"/>
<path d="M23.5572 30.4662L47.5839 25.2209C47.7289 25.1892 47.8662 25.1293 47.988 25.0446C48.1098 24.9599 48.2137 24.852 48.2938 24.7271C48.3739 24.6022 48.4286 24.4628 48.4548 24.3167C48.4811 24.1707 48.4783 24.0209 48.4466 23.876C48.4149 23.7311 48.355 23.5938 48.2703 23.472C48.1856 23.3502 48.0777 23.2462 47.9528 23.1661C47.828 23.086 47.6885 23.0313 47.5425 23.0051C47.3965 22.9789 47.2467 22.9817 47.1017 23.0133L23.075 28.2602C22.9247 28.2862 22.7812 28.3424 22.6531 28.4254C22.5251 28.5084 22.4152 28.6164 22.3301 28.743C22.2449 28.8696 22.1863 29.0122 22.1577 29.162C22.1291 29.3119 22.1312 29.466 22.1638 29.6151C22.1963 29.7641 22.2588 29.905 22.3473 30.0293C22.4358 30.1536 22.5485 30.2587 22.6787 30.3382C22.8089 30.4177 22.9539 30.4701 23.1049 30.4921C23.2559 30.5141 23.4097 30.5053 23.5572 30.4662ZM24.4402 45.2755C24.2948 45.3043 24.1564 45.3615 24.0331 45.4437C23.9097 45.526 23.8038 45.6317 23.7213 45.7549C23.6388 45.8781 23.5814 46.0164 23.5523 46.1618C23.5233 46.3072 23.5232 46.4569 23.5519 46.6023C23.5807 46.7477 23.6379 46.8861 23.7202 47.0094C23.8024 47.1328 23.9082 47.2387 24.0314 47.3212C24.1546 47.4037 24.2928 47.4611 24.4382 47.4902C24.5836 47.5192 24.7333 47.5194 24.8787 47.4906L48.0812 42.9068C48.2266 42.8781 48.365 42.821 48.4884 42.7388C48.6118 42.6567 48.7178 42.551 48.8003 42.4279C48.8829 42.3047 48.9404 42.1665 48.9695 42.0212C48.9987 41.8758 48.9989 41.7262 48.9702 41.5807C48.9415 41.4353 48.8845 41.2969 48.8023 41.1735C48.7201 41.0501 48.6145 40.9441 48.4913 40.8616C48.3682 40.779 48.23 40.7215 48.0847 40.6924C47.9393 40.6632 47.7896 40.663 47.6442 40.6917L24.4402 45.2755ZM30.769 65.6029C30.8506 65.6025 30.9319 65.5934 31.0116 65.5758L67.2408 57.582C67.3865 57.5509 67.5247 57.4913 67.6473 57.4066C67.7699 57.322 67.8746 57.2139 67.9553 57.0886C68.036 56.9633 68.0911 56.8233 68.1175 56.6767C68.1439 56.53 68.141 56.3796 68.109 56.234C68.077 56.0885 68.0165 55.9507 67.9311 55.8286C67.8456 55.7065 67.7369 55.6026 67.6111 55.5227C67.4853 55.4428 67.345 55.3885 67.1982 55.3631C67.0513 55.3377 66.9009 55.3415 66.7556 55.3744L30.5264 63.3683C29.2109 63.6576 29.4279 65.6029 30.769 65.6029ZM52.8775 69.5373C49.2125 70.7815 45.4533 71.7288 41.6364 72.3702C41.4848 72.3886 41.3386 72.4375 41.2064 72.514C41.0743 72.5905 40.9591 72.6929 40.8676 72.8152C40.7762 72.9374 40.7104 73.0769 40.6744 73.2253C40.6384 73.3737 40.6328 73.5278 40.6579 73.6784C40.6831 73.8289 40.7385 73.9729 40.8208 74.1014C40.9031 74.23 41.0107 74.3406 41.1369 74.4265C41.2631 74.5123 41.4054 74.5718 41.5552 74.6011C41.7051 74.6305 41.8593 74.6292 42.0086 74.5973C45.9465 73.9379 49.8247 72.9613 53.6053 71.677C53.7458 71.6293 53.8754 71.5544 53.9869 71.4565C54.0984 71.3587 54.1895 71.2398 54.255 71.1067C54.3204 70.9736 54.3591 70.8289 54.3686 70.6809C54.3781 70.5329 54.3584 70.3844 54.3105 70.244C54.2633 70.1034 54.1887 69.9734 54.0911 69.8617C53.9935 69.75 53.8748 69.6586 53.7417 69.593C53.6087 69.5273 53.464 69.4886 53.3159 69.479C53.1679 69.4695 53.0179 69.4893 52.8775 69.5373Z" fill="#FFB236"/>
</svg>
