<svg width="116" height="128" viewBox="0 0 116 128" fill="none" xmlns="http://www.w3.org/2000/svg">
<path fill-rule="evenodd" clip-rule="evenodd" d="M74.0078 96.4109C73.9804 96.2537 74.2287 95.1529 74.1036 94.5924L73.6853 93.1037C73.5729 92.8275 73.4506 92.134 73.2669 92.1419C73.1957 92.1447 73.222 92.2705 73.0229 92.1645L72.8789 92.15L72.7498 91.9144C72.0079 92.096 72.4088 92.6976 72.0999 92.728C71.8851 92.7491 72.1182 93.1071 71.9763 93.2834C71.7029 93.624 71.5652 94.4656 71.4472 94.5065C71.2491 94.5756 71.3401 94.6837 71.3065 94.8032L70.5887 97.734L69.6801 100.909C69.5821 101.291 69.4542 102.772 69.374 102.915C69.2134 103.2 69.2686 103.78 69.4653 104.141L70.5534 105.784C70.6436 105.909 70.7549 106.018 70.8476 106.143L72.213 108.09C72.3967 108.46 72.9952 109.282 73.345 109.532L73.5397 109.78C73.665 109.843 73.8276 109.877 73.869 110.004C73.8944 110.048 73.8845 109.937 74.0328 110.134C74.1092 110.236 74.2764 110.165 74.5837 110.636C74.7449 110.884 75.0115 110.91 75.1097 111.112C75.3279 111.561 75.5314 111.261 75.7943 111.518C75.9052 111.627 76.0404 111.481 76.1171 111.578C76.1761 111.652 76.1293 111.551 76.4276 111.598C76.5196 111.304 76.8781 111.063 76.9537 110.658L76.9782 109.56C76.8496 108.915 77.1422 109.085 76.6167 108.022L76.0355 107C74.9873 105.04 74.567 104.611 73.1727 102.845L73.309 101.936L73.3751 100.915C73.5012 99.7947 73.8677 98.2644 73.9353 97.0219C73.936 96.8948 74.0067 96.78 73.9604 96.6455C73.9343 96.5708 74.0462 96.6204 74.0078 96.4109ZM106.328 29.7746C106.413 29.6888 106.494 29.5968 106.575 29.5037L106.141 29.2515C106.015 29.244 106.112 29.1698 106.061 29.1785L105.359 28.7767C104.94 28.5224 104.816 28.3681 104.43 28.0704L103.997 27.863L103.555 27.5438C103.526 27.5225 103.477 27.525 103.451 27.5029C103.036 27.1473 102.126 26.8912 101.427 25.9514L101.314 25.7739C101.109 25.5714 101.191 25.7231 100.994 25.3954C100.479 26.0215 98.2771 28.5529 97.9699 29.0515C97.5103 29.7978 96.911 30.2993 96.4945 30.9581C96.4701 30.9958 96.4431 31.0317 96.4137 31.0656C95.7961 31.7243 95.3269 32.4426 94.8115 33.1416C94.3873 33.7169 93.7685 34.3272 93.3671 34.8457C91.4279 37.3507 89.3072 39.6958 87.2908 42.0935C86.5441 42.9813 85.7805 43.8478 85.0047 44.7092C84.6118 45.1462 84.245 45.6103 83.8618 46.0584C79.8743 50.7008 75.8612 55.2939 71.9131 59.9694C71.9514 60.0824 72.2748 60.2191 72.3887 60.2845C73.3146 60.819 73.2679 61.0417 73.9543 61.3105C74.0584 61.3446 73.9437 61.3697 74.1188 61.4232C74.1714 61.4394 74.8185 61.947 75.1253 62.0499C75.3354 62.1205 76.0363 62.6673 76.2048 62.8426L76.5972 63.2832L82.294 56.8653L89.2067 49.0743L95.4425 41.9514L102.538 33.8522L103.744 32.4797C104.519 31.4906 104.673 31.5934 105.093 31.1319C105.501 30.6773 105.899 30.2137 106.328 29.7746ZM72.8451 65.8936C73.0237 65.7953 73.2013 65.6958 73.3786 65.5976L72.9391 65.2316L72.1778 64.6245C72.1551 64.5179 72.0224 64.5398 71.9714 64.4643C71.8788 64.3277 71.6771 64.4116 71.2386 63.8443L70.4794 62.8694L68.5242 68.2359L72.8451 65.8936ZM51.5781 98.2646C51.6369 98.3061 51.7202 98.3363 51.8141 98.3661C51.8306 98.3078 51.8468 98.2507 51.8618 98.1931L51.5781 98.2646ZM51.7122 98.023L51.8922 98.0825C51.8941 98.0723 51.8968 98.0584 51.9015 98.0475C51.8378 98.0382 51.7763 98.03 51.7122 98.023ZM114.011 23.5409C113.878 24.0022 113.742 24.2072 113.476 24.5666C110.921 28.0243 108.466 31.3288 105.684 34.6208L101.074 40.0809C100.64 40.591 100.093 41.3364 99.666 41.7305C99.5844 41.8087 99.5105 41.8945 99.4453 41.9868C98.9249 42.6992 98.3056 43.3392 97.7434 44.0229L94.264 48.1273L89.0396 54.3215L79.8561 64.9842C80.1527 66.0625 80.0685 66.5606 79.9125 67.6415C79.8882 67.8109 79.9497 67.8989 79.8648 67.9731L79.7183 69.2498L79.4499 71.2175C79.2836 72.1587 79.1557 72.708 79.1312 73.6378C79.1256 73.8534 79.0688 73.7316 79.0633 74.1017L78.7929 75.9837L78.7181 76.9141C78.5475 78.0152 78.4931 78.8678 78.2263 80.0192L77.7806 81.675L77.6452 82.3199C77.5366 82.7199 77.1747 83.8206 76.8931 84.035C76.6078 84.2521 76.6243 84.4731 76.2884 84.7707C75.4699 85.4952 75.8814 85.3209 74.7262 85.5863C74.5461 85.3273 74.5135 85.4369 74.5248 85.3382C74.5408 85.1985 74.3445 85.2242 74.3454 85.0509C74.3469 84.6443 73.986 84.7415 74.1578 84.2184C74.2341 83.9862 74.0666 83.7656 74.1342 83.4527C74.2577 82.8799 74.092 82.7706 74.1116 82.6479L74.0889 82.4248C74.1516 82.2967 74.061 82.1469 74.0215 82.0045L74.0632 81.6639C73.986 81.0929 74.1558 80.6047 74.1947 80.2126C74.2127 80.0365 74.2576 79.8642 74.3123 79.6952C74.4756 79.0381 75.0094 75.2931 75.1582 74.8734L75.4952 72.6989L76.2129 70.1715C76.3484 69.8377 76.6373 68.369 76.745 67.9635L74.2107 69.4076L71.5279 70.8742C69.6651 71.9457 67.6166 72.9793 65.7188 74.0499C64.3844 74.8027 62.6394 73.5815 63.2152 71.8823L65.1447 66.4376L67.6979 59.0724L68.0539 58.4659L73.9126 51.5929L80.2695 44.2141L82.9279 41.1798C82.928 41.1038 82.9296 41.0268 82.9226 40.9535C82.8991 40.5978 82.964 40.1426 83.0452 39.6708C83.2501 38.4654 83.4012 37.2878 83.4494 36.1754C83.4833 35.4351 83.9496 33.0864 84.1071 32.3211C84.569 30.0752 84.8239 27.7033 85.2775 25.3277C85.4644 24.3491 85.7258 23.4889 85.301 22.5127C84.5558 20.8 82.9268 20.8683 81.5899 20.6299C80.3089 20.3475 79.0708 20.2308 77.8225 20.0595C76.7804 19.9157 75.6358 19.6242 74.6289 19.4683C73.3005 19.2622 71.969 19.0185 70.6419 18.7982C67.4488 18.2738 64.2798 17.6008 61.0991 17.0236C59.4408 16.7214 57.7929 16.391 56.1452 16.0541C55.3071 15.8816 54.4549 15.7471 53.6131 15.5858L32.0909 11.4831L25.6398 10.292C24.6 10.094 23.7033 10.4878 23.0929 11.4259C22.9326 11.6725 22.8447 12.035 22.7884 12.3228L21.8755 17.0571C21.6521 18.2224 21.458 19.4062 21.1972 20.5472C20.7584 22.4809 20.4916 24.4265 20.0971 26.3607C19.6244 28.664 19.2369 31.0489 18.8075 33.3668C17.1972 42.0594 15.3917 50.7154 13.6646 59.3854C12.6835 64.3104 11.6159 69.3139 10.6853 74.2354L8.58213 85.02C8.44476 85.731 8.26796 86.3104 8.43243 87.017C8.6757 88.0625 9.53056 88.7987 10.5461 88.9971L22.5922 91.3747C23.7335 91.6095 24.6842 91.6719 25.7963 92.0754C26.2011 92.2224 33.4848 93.683 34.7576 93.9639C36.1355 94.2672 37.525 94.5428 38.89 94.8792C40.1101 95.1801 42.4206 95.5235 43.7467 95.7488C44.7095 95.9123 44.427 96.0146 45.3218 96.2053L47.6406 96.6917C48.8338 96.866 50.8543 97.275 52.0183 97.6398C52.4398 96.2901 53.4302 93.9404 54.2649 92.8442C54.3213 92.7698 54.3712 92.6864 54.4221 92.6057C55.8217 90.4091 57.3942 88.8059 59.5237 87.3183C60.9201 86.343 63.1037 85.2012 64.7845 84.8968C67.0328 84.4896 68.2252 84.1848 70.5658 84.4356C71.5248 84.5382 72.2443 84.6328 73.1536 84.9946C73.1973 85.0122 73.2534 85.0347 73.2696 85.0586C73.4249 85.285 73.7582 85.3563 73.9949 85.5462C74.2838 85.789 74.2813 85.7886 74.6248 85.9383C73.7468 85.9684 74.0864 86.0564 73.6038 86.0217C72.9362 85.9734 73.2021 86.1508 72.4009 86.1383C71.0116 86.1167 70.7787 86.4172 70.2609 86.4485C69.3835 86.5017 68.2104 86.674 67.3788 86.9585C65.8206 87.4917 64.8048 87.8495 63.3905 88.6401C63.084 88.8113 62.7983 89.0962 62.3731 89.3806C62.0477 89.5984 61.9574 89.6171 61.6736 89.9199C61.6516 89.9425 61.6272 89.9624 61.6007 89.9793C60.9323 90.39 60.4836 91.0837 59.9184 91.6051C58.3771 93.0272 56.652 96.0047 56.0349 97.865C55.6189 99.1185 55.3345 100.047 55.2059 101.321C54.5832 106.784 56.4838 111.824 60.6203 115.477C62.258 116.923 62.8435 117.114 64.4793 118.017C65.2311 118.432 67.2193 119.058 68.2769 119.217C73.1491 119.947 77.8889 118.901 81.7911 115.741C83.5125 114.347 84.8876 112.668 85.9089 110.712C87.054 108.52 87.725 105.664 87.721 103.147C87.7175 100.968 87.2689 98.7063 86.3744 96.7155C86.1697 96.2598 86.1183 96.0368 85.8373 95.5734C85.3178 94.717 85.4848 94.7153 85.2833 94.3692C84.4516 92.939 83.2249 91.537 82.0062 90.4077C80.8702 89.3553 80.6155 89.1974 79.1867 88.5005C78.546 88.1881 79.2995 88.3271 77.7207 87.6049L76.1706 87.0587C75.8504 86.9495 74.8147 86.486 74.5584 86.2833C74.7545 86.2294 75.4212 86.3144 75.6492 86.355C75.3646 86.1692 75.4091 86.2897 75.7588 86.1112C75.6827 86.0049 75.0009 85.8193 75.4774 85.8294C76.7568 85.8565 78.7573 86.5071 79.8909 86.9455C83.4599 88.3259 86.6977 91.0703 88.4948 94.4702C89.4611 96.2978 90.1485 98.2134 90.5018 100.246C90.5902 100.756 90.7042 101.14 90.6839 101.669L90.7983 103.019C90.9244 109.677 87.9659 115.806 82.3706 119.635C80.2526 121.084 77.8068 122.144 75.3034 122.71C73.1383 123.199 72.8018 123.152 70.7376 123.201C68.9317 123.244 66.7718 122.741 65.0614 122.259C62.2646 121.472 58.9769 119.368 56.9197 117.326C53.4528 113.886 51.4466 109.24 51.1579 104.373C51.0469 102.501 51.2991 100.363 51.7646 98.5504C50.7416 98.4526 49.6913 98.2996 48.6439 98.1526C39.9151 96.9213 31.2989 95.8845 22.6132 94.2886L12.3942 92.4133C10.726 92.1063 9.97212 92.139 8.51838 91.4854C6.16197 90.4259 4.93829 87.9225 5.32144 85.3906L5.638 83.6641L8.55686 67.7897L12.4437 47.3449C12.4934 47.0858 12.5473 46.8251 12.5902 46.5673C12.8448 44.939 13.1772 43.3204 13.4735 41.6938C13.6896 40.505 13.8854 39.3137 14.0904 38.1212C14.1521 37.765 14.2096 37.4038 14.2856 37.0553C14.5292 35.9557 14.7185 34.8587 14.9075 33.7497L16.5556 24.982C16.7005 24.2054 16.8156 23.4215 16.9641 22.6469L19.0118 11.6321C19.3948 9.52478 20.514 7.87432 22.5482 6.90819C23.6365 6.39132 25.0068 6.20769 26.1947 6.42151L39.0809 8.82531C45.8951 10.1081 52.8072 11.3915 59.6027 12.769L64.9326 13.8353C66.2578 14.0985 67.5934 14.3428 68.9045 14.6517C69.0622 14.6898 69.227 14.7188 69.3888 14.7498C71.2704 15.1106 73.1539 15.4625 75.0328 15.8385L83.6661 17.613C86.0266 18.085 87.8966 19.8869 88.384 22.2542C88.6863 23.7216 88.3599 24.9548 87.9536 26.3447C87.5725 27.6498 87.258 29.023 86.9381 30.3911L84.5764 39.3337C85.5112 38.263 86.7229 36.8222 87.6674 35.8543C87.7457 35.7736 87.8179 35.6852 87.893 35.6002C88.7562 34.6036 89.6113 33.6014 90.4832 32.6144C92.1252 30.7573 97.2534 25.0474 98.5995 23.8631C99.8839 22.7333 101.165 21.261 102.52 20.0265C103.182 19.4234 105.04 17.6151 105.583 17.2203C105.917 16.9773 106.676 16.7014 106.876 16.7908C107.171 16.9225 107.648 16.954 107.937 17.196L108.525 17.8185C108.064 17.5477 108.047 17.6701 107.498 17.6529C107.104 17.6407 106.969 17.8542 106.588 18.1858C106.277 18.4562 105.441 19.7781 105.271 20.0821C104.962 20.6394 103.609 22.0984 103.061 22.7676L103.153 22.764C103.173 22.8307 103.289 22.7757 103.375 22.7623L103.498 22.8395C103.72 22.8336 104.117 23.1389 104.21 23.2877C104.384 23.4829 105.742 24.4381 105.818 24.5733C105.914 24.7457 106.38 24.8452 106.757 25.3547C107.508 26.3729 107.696 26.5117 108.489 27.3573C108.949 26.8659 112.197 23.5203 112.335 23.0229C112.426 22.6937 112.285 22.5794 112.377 22.3958C112.501 22.15 111.62 21.4261 111.379 21.2415C110.531 20.5896 108.825 19.0213 108.295 18.0848C108.548 18.1778 109.253 18.7237 109.522 18.9202C109.235 18.5358 109.328 18.7272 109.739 18.7586C109.7 18.6271 108.998 17.9723 109.531 18.3074C109.949 18.5701 113.036 20.7536 113.48 21.25C114.015 21.8472 114.224 22.7537 114.011 23.5409ZM25.6691 49.7018C25.6285 50.3167 26.0481 50.8511 26.0518 50.8771L26.5589 51.8822L26.9553 52.3907L26.1339 53.1622C26.1241 53.2163 26.0757 53.1079 26.0232 53.234C25.9839 53.3279 25.4561 53.6457 25.3467 53.9938C25.2433 54.3234 24.9766 55.4118 25.0092 55.6651C25.0295 55.8225 25.1121 55.6909 25.2094 55.9196L25.297 56.0373C25.2513 56.2754 25.2921 56.2461 25.5086 56.3896C25.7294 56.5363 25.7763 56.3521 25.8112 56.3428C26.0683 56.274 26.0159 56.4814 26.0711 56.3952C26.2973 56.0419 26.0724 56.3295 26.7384 56.1065C26.7395 56.1062 26.9457 55.9904 27.0082 56.0389C27.1594 56.1565 27.1349 56.0387 27.1998 56.0102C27.8927 55.6662 28.3552 55.3445 29.2041 54.9518C29.4061 55.2337 30.241 56.2605 30.4081 56.3461C30.4611 56.355 30.3523 56.4082 30.4797 56.4582C30.5662 56.4921 30.9027 57.0337 31.239 57.1371C31.5506 57.2328 32.6893 57.5087 32.9106 57.4733C33.0743 57.4472 32.9267 57.3771 33.1675 57.2737L33.283 57.1843C33.513 57.2284 33.4887 57.1975 33.6353 56.9727C33.7778 56.7545 33.5985 56.7025 33.5882 56.6716C33.5112 56.4384 33.7211 56.4621 33.6409 56.4105C33.2696 56.1724 33.5777 56.3342 33.3524 55.7419C33.352 55.7413 33.2338 55.5365 33.2845 55.4734C33.4036 55.3253 33.2814 55.3432 33.2533 55.2813L32.4544 53.8309L32.1088 53.0846L33.8176 51.8321L33.9827 51.6003C34.0117 51.572 34.0624 51.5738 34.0731 51.518C34.0908 51.4257 34.0795 51.2927 34.1576 51.2827C34.1627 51.2837 34.1614 51.2768 34.1603 51.2687C34.1448 51.1441 34.2661 51.212 34.2428 51.0566C34.2238 50.9308 34.4909 50.8608 34.5661 50.5932C34.6249 50.3836 34.8324 50.4313 34.7892 50.2703C34.6923 49.9092 34.8718 50.0135 34.7842 49.8109C34.7195 49.6613 34.8055 49.7035 34.7772 49.6418C34.7195 49.5259 34.7267 49.4881 34.7203 49.4254C34.3407 49.1846 34.3866 48.9313 33.6993 48.6689C33.2095 48.4817 33.0641 48.5448 32.8821 48.4547C32.6476 48.3385 32.1144 48.5225 31.8866 48.6318L31.6041 48.8069C30.5304 49.4096 31.0441 48.969 29.9399 49.8269L29.5453 49.2951C29.4668 49.0832 29.1334 48.6423 28.8806 48.5389L28.7646 48.4065C28.6723 48.3888 28.5364 48.4009 28.5292 48.3222C28.5294 48.321 28.5218 48.3195 28.5152 48.3196C28.3796 48.3319 28.4657 48.2147 28.3027 48.2394C28.1786 48.2585 28.1077 47.9907 27.8379 47.9158C27.6355 47.8597 27.6762 47.6487 27.5163 47.693C27.1752 47.7872 27.2596 47.6128 27.0572 47.6954C26.8977 47.7605 26.9502 47.672 26.8866 47.7034C26.7722 47.7601 26.7331 47.7526 26.6714 47.7592C26.428 48.1428 26.1807 48.0881 25.9149 48.7802C25.7207 49.2858 25.7958 49.4014 25.7005 49.5987C25.681 49.6397 25.6696 49.6716 25.6691 49.7018ZM29.965 84.5147C29.9637 84.5103 29.8999 84.4483 29.8517 84.4969L29.965 84.5147ZM36.9871 69.1755C37.0832 69.0501 36.9247 68.939 37.0142 68.8492C37.078 68.7852 36.9918 68.8415 37.0009 68.5428C35.9394 67.9739 36.4031 68.1411 35.3464 68.1246C34.948 68.1184 34.8198 68.2868 34.4678 68.2653C34.1432 68.2457 33.6184 68.6027 33.3946 68.7238C33.0744 68.598 32.9511 68.5541 32.6055 68.5344L29.2588 67.9963C26.5857 67.5564 24.1565 67.7018 21.4859 67.6314C19.6616 67.5835 20.5254 67.8051 20.5698 67.9053C20.3429 68.1497 20.3449 68.0147 20.4943 68.1621C20.3291 68.163 19.9788 68.1335 19.8455 68.212C20.1642 68.5949 21.0375 68.9087 21.6149 68.9258C21.6419 68.9265 22.4046 69.0817 22.4807 69.2072C22.6288 69.4509 23.5854 69.3288 24.1591 69.5487C24.7918 69.7902 26.9692 70.2944 27.8015 70.4986C28.0422 70.5595 28.0084 70.7383 28.5707 70.7849L30.2159 71.1213L29.0338 72.2219L28.4519 72.8453L27.1757 74.0288C26.9584 74.3021 26.9866 74.1637 26.8605 74.3196C26.132 75.219 25.2811 75.7278 24.5087 76.5126C24.1163 75.9831 23.2392 75.4012 22.7346 74.962C22.2192 74.5133 22.3059 74.8356 22.221 74.8727C22.0742 74.9365 22.0934 74.8277 21.974 74.9654L21.737 74.8414C21.6905 74.8604 21.5013 75.1753 21.5242 75.2959C21.5598 75.4835 21.7777 75.759 21.6383 75.8692C21.47 76.0023 21.8643 76.1781 21.8397 76.3965C21.8129 76.6366 22.0355 77.4592 22.0822 77.6327C22.1045 77.7109 21.9297 77.777 22.0605 77.9311L22.5475 79.2863C22.9995 80.595 24.2671 80.8194 25.093 80.2028L26.4095 79.2L29.0997 77.3326C29.5008 77.0491 30.3257 76.1382 30.5897 75.9845L31.9744 74.81L31.1208 78.5928C30.6943 80.5351 30.2006 82.566 29.8311 84.493L29.2145 84.3748C28.653 84.2421 28.0674 84.2347 27.51 84.0598L22.5602 83.1082C22.1031 83.0258 21.6406 82.97 21.1851 82.8866L17.1793 82.1304C17.1979 82.1432 17.1763 82.1325 17.1804 82.1385L17.1589 82.141C17.3838 81.0354 17.865 78.7723 17.9639 77.779C18.0023 77.3868 18.066 76.9929 18.0946 76.5985L18.2521 75.6606C18.2557 75.2864 18.2104 74.9071 18.3181 74.5374L18.3679 73.9363C18.4477 73.4939 18.3466 73.5592 18.3904 73.1636C18.494 72.2269 18.6938 71.6043 18.7342 70.5501L18.9585 69.0732C18.9923 68.9942 18.7847 68.6758 19.1411 68.4347C19.3655 68.283 19.261 68.122 19.4796 68.0909C19.725 68.0559 19.4552 67.9742 19.9118 67.8659C19.4215 67.5109 19.9307 67.7247 19.3 67.3882C19.0968 67.2799 19.1181 67.218 18.9926 67.2073C16.8414 67.0246 16.4797 69.9864 15.8686 71.0853C15.4999 71.7485 14.7263 74.9733 14.5028 75.9948L14.1469 77.7898C13.8427 78.9144 13.6224 80.0837 13.3769 81.2243C12.9256 83.3387 14.0634 85.3383 16.0386 85.9089C16.6914 86.0974 22.567 87.0848 23.1333 87.1734L27.6259 87.9115C27.852 87.9548 28.086 87.9642 28.3124 88.0063L29.5006 88.2117C31.4888 88.4662 33.2919 87.0026 33.5182 85.0316L33.8862 82.5787C34.4909 79.3888 35.0531 76.3795 35.5567 73.1826C35.6759 72.4252 35.8103 72.0435 35.6747 71.2413C35.7449 71.2072 35.6174 71.2208 35.8022 71.0549C35.8984 70.9682 35.8018 70.8156 36.2411 70.4603C36.4778 70.2689 36.4618 70.015 36.6574 69.8943C37.079 69.6342 36.7632 69.4538 36.9871 69.1755ZM48.6556 84.8054C48.6643 84.2543 48.4905 84.4107 48.4686 84.3937C48.3143 84.2729 48.4401 84.1624 48.3769 84.1821C48.0623 84.2806 48.3704 84.2655 47.9028 83.955C47.9028 83.955 47.7442 83.9049 47.7402 83.8256C47.7331 83.6791 47.7764 83.767 47.3612 83.6296L46.5128 83.3531L45.2545 82.8156L44.5241 82.7502C44.3828 82.6635 42.8959 82.5338 42.787 82.4958C42.6605 82.4208 42.2742 82.361 42.067 82.486L41.9425 82.4858C41.8822 82.541 41.8145 82.6474 41.7724 82.6012C41.7586 82.5936 41.7785 82.6571 41.6844 82.6498C41.6448 82.6467 41.5714 82.8184 41.3761 82.7676C41.2274 82.7288 41.2895 82.9203 40.9639 82.8747C40.9299 82.87 40.8605 83.1232 40.7409 83.1634L40.4922 83.5991L40.4951 84.5823C40.6011 85.1165 40.7952 85.3793 40.8265 85.5327C40.8917 85.8525 41.3264 86.0544 41.6023 86.1126L41.761 86.2006C42.7914 86.6573 43.4363 86.3675 43.9235 86.4645C43.9524 86.4701 43.9881 86.4414 44.019 86.445L44.5223 86.4852C45.0523 86.3708 45.8017 86.6209 46.4265 86.5438C46.4786 86.5328 46.5163 86.5886 46.5768 86.5253C46.6102 86.4949 46.5829 86.6069 46.6681 86.5481C46.7223 86.5106 47.171 86.6151 47.405 86.4352C48.8914 85.2936 48.3952 85.2302 48.5943 84.9062C48.6108 84.8886 48.6282 84.8867 48.6556 84.8054ZM61.0874 79.2269C60.9827 78.6637 60.5914 78.7601 60.5554 78.7477C60.197 78.6238 60.4276 78.4905 60.2855 78.5019C59.6426 78.554 60.0659 78.4724 59.1411 78.1437C59.1315 78.1403 58.7546 78.0533 58.7303 77.9693C58.6745 77.7751 58.565 77.8645 58.459 77.8334L55.0111 76.9484L52.744 76.2882L51.5678 76.1229C51.4018 76.0661 51.209 76.1353 51.0499 76.0355L46.9819 75.3367C46.6232 75.2091 45.7124 75.0687 45.3165 75.146L45.0289 75.1145C44.9067 75.1579 44.7772 75.2524 44.6691 75.1935C44.663 75.191 44.6547 75.1934 44.6496 75.199C44.5516 75.2951 44.452 75.1511 44.3191 75.2694C44.2094 75.3672 43.7979 75.1884 43.4139 75.303C43.1259 75.389 42.9177 75.1887 42.7882 75.3271C42.4921 75.6431 42.415 75.4183 42.2966 75.6219C42.2056 75.7787 42.1581 75.6671 42.128 75.7362C42.0723 75.8554 42.0219 75.8731 41.9647 75.9187C42.092 76.1954 42.0087 76.6161 42.2146 76.9465L42.9007 77.7279C43.4332 78.1049 43.0192 78.1228 44.1188 78.5353L47.0013 79.3355L49.2474 79.6402C49.7189 79.6983 49.8927 79.6294 50.5891 79.7758C50.6594 79.7919 50.7352 79.7722 50.8056 79.7805L51.5888 79.8978C51.92 79.8871 51.7954 79.9582 51.9806 79.9521C53.3645 79.958 54.9461 80.4287 56.3821 80.4892C56.4991 80.488 56.6021 80.5577 56.727 80.5083C56.7965 80.4806 56.7454 80.5933 56.9425 80.5522C57.0773 80.5242 58.0981 80.7509 58.608 80.62L59.9817 80.1784C60.2398 80.0596 60.8765 79.9264 60.8703 79.7462C60.8677 79.6692 60.7492 79.7167 60.854 79.5034L60.8672 79.3592L61.0874 79.2269ZM53.3408 60.3682C53.3496 59.8163 53.1726 59.9719 53.1535 59.9575C53.0012 59.8444 53.1243 59.7232 53.0621 59.7446C52.7699 59.8453 52.9996 59.7513 52.4378 59.4336C52.4095 59.4176 52.4432 59.238 52.3623 59.2803L51.1982 58.9144C51.0922 58.9096 50.1734 58.4206 49.9394 58.3797L49.2095 58.3118L47.4721 58.0586C47.347 57.9844 46.955 57.9261 46.7519 58.0501L46.6279 58.0474C46.5674 58.1038 46.4999 58.2089 46.457 58.1665C46.4464 58.1479 46.4667 58.2231 46.3696 58.2126C46.3325 58.2086 46.2482 58.3812 46.0613 58.3304C45.9491 58.2997 45.8442 58.4949 45.7666 58.4456C45.6012 58.3402 45.5476 58.6859 45.4262 58.7249L45.1774 59.1619L45.1803 60.1451C45.2891 60.6935 45.4749 60.9253 45.5114 61.0971C45.5579 61.3165 45.8858 61.549 46.0766 61.6273L46.3044 61.6828C47.1561 61.95 46.7207 62.0011 48.0231 62.0334L48.6088 62.0263C48.6377 62.0319 48.6729 62.006 48.7041 62.0078L49.0405 62.0368C49.191 61.9963 49.1281 62.0723 49.2075 62.0478C49.6592 61.9086 50.326 62.2023 51.1117 62.1064C51.1638 62.0953 51.2015 62.1512 51.262 62.0879C51.2922 62.0603 51.2701 62.1688 51.3533 62.1106C51.4067 62.0733 51.8638 62.1749 52.0902 61.9977C53.591 60.8234 53.0688 60.8326 53.2792 60.47C53.2962 60.4501 53.3134 60.4495 53.3408 60.3682ZM65.7618 54.7222C65.4846 54.1278 65.3938 54.3819 65.2408 54.3092C65.098 54.2413 65.0444 54.2518 65.0373 54.1548C65.0215 53.9423 64.6855 54.1786 64.5285 54.0402C64.2293 53.7762 63.4491 53.65 63.4157 53.5306C63.3634 53.3444 63.2492 53.4245 63.1442 53.396C63.0996 53.3821 63.0581 53.3532 63.0119 53.3417L59.6961 52.5135L57.4294 51.8511L56.2532 51.6858C56.087 51.6302 55.8944 51.6982 55.7351 51.5996L54.2333 51.3077C54.0931 51.2874 53.9496 51.2901 53.8093 51.2708L50.3725 50.684L49.9155 50.696C49.8468 50.692 49.7872 50.6477 49.7148 50.6759C49.5924 50.7205 49.4629 50.815 49.3548 50.7562C49.349 50.7524 49.3404 50.756 49.3354 50.7616C49.2389 50.8562 49.1318 50.7158 49.0051 50.8306C48.8951 50.9301 48.495 50.7517 48.0997 50.8652C47.8093 50.9488 47.6007 50.7521 47.474 50.8892C47.1852 51.2027 47.0984 50.9834 46.9824 51.184C46.8903 51.3436 46.8454 51.2256 46.8136 51.2997C46.7581 51.4173 46.7077 51.4352 46.6506 51.4806C46.7783 51.7634 46.6972 52.1903 46.8999 52.511L47.5868 53.2885C48.1041 53.6548 47.7202 53.696 48.8047 54.0972L49.8397 54.3913C51.4745 54.9042 52.2406 55.0198 53.9332 55.2024L55.2745 55.3402C55.3452 55.3538 55.4213 55.3328 55.491 55.3449L56.2747 55.4597C56.605 55.4549 56.4724 55.5144 56.6665 55.5137C58.0289 55.5124 59.5829 55.972 61.0682 56.0498C61.1847 56.0511 61.2882 56.1183 61.4129 56.0702C61.4825 56.0428 61.4297 56.1538 61.6284 56.1141C61.7795 56.084 62.7807 56.3135 63.2938 56.1819C64.233 55.9408 64.3655 55.8185 65.1604 55.5624C65.7749 55.3642 65.4779 55.2679 65.4946 55.1796C65.5218 55.036 65.5986 55.0812 65.5536 54.9196C65.6783 54.871 65.8041 54.8486 65.7618 54.7222ZM34.5017 60.1276L34.5027 60.1292L34.5069 60.1076L34.5017 60.1276ZM34.5371 60.0598C34.5826 60.013 34.7792 60.1062 34.5371 60.0598V60.0598ZM18.8323 53.3526L18.0624 56.7871C17.5743 59.0735 18.9273 61.1575 21.1374 61.5707L24.8418 62.2378C27.352 62.6791 29.8419 63.0011 32.3115 63.4746C32.5376 63.518 32.7712 63.5299 32.9983 63.5682L34.1858 63.7774C36.1706 64.0287 37.9773 62.5673 38.2033 60.5973C38.4933 58.3854 38.9185 56.3611 39.3086 54.1768L40.2423 48.7457C40.329 48.1951 40.4645 47.6803 40.4024 47.077C40.2781 45.8676 39.3087 44.5622 38.2019 44.3203C37.8418 44.2415 37.8998 44.1367 37.2902 44.0998L33.9442 43.5579C31.0226 43.1089 29.0303 43.2759 26.1731 43.1973C24.3491 43.1472 25.2094 43.3632 25.2545 43.4707C25.0234 43.7053 25.0316 43.5941 25.1797 43.7237C25.0189 43.7246 24.6592 43.6993 24.5308 43.7735L24.9797 44.1046C25.5993 44.5146 26.9997 44.4974 27.1654 44.7726C27.3064 45.0065 28.2957 44.8991 28.8445 45.1103C29.4534 45.3442 31.676 45.8663 32.4864 46.0627C32.7256 46.1204 32.6909 46.3025 33.2558 46.3477L36.633 47.0409C37.3828 47.202 37.3364 47.0961 37.1464 47.9923L36.7061 50.1654C36.016 53.3892 35.1297 56.8576 34.5166 60.0556L33.9 59.9374C33.3386 59.8035 32.7531 59.7961 32.1954 59.6224L27.2457 58.6708C26.7888 58.5871 26.3263 58.5313 25.8706 58.4489L21.8674 57.6933C21.8834 57.7055 21.8618 57.6948 21.8657 57.7021L21.8455 57.7048C22.0712 56.5271 22.5323 54.4595 22.6492 53.3413C22.6904 52.9483 22.7513 52.5552 22.7798 52.1611L22.9373 51.2229C22.9412 50.8475 22.8952 50.4719 23.0031 50.101C23.0065 50.0832 23.0083 50.0599 23.0049 50.0437C22.9737 49.8582 23.0212 49.6788 23.0531 49.4988C23.134 49.0507 23.0331 49.1123 23.0758 48.7248C23.1807 47.7747 23.3774 47.1955 23.4192 46.1139L23.6435 44.637C23.6791 44.5524 23.4658 44.2502 23.8258 43.9998C24.0569 43.8393 23.9405 43.6885 24.1646 43.6547C24.4112 43.6176 24.1305 43.5475 24.597 43.4285C24.4393 43.3144 24.4457 43.3156 24.2787 43.1211C24.1692 42.9997 23.9094 42.9512 23.7679 42.7992C23.6988 42.725 23.1758 42.7654 22.9522 42.8434C21.344 43.4041 21.223 45.4392 20.5532 46.6496C20.1823 47.32 19.4123 50.5315 19.1877 51.5578L18.8323 53.3526ZM39.3355 35.639C39.3355 35.639 39.27 35.5736 39.222 35.6225L39.3355 35.639ZM46.3577 20.2998C46.4556 20.1782 46.2949 20.0691 46.3843 19.9761C46.4486 19.909 46.3598 19.9708 46.3715 19.6671L45.7319 19.3258C45.5473 19.1684 44.5504 19.2373 44.2965 19.3153C43.7557 19.4818 43.6789 19.2337 42.7644 19.8509C42.4131 19.7128 42.3471 19.687 41.9753 19.6615L38.6291 19.1209C35.8069 18.6755 33.6335 18.8358 30.8554 18.7598C29.0309 18.7099 29.8949 18.9282 29.9396 19.0324C29.7202 19.269 29.7056 19.1476 29.8646 19.2867C29.7046 19.2875 29.3422 19.262 29.2157 19.3365L29.6648 19.6663C30.278 20.0752 31.6865 20.0639 31.8502 20.3356C31.9913 20.5695 32.9664 20.4604 33.5294 20.6733C34.1911 20.9253 36.315 21.4147 37.1712 21.6257C37.412 21.6845 37.3758 21.8655 37.9407 21.9107L39.5856 22.2484L38.4036 23.349L37.8217 23.9724L36.5454 25.1559C36.3289 25.424 36.3524 25.2976 36.2307 25.4441C35.3952 26.4508 34.6465 26.849 33.8785 27.6397C33.509 27.1412 32.5863 26.4971 32.1049 26.0865C31.5841 25.6423 31.6782 25.9603 31.5912 25.9972C31.439 26.0619 31.4627 25.9545 31.3437 26.0925L31.1072 25.966C31.0623 25.9836 30.8718 26.2988 30.894 26.4229C30.9268 26.6067 31.1478 26.8814 31.0085 26.994C30.8392 27.1309 31.2345 27.3026 31.2099 27.5213C31.1822 27.7702 31.405 28.5823 31.4524 28.7575C31.4745 28.8383 31.2996 28.9017 31.4307 29.0559L31.9765 30.5756C32.3435 31.5876 33.576 31.984 34.4632 31.3276L35.7797 30.3248L38.4694 28.4597L39.9594 27.1116L41.3439 25.9384L40.4906 29.7197C40.0638 31.6635 39.5708 33.6906 39.2012 35.6185L38.5846 35.5003C38.0232 35.3664 37.4372 35.3616 36.8803 35.1841L31.9303 34.2337C31.4729 34.1526 31.0109 34.0943 30.5552 34.0119L26.5497 33.2545C26.5678 33.2698 26.5462 33.2591 26.5503 33.2651L26.5288 33.2676C26.7613 32.1234 27.2249 29.9506 27.3343 28.903C27.3752 28.5113 27.4356 28.1207 27.4644 27.7251L27.622 26.7869C27.626 26.4105 27.5803 26.0334 27.688 25.6637L27.7378 25.0626C27.8181 24.6177 27.7162 24.6899 27.7608 24.2874C27.866 23.3365 28.0619 22.759 28.1041 21.6764L28.3284 20.1995C28.3642 20.1157 28.1505 19.8139 28.5108 19.5623C28.7387 19.4031 28.6286 19.2505 28.8495 19.2172C29.0956 19.18 28.8173 19.1082 29.2822 18.9897C29.1245 18.8756 29.1309 18.8768 28.9639 18.6824C28.8485 18.559 28.605 18.5197 28.4531 18.3605C28.3862 18.2901 27.8614 18.3259 27.6374 18.4044C26.0252 18.9706 25.906 21.0102 25.2382 22.2118C24.8686 22.877 24.0962 26.0981 23.8727 27.1201L23.517 28.9138C23.2112 30.0451 22.9936 31.2034 22.7468 32.3495C22.2537 34.6584 23.6393 36.7491 25.8647 37.1413L32.5029 38.2999C34.1065 38.5611 35.3458 38.7096 36.9959 39.0357C37.2216 39.0816 37.4556 39.091 37.6825 39.1305L38.8702 39.3385C40.8574 39.591 42.661 38.129 42.8875 36.1597L43.2557 33.7054C43.8605 30.5156 44.4232 27.505 44.9265 24.3081C45.0413 23.5793 45.1815 23.1549 45.0443 22.3681C45.1202 22.3025 44.9915 22.3414 45.1722 22.1792C45.2668 22.0943 45.1751 21.9381 45.6109 21.5859C45.8454 21.3963 45.8345 21.1393 46.0275 21.0185C46.451 20.7551 46.1322 20.5862 46.3577 20.2998ZM58.0254 35.9338C58.0343 35.3785 57.8595 35.5364 57.8386 35.5205C57.6858 35.4071 57.8094 35.2836 57.7472 35.3077C57.4446 35.4261 57.6961 35.3413 57.2734 35.0794C57.272 35.0786 57.1142 35.0307 57.1103 34.9524C57.1013 34.7664 57.0495 34.868 57.0046 34.8483L55.561 34.3473L54.6245 33.9425L53.8947 33.8746C53.7617 33.7934 52.2718 33.6589 52.1575 33.6201C52.0265 33.5456 51.642 33.4874 51.4371 33.6129L51.313 33.6102C51.2525 33.6666 51.1846 33.7743 51.1424 33.7281C51.1325 33.7151 51.1436 33.7893 51.0545 33.7767C51.0146 33.7711 50.9507 33.9408 50.7464 33.8932C50.5899 33.8569 50.6637 34.0477 50.334 34.0016C50.3002 33.9969 50.2302 34.2495 50.1114 34.2877L49.8623 34.726L49.8657 35.7066C49.9741 36.2531 50.1646 36.5029 50.1966 36.6596C50.2848 37.0921 50.9846 37.24 50.9898 37.2441L51.7424 37.5351L53.2938 37.5888C53.3227 37.5944 53.3579 37.5685 53.3893 37.569L53.7252 37.6008C53.8755 37.5587 53.8117 37.6335 53.8921 37.6118C54.4153 37.4703 54.5924 37.7106 55.4944 37.6661L55.9464 37.6532C55.9828 37.6183 55.9436 37.7349 56.0384 37.6721C56.0878 37.6395 56.5458 37.7365 56.7751 37.5605C58.251 36.4269 57.766 36.3749 57.9641 36.0327C57.9813 36.0129 57.9983 36.0135 58.0254 35.9338ZM70.4579 30.3512C70.3259 29.6414 69.7442 30.0138 69.7222 29.7189C69.7061 29.5026 69.3731 29.7437 69.2137 29.603C69.0361 29.4462 68.309 29.2045 68.1418 29.1459C68.0725 29.1218 68.1025 28.9367 67.9251 28.9642L66.1065 28.5067C65.3866 28.4113 63.0431 27.6642 62.2542 27.4354C61.8459 27.3169 60.6738 27.2615 60.42 27.1623L58.9179 26.8717C58.778 26.8502 58.634 26.8554 58.4943 26.8326L56.3527 26.4611C56.2078 26.411 56.0646 26.372 55.914 26.3586C55.5012 26.3244 55.3128 26.1787 54.6871 26.2727L54.4 26.2387C54.2776 26.2833 54.1483 26.3765 54.0395 26.3215C54.0336 26.3178 54.0253 26.3201 54.0205 26.3244C53.9559 26.3815 53.9018 26.3553 53.8483 26.3477C53.7434 26.3315 53.6465 26.4983 53.165 26.3923C52.8959 26.3331 52.71 26.5103 52.5156 26.4381C52.0977 26.2831 52.1285 26.6378 51.8031 26.6488C51.6562 26.6537 51.6698 26.8464 51.5526 26.8352C51.4692 26.8274 51.56 26.8692 51.3359 27.0426C51.4187 27.2291 51.3837 27.3267 51.4068 27.4034C51.5321 27.8168 51.3096 27.7352 51.7985 28.3536C52.2113 28.8757 52.4579 28.9427 52.5913 29.1528C52.7649 29.4264 53.6776 29.7514 54.0257 29.851L54.5694 29.9671L55.9592 30.3647C56.9415 30.5951 57.6521 30.6249 58.5808 30.7624C58.9519 30.8173 59.2019 30.7583 59.9595 30.9035C60.0303 30.9171 60.1058 30.8987 60.1763 30.9069C60.322 30.9257 60.4645 30.9556 60.6095 30.9782L61.6803 31.072C61.8267 31.0869 61.9694 31.1353 62.1226 31.1084L64.5072 31.4844L66.0982 31.6335C66.1615 31.606 66.1222 31.7181 66.3135 31.6788L67.3433 31.7739C68.2126 31.8547 69.0386 31.3853 69.8455 31.127C70.4591 30.9305 70.1632 30.8299 70.1801 30.7417C70.2061 30.606 70.2887 30.6303 70.2389 30.483L70.4579 30.3512Z" fill="#FFB236"/>
</svg>
