<svg width="94" height="97" viewBox="0 0 94 97" fill="none" xmlns="http://www.w3.org/2000/svg">
<path d="M5.34821 65.894C6.01703 67.5763 7.31064 69.1604 8.98493 70.0805C9.80835 70.5277 10.6864 70.8661 11.5969 71.0872C12.4743 71.3187 13.2556 71.4541 14.0944 71.6433C17.4102 72.3301 20.7692 73.1309 24.2399 73.7565L32.8899 75.3875C32.7728 75.6883 32.6115 76.0169 32.3796 76.3659C31.8913 77.0654 31.0818 77.7693 29.9252 78.0596C28.7598 78.385 27.2769 78.3067 25.4781 78.4813C24.5775 78.5822 23.5718 78.7918 22.5894 79.3358C22.104 79.6321 21.6136 79.9951 21.2228 80.5329C20.8183 81.1002 20.5955 81.777 20.584 82.4737C20.5691 83.9265 21.3943 85.0975 22.2955 85.9303C23.2288 86.7801 24.3023 87.3483 25.4366 87.8132C27.7158 88.7083 30.1478 89.0361 32.5377 89.4354C41.5405 90.878 38.2385 90.3614 47.5026 91.7834C49.936 92.1131 52.1974 92.5707 54.6129 92.7124C55.8069 92.7655 57.0394 92.7033 58.2377 92.3327C59.4174 91.9818 60.5889 91.2329 61.2759 90.1188C62.628 87.875 61.8527 85.1474 60.2337 83.8668C58.6173 82.6143 57.1253 82.3579 56.1491 81.6071C55.2584 81.0058 54.5026 80.2257 53.9297 79.3164C53.9157 79.2952 53.9084 79.275 53.8943 79.2538C60.5284 80.3852 65.7849 81.3955 72.5195 81.6571C74.2632 81.7287 76.1402 81.722 77.983 81.1817C79.8249 80.6812 81.5951 79.3936 82.5478 77.7104C83.5382 76.0746 83.8462 74.1783 84.071 72.633C85.0373 66.1607 85.5778 60.1271 86.6381 54.4764C87.5836 48.8063 88.3951 43.4795 88.7998 38.5683C89.0779 35.15 89.378 31.6675 89.0903 28.2785C89.0249 27.1911 88.6816 25.9502 87.8697 25.0999C87.0758 24.2333 86.0675 23.8276 85.1825 23.5325C84.2745 23.2409 83.4316 23.0562 82.6126 22.8614C80.9524 22.4821 79.4249 22.2999 78.0621 22.1499C75.3324 21.8769 73.2332 21.6833 71.8291 21.4524C71.5564 21.4123 71.3417 21.3552 71.1301 21.3002C70.9445 21.0801 70.7327 20.8836 70.4993 20.715C70.1687 19.1989 69.689 17.7292 68.9774 16.3487C67.7534 13.9715 65.9326 12.0415 63.9371 10.6287C61.9184 9.22103 59.7249 8.35468 57.6255 7.75567C53.3939 6.59072 49.507 6.3863 46.1694 6.02186C42.8511 5.72445 39.9664 5.09513 37.4872 5.24509C35.02 5.35013 33.1758 6.17081 32.1606 6.96269C31.134 7.76147 30.8095 8.37516 30.8607 8.41418C30.9345 8.48613 31.388 7.99096 32.4337 7.37351C33.4698 6.76153 35.1999 6.15374 37.5058 6.19719C39.8022 6.18896 42.6234 6.93847 46.0047 7.3789C49.3489 7.86909 53.1875 8.20814 57.1344 9.41086C58.4898 9.83517 59.8501 10.385 61.1488 11.1003C60.9218 11.5297 60.6765 12.1919 60.4281 13.0892C60.2096 13.9045 59.9586 14.8638 59.7777 15.9758C59.7091 16.5473 59.6457 17.2547 59.8396 18.0466C60.019 18.8311 60.4432 19.5665 60.9811 20.1479C62.0783 21.3069 63.386 21.8504 64.5605 22.1551C65.9425 22.4848 67.2061 22.5469 68.7009 22.6496C69.0736 25.6757 68.8408 28.9676 68.3167 32.2737C67.3724 37.8002 66.5832 43.6934 65.828 49.7495C64.386 60.8276 64.7954 57.807 63.9456 63.6771C63.8164 64.4074 63.7258 65.4501 63.6161 65.9512C63.5354 66.2177 63.5373 66.1713 63.5033 66.2007C63.4547 66.2469 63.185 66.3338 62.867 66.363C61.5096 66.5169 59.982 66.2671 58.3971 66.0068C52.7419 64.9978 53.6031 65.1541 44.5586 63.5544C41.5636 63.0121 38.5914 62.5356 35.7324 61.976C32.8845 61.3783 30.0807 60.6852 27.2834 60.1524C26.5588 60.0205 25.9451 59.8883 25.1291 59.7875C24.3522 59.7255 23.8986 59.656 23.7626 59.5035C23.2106 59.0932 23.3973 57.2874 23.4629 56.6115L24.2353 48.9177C24.6593 43.9489 25.3461 39.3565 25.8971 35.152C27.056 26.757 27.776 19.9022 28.5125 15.2342C28.8854 12.9148 29.444 11.192 29.9766 10.0905C30.5155 8.99352 30.937 8.48131 30.8607 8.41418C30.8142 8.36721 30.2581 8.77391 29.5492 9.85006C28.8442 10.9233 28.1073 12.7019 27.5797 15.0479C27.5368 15.237 27.4966 15.4543 27.4524 15.6519C27.0988 15.5631 26.6149 15.4543 25.9747 15.3024C24.5809 14.9935 22.5307 14.3899 19.7797 14.0183C18.4157 13.8543 16.8182 13.6423 15.0424 14.1408C14.166 14.3893 13.2631 14.9004 12.5822 15.6691C11.8954 16.4316 11.441 17.3736 11.1064 18.3356C10.4487 20.2528 10.0925 22.3617 9.79865 24.5495C9.5259 26.7353 9.11415 28.9691 8.70667 31.401C5.17072 52.5894 5.00571 53.451 4.67315 56.0156C4.34334 59.0934 4.01719 62.475 5.34821 65.894ZM53.4205 80.4232C52.9719 80.3761 52.52 80.3677 52.0698 80.398C50.6092 80.5136 49.3635 80.9219 49.2839 81.5991C49.203 82.2623 50.5347 82.9653 52.2505 82.8352C53.2753 82.7602 54.1102 82.4101 54.588 82.0053C54.8118 82.2405 55.0547 82.4752 55.327 82.6988C55.5041 82.8542 55.711 82.9846 55.9101 83.1208C55.6323 83.2497 55.3487 83.3933 55.0568 83.546C54.1766 84.0676 53.3023 84.5727 53.2529 85.2563C53.2471 85.588 53.5511 85.91 54.119 86.0473C54.6816 86.1856 55.4966 86.1009 56.2509 85.6778C56.9557 85.2835 57.4279 84.689 57.6302 84.1606C58.1656 84.4644 58.6829 84.774 59.0882 85.1584C59.4496 85.4788 59.7165 85.9181 59.8774 86.4053C59.2988 86.2473 58.6113 86.4953 57.9674 86.7967C57.2681 87.178 56.5492 87.6411 56.4403 88.3173C56.4123 88.6473 56.6509 88.9888 57.1518 89.1678C57.6423 89.3469 58.3835 89.3254 59.0728 88.9755C59.382 88.8182 59.6592 88.6045 59.89 88.3456C59.8161 88.5875 59.7079 88.8177 59.5687 89.029C58.7777 90.2225 56.8033 90.6612 54.739 90.466C52.6629 90.2915 50.2882 89.7819 47.8805 89.4197C39.0991 88.0128 41.9648 88.4608 32.9069 87.0721C30.4744 86.7027 28.1843 86.4209 26.2422 85.7108C24.3488 85.0568 22.6235 83.7235 22.6092 82.4724C22.5678 81.8944 22.9443 81.3597 23.5594 80.9517C24.1877 80.5596 24.9456 80.3276 25.7216 80.1919C27.2873 79.9227 28.932 79.8942 30.3498 79.358C31.7976 78.8404 32.7575 77.7767 33.2022 76.8419C33.4327 76.3663 33.5569 75.9176 33.6154 75.5247C49.1952 78.4606 47.5091 78.171 52.8377 79.0728C52.9052 79.2875 53.1715 79.9797 53.4205 80.4232ZM67.1202 70.0533C67.0395 69.4575 66.7975 68.8951 66.4203 68.4269C66.163 68.1003 65.8514 67.8205 65.4991 67.5997C65.7322 67.2813 65.8985 66.9191 65.988 66.5349C66.1646 65.6543 66.2017 65.1074 66.2914 64.4767C66.4166 64.6207 66.5486 64.7656 66.6895 64.9085C67.366 65.5803 68.0702 66.0711 68.6392 66.2242C68.3782 67.5422 67.9865 68.809 67.3088 69.8172C67.2551 69.9077 67.1813 69.9709 67.1202 70.0533ZM71.9866 41.3051C71.9397 41.6115 71.892 41.9107 71.8491 42.2246L71.5044 44.5639C71.3624 44.3062 71.2003 44.0601 71.0196 43.8279C70.431 43.0795 69.7472 42.5797 69.1594 42.3354C69.3355 40.9714 69.5181 39.6223 69.7037 38.2875C69.8993 38.6501 70.1284 39.0317 70.3876 39.4196C70.9286 40.2179 71.4868 40.9046 71.9866 41.3051ZM68.9735 63.885C68.8122 63.6337 68.6273 63.3983 68.4214 63.1819C67.8358 62.595 67.1906 62.2276 66.6401 62.067C67.0979 58.8547 67.0318 59.3313 67.0606 59.0984C67.2091 59.2822 67.366 59.4674 67.5334 59.6524C68.1146 60.2906 68.7086 60.8338 69.2296 61.1752C69.159 62.0877 69.0725 62.9908 68.9735 63.885ZM68.8229 44.9705C68.9132 45.0934 69.0035 45.2164 69.1003 45.3421C69.8037 46.2225 70.5346 46.946 71.1217 47.1729C70.6853 50.1321 70.6087 50.6435 70.462 51.6794C70.2637 51.3901 70.0433 51.1165 69.8027 50.8612C69.3517 50.3766 68.8281 49.965 68.2506 49.6411C68.4404 48.0644 68.6304 46.5086 68.8229 44.9705ZM69.3438 58.0124C68.6997 57.2987 67.9892 56.8035 67.3831 56.5426L67.9052 52.403L68.0294 52.5415C68.7592 53.3065 69.4989 53.9274 70.097 54.2183C69.9041 55.5329 69.7129 56.8703 69.5409 58.2522C69.4734 58.1726 69.4166 58.0911 69.3438 58.0124ZM72.4153 38.0571C71.6582 36.9277 70.6965 36.252 70.0166 36.0888C70.1871 34.9197 70.3603 33.7563 70.5432 32.6081C70.5885 32.3016 70.6205 31.9912 70.661 31.6821C70.8203 32.0322 71.0067 32.3986 71.2179 32.7722C71.779 33.7451 72.3932 34.5633 72.9302 34.9921C72.8261 36.0103 72.6671 37.0703 72.4855 38.1753C72.4603 38.1368 72.442 38.0976 72.417 38.0574L72.4153 38.0571ZM70.9218 29.2122C71.1311 26.6044 71.0986 24.0028 70.6581 21.5206C70.6899 21.5393 70.7115 21.5565 70.7469 21.574C71.066 22.1703 71.5286 23.0623 71.9822 24.2959C72.635 25.981 73.0974 28.354 73.1266 31.2252C72.4109 30.1091 71.5345 29.3737 70.9218 29.2122ZM67.8721 20.8804C66.2811 20.2987 64.0765 19.9001 62.7784 18.492C62.1455 17.7956 62.0021 17.183 62.0232 16.1417C62.0929 14.7042 62.2282 13.0759 62.0505 11.6473C62.3156 11.8161 62.5854 11.977 62.8426 12.1637C64.5917 13.466 66.1366 15.1735 67.1708 17.2634C67.7626 18.4541 68.1639 19.7455 68.4385 21.0954C68.2521 21.0176 68.0632 20.9459 67.8721 20.8804ZM63.8406 68.6671C63.9595 69.0664 64.16 69.499 64.4898 69.9237C64.986 70.5628 65.5631 70.9561 66.0615 71.0949C65.4175 71.5332 64.6719 71.8207 63.847 71.9697C63.35 72.0476 62.8334 72.062 62.3097 72.0544C62.4406 71.4492 61.8966 70.4217 61.134 69.385C60.9783 69.179 60.8162 68.9779 60.6478 68.7822C61.6334 68.8726 62.8851 68.9 63.8406 68.6671ZM58.244 68.4517C58.2613 69.5249 58.9908 70.9809 60.2273 71.898C59.0256 71.7484 57.4599 71.498 56.0098 71.2739C55.8502 70.0664 55.1974 68.5961 54.4014 67.7656C58.6176 68.5229 57.8603 68.3894 58.244 68.4517ZM38.4639 64.8701C39.9191 65.14 41.3899 65.4105 42.8727 65.6812C42.4228 66.5597 42.2354 67.7141 42.4302 68.8612C41.1649 68.6066 39.9407 68.3548 38.754 68.1071C39.0789 67.05 38.935 65.6837 38.4639 64.8701ZM44.774 66.0246L47.7757 66.568C47.379 66.9523 47.1286 67.761 47.2926 68.7025C47.3749 69.1828 47.5606 69.5646 47.7764 69.8852C46.7079 69.692 45.6483 69.4966 44.6272 69.2985C44.8041 68.359 44.8805 66.9798 44.774 66.0246ZM49.0802 66.8043L52.9737 67.5086C52.6531 68.0519 52.7564 69.2647 53.2888 70.5485C53.3359 70.6596 53.3879 70.7611 53.4377 70.8658C50.8434 70.4438 50.3772 70.355 49.4783 70.1964C49.7528 69.75 49.8011 67.7065 49.0802 66.8043ZM37.0551 64.6022C36.5551 65.1855 36.2803 66.4356 36.6395 67.6634C32.4013 66.7676 34.4885 67.2089 32.0086 66.73C32.0524 66.2148 32.0698 65.6977 32.0608 65.1807C32.0402 64.5695 32.0212 63.9811 31.9392 63.4991C35.9192 64.4298 35.1386 64.2339 37.0551 64.6022ZM24.8815 62.0014C25.4418 62.0752 26.1955 62.2323 26.8494 62.362C27.9502 62.5827 29.0709 62.8429 30.1966 63.1038C29.8603 63.6031 29.6017 64.3291 29.617 65.2235C29.6239 65.597 29.687 65.9306 29.773 66.24C29.1165 66.0852 28.4692 65.8934 27.8344 65.6656C26.1777 65.0825 24.9459 64.225 24.2535 63.2614C23.88 62.7936 23.6878 62.2965 23.4844 61.8721C23.4737 61.8289 23.4614 61.7958 23.4502 61.756C24.0134 61.9237 24.5345 61.9482 24.8815 62.0014ZM12.4053 18.7669C12.9095 16.9803 13.9434 15.6942 15.3972 15.2502C16.8284 14.7732 18.3486 14.8677 19.6797 14.9644C22.3681 15.1791 24.447 15.6294 25.8918 15.7868C26.5414 15.8657 27.0328 15.9029 27.3996 15.9175C26.4301 20.5463 25.4896 27.0088 24.1873 34.9158C23.5256 39.1189 22.7356 43.7181 22.2233 48.6976L21.3262 56.3913C21.2044 57.5246 21.091 58.7838 21.4575 59.862C21.6099 60.3254 21.9246 60.8379 22.3392 61.1838C22.4624 61.2841 22.5873 61.3396 22.711 61.414C22.7339 61.615 22.7617 61.8288 22.7842 62.0661C22.9316 62.5737 23.0845 63.1809 23.46 63.7824C24.1515 65.023 25.552 66.1697 27.317 66.927C29.0768 67.7303 31.1836 68.2248 33.4242 68.7502C37.8577 69.8976 43.2697 71.2833 49.2937 72.4511C52.3099 73.0469 55.4893 73.6071 58.7957 74.1175C60.4449 74.3651 62.2543 74.6529 64.2079 74.3721C66.1305 74.1022 68.27 72.9821 69.3409 71.1715C70.4916 69.4287 70.9148 67.5379 71.1947 65.7689C71.4676 63.9885 71.5566 62.256 71.6777 60.6186C71.966 57.4046 72.466 54.1658 72.8099 51.1542L73.8497 42.5417C74.1283 39.8545 74.5639 37.3074 74.674 34.939C74.9699 30.2069 74.1025 26.2839 72.8561 23.9172C72.5035 23.2074 72.0891 22.53 71.6178 21.8929C71.656 21.904 71.6796 21.9197 71.7211 21.9313C73.1262 22.3251 75.2429 22.6756 77.935 23.0918C79.2767 23.3113 80.7629 23.56 82.3304 23.9908C83.878 24.4602 85.7918 24.8125 86.8492 26.0053C87.3681 26.5976 87.5963 27.4138 87.6337 28.3791C87.8101 31.6801 87.4231 35.1198 87.0788 38.405C86.573 43.2296 85.673 48.4787 84.6422 54.1288C83.4936 59.7677 82.8523 65.9729 81.85 72.2734C81.6002 73.9033 81.3221 75.3105 80.5812 76.5272C79.8697 77.7225 78.7439 78.5459 77.3235 78.9414C75.9047 79.3492 74.3089 79.3747 72.6156 79.2901C67.1774 79.047 62.6539 78.3172 56.9597 77.3143C53.4 76.6594 49.7148 76.0996 46.074 75.3856L24.7157 71.4096C21.2596 70.8018 17.8925 70.0205 14.5795 69.3602C13.7682 69.1838 12.889 69.0317 12.1481 68.8367C11.4392 68.6709 10.7542 68.4157 10.1096 68.0773C8.87118 67.3989 7.96902 66.3235 7.42394 65.0205C6.3361 62.3766 6.50289 59.2097 6.80713 56.2649C7.15575 53.2904 7.67386 50.3177 8.07475 47.4881L10.411 31.6848C10.7558 29.2883 11.1291 26.9326 11.3404 24.7408C11.5724 22.5609 11.857 20.5467 12.4021 18.7647L12.4053 18.7669Z" fill="#433C8C"/>
<path d="M35.4965 52.5014C34.8638 51.8154 33.9612 51.4207 33.062 51.2638C32.1857 51.2057 31.332 51.2151 30.5215 51.5759C29.7195 51.9033 29.0225 52.4841 28.5918 53.1802C27.7338 54.6077 27.9731 56.2328 28.6357 57.1762C29.3149 58.1465 30.217 58.477 30.7764 58.5455C31.3566 58.5911 31.6614 58.4785 31.6889 58.3216C31.7994 57.9627 30.5835 57.5667 30.1547 56.3525C30.0477 56.0302 30.0202 55.6868 30.0746 55.3516C30.1291 55.0164 30.2637 54.6993 30.4671 54.4274C30.8977 53.8785 31.7474 53.5791 32.7273 53.6843C33.1522 53.7824 33.5097 53.9134 33.7714 54.1614C34.0172 54.4225 34.2109 54.7519 34.3059 55.1268C34.4577 55.888 34.2629 56.6497 33.8656 57.0946C33.0278 58.0401 31.699 57.9282 31.6889 58.3216C31.6567 58.4864 31.9035 58.6732 32.4491 58.866C32.9787 58.9819 33.9443 59.1126 34.9581 58.4313C35.9662 57.7874 36.6869 56.3631 36.5328 54.7926C36.4281 53.9414 36.0666 53.1422 35.4965 52.5014ZM32.6283 45.1554C33.2068 45.2008 33.5116 45.0881 33.5394 44.9296C33.6516 44.5709 32.4337 44.1763 32.0049 42.9621C31.8977 42.6395 31.8701 42.2958 31.9245 41.9603C31.979 41.6248 32.1139 41.3074 32.3176 41.0353C32.748 40.4881 33.5993 40.189 34.5792 40.2942C35.0044 40.3906 35.3602 40.5214 35.6236 40.7696C35.8691 41.0324 36.0611 41.3615 36.1575 41.7383C36.3098 42.4961 36.1151 43.2579 35.7178 43.7028C34.8797 44.65 33.5514 44.5347 33.5394 44.9296C33.5089 45.0946 33.7557 45.2814 34.301 45.4759C34.8306 45.5917 35.7962 45.7224 36.81 45.0412C37.8165 44.397 38.5391 42.9713 38.383 41.4022C38.2791 40.5507 37.9184 39.751 37.3487 39.1096C36.7159 38.4236 35.8134 38.0289 34.9139 37.8737C34.0379 37.8139 33.184 37.825 32.3737 38.184C31.5717 38.5115 30.8746 39.0923 30.4437 39.7901C29.5857 41.2176 29.8253 42.841 30.4859 43.7859C31.1669 44.7564 32.0708 45.0855 32.6283 45.1554ZM33.5927 32.3117C33.7955 32.4692 34.2729 32.733 34.6769 32.7758C35.5526 32.962 36.5405 32.2128 36.8211 31.9301L37.9779 30.9157C41.104 28.083 43.2694 25.3819 42.8178 24.8813C42.3645 24.3805 39.4623 26.2723 36.3379 29.1053L35.2134 30.1576C34.7934 30.547 34.9315 30.4487 34.8708 30.5052C34.8229 30.5013 34.8879 30.5632 34.7296 30.4887L34.2378 30.228C32.6687 29.3448 31.656 28.4031 31.2919 28.6539C31.0222 28.8308 31.2285 29.7788 32.1843 30.9681C32.5982 31.4767 33.1072 31.9532 33.5927 32.3117ZM34.5542 18.8768C34.9045 19.1904 35.3544 19.4759 35.9461 19.6272C36.5118 19.7902 37.3459 19.7396 37.9946 19.361C38.6214 18.9894 38.9177 18.6953 39.3389 18.3771L40.5615 17.3624C43.8715 14.5284 46.1994 11.8175 45.762 11.3036C45.3227 10.791 42.2835 12.6722 38.9736 15.5062L37.7816 16.5585C37.4082 16.8928 36.9971 17.3026 36.8258 17.4375C36.6101 17.6919 36.0362 17.6837 35.5563 17.4698C34.5731 16.9795 33.8368 16.1893 33.5548 16.4354C33.4156 16.5301 33.3985 16.7994 33.5192 17.2215C33.6481 17.6345 33.8869 18.2462 34.5542 18.8768ZM50.7234 18.7921C53.4364 19.208 55.7179 19.0035 55.8201 18.3367C55.9224 17.6699 53.805 16.7927 51.0937 16.377C48.3807 15.9611 46.0992 16.1656 45.9973 16.8307C45.895 17.4975 48.0105 18.3762 50.7234 18.7921ZM44.1307 31.6269C44.0285 32.2937 48.2544 33.4959 53.572 34.3111C58.8896 35.1264 63.2833 35.2457 63.3855 34.5788C63.4877 33.912 59.2599 32.7113 53.9423 31.896C48.6247 31.0808 44.233 30.9601 44.1307 31.6269ZM42.2476 42.5993C42.1454 43.2661 46.5913 44.502 52.1797 45.3587C57.7681 46.2155 62.3818 46.3685 62.484 45.7017C62.5862 45.0349 58.1384 43.8004 52.55 42.9437C46.9616 42.0869 42.3496 41.9341 42.2476 42.5993ZM41.0733 55.4905C40.9711 56.1573 45.9044 57.4679 52.0885 58.416C58.2743 59.3644 63.3703 59.5913 63.4726 58.9245C63.5748 58.2577 58.6446 56.9493 52.4588 56.0009C46.2746 55.0528 41.1753 54.8253 41.0733 55.4905Z" fill="#433C8C"/>
</svg>
