<svg width="144" height="144" viewBox="0 0 144 144" fill="none" xmlns="http://www.w3.org/2000/svg">
<path fill-rule="evenodd" clip-rule="evenodd" d="M65.4867 49.6903C65.5479 49.9046 65.3058 49.8796 65.3137 50.3151C65.3173 50.5098 65.0022 50.5922 64.8212 50.9335C64.6028 51.3452 64.1177 51.6734 64.1022 51.8254C64.082 52.0246 63.9192 52.0016 63.8873 52.1794C63.8848 52.1898 63.8805 52.1972 63.8759 52.2009C63.7436 52.2749 63.709 52.4492 63.6438 52.5906L63.3818 52.8505C63.1214 53.2667 62.2635 54.0832 61.87 54.3653C61.301 54.828 58.3851 57.6707 57.9884 57.9435L56.274 59.5814L53.4361 61.7833C52.6216 62.4255 51.4172 62.067 51.0593 61.1196L49.4597 57.3025C49.3138 57.1276 49.4738 57.0512 49.44 56.9655C49.4079 56.8703 49.3644 56.7771 49.3541 56.6714C49.354 56.6709 49.0426 55.8931 49.0315 55.5471C49.0235 55.2937 48.6263 55.0852 48.7664 54.9385C48.9197 54.7783 48.475 54.3794 48.5975 54.0448L48.7141 53.7744C48.8169 53.7765 48.8606 53.8522 48.9603 53.9299C49.0111 53.7903 49.0691 53.8932 49.1811 53.8355C49.2583 53.7958 49.1292 53.4332 49.6863 53.968C50.4731 54.7229 51.3117 55.2763 51.8624 56.2505L52.4983 57.4065C52.6606 57.5887 52.5515 57.6091 52.6133 57.6616L52.9032 58.1601C53.4309 57.672 53.6948 57.4298 54.1742 56.8595C54.3155 56.6914 54.2926 56.8056 54.5374 56.5084L56.0087 55.0791L56.6905 54.3416L59.1506 52.0072L60.5984 50.8632L61.1344 50.3974C61.4801 50.1256 62.4918 49.3929 62.8547 49.3619C63.2094 49.3316 63.3774 49.1342 63.8056 49.0691C64.8948 48.9033 64.4582 48.8198 65.5271 49.2179C65.4819 49.5379 65.5922 49.4555 65.5092 49.5347C65.4771 49.568 65.4632 49.6093 65.4867 49.6903ZM70.4934 106.293C70.5245 106.409 70.3811 106.441 70.321 106.471C70.3397 106.629 70.2961 106.55 70.2561 106.703C70.2354 106.783 70.4516 106.881 69.9708 107.049C69.3453 107.266 68.7055 107.687 68.0228 107.61L67.2507 107.512C67.0986 107.547 67.1463 107.446 67.0914 107.47L65.8977 107.319L64.1728 106.963C63.7046 106.897 63.6348 106.945 62.9834 106.819C62.8762 106.797 62.7687 106.77 62.6601 106.75C62.6088 106.742 62.5476 106.758 62.4974 106.746C61.9839 106.616 61.424 106.612 60.7805 106.5C59.8606 106.34 59.5676 106.238 58.7345 105.954L58.4529 105.829C58.0951 105.719 58.1344 105.784 57.6897 105.554C56.8217 105.106 57.2658 105.214 56.83 104.808C56.6732 104.662 56.2677 104.001 56.2985 103.803L56.2633 103.161C56.4509 103.001 56.3731 102.97 56.4449 102.976C56.5317 102.983 56.5397 102.808 56.6479 102.807C56.8983 102.804 56.8805 102.48 57.2029 102.626C57.3451 102.69 57.5088 102.537 57.7005 102.589C58.0845 102.692 58.1322 102.537 58.221 102.556C58.2614 102.564 58.2995 102.587 58.3529 102.537C58.3589 102.533 58.3658 102.529 58.3698 102.533C58.4461 102.587 58.5507 102.502 58.6462 102.464L58.8625 102.496C59.1653 102.427 59.8339 102.567 60.1096 102.686C60.5068 102.815 62.8919 103.237 63.1393 103.361C63.3634 103.473 64.0581 103.445 64.9336 103.784L68.1339 104.909L68.686 105.073C68.8225 105.048 68.7851 105.214 68.8371 105.236C68.9511 105.288 69.5044 105.533 69.6145 105.664C69.7206 105.789 69.9906 105.579 69.9877 105.772C69.9851 105.93 70.2369 105.903 70.351 105.969L70.4934 106.293ZM76.3607 99.8596C76.4052 99.9724 76.2523 100 76.1525 100.03C76.1937 100.177 76.1227 100.118 76.0868 100.261C76.0662 100.343 76.3499 100.448 75.7477 100.592C74.9236 100.79 74.1678 101.146 73.314 101.034L72.3287 100.882C72.1394 100.908 72.1931 100.81 72.1238 100.829L70.5991 100.596L68.3855 100.119L67.4878 100.016L66.456 99.8024C66.3875 99.7903 66.3156 99.8017 66.2494 99.7853C65.5441 99.6106 65.5251 99.6667 64.9275 99.5742C63.904 99.4158 62.8545 99.1956 61.8668 98.8829C61.8118 98.8656 61.7575 98.8303 61.7017 98.8104C61.5327 98.7527 61.2338 98.7067 61.0982 98.6004L60.5801 98.4612C60.2533 98.3501 59.3835 97.9962 59.2276 97.7373C59.122 97.5618 58.6602 97.2778 58.3028 96.6855C58.1211 96.3843 58.2133 95.9943 58.1033 95.7297C58.3251 95.5773 58.2387 95.5374 58.3192 95.553C58.4261 95.5738 58.4299 95.3907 58.569 95.3955C58.8945 95.4063 58.8508 95.0755 59.2598 95.2478C59.4393 95.3234 59.6393 95.1762 59.8875 95.2433C60.3681 95.373 60.4381 95.2211 60.5484 95.2458C60.5992 95.2559 60.6487 95.2815 60.7148 95.2349C60.7196 95.23 60.7273 95.2283 60.7328 95.2309C60.8318 95.2906 60.9609 95.2098 61.0816 95.1779L61.3556 95.2263C61.7364 95.1786 62.6116 95.3647 62.9503 95.5001C63.4733 95.6637 66.5105 96.2461 66.838 96.3902C67.0741 96.4941 68.237 96.6276 68.5905 96.7514L70.6107 97.4661L73.9869 98.4986C74.1696 98.4872 74.1172 98.6466 74.189 98.6758C74.3597 98.7463 75.0235 98.9977 75.2008 99.1602C75.3508 99.2978 75.6784 99.0969 75.6858 99.2961C75.6918 99.4552 75.9964 99.4428 76.1561 99.5205C76.2483 99.5653 76.311 99.7422 76.3607 99.8596ZM78.2008 92.4286C78.245 92.5407 78.0913 92.5693 77.9926 92.5988C78.0433 92.7091 77.954 92.7203 77.9269 92.8298C77.9069 92.9104 78.189 93.0175 77.5878 93.1613C76.7967 93.3508 75.9811 93.7272 75.1546 93.6011L74.1688 93.4516C73.989 93.4768 74.0254 93.3786 73.9645 93.3961L72.4392 93.165C71.3834 93.0015 70.3897 92.6354 69.4215 92.5984C69.2449 92.5916 69.3578 92.5384 69.0458 92.5248L67.5246 92.233L66.7678 92.1426C65.6358 91.9797 64.2748 91.6604 63.2645 91.3006L62.8978 91.1565C62.4557 91.0437 61.3102 90.6946 61.0675 90.307C60.9454 90.1119 60.5006 89.8484 60.1428 89.255C59.9632 88.9572 60.052 88.5674 59.9439 88.297C60.1644 88.1527 60.0748 88.1079 60.1598 88.1202C60.2764 88.1372 60.2665 87.9601 60.409 87.965C60.7354 87.9761 60.6897 87.6446 61.0998 87.8174C61.2801 87.8934 61.4742 87.743 61.7275 87.8128C62.1877 87.9397 62.2854 87.7924 62.389 87.813C62.4397 87.8231 62.4887 87.8511 62.5547 87.8044C62.5596 87.7996 62.5673 87.7978 62.5727 87.8004C62.6718 87.8599 62.8009 87.7793 62.9216 87.7475L63.1956 87.7958C63.666 87.739 64.0773 87.9072 64.3741 87.9496C64.5179 87.9706 64.6549 88.0143 64.7903 88.0697C65.3162 88.2364 68.3435 88.8124 68.678 88.9597C68.9145 89.0639 70.0584 89.1909 70.4305 89.3209L72.4507 90.0356L75.8274 91.0658C76.0004 91.0515 75.9627 91.2197 76.029 91.2453C76.1741 91.3014 76.8786 91.5775 77.0411 91.7286C77.1885 91.8658 77.5178 91.6677 77.5257 91.8656C77.5322 92.0233 77.8322 92.0125 77.9961 92.0901C78.088 92.133 78.151 92.3115 78.2008 92.4286ZM50.5183 90.3035L50.3382 90.6637L50.1377 90.6311C50.0153 90.76 50.0563 90.672 49.9276 90.7512C49.8584 90.7939 49.9337 90.9973 49.4905 90.8078C48.9248 90.5659 48.1983 90.4445 47.792 89.9498L47.3466 89.39C47.2283 89.3257 47.3195 89.2727 47.2724 89.2588L46.5844 88.3916L46.0015 87.5298L44.7167 88.0989L42.9679 89.005C42.8931 89.1097 42.8108 88.9687 42.7585 88.9847C42.618 89.0299 42.1549 89.2179 41.9671 89.196C41.8163 89.1783 41.7832 89.5066 41.6541 89.3682C41.5465 89.2525 41.4032 89.4395 41.2864 89.4685C41.1999 89.4898 40.9438 89.3185 40.9259 89.2895L40.9585 89.0892C40.8285 88.9643 40.9222 89.017 40.8376 88.8774C40.795 88.807 40.5927 88.8858 40.783 88.4423C41.0202 87.8896 41.1512 87.133 41.6398 86.7435L42.1996 86.2981C42.2671 86.1757 42.3159 86.2741 42.3309 86.2226L43.1989 85.5361L44.0598 84.9518C43.3658 84.0275 43.1171 83.6377 42.6948 82.6046C42.5798 82.3522 42.5751 82.5156 42.3849 81.928C42.1274 81.1327 42.346 81.3468 42.3463 80.8655C42.3463 80.6542 42.5473 79.9585 42.713 79.8304L43.1508 79.3643C43.3609 79.3699 43.3693 79.3104 43.4033 79.3529C43.4503 79.4114 43.5871 79.3009 43.6604 79.367C43.8227 79.5127 44.0584 79.2992 44.1611 79.5965C44.2086 79.7337 44.4269 79.7257 44.5174 79.8894C44.6839 80.1903 44.8481 80.1366 44.8881 80.1981C44.9097 80.2326 44.9173 80.2707 44.9886 80.2713C44.9972 80.271 45.0018 80.2722 45.0018 80.277C45.016 80.3618 45.1467 80.3722 45.2401 80.4063L45.3592 80.5666C45.6094 80.7146 45.9628 81.2492 46.0528 81.4945L46.9018 82.8134C47.619 82.2861 47.9421 82.1075 48.7178 81.7435L48.9844 81.6459C49.2711 81.5052 49.1485 81.4918 49.6624 81.3351C50.515 81.075 50.173 81.2977 50.7247 81.2976C50.9337 81.2976 51.6217 81.4925 51.7598 81.6631L52.2262 82.0998C52.2187 82.3216 52.2812 82.3205 52.237 82.3546C52.1758 82.4017 52.2923 82.535 52.2229 82.6117C52.0677 82.7831 52.3 83.0026 51.9929 83.1098C51.863 83.1552 51.8609 83.3788 51.7008 83.4676C51.4029 83.6326 51.4522 83.7989 51.3907 83.8391C51.3601 83.8595 51.3192 83.8686 51.3186 83.9399C51.3194 83.9462 51.318 83.9519 51.3129 83.9531C51.2281 83.9674 51.2177 84.098 51.1839 84.1903L51.0233 84.3105C50.8873 84.5506 50.3363 84.916 50.0954 85.0041L48.7177 85.899L49.8004 88.1581L50.0539 88.622C50.1603 88.6978 50.0173 88.7815 50.0348 88.8318C50.0767 88.9511 50.2653 89.4512 50.246 89.6234C50.2288 89.7762 50.5577 89.808 50.4179 89.9373C50.3047 90.0413 50.4891 90.1908 50.5183 90.3035ZM78.2624 74.6946C78.2349 74.7072 78.2066 74.7194 78.1803 74.7323C78.2044 74.8766 78.1546 74.8147 78.1157 74.9636C78.0946 75.0442 78.311 75.1411 77.8305 75.3085C77.1996 75.5284 76.5698 75.9391 75.8822 75.8705L75.1105 75.7716C74.9583 75.8068 75.006 75.7053 74.9511 75.7297L73.7574 75.5783C72.9498 75.4741 72.1203 75.1558 71.3969 75.1768C71.2627 75.1808 71.3527 75.1175 71.1058 75.1242L69.9173 74.9123L68.6402 74.7597C67.7675 74.6121 67.39 74.4841 66.5942 74.2144L66.3126 74.089C65.9564 74.0007 65.0603 73.6959 64.908 73.3448C64.832 73.1697 64.4875 72.9341 64.2322 72.3547C64.0993 72.0529 64.1987 71.6788 64.1227 71.4213C64.3083 71.2589 64.2359 71.2305 64.3043 71.236C64.3908 71.2431 64.3985 71.0697 64.5073 71.067C64.7554 71.0608 64.7458 70.7399 65.0623 70.8856C65.2083 70.9529 65.3612 70.7938 65.5599 70.8489C65.9332 70.9523 65.9957 70.7983 66.0804 70.8166C66.1208 70.8241 66.1589 70.847 66.212 70.7984C66.2183 70.7926 66.2249 70.7906 66.2292 70.7929C66.3055 70.847 66.4103 70.7614 66.5056 70.7244L66.7219 70.7561C67.0168 70.6872 67.717 70.8319 67.9695 70.944C68.386 71.0816 70.7297 71.4911 70.9981 71.6237C71.2154 71.731 71.9446 71.7112 72.7929 72.0438C73.4265 72.2924 74.3971 72.6956 75.0422 72.8553L76.5453 73.3331C76.6813 73.3094 76.6452 73.4735 76.6962 73.4976C76.8346 73.563 77.3494 73.7765 77.4736 73.9252C77.5771 74.0491 77.8501 73.841 77.847 74.0323C77.8443 74.1884 78.0916 74.1646 78.2101 74.2301C78.2109 74.2298 78.493 74.5812 78.2624 74.6946ZM84.2203 68.1197C84.2645 68.2318 84.1112 68.2602 84.0121 68.2899C84.0624 68.3991 83.9734 68.413 83.9464 68.5209C83.9258 68.6033 84.2092 68.7085 83.6073 68.8526C82.8123 69.0431 82.0041 69.4123 81.1736 69.2945L80.1883 69.1426C79.9922 69.1641 80.0529 69.07 79.9834 69.0895L78.4587 68.8561L76.2451 68.3794L75.3474 68.2758L74.3156 68.0626C74.2471 68.0505 74.175 68.063 74.1088 68.0466L72.7869 67.8355C72.0824 67.7641 70.4381 67.3757 69.7262 67.1442C69.6714 67.1258 69.6177 67.0882 69.5613 67.0705C69.3959 67.0186 69.0844 66.961 68.9578 66.8606L68.4397 66.7213C68.1132 66.6103 67.243 66.256 67.0872 65.9974C66.9803 65.8197 66.5204 65.5393 66.1624 64.9457C65.982 64.6464 66.0718 64.2583 65.9635 63.9876C66.1872 63.8414 66.0936 63.7981 66.1788 63.8131C66.2855 63.832 66.2917 63.6509 66.4286 63.6556C66.7549 63.6667 66.7101 63.3359 67.1194 63.508C67.3011 63.5843 67.4945 63.4365 67.7471 63.5034C68.2457 63.6354 68.2957 63.4786 68.4086 63.5036C68.4588 63.516 68.5084 63.5417 68.5744 63.495C68.5792 63.4902 68.5869 63.4884 68.5924 63.491C68.6914 63.5508 68.8206 63.4699 68.9413 63.4381L69.2152 63.4865C69.6017 63.4395 70.462 63.6226 70.8097 63.7612C71.3258 63.9223 74.3752 64.507 74.6977 64.6501L76.4505 65.0102L79.2057 65.9711L81.8464 66.7582C82.0289 66.7467 81.9764 66.9054 82.0485 66.9354C82.227 67.0117 82.8869 67.2571 83.0606 67.4187C83.2064 67.5545 83.538 67.3582 83.5453 67.5557C83.5513 67.7148 83.8552 67.7023 84.0156 67.7802C84.1079 67.8254 84.1706 68.0026 84.2203 68.1197ZM86.0604 60.689C86.1048 60.8014 85.9502 60.8297 85.8522 60.8592C85.9023 60.9698 85.8134 60.9816 85.7865 61.0902C85.7664 61.171 86.0488 61.2777 85.4473 61.4219C84.6552 61.6116 83.8414 61.9878 83.0142 61.8615L82.0284 61.7119C81.8493 61.7371 81.8845 61.6389 81.824 61.6565L80.299 61.4242L78.0207 60.9352C77.8707 60.9488 77.7367 60.8977 77.5958 60.8749L76.5693 60.7236C76.4312 60.6943 76.2936 60.6578 76.1558 60.6321C76.0873 60.62 76.0152 60.6326 75.949 60.6162C75.2452 60.4419 74.9894 60.4773 74.6276 60.4028C73.7178 60.2156 73.0827 60.1527 72.1215 59.8792L70.798 59.4301L70.2799 59.2909C69.95 59.1788 69.0902 58.8268 68.9274 58.567C68.8049 58.3716 68.3614 58.1098 68.0026 57.5152C67.823 57.2174 67.9107 56.83 67.8037 56.5572C68.0224 56.4142 67.9373 56.3671 68.0196 56.3804C68.1353 56.3991 68.1261 56.2205 68.2688 56.2252C68.5927 56.2361 68.5524 55.9057 68.9597 56.0776C69.1417 56.1543 69.3322 56.0028 69.5873 56.073C70.0487 56.2001 70.1483 56.0522 70.2488 56.0732C70.2993 56.0845 70.3486 56.1113 70.4143 56.0658C70.4194 56.0598 70.4272 56.058 70.4323 56.0617C70.5322 56.1181 70.6605 56.0407 70.7815 56.0077L71.0554 56.056C71.4386 56.0097 72.3132 56.1939 72.6502 56.3296C73.1699 56.4931 76.214 57.0757 76.5379 57.2196C76.7769 57.3257 77.9069 57.4485 78.2904 57.5809C79.1119 57.8646 81.1815 58.6372 81.9556 58.7963L83.6871 59.3257C83.8608 59.3126 83.8209 59.4785 83.8887 59.5052C84.0453 59.5678 84.7337 59.8334 84.9008 59.9885C85.0498 60.127 85.3775 59.9269 85.3854 60.1256C85.3918 60.2852 85.6958 60.2722 85.8557 60.35C85.948 60.3947 86.0107 60.5716 86.0604 60.689ZM111.871 51.6238C112.014 51.0747 112.125 50.6583 112.093 50.1032C112.006 48.6317 110.9 47.2854 109.487 46.7872L107.391 46.0814L106.424 50.156C106.279 50.7628 106.112 51.6987 105.932 52.1962C105.897 52.3 105.87 52.4063 105.851 52.5142C105.712 53.356 105.461 54.1809 105.276 55.0162C105.108 55.7646 104.925 56.5118 104.747 57.2577L103.466 62.7099L98.9741 81.1661L98.4188 83.5698C98.3086 84.0166 97.7207 84.7531 97.4299 85.1802C96.9425 85.8959 96.1587 87.1856 95.698 87.7943C95.248 88.3931 94.8423 89.0135 94.4313 89.6401C93.2811 91.3947 91.9805 93.1674 90.8105 94.9251C89.9846 96.1659 88.0867 95.6872 87.8831 94.2777L87.7127 93.0965C87.2268 89.0754 86.6457 85.1655 86.1318 81.1783C86.106 80.9774 86.1163 80.7735 86.1622 80.5763L89.6885 65.954L91.9276 57.2103C92.3055 55.7636 92.7468 53.7822 93.1707 52.4297C93.203 52.3285 93.2301 52.219 93.2565 52.1127C93.563 50.875 93.8606 49.6338 94.1814 48.4021L95.6637 42.8616C95.5769 42.8547 95.4922 42.8495 95.4169 42.8501C95.2158 42.8523 93.9645 42.5002 93.2749 42.4566C92.8132 42.4271 92.2166 42.3013 91.6028 42.1575C90.0252 41.79 88.4894 41.4787 87.0378 41.2719C86.7032 41.2231 86.3044 41.1509 85.9413 41.061C84.6296 40.7398 83.3189 40.4393 81.9997 40.0995C80.7442 39.7765 79.4515 39.4867 78.1919 39.2147C74.8623 38.4977 71.4845 37.6673 68.1558 36.8652L65.3802 36.2311C63.8339 35.97 62.2152 35.4564 60.8559 35.2355C60.7765 35.2231 60.6857 35.2031 60.6046 35.183C58.9286 34.7327 57.3158 34.4437 55.6831 34.1024C54.7109 33.8981 53.7458 33.6312 52.7755 33.3994L50.9295 32.9702C49.905 32.8099 48.8827 33.1298 48.184 33.9033C47.5694 34.5838 47.4911 35.1659 47.288 35.9997L43.3633 51.8296C43.0812 52.9244 42.8324 54.0371 42.5599 55.1378C41.1029 61.0361 39.6495 66.9351 38.1926 72.8334C37.3328 76.3153 36.4739 79.7938 35.6129 83.2754C35.1223 85.3109 34.631 87.3487 34.1384 89.3862L29.8004 106.934C29.5936 107.768 29.3868 108.475 29.7267 109.336C30.1245 110.343 30.7133 110.894 31.7633 111.168L36.039 112.204C39.0556 112.979 42.1621 113.683 45.1969 114.42C54.418 116.659 63.5508 119.017 72.7457 121.352L89.6254 125.647C90.5301 125.872 91.275 125.802 92.1168 125.315C92.9229 124.848 93.3338 124.1 93.5466 123.24L99.4375 99.7394L103.916 81.9536C104.283 80.5217 104.523 79.1228 105.031 77.7607C105.107 77.5589 105.184 77.2895 105.246 77.0467C105.541 75.9081 105.822 74.7644 106.137 73.6332C106.332 72.9387 106.49 72.1986 106.673 71.4841C107.142 69.6686 107.607 67.846 108.09 66.0401C108.574 64.2405 109.034 62.4202 109.545 60.6334C109.811 59.7019 110.036 58.6949 110.269 57.7212C110.456 56.9246 111.129 53.7081 111.419 53.1308C111.578 52.8161 111.761 52.0426 111.871 51.6238ZM99.9691 37.4212C100.688 37.7307 101.08 37.9876 101.935 38.0887C102.421 38.1459 102.713 38.1032 103.051 38.1868C103.084 38.195 103.123 38.1743 103.158 38.1779L103.536 38.2402C103.708 38.2157 103.626 38.2815 103.726 38.2665C104.253 38.1879 105.012 38.5196 105.861 38.5116C105.92 38.5068 105.962 38.5622 106.031 38.5099C106.067 38.4856 106.033 38.5833 106.134 38.5402L106.693 38.5769L105.984 41.0647C105.663 41.6886 105.572 42.4549 105.385 43.1667L101.681 57.6602C101.226 59.4939 100.734 61.3182 100.292 63.1548C99.508 66.3681 98.5836 69.6966 97.7511 72.912L95.6231 81.0749L94.8024 80.7531L93.7156 80.6002L93.0608 80.5484C93.0287 80.5405 92.9895 80.5623 92.9534 80.5558L92.577 80.4954C92.4097 80.5189 92.4861 80.4537 92.3862 80.4677C91.8585 80.5407 91.079 80.2118 90.2512 80.2225C90.1931 80.2275 90.1509 80.1721 90.0799 80.2238C90.0422 80.2536 90.0819 80.1482 89.9788 80.1963C89.9636 80.2021 89.9468 80.2027 89.9312 80.1979C91.291 74.4219 92.7444 68.6166 94.1668 62.8539C94.3039 62.3002 94.4164 61.7378 94.5638 61.1866C94.8516 60.103 95.1328 59.0214 95.3871 57.9308C95.8773 55.8334 96.4516 53.7544 96.8937 51.646L97.6133 48.3779C97.7248 47.8881 97.8734 47.4061 97.958 46.9121C98.1017 46.0824 98.1939 45.2594 98.4361 44.419C98.4482 44.3797 98.4553 44.3316 98.4591 44.2915C98.5269 43.5701 98.8317 42.8234 98.9038 42.001C98.9525 41.446 99.7661 38.1781 99.9399 37.4054C99.9504 37.4092 99.9593 37.4163 99.9691 37.4212ZM91.1875 88.2901C91.0215 88.5353 90.8568 88.7813 90.6933 89.0281L89.9716 83.1138L90.4877 83.3106L91.5384 83.7804L92.3546 83.9147L93.9699 84.2626L91.1875 88.2901ZM96.4272 124.04L101.069 104.854C101.458 103.2 101.912 101.549 102.255 99.8916C102.298 99.6794 102.35 99.4691 102.411 99.2614C102.773 98.0728 103.09 96.4912 103.402 95.2072L107.215 79.4454C108.611 73.6055 109.898 67.4734 111.136 61.5872L113.141 51.947L113.297 51.101C113.574 49.1202 112.478 47.0697 110.678 46.1866C109.957 45.8166 109.166 45.7421 108.424 45.603C108.244 45.5718 107.991 45.5176 108.048 45.591C108.383 45.7394 108.97 45.8412 109.224 45.9927C109.11 46.0031 109 46.0135 108.89 46.0224C108.786 46.0139 108.64 45.9886 108.599 45.9978C108.482 46.0265 108.915 46.1488 109.058 46.2012L107.441 45.8675C107.983 43.5465 108.561 41.2167 108.998 38.8756C109.152 38.0478 110.415 31.3336 110.423 30.8051C110.441 29.5898 109.646 28.6154 108.467 28.3707L104.241 27.6793C103.636 27.6172 104.531 27.8747 104.622 27.9676C104.211 28.1108 104.118 27.994 104.509 28.187C104.189 28.1339 103.35 27.9699 103.086 27.9957C103.969 28.5488 106.075 29.1584 107.135 29.3473C107.372 29.3885 108.193 29.61 108.388 29.7314C108.62 29.8762 108.431 29.8517 108.646 30.165C108.864 30.4818 108.815 30.7081 108.746 31.0149C108.371 32.6799 107.827 34.4151 107.352 36.0708C107.329 35.9874 107.284 36.0502 107.239 36.0283L105.626 35.424L104.575 34.9554L103.759 34.82C103.618 34.7331 101.929 34.4545 101.81 34.4101C101.662 34.3254 101.21 34.236 101.001 34.331L100.863 34.3163C100.796 34.3615 100.718 34.4524 100.672 34.4082C100.656 34.3922 100.681 34.4602 100.574 34.442C100.558 34.4406 100.545 34.441 100.53 34.4508C100.714 33.6085 101.258 31.6939 101.286 31.0666C101.3 30.7475 101.459 29.2138 101.607 28.8509C101.862 28.221 101.843 28.1242 102.328 27.9217C102.54 27.8332 102.565 27.6422 103.163 27.684L102.232 27.3977C101.961 27.4132 101.3 27.5115 101.133 27.6357C100.635 28.0075 100.457 28.2818 100.241 28.8266C99.673 30.2573 98.6475 33.1971 98.2 34.6469C97.9241 35.5409 97.6544 36.4386 97.3243 37.2875C96.8801 38.4187 96.0917 41.2808 95.7577 42.5078C95.0716 42.177 94.2008 41.9154 93.7785 41.6129L91.1181 40.6804L84.2193 38.5806C82.6514 38.0953 81.0412 37.6336 79.415 37.1836C77.6257 36.6872 75.8293 36.195 74.1175 35.65C73.6064 35.487 73.0695 35.3263 72.5296 35.1768L60.0498 31.8563C57.3468 31.159 54.6445 30.4645 51.938 29.7664C48.9604 28.9554 45.6284 30.5732 44.4527 33.4459C44.1116 34.2793 44.1328 34.4571 43.9109 35.247C43.0628 38.2682 42.2799 41.6714 41.4952 44.7579C38.9748 54.5875 36.5645 64.3849 34.1542 74.2425L29.2485 94.3569L26.2779 106.774C25.6722 109.243 26.5892 111.927 28.6709 113.436C29.5855 114.098 30.2715 114.328 31.284 114.578C32.2979 114.829 33.3195 115.05 34.336 115.3L45.7993 118.106C47.2471 118.445 48.6811 118.781 50.1189 119.165C50.5748 119.286 51.0488 119.392 51.5128 119.501C53.0714 119.868 54.6257 120.231 56.1846 120.596C58.3081 121.109 60.4251 121.652 62.5505 122.127L66.2342 123.033L85.779 127.851C87.0145 128.156 88.3313 128.522 89.5818 128.761L90.7202 128.822C93.1739 128.747 95.3411 127.124 96.1859 124.852L96.4272 124.04Z" fill="#433C8C"/>
</svg>
