<svg width="146" height="78" viewBox="0 0 146 78" fill="none" xmlns="http://www.w3.org/2000/svg">
<path d="M9.54523 50.6481C13.5279 51.1797 17.2898 52.3445 20.809 53.9328C21.4313 54.2125 22.0495 54.5094 22.6643 54.8203C23.2628 55.1092 23.8117 55.4524 24.4161 55.8285C26.2852 56.9956 28.1936 58.2823 30.3475 59.2796C33.5502 70.2285 33.04 68.7095 33.7755 70.1337C34.5278 71.3239 35.644 72.3258 36.9723 72.918C40.6632 74.6716 43.9912 72.7169 44.0524 72.7037L44.4846 72.4795C44.7712 72.3293 45.0601 72.179 45.3565 72.0392C47.7086 70.8894 50.282 69.9546 52.9987 69.2561C56.2614 68.4165 59.7559 67.937 61.4545 67.8786C64.3937 67.7683 67.501 67.8174 70.6516 67.2373C71.4408 67.0871 72.2364 66.8906 73.0303 66.5948C76.2468 65.3774 77.485 63.1183 75.9879 59.8914C75.2524 58.3748 74.2806 57.1331 73.4024 55.9175C71.6251 53.5214 69.0685 47.9066 67.7413 44.1117C66.7839 41.4176 66.1016 38.7222 65.5383 36.0645C65.2621 34.7489 64.9813 33.4032 64.7617 32.1627C64.5762 30.9592 64.6005 29.6725 64.604 28.4332C64.6173 27.1852 64.6467 25.9528 64.6034 24.7383C64.5531 23.5273 64.4676 22.3191 63.9991 21.1376C63.7402 20.5835 63.4479 20.0456 63.0226 19.6007C62.6135 19.1603 62.1209 18.8056 61.5735 18.5572C61.0345 18.329 60.4815 18.2105 59.9465 18.1539C59.4127 18.1193 58.8932 18.1216 58.4004 18.184C57.959 18.236 57.5378 18.3122 57.1293 18.4001C57.0891 18.2706 57.0412 18.1437 56.986 18.0199C56.4908 16.9458 55.5693 16.327 54.7407 15.8937C53.0334 15.0461 51.3954 14.7427 49.9839 14.4561C48.5649 14.1938 47.3429 14.0222 46.3479 13.868C44.3546 13.5825 43.2932 13.2844 43.2632 13.3584C43.2303 13.4358 44.2789 13.8957 46.2584 14.3337C47.2435 14.5636 48.4539 14.8097 49.8371 15.1408C51.2053 15.4875 52.8058 15.8752 54.3063 16.6997C55.0389 17.1133 55.7478 17.6749 56.0517 18.4295C56.0835 18.5012 56.1078 18.5757 56.1303 18.6508C55.1221 18.9397 54.2132 19.2962 53.383 19.6221C51.9772 20.1964 50.798 20.7418 49.8302 21.1722C47.9039 22.0545 46.7923 22.3925 46.8079 22.4711C46.8211 22.5531 48.0096 22.3584 50.0076 21.6119C51.0089 21.2508 52.2182 20.7741 53.6303 20.2773C55.0395 19.7989 56.6723 19.2401 58.4824 19.0957C58.9337 19.0553 59.3895 19.0737 59.8442 19.1171C60.2949 19.1818 60.7375 19.2962 61.1489 19.4851C61.5583 19.6891 61.9238 19.9714 62.2247 20.316C62.5396 20.6609 62.7626 21.1087 62.9625 21.5663C63.2976 22.478 63.3751 23.6122 63.3837 24.7672C63.3935 25.9297 63.3335 27.1436 63.2884 28.4025C63.2566 29.6667 63.1902 30.9644 63.3687 32.3655C63.5755 33.7152 63.8165 35.0002 64.0713 36.362C64.5815 39.0545 65.2343 41.8648 66.1651 44.6456C67.3513 48.2486 69.7531 53.9837 71.8672 57.0124C72.7495 58.2627 73.6387 59.4645 74.2188 60.7142C75.0993 62.6185 74.7249 63.8215 72.3231 64.6801C71.6812 64.9112 70.9861 65.0764 70.276 65.2029C67.4056 65.6998 64.4058 65.634 61.3748 65.712C59.7801 65.7385 56.0055 66.1921 52.4475 67.0778C49.5904 67.7873 46.8616 68.7557 44.3517 69.9644C42.9443 70.6179 40.7568 72.1577 37.9499 70.7906C37.0163 70.3741 36.2773 69.683 35.7787 68.9059C35.1991 67.662 36.4102 71.5799 28.7887 45.737C27.0987 39.8229 25.7895 34.7003 24.4681 30.3277C22.4563 23.6653 27.7452 29.6517 45.7372 23.1939C46.7998 22.7987 46.8448 22.6294 46.8079 22.4717C46.7703 22.3133 46.653 22.1816 45.5287 22.3018C45.4703 22.3076 25.2203 24.8509 25.1608 24.8596C21.5567 25.5755 21.3394 27.2851 22.3852 30.9286C23.6413 35.2908 24.9095 40.4388 26.5683 46.3587L29.5265 56.4704C29.4075 56.4028 29.2862 56.3421 29.1683 56.2728C27.9596 55.5598 26.7873 54.7775 25.578 53.9975C24.9811 53.6162 24.33 53.2025 23.6615 52.8709C18.9971 50.4557 14.3726 48.9945 9.85723 48.3642C4.25626 47.5674 2.42586 46.1519 5.06341 40.8028C18.7036 13.0342 18.4274 10.258 22.2997 7.26974C22.9722 6.73934 23.6286 6.46663 24.3202 6.4233C27.1409 6.26036 32.8308 11.2651 42.0273 13.3977C43.0823 13.6328 43.2083 13.5103 43.2632 13.3584C43.3181 13.2047 43.2938 13.0348 42.3428 12.5379C39.7266 11.142 34.7392 9.37459 29.4271 6.18641C28.7627 5.79121 28.048 5.36943 27.2091 4.99965C26.3736 4.64143 25.3769 4.3121 24.2289 4.35659C23.0855 4.38374 21.9062 4.88699 21.0147 5.58205C17.5763 8.14739 18.2685 8.76792 2.94239 39.7842L2.24039 41.209C0.24359 44.912 1.36159 49.5377 9.54581 50.6487L9.54523 50.6481Z" fill="#37A4DA"/>
<path d="M43.6113 33.9475C42.9757 34.293 42.3188 34.5547 41.6347 34.735C40.2758 35.103 38.9498 35.1723 37.9901 35.1579C37.0252 35.1521 36.407 35.0718 36.3521 35.2353C36.3001 35.3775 36.8386 35.7628 37.8468 36.0621C38.8481 36.3672 40.3133 36.5706 41.9473 36.3689C44.0567 36.1263 45.3533 35.2278 46.6076 34.7332C47.1933 34.4898 47.815 34.344 48.4479 34.3016C49.0586 34.2566 49.6727 34.2768 50.2291 34.2947C51.2437 34.3334 52.2329 34.3796 53.1099 34.3039C53.8537 34.2467 54.5921 34.1333 55.3188 33.9648C56.5414 33.6776 57.3139 33.3755 57.8229 33.1363C58.834 32.6463 58.7918 32.3487 58.7086 32.0362C58.6243 31.7213 58.4995 31.4543 57.3999 31.5266C56.8516 31.5572 56.063 31.6826 54.934 31.8311C54.3695 31.901 53.7201 31.9761 52.9765 32.0027C52.241 32.0385 51.3893 31.9853 50.31 31.9437C49.7195 31.9252 49.0164 31.9137 48.2144 32.0079C47.4159 32.0922 46.4927 32.362 45.7196 32.7555C44.935 33.142 44.2555 33.5991 43.6113 33.9475ZM54.3221 39.5178C50.5908 39.3081 49.1782 38.6165 46.4782 41.6712C45.3735 42.9099 44.5022 43.5547 42.636 44.0025C41.1343 44.3567 39.6419 44.3971 38.5627 44.4515C37.4782 44.4994 36.7877 44.5618 36.7692 44.7265C36.7507 44.8848 37.3984 45.1292 38.4875 45.3643C39.5755 45.5885 41.1222 45.8237 42.9133 45.6428C44.3942 45.4839 45.7837 45.0131 46.9734 44.1163C47.3951 43.8159 47.7441 43.4623 48.0538 43.1601C50.154 41.0362 50.5804 41.7139 54.2025 41.8197C55.031 41.8506 55.8606 41.8026 56.68 41.6764C58.0754 41.4511 58.9675 41.0928 59.5377 40.8039C60.6684 40.1903 60.5673 39.8668 60.4477 39.5785C60.32 39.2682 60.1577 39.0573 59.027 39.2202C58.459 39.2861 57.6432 39.4398 56.4356 39.5224C55.7318 39.5686 55.0257 39.5671 54.3221 39.5178ZM59.5227 48.9084C59.2702 48.9246 58.9825 48.9113 58.6705 48.9027C58.0494 48.8888 57.304 48.8229 56.4171 48.7426C55.5274 48.6617 54.4839 48.5433 53.2347 48.5161C52.5553 48.4919 51.74 48.5381 50.8543 48.6773C49.9703 48.8605 48.9892 49.1338 48.1041 49.7127C47.1871 50.2668 46.5591 50.9873 45.9409 51.4524C45.3307 51.9279 44.616 52.2728 43.8782 52.5201C42.3933 53.0083 40.8582 53.095 39.7558 53.1903C38.6447 53.277 37.9369 53.3608 37.9242 53.5272C37.9127 53.6849 38.5858 53.9097 39.7136 54.1055C40.8379 54.2864 42.4476 54.4823 44.2919 54.1321C45.2054 53.9501 46.1755 53.6139 47.0514 53.0569C47.9203 52.5022 48.568 51.8823 49.2053 51.5807C49.8328 51.2224 50.5452 51.0722 51.2195 50.9532C51.8742 50.8766 52.5337 50.8484 53.1926 50.8688C54.3013 50.8919 55.3188 50.9879 56.2409 51.041C57.1642 51.093 57.9823 51.1179 58.7057 51.0699C63.41 50.7677 63.4897 48.3907 61.6195 48.738C61.1434 48.7813 61.2358 48.7686 60.7955 48.8374C60.6211 48.846 60.431 48.8599 60.2235 48.8801C60.0202 48.9102 59.7781 48.8975 59.5227 48.9084Z" fill="#37A4DA"/>
<path d="M135.888 71.7079C137.055 57.5899 130.471 29.756 94.7985 31.3636" stroke="#37A4DA" stroke-width="2" stroke-linecap="round"/>
</svg>
