<svg width="188" height="78" viewBox="0 0 188 78" fill="none" xmlns="http://www.w3.org/2000/svg">
<path d="M187.164 22.6962C187.522 22.2756 187.471 21.6445 187.05 21.2866C186.63 20.9287 185.999 20.9795 185.641 21.4001L187.164 22.6962ZM48.5823 6.73611L49.5294 7.05681L48.5823 6.73611ZM0.308265 70.9278C-0.0231414 71.3696 0.0663541 71.9964 0.508145 72.3278L7.70771 77.7284C8.14951 78.0598 8.77632 77.9703 9.10773 77.5285C9.43914 77.0867 9.34964 76.4599 8.90784 76.1285L2.50823 71.328L7.30875 64.9283C7.64016 64.4865 7.55068 63.8597 7.10887 63.5283C6.66707 63.1969 6.04027 63.2864 5.70886 63.7282L0.308265 70.9278ZM185.641 21.4001C179.246 28.9148 166.513 34.9469 151.06 38.92C135.656 42.8805 117.74 44.7467 101.183 44.0699C84.598 43.3918 69.5136 40.1673 59.6783 34.0615C54.7749 31.0175 51.2316 27.2926 49.4105 22.8629C47.5952 18.4473 47.4437 13.2167 49.5294 7.05681L47.6351 6.4154C45.4233 12.9477 45.5304 18.6846 47.5608 23.6234C49.5854 28.5482 53.4752 32.5647 58.6234 35.7607C68.8914 42.135 84.3846 45.3848 101.102 46.0682C117.848 46.7528 135.959 44.8677 151.558 40.857C167.109 36.8588 180.354 30.6997 187.164 22.6962L185.641 21.4001ZM49.5294 7.05681C50.6391 3.7794 51.9761 2.535 53.0223 2.28193C54.0064 2.04385 55.3019 2.57245 56.6774 4.38253C59.3863 7.94714 61.4755 15.4137 60.54 24.2293C59.61 32.9924 55.6972 42.9786 46.5657 51.562C37.4303 60.1492 23.0084 67.3909 0.966881 70.5379L1.24955 72.5178C23.5923 69.3279 38.4304 61.954 47.9355 53.0193C57.4445 44.081 61.5526 33.639 62.5288 24.4403C63.4994 15.294 61.3798 7.26485 58.2698 3.17242C56.7359 1.15398 54.7193 -0.186281 52.552 0.338003C50.4467 0.84729 48.7927 2.99647 47.6351 6.4154L49.5294 7.05681Z" fill="#29A55C"/>
</svg>
