<svg width="163" height="89" viewBox="0 0 163 89" fill="none" xmlns="http://www.w3.org/2000/svg">
<path d="M162.111 2.05162C162.371 1.56427 162.187 0.958564 161.699 0.698749C161.212 0.438933 160.606 0.623389 160.346 1.11074L162.111 2.05162ZM31.7852 15.1691L32.779 15.2801L32.779 15.2801L31.7852 15.1691ZM0.332813 83.6815C0.103412 84.1839 0.324712 84.7772 0.8271 85.0066L9.01399 88.7449C9.51637 88.9743 10.1096 88.753 10.339 88.2506C10.5684 87.7482 10.3471 87.155 9.84472 86.9256L2.56749 83.6026L5.89042 76.3254C6.11982 75.823 5.89852 75.2298 5.39614 75.0004C4.89375 74.771 4.30052 74.9923 4.07111 75.4947L0.332813 83.6815ZM160.346 1.11074C155.999 9.26583 145.547 17.3424 132.176 24.0819C118.851 30.7987 102.803 36.0996 87.4914 38.7971C72.1514 41.4995 57.6858 41.5647 47.4581 37.9429C42.36 36.1376 38.3766 33.4389 35.8281 29.7557C33.2882 26.0849 32.1027 21.3346 32.779 15.2801L30.7914 15.0581C30.0715 21.5032 31.3217 26.7578 34.1834 30.8937C37.0365 35.0171 41.4207 37.9267 46.7905 39.8282C57.4982 43.6199 72.3687 43.492 87.8384 40.7667C103.336 38.0365 119.572 32.6753 133.077 25.8678C146.537 19.0829 157.462 10.773 162.111 2.05162L160.346 1.11074ZM32.779 15.2801C33.139 12.057 34.1119 10.6772 34.9904 10.25C35.8115 9.85074 37.0784 10.0561 38.6964 11.4349C41.8795 14.1472 45.2873 20.5582 46.1956 28.8191C47.0982 37.0275 45.515 46.9537 38.8716 56.6418C32.2251 66.3343 20.4643 75.8591 0.892953 83.16L1.59198 85.0338C21.4484 77.6266 33.5876 67.8839 40.521 57.7729C47.4575 47.6575 49.134 37.2443 48.1836 28.6005C47.239 20.009 43.6812 13.0549 39.9936 9.91264C38.1763 8.36412 36.0316 7.51982 34.1158 8.45136C32.2573 9.35503 31.168 11.6865 30.7914 15.0581L32.779 15.2801Z" fill="#37A4DA"/>
</svg>
