<svg width="69" height="89" viewBox="0 0 69 89" fill="none" xmlns="http://www.w3.org/2000/svg">
<path d="M1.39781 63.5407L1.39778 63.5404C-0.141249 54.9365 2.07153 45.6294 7.32595 38.6409L7.326 38.6408C8.51434 37.0609 9.722 35.5479 10.9055 34.0652L10.9739 33.9795L10.9743 33.979C15.6487 28.1378 19.9781 22.7129 21.6666 14.914C21.6666 14.914 21.6666 14.914 21.6666 14.914L1.39781 63.5407ZM1.39781 63.5407C3.00584 72.5072 8.89399 79.8012 17.9283 84.0872C23.4221 86.6952 29.6643 87.9871 35.8209 87.9871M1.39781 63.5407L35.8209 87.9871M35.8209 87.9871C42.4994 87.9871 49.1064 86.467 54.5714 83.4283L35.8209 87.9871ZM28.9273 2.19493C27.347 1.0672 25.5405 0.338518 23.4952 0.530636L68.0094 59.5217C68.0094 59.5216 68.0094 59.5216 68.0094 59.5216C68.3594 54.8508 68.0153 49.7496 66.968 43.9278C66.8363 43.1944 66.3747 41.7691 65.8124 40.0333L65.7763 39.9218L65.7763 39.9216L65.7688 39.8985C65.385 38.7111 64.8415 37.0297 64.4089 35.5524C64.191 34.8082 64.0033 34.123 63.8786 33.5822C63.8161 33.3113 63.7712 33.0843 63.7458 32.9082C63.7331 32.8202 63.7262 32.7507 63.7236 32.6985C63.7234 32.693 63.7232 32.6879 63.723 32.6832C63.857 32.4017 63.8905 32.0812 63.8154 31.7758C63.7294 31.4263 63.5081 31.1253 63.2002 30.939C62.8922 30.7526 62.5229 30.6962 62.1734 30.7822C61.8239 30.8682 61.5228 31.0895 61.3365 31.3974L61.3363 31.3977L53.623 44.1653C53.6229 44.1654 53.6229 44.1655 53.6228 44.1655C52.0505 46.7654 50.4816 49.3523 48.1933 51.1289C46.5504 52.4022 45.1378 53.2663 44.0049 53.7194C42.8432 54.184 42.1125 54.1637 41.7077 53.9126C41.2011 53.5983 40.8226 52.8194 40.6392 51.5197C40.4607 50.2551 40.4871 48.6456 40.6401 46.8853C40.9456 43.369 41.7449 39.3633 42.3113 36.5382L42.3113 36.5378L42.3211 36.4888C42.5652 35.2667 42.7857 34.163 42.9455 33.238C43.106 32.3095 43.2119 31.5263 43.2119 30.9716C43.2224 23.343 39.4134 14.1475 33.0945 6.35072L33.0941 6.35019C31.8834 4.86051 30.5022 3.31878 28.9273 2.19493ZM65.3023 59.3201L65.3023 59.3202C64.7616 66.5427 62.2126 76.0754 53.2528 81.0568C43.5209 86.466 29.7864 86.714 19.0938 81.6384C10.8254 77.7134 5.50955 71.1116 4.06805 63.0661C2.66019 55.1912 4.6896 46.6659 9.49258 40.2732L9.49273 40.273C10.6629 38.7138 11.8534 37.2232 13.0301 35.7498L13.0916 35.6729L13.0918 35.6725L13.1187 35.6389C17.9002 29.6621 22.4892 23.9259 24.3162 15.4888L24.3162 15.4887C25.0738 11.9873 25.0298 8.37357 24.9854 4.9423L24.9854 4.94183C24.9778 4.39662 24.9721 3.85193 24.9697 3.309C25.9668 3.51639 26.9353 4.05747 27.8769 4.81601C28.9871 5.71035 30.0227 6.87656 30.9847 8.06322L30.9849 8.06354C36.9753 15.441 40.5085 24.0124 40.4986 30.9662C40.497 31.3403 40.406 32.0076 40.2483 32.9035C40.0928 33.7874 39.8798 34.8548 39.6483 36.0092L39.6482 36.0097C38.7393 40.5625 37.9407 44.9712 37.8226 48.5242C37.7636 50.3009 37.8731 51.8957 38.2405 53.2025C38.6085 54.5118 39.2491 55.5762 40.2821 56.2149C41.4274 56.9294 42.8203 56.9721 44.4021 56.4596C45.9758 55.9498 47.7894 54.8761 49.8546 53.2727C52.556 51.1771 54.3712 48.1743 55.924 45.6055L55.9453 45.5702L55.9454 45.5701L61.726 36.0019C62.0724 37.239 62.5592 38.7947 63.1937 40.7572L63.1938 40.7575C63.722 42.3872 64.1959 43.8595 64.2982 44.4113C65.3102 50.0271 65.6342 54.9005 65.3023 59.3201Z" stroke="#FFB236"/>
</svg>
