<svg width="50" height="50" viewBox="0 0 50 50" fill="none" xmlns="http://www.w3.org/2000/svg">
<rect width="50" height="50" rx="25" fill="#433C8C"/>
<path fill-rule="evenodd" clip-rule="evenodd" d="M24.9997 12.084C22.445 12.084 19.9477 12.8415 17.8236 14.2608C15.6994 15.6801 14.0439 17.6974 13.0662 20.0577C12.0886 22.4179 11.8328 25.015 12.3312 27.5206C12.8296 30.0262 14.0598 32.3277 15.8662 34.1341C17.6726 35.9405 19.9742 37.1707 22.4798 37.6691C24.9854 38.1675 27.5825 37.9117 29.9427 36.9341C32.3029 35.9565 34.3202 34.3009 35.7395 32.1768C37.1588 30.0526 37.9163 27.5553 37.9163 25.0007C37.9163 23.3044 37.5822 21.6248 36.9331 20.0577C36.284 18.4905 35.3326 17.0666 34.1331 15.8672C32.9337 14.6678 31.5098 13.7163 29.9427 13.0672C28.3756 12.4181 26.6959 12.084 24.9997 12.084ZM29.5593 29.5602C29.4695 29.6504 29.3628 29.7219 29.2453 29.7707C29.1279 29.8195 29.0019 29.8446 28.8747 29.8446C28.7475 29.8446 28.6215 29.8195 28.504 29.7707C28.3865 29.7219 28.2799 29.6504 28.1901 29.5602L24.3151 25.6852C24.2249 25.5955 24.1534 25.4888 24.1047 25.3713C24.0559 25.2538 24.0308 25.1279 24.0309 25.0007V18.5423C24.0309 18.2854 24.133 18.039 24.3147 17.8573C24.4963 17.6756 24.7428 17.5736 24.9997 17.5736C25.2566 17.5736 25.503 17.6756 25.6847 17.8573C25.8664 18.039 25.9684 18.2854 25.9684 18.5423V24.5989L29.5593 28.1911C29.6492 28.2809 29.7206 28.3876 29.7693 28.5051C29.818 28.6226 29.8431 28.7485 29.8431 28.8757C29.8431 29.0028 29.818 29.1287 29.7693 29.2462C29.7206 29.3637 29.6492 29.4704 29.5593 29.5602Z" fill="white"/>
</svg>
