<svg width="50" height="50" viewBox="0 0 50 50" fill="none" xmlns="http://www.w3.org/2000/svg">
<rect width="50" height="50" rx="25" fill="#433C8C"/>
<path d="M38.7534 16.5629L30.2615 25L38.7534 33.4371C38.9069 33.1163 39 32.7616 39 32.3828V17.6172C39 17.2384 38.9069 16.8837 38.7534 16.5629ZM36.5391 15.1562H13.4609C13.0821 15.1562 12.7275 15.2494 12.4066 15.4029L23.2601 26.2016C24.2197 27.1613 25.7803 27.1613 26.7399 26.2016L37.5934 15.4029C37.2725 15.2494 36.9179 15.1562 36.5391 15.1562ZM11.2466 16.5629C11.0931 16.8837 11 17.2384 11 17.6172V32.3828C11 32.7616 11.0931 33.1163 11.2466 33.4371L19.7385 25L11.2466 16.5629Z" fill="white"/>
<path d="M29.1012 26.1602L27.8995 27.3618C26.3005 28.9608 23.6987 28.9608 22.0997 27.3618L20.8981 26.1602L12.4062 34.5973C12.7271 34.7508 13.0817 34.8439 13.4606 34.8439H36.5387C36.9175 34.8439 37.2722 34.7508 37.593 34.5973L29.1012 26.1602Z" fill="white"/>
</svg>
