<svg width="50" height="50" viewBox="0 0 50 50" fill="none" xmlns="http://www.w3.org/2000/svg">
<rect width="50" height="50" rx="25" fill="#433C8C"/>
<path fill-rule="evenodd" clip-rule="evenodd" d="M25.0272 11.7051C22.1379 11.7087 19.368 12.8578 17.3245 14.9004C15.281 16.943 14.1308 19.7125 14.126 22.6018C14.126 26.7714 16.7611 30.5711 19.2729 33.3934C21.7847 36.2158 24.2965 38.0974 24.2965 38.0974C24.506 38.2545 24.7608 38.3394 25.0227 38.3394C25.2845 38.3394 25.5393 38.2545 25.7488 38.0974C25.7488 38.0974 28.2606 36.2158 30.7724 33.3934C33.2842 30.5711 35.9194 26.7714 35.9194 22.6018C35.9169 19.7125 34.7681 16.9423 32.7251 14.8993C30.6821 12.8563 27.9165 11.7075 25.0272 11.7051ZM25.0227 17.7608C26.3066 17.7608 27.5379 18.2709 28.4457 19.1787C29.3536 20.0866 29.8636 21.3179 29.8636 22.6018C29.8636 23.8857 29.3536 25.117 28.4457 26.0248C27.5379 26.9327 26.3066 27.4427 25.0227 27.4427C23.7388 27.4427 22.5075 26.9327 21.5996 26.0248C20.6918 25.117 20.1817 23.8857 20.1817 22.6018C20.1817 21.3179 20.6918 20.0866 21.5996 19.1787C22.5075 18.2709 23.7388 17.7608 25.0227 17.7608Z" fill="white"/>
</svg>
