<svg width="50" height="50" viewBox="0 0 50 50" fill="none" xmlns="http://www.w3.org/2000/svg">
<rect width="50" height="50" rx="25" fill="#433C8C"/>
<path fill-rule="evenodd" clip-rule="evenodd" d="M36.6525 19.8272H30.98C30.6975 18.0501 30.2678 16.4131 29.7066 15.0103C29.3583 14.1386 28.9668 13.3832 28.5404 12.7511C32.1683 13.8011 35.135 16.423 36.6525 19.8272ZM28.5404 37.2497C28.9668 36.6168 29.3583 35.8619 29.7066 34.99C30.2678 33.5869 30.6975 31.9499 30.98 30.1727H36.6525C35.135 33.5778 32.1683 36.1995 28.5404 37.2497ZM13.3472 30.1728H19.02C19.3023 31.9499 19.7322 33.5869 20.2931 34.99C20.6422 35.862 21.0332 36.6168 21.4596 37.2498C17.8315 36.1995 14.865 33.5778 13.3472 30.1728ZM21.4596 12.7511C21.0332 13.3832 20.6423 14.1386 20.2931 15.0103C19.7321 16.4131 19.3023 18.0501 19.02 19.8272H13.3472C14.865 16.423 17.8315 13.8011 21.4596 12.7511ZM25 12.25C23.9726 12.25 22.845 13.5347 21.9843 15.6864C21.5015 16.8943 21.1242 18.2979 20.8643 19.8272H29.1357C28.8755 18.2979 28.4987 16.8943 28.0156 15.6864C27.155 13.5347 26.0274 12.25 25 12.25ZM12.25 25C12.25 23.8407 12.4065 22.7169 12.6979 21.6487H18.7866C18.6798 22.7346 18.6244 23.8576 18.6244 25C18.6244 26.1423 18.6798 27.2654 18.7866 28.3515H12.6979C12.4002 27.2593 12.2495 26.1321 12.25 25ZM20.6165 28.3516C20.504 27.2718 20.4457 26.1477 20.4457 25.0001C20.4457 23.8532 20.504 22.7291 20.6165 21.6488H29.3833C29.496 22.7291 29.5541 23.8532 29.5541 25.0001C29.5541 26.1477 29.496 27.2718 29.3833 28.3516H20.6165ZM25 37.75C26.0274 37.75 27.155 36.4653 28.0156 34.3138C28.4987 33.1065 28.8755 31.7023 29.1357 30.1728H20.8643C21.1242 31.7023 21.5015 33.1065 21.9843 34.3138C22.845 36.4653 23.9726 37.75 25 37.75ZM37.75 25C37.75 26.1595 37.5935 27.2831 37.3021 28.3515H31.2134C31.3202 27.2653 31.3756 26.1423 31.3756 25C31.3756 23.8576 31.3202 22.7346 31.2134 21.6487H37.3021C37.5998 22.7409 37.7505 23.868 37.75 25Z" fill="white"/>
</svg>
