<svg width="50" height="50" viewBox="0 0 50 50" fill="none" xmlns="http://www.w3.org/2000/svg">
<rect width="50" height="50" rx="25" fill="#433C8C"/>
<path fill-rule="evenodd" clip-rule="evenodd" d="M37.4036 18.2963C37.5835 17.6914 37.4036 17.2461 36.5424 17.2461H33.6987C32.9751 17.2461 32.6414 17.6305 32.4605 18.0548C32.4605 18.0548 31.0143 21.5952 28.9657 23.8949C28.3027 24.5618 28.0016 24.7734 27.6398 24.7734C27.4588 24.7734 27.1869 24.5618 27.1869 23.9559V18.2963C27.1869 17.5696 26.9876 17.2461 26.3853 17.2461H21.9134C21.4616 17.2461 21.1897 17.5829 21.1897 17.903C21.1897 18.5909 22.2145 18.7504 22.3196 20.6868V24.8941C22.3196 25.8169 22.1539 25.9842 21.792 25.9842C20.8279 25.9842 18.4825 22.4271 17.0905 18.3572C16.8207 17.5651 16.5477 17.2461 15.8208 17.2461H12.975C12.1625 17.2461 12 17.6305 12 18.0548C12 18.8103 12.9641 22.5634 16.4903 27.5273C18.8411 30.9171 22.1506 32.7549 25.1655 32.7549C26.9735 32.7549 27.1967 32.3472 27.1967 31.6438V29.0815C27.1967 28.2651 27.3678 28.1022 27.9409 28.1022C28.3634 28.1022 29.086 28.3149 30.7738 29.9489C32.7021 31.8864 33.0195 32.7549 34.105 32.7549H36.9486C37.7611 32.7549 38.1685 32.3472 37.9345 31.5407C37.6766 30.7387 36.7558 29.5745 35.5349 28.1931C34.8719 27.4066 33.8775 26.5591 33.5752 26.1348C33.1538 25.5909 33.2741 25.3483 33.5752 24.8642C33.5752 24.8642 37.0418 19.9612 37.4025 18.2963H37.4036Z" fill="white"/>
</svg>
