<svg width="171" height="111" viewBox="0 0 171 111" fill="none" xmlns="http://www.w3.org/2000/svg">
<path d="M170.168 1.56722C170.385 1.05898 170.148 0.471762 169.639 0.255632C169.131 0.0395025 168.544 0.276304 168.328 0.784543L170.168 1.56722ZM28.7969 28.5214L29.7966 28.5449L28.7969 28.5214ZM1.043 106.614C0.85849 107.135 1.13091 107.706 1.65145 107.891L10.1343 110.898C10.6549 111.082 11.2264 110.81 11.411 110.289C11.5955 109.769 11.323 109.197 10.8025 109.013L3.26218 106.34L5.93492 98.7997C6.11943 98.2792 5.84703 97.7076 5.32648 97.5231C4.80592 97.3386 4.23436 97.611 4.04985 98.1315L1.043 106.614ZM168.328 0.784543C164.339 10.1635 153.648 20.0287 139.651 28.6995C125.696 37.3438 108.622 44.6983 92.1043 49.1292C75.5587 53.5676 59.7033 55.0368 48.1291 52.049C42.3583 50.5593 37.7153 47.9786 34.5526 44.1699C31.3996 40.3729 29.6386 35.2601 29.7966 28.5449L27.7972 28.4979C27.6299 35.606 29.4996 41.2154 33.0139 45.4476C36.5186 49.6682 41.5794 52.4238 47.6292 53.9855C59.6964 57.1006 75.9496 55.5334 92.6225 51.0609C109.323 46.5809 126.578 39.1501 140.704 30.3997C154.787 21.6758 165.929 11.5368 170.168 1.56722L168.328 0.784543ZM29.7966 28.5449C29.8807 24.973 30.8149 23.3206 31.7823 22.7404C32.6949 22.1929 34.1483 22.3237 36.0637 23.6854C39.8376 26.3683 44.1968 33.0874 45.9903 42.0629C47.7734 50.9868 46.993 62.0344 40.6377 73.3065C34.2798 84.5831 22.2994 96.1591 1.55531 106.046L2.41578 107.851C23.4345 97.8336 35.7728 86.0074 42.3799 74.2887C48.9896 62.5654 49.8204 51.0244 47.9515 41.6711C46.0929 32.3693 41.5368 25.1224 37.2226 22.0553C35.0939 20.542 32.71 19.8517 30.7535 21.0252C28.8517 22.166 27.8848 24.7766 27.7972 28.4979L29.7966 28.5449Z" fill="#37A4DA"/>
</svg>
