<svg width="197" height="197" viewBox="0 0 197 197" fill="none" xmlns="http://www.w3.org/2000/svg">
<g clip-path="url(#clip0_1001_9951)">
<path d="M168.945 53.6752C168.879 48.56 166.04 44.0018 161.97 41.2936C160.49 40.3087 159.134 39.9401 157.47 39.6334C153.401 38.5276 81.0447 35.7551 75.6213 35.883C72.7865 36.132 69.8293 37.3671 67.6121 39.0947C65.4568 41.1304 64.0415 43.6584 63.6743 46.617C63.3057 47.9732 63.5533 49.2056 63.4927 50.4999L63.3112 54.3828C63.2521 57.2794 63.1929 60.1761 63.1957 63.3809L56.5289 50.9373C55.4794 48.9044 54.0599 46.6253 52.3943 44.7162C46.6573 38.4965 37.4116 37.1486 30.4505 40.7908C25.4604 43.0755 21.5817 47.7011 20.0453 52.8177C17.8928 58.0582 18.7607 63.974 21.6615 68.8402L25.7356 76.3556L25.1194 76.4794C20.9918 78.2703 18.0373 82.7102 17.6715 87.2712C17.611 88.5655 17.7967 89.4898 17.7362 90.7841C17.8599 91.4003 19.2849 100.089 19.223 99.7808L23.681 123.566C24.6094 128.188 20.6467 106.867 32.0398 168.364C32.2874 169.597 32.5349 170.829 33.3987 171.938C35.6215 176.62 40.4314 179.82 45.6086 180.062C47.889 180.245 43.5757 181.112 123.619 164.711L126.7 164.092C127.933 163.844 129.103 163.288 130.274 162.733C134.956 160.51 137.848 155.762 138.09 150.585C138.151 149.291 137.903 148.058 137.656 146.826L136.913 143.129C141.166 143.556 145.111 144.046 149.363 144.474C154.849 144.654 160.454 140.643 162.174 134.848L162.727 132.814C162.848 130.225 164.988 110.564 168.945 53.6752ZM24.1139 53.9236C25.2197 49.855 27.9898 46.0932 31.6856 43.748C35.4433 41.711 40.4348 41.0287 44.8734 42.3808C49.3119 43.7328 52.8894 47.181 55.3584 51.493L62.9495 63.7509C63.0128 65.6614 62.8299 67.9419 62.8931 69.8524C60.4284 70.3475 58.2098 70.4727 55.745 70.9679L51.3628 63.5144C51.3009 63.2063 45.1911 53.5356 45.623 54.0899C44.6973 52.6732 43.1555 51.3803 41.7993 51.0117C38.655 49.7201 34.7735 51.141 33.112 54.0391C31.6953 54.9647 31.3886 56.629 31.39 58.2314C31.3914 59.8338 32.3789 61.5586 33.1808 62.3591L40.2163 73.4465C39.9082 73.5084 30.9114 74.9953 31.5276 74.8715L26.2197 66.0013C23.8746 62.3055 23.008 57.9921 24.1139 53.9236ZM43.1143 75.108L49.5225 73.5001L51.063 73.1906L61.1863 91.671C62.7915 94.8744 61.7476 99.251 59.038 101.719C56.3284 104.186 51.8912 104.437 48.9312 102.467C46.3413 100.743 33.9966 79.1835 33.9347 78.8754L33.009 77.4587C33.9333 77.273 42.19 75.2937 41.5738 75.4175C44.289 79.3595 46.696 83.3634 49.4112 87.3054L43.1143 75.108ZM49.213 71.9596L42.0649 73.0751L35.768 60.8777C35.2123 59.7072 34.7805 59.1529 34.9029 58.1668C35.0253 57.1806 35.2096 56.5025 35.702 55.7625C36.6868 54.2825 38.5354 53.9111 39.9535 54.5878C40.6316 54.7721 41.0634 55.3264 41.5572 56.1888C41.6191 56.4969 47.1746 66.5995 46.7427 66.0452L49.8292 71.8358L49.213 71.9596ZM159.214 132.879C159.338 133.495 159.092 133.865 158.908 134.543C158.172 138.858 154.169 142.867 149.116 143.241C144.925 143.122 140.796 143.31 136.605 143.19L135.614 138.261C135.553 137.953 125.528 91.2456 125.466 90.9375C125.404 90.6294 120.949 70.0487 121.011 70.3568C120.763 69.1244 120.27 68.262 119.714 67.0915C117.615 63.0258 113.237 60.3794 108.738 60.3217C107.752 60.1993 106.519 60.4469 105.595 60.6326L102.514 61.2515C94.2573 63.2308 87.171 64.6544 73.1223 68.1179C81.1948 66.8167 88.9591 65.5773 97.0316 64.2761C98.8802 63.9048 106.336 62.7273 106.028 62.7892C106.953 62.6035 107.877 62.4179 108.863 62.5403C112.438 62.7837 115.83 65.3076 117.065 68.2648C117.559 69.1272 117.682 69.7434 117.868 70.6677C117.93 70.9758 121.769 91.6803 121.707 91.3722C122.697 96.3018 118.487 73.7487 130.623 138.943L132.418 147.878C132.604 148.802 132.727 149.419 132.543 150.097C132.484 152.993 130.514 155.953 127.557 157.188C126.757 157.99 126.141 158.114 125.216 158.3C43.8163 174.332 47.8835 173.836 45.973 173.899C43.0763 173.84 40.1164 171.87 38.635 169.283C37.7093 167.866 38.7602 171.502 23.2902 99.2843C22.9188 97.4357 21.1252 90.1032 21.1871 90.4113C21.0014 89.487 20.8776 88.8708 21.0001 87.8846C20.9354 84.3717 23.1512 81.0418 26.3546 79.4366C26.6627 79.3747 26.9708 79.3128 27.217 78.9428L28.7603 81.8381C41.5988 104.261 41.1669 103.706 42.0306 104.815C42.8944 105.923 44.0663 106.97 45.5463 107.955C50.7262 111.402 58.2444 110.532 62.8631 106.399C67.4818 102.266 69.2011 94.8688 66.4845 89.3245C65.497 87.5997 58.7077 76.1423 58.7696 76.4504L56.3007 72.1384C61.7846 70.7161 67.3303 69.602 73.1223 68.1179C69.7332 68.7987 66.2822 69.1715 62.8931 69.8524C64.1791 60.2985 64.3607 56.4157 65.157 50.8066C65.2175 49.5123 65.2781 48.218 65.7086 47.1699C66.1996 44.8276 67.3687 42.6695 69.0316 41.3738C70.6945 40.0781 73.0974 39.2749 75.316 39.1497C75.6241 39.0878 155.749 45.4282 156.057 45.3663C157.043 45.4887 157.783 45.9811 158.523 46.4735C160.003 47.4583 161.607 49.0593 161.978 50.9079C162.41 51.4622 162.05 62.4327 159.214 132.879Z" fill="#FFB236"/>
</g>
<defs>
<clipPath id="clip0_1001_9951">
<rect width="166.555" height="166.555" fill="white" transform="translate(0 32.8047) rotate(-11.3594)"/>
</clipPath>
</defs>
</svg>
