<svg width="285" height="222" viewBox="0 0 285 222" fill="none" xmlns="http://www.w3.org/2000/svg">
<path d="M1.59562 0.196731C1.15198 -0.132219 0.52568 -0.0392493 0.196731 0.404384C-0.132219 0.848018 -0.0392493 1.47432 0.404384 1.80327L1.59562 0.196731ZM277.557 75.4747L278.314 74.8215L277.557 75.4747ZM185.282 219.913C185.234 220.463 185.641 220.948 186.191 220.996L195.157 221.782C195.707 221.83 196.192 221.423 196.24 220.873C196.288 220.322 195.882 219.837 195.331 219.789L187.362 219.091L188.06 211.122C188.108 210.572 187.701 210.087 187.151 210.038C186.601 209.99 186.115 210.397 186.067 210.947L185.282 219.913ZM0.404384 1.80327C8.13372 7.53449 18.3901 11.2482 30.3435 13.5213C42.3039 15.7956 56.028 16.6394 70.7459 16.5849C100.173 16.476 133.717 12.7729 165.286 9.64114C196.906 6.50433 226.504 3.94611 248.191 6.07303C259.041 7.13708 267.781 9.36412 273.785 13.1812C279.719 16.9541 283 22.2861 283 29.7749H285C285 21.5544 281.328 15.6071 274.858 11.4934C268.457 7.42382 259.342 5.15698 248.387 4.08258C226.465 1.93262 196.657 4.51927 165.089 7.65091C133.471 10.7876 100.046 14.4765 70.7385 14.585C56.0892 14.6392 42.5047 13.798 30.7171 11.5565C18.9224 9.31362 8.99128 5.68053 1.59562 0.196731L0.404384 1.80327ZM283 29.7749C283 45.0803 274.326 58.968 260.632 71.0015C246.946 83.0286 228.357 93.0983 208.823 100.75C189.295 108.398 168.88 113.608 151.58 115.944C142.929 117.112 135.079 117.559 128.52 117.24C121.937 116.92 116.756 115.833 113.372 114.01L112.424 115.771C116.199 117.805 121.734 118.913 128.423 119.238C135.137 119.564 143.114 119.105 151.847 117.926C169.314 115.567 189.884 110.315 209.552 102.612C229.214 94.9107 248.032 84.7369 261.952 72.5038C275.866 60.2772 285 45.888 285 29.7749H283ZM113.372 114.01C111.72 113.121 110.905 112.145 110.611 111.181C110.316 110.219 110.473 109.049 111.238 107.625C112.792 104.729 116.61 101.255 122.311 97.5186C133.645 90.089 151.841 81.9821 172.039 75.571C192.232 69.1616 214.342 64.4739 233.489 63.8353C252.716 63.194 268.619 66.6461 276.8 76.1279L278.314 74.8215C269.491 64.5952 252.732 61.1924 233.422 61.8364C214.034 62.4831 191.735 67.221 171.434 73.6647C151.139 80.1066 132.756 88.2803 121.214 95.8459C115.477 99.6067 111.284 103.31 109.475 106.679C108.558 108.388 108.196 110.124 108.698 111.766C109.199 113.406 110.496 114.733 112.424 115.771L113.372 114.01ZM276.8 76.1279C283.267 83.6248 283.666 93.9777 279.694 106.122C275.725 118.258 267.456 131.95 256.982 145.821C236.043 173.55 206.484 201.743 185.636 219.234L186.921 220.766C207.835 203.221 237.516 174.918 258.578 147.026C269.104 133.087 277.525 119.188 281.595 106.744C285.662 94.3075 285.448 83.0911 278.314 74.8215L276.8 76.1279Z" fill="#FFB236"/>
</svg>
