<svg width="95" height="95" viewBox="0 0 95 95" fill="none" xmlns="http://www.w3.org/2000/svg">
<path d="M57.8387 5.02872C56.5814 3.35225 54.4858 2.37431 52.3902 2.37431H52.1108C45.5446 3.35225 38.699 3.07284 31.4343 2.65372C24.3093 2.2346 16.7652 1.95519 9.3608 2.93313C8.80197 2.93313 8.52256 3.35225 8.38286 3.91108C5.86815 29.0581 9.22109 54.764 8.38286 75.4405C8.38286 75.8596 8.52256 76.139 8.94168 76.4184C9.22109 76.8375 9.64021 77.2567 9.91962 77.8155H52.949C55.4637 84.9405 59.9343 88.5728 66.3608 92.0655C67.199 92.6243 67.6181 92.9037 68.177 92.9037C73.0667 92.0655 78.0961 88.4331 81.1696 84.5214C84.3828 80.4699 85.9196 76.2787 86.6181 71.2493C87.4564 66.2199 87.4564 60.9111 87.0373 55.742C86.6181 55.3228 86.199 54.9037 85.6402 54.6243C85.5005 53.9258 84.9417 53.6464 84.5226 53.7861C79.3534 54.4846 74.324 52.9478 68.8755 49.1758C68.4564 48.8964 68.0373 48.8964 67.6181 49.1758C67.0593 49.5949 66.5005 50.014 65.802 50.4331C66.0814 48.7567 64.6843 39.5361 65.6623 23.889C65.802 20.8155 65.802 16.0655 63.9858 13.6905C62.8681 11.4552 64.2652 13.1317 57.8387 5.02872ZM61.8902 13.6905C62.3093 14.1096 62.449 14.6684 62.7284 15.2273L54.0667 15.6464C53.6476 15.6464 53.3681 15.367 53.5079 14.9478L54.4858 5.02872C55.1843 5.30813 55.7431 5.86696 56.1623 6.42578C58.2579 9.08019 60.2137 11.5949 61.8902 13.6905ZM10.4784 4.88902C17.4637 4.05078 24.5887 4.33019 31.4343 4.74931C38.699 5.16843 45.6843 5.44784 52.5299 4.4699L51.4123 14.8081C51.2726 16.3449 52.5299 17.742 54.0667 17.742H55.0446C58.9564 18.3008 61.4711 17.3228 62.1696 23.6096C62.7284 28.2199 62.7284 30.8743 63.2873 51.8302C59.6549 53.367 55.8829 53.7861 51.9711 53.2272C51.6917 53.2272 51.4123 53.2272 51.1329 53.5067C50.8534 53.6464 50.7137 53.9258 50.7137 54.3449C50.7137 60.9111 50.1549 66.2199 51.9711 74.1831C38.1402 74.0434 24.8681 74.8817 10.6181 74.6022C11.177 54.2052 8.10344 29.0581 10.4784 4.88902ZM68.5961 51.1317C73.7652 54.6243 78.7946 56.1611 83.9637 55.742C84.2431 62.4478 84.6623 69.8522 82.2873 76.139C79.9123 82.2861 74.6034 87.5949 68.0373 90.2493C57.4196 84.5214 52.6696 78.9331 52.8093 58.6758V55.3228C58.5373 56.0214 63.9858 54.3449 68.5961 51.1317Z" fill="#37A4DA"/>
<path d="M61.4705 67.3369C61.1911 66.778 60.4925 66.6383 60.0734 67.0574C59.5146 67.3369 59.3749 68.0354 59.794 68.4545C61.8896 71.8074 62.5881 72.7854 64.6837 75.3001C65.1028 75.7192 65.8014 75.7192 66.2205 75.3001C69.9925 70.9692 74.6028 66.6383 79.7719 62.4472C80.1911 62.028 80.3308 61.4692 79.9116 60.9104C79.4925 60.4913 78.9337 60.3516 78.3749 60.7707C73.4852 64.8222 69.0146 68.8736 65.3822 72.9251C63.9852 71.2486 63.2867 70.2707 61.4705 67.3369ZM18.0219 26.9619H53.7867C54.3455 26.9619 54.9043 26.5427 54.9043 25.8442C54.9043 25.1457 54.4852 24.7266 53.7867 24.7266H18.0219C17.4631 24.7266 16.9043 25.1457 16.9043 25.8442C16.9043 26.5427 17.4631 26.9619 18.0219 26.9619ZM46.6617 41.4913H18.8602C18.3014 41.4913 17.7425 41.9104 17.7425 42.6089C17.7425 43.3074 18.1616 43.7266 18.8602 43.7266H46.6617C47.2205 43.7266 47.7793 43.3074 47.7793 42.6089C47.7793 41.9104 47.2205 41.4913 46.6617 41.4913ZM37.7205 57.9766H21.794C21.2352 57.9766 20.6764 58.3957 20.6764 59.0942C20.6764 59.7927 21.0955 60.2119 21.794 60.2119H37.7205C38.2793 60.2119 38.8381 59.7927 38.8381 59.0942C38.8381 58.3957 38.2793 57.9766 37.7205 57.9766Z" fill="#37A4DA"/>
</svg>
