<svg width="116" height="114" viewBox="0 0 116 114" fill="none" xmlns="http://www.w3.org/2000/svg">
<path d="M0.879645 27.893C3.81964 32.8665 -0.266606 51.4392 2.97964 62.9805C8.84739 83.8282 26.7534 99.3192 46.3429 112.371C47.2745 112.995 48.3721 113.324 49.4932 113.317C50.6144 113.309 51.7075 112.965 52.6306 112.329C74.7926 97.0092 88.6877 88.6407 93.6769 75.1867C98.0081 63.509 95.3691 49.579 97.8594 37.357C97.3046 36.3 91.1709 25.03 90.8559 24.911C90.8192 24.897 90.7807 24.9022 90.7439 24.8935C76.8384 15.1355 63.2864 8.95447 46.8539 4.88397C46.6167 4.85558 46.3766 4.86325 46.1416 4.90672C30.3461 9.91172 16.9726 19.0432 1.45014 25.9067C0.554144 26.3022 0.604895 27.4275 0.879645 27.893ZM46.5791 7.52997C62.3571 11.4797 75.4384 17.4385 88.8189 26.7625C85.1037 38.484 91.3074 53.898 87.2614 66.127C81.3324 84.0435 62.4394 96.0275 46.3516 105.43C25.9816 96.9147 10.7321 80.8287 5.50664 62.2682C2.51414 51.6335 6.22589 34.6567 3.69364 27.7635C19.0429 20.8195 31.5641 12.36 46.5791 7.52997Z" fill="#7B1FA2"/>
<path d="M18.4534 37.9898C20.0931 40.7653 17.7114 52.1858 19.6749 59.1666C23.0541 71.1716 32.9259 81.5473 46.0824 86.9181C46.7386 87.1876 47.1621 86.8568 47.5209 86.6468C57.8424 80.6163 69.5306 73.1176 73.3404 61.6008C76.0319 53.4668 72.0104 43.6056 74.4639 37.1271C74.5872 36.8017 74.5763 36.4407 74.4336 36.1234C74.2908 35.806 74.0279 35.5584 73.7026 35.4348C73.6624 35.4191 73.6221 35.4261 73.5801 35.4156C65.2274 31.4798 56.9114 27.5931 47.1376 23.3301C46.8431 23.2195 46.5217 23.2024 46.2171 23.2811C37.2239 26.1301 28.5369 30.2111 18.8786 36.1296C18.2224 36.5321 18.0964 37.3861 18.4534 37.9898ZM70.8484 60.7748C67.3221 71.4323 56.0171 78.6301 46.4656 84.2196C34.3626 79.0851 25.3099 69.5021 22.2019 58.4561C20.4466 52.2208 22.5781 42.3351 21.1886 37.8078C30.1189 32.4143 38.2214 28.6203 46.5496 25.9376C55.7686 29.9661 63.7084 33.6691 71.6324 37.4001C69.6934 44.5401 73.1864 53.7101 70.8484 60.7748Z" fill="#7B1FA2"/>
<path d="M59.9839 42.9828L43.7404 60.4881C42.2232 62.1261 41.8504 62.0403 40.6342 60.6018L33.3139 51.9393C33.2046 51.8019 33.0687 51.6879 32.9145 51.6039C32.7602 51.52 32.5907 51.4679 32.4159 51.4506C32.2412 51.4334 32.0647 51.4514 31.897 51.5036C31.7294 51.5558 31.5739 51.6411 31.4397 51.7545C31.3056 51.8678 31.1956 52.007 31.1163 52.1636C31.0369 52.3203 30.9898 52.4913 30.9777 52.6665C30.9656 52.8417 30.9888 53.0175 31.0459 53.1836C31.1031 53.3497 31.1929 53.5026 31.3102 53.6333L38.6287 62.2958C40.9982 65.1081 43.2032 64.9278 45.6637 62.2748L61.9089 44.7695C62.1456 44.5143 62.2712 44.1754 62.2581 43.8275C62.245 43.4797 62.0942 43.1513 61.8389 42.9145C61.5837 42.6778 61.2448 42.5522 60.8969 42.5654C60.5491 42.5785 60.2206 42.7275 59.9839 42.9828ZM101.363 0.841049C101.057 0.675463 100.698 0.637929 100.365 0.736684C100.031 0.83544 99.7509 1.06242 99.5847 1.3678L91.9879 15.3573C91.8259 15.6628 91.7909 16.02 91.8907 16.3511C91.9905 16.6822 92.217 16.9606 92.5209 17.1257C92.8248 17.2908 93.1815 17.3293 93.5136 17.2328C93.8458 17.1362 94.1264 16.9126 94.2944 16.6103L101.889 2.6208C102.056 2.31515 102.094 1.95598 101.995 1.62224C101.897 1.28851 101.668 1.00752 101.363 0.841049ZM99.2749 20.9853L113.112 14.6118C113.428 14.4661 113.674 14.2006 113.795 13.8739C113.915 13.5472 113.901 13.186 113.755 12.8697C113.61 12.5534 113.344 12.3079 113.017 12.1873C112.691 12.0667 112.329 12.0808 112.013 12.2265L98.1759 18.6018C97.8596 18.7475 97.6142 19.013 97.4936 19.3397C97.373 19.6664 97.3871 20.0276 97.5328 20.3439C97.6786 20.6602 97.944 20.9057 98.2707 21.0263C98.5974 21.1469 98.9586 21.131 99.2749 20.9853ZM114.047 25.8888L101.375 25.2483C101.202 25.2374 101.03 25.2612 100.866 25.3181C100.703 25.375 100.553 25.4639 100.425 25.5797C100.296 25.6954 100.193 25.8356 100.119 25.9921C100.046 26.1486 100.005 26.3181 99.9977 26.4908C99.9887 26.6629 100.014 26.8351 100.071 26.9976C100.129 27.1601 100.218 27.3096 100.333 27.4376C100.449 27.5657 100.588 27.6698 100.744 27.7439C100.899 27.8181 101.068 27.8608 101.24 27.8698L113.914 28.5121H113.982C114.324 28.5113 114.652 28.3771 114.897 28.138C115.141 27.8989 115.283 27.5738 115.291 27.2319C115.3 26.8901 115.174 26.5584 114.942 26.3075C114.709 26.0567 114.388 25.9064 114.047 25.8888Z" fill="#7B1FA2"/>
</svg>
