<svg width="95" height="101" viewBox="0 0 95 101" fill="none" xmlns="http://www.w3.org/2000/svg">
<path d="M72.5159 23.0917C74.0245 23.0299 75.2274 21.5831 75.002 20.1038C74.8568 19.1727 74.1774 18.4331 73.3359 18.1181C72.4712 16.9136 69.701 18.1613 69.7381 20.4358C69.7583 21.1553 70.0615 21.8377 70.5819 22.335C71.1023 22.8322 71.7963 23.1041 72.5159 23.0917ZM72.0666 20.3122C72.4217 20.3246 72.4156 20.2088 72.5978 20.3261C72.7259 20.4095 72.7553 20.4929 72.6317 20.6458C72.3785 20.9515 71.9848 20.5763 72.0666 20.3122ZM65.7203 20.1038C65.5813 19.1866 64.9142 18.4408 64.0573 18.1181C63.1925 16.9136 60.4224 18.1597 60.4564 20.4373C60.4687 21.1414 60.7822 21.8378 61.3211 22.3458C63.2358 24.1617 66.0692 22.3814 65.7203 20.1038ZM62.7787 20.3447C63.1354 20.3354 63.1277 20.1995 63.3192 20.3261C63.3964 20.3771 63.4288 20.4373 63.4319 20.4558C63.4473 20.567 63.2713 20.7724 63.1447 20.777C62.9671 20.7647 62.7401 20.5454 62.7787 20.3447ZM53.9572 23.0917C56.5729 22.9836 57.5951 19.1928 54.7771 18.1196C53.9124 16.9152 51.1407 18.1613 51.1778 20.4358C51.1994 21.8378 52.4131 23.1287 53.9572 23.0917ZM53.4986 20.3431C53.8584 20.3354 53.8475 20.1995 54.039 20.3277C54.1656 20.4111 54.1965 20.4945 54.0714 20.6458C53.8105 20.9608 53.4538 20.5701 53.4986 20.3431ZM14.9219 21.1229C15.0825 21.1229 32.1542 21.0534 32.3086 21.0457C32.6158 21.0451 32.9101 20.9225 33.1269 20.7049C33.3436 20.4872 33.465 20.1924 33.4644 19.8853C33.4638 19.5782 33.3412 19.2838 33.1236 19.0671C32.906 18.8503 32.6112 18.7289 32.304 18.7295H32.2994L14.9157 18.8067C14.7636 18.8071 14.6131 18.8375 14.4728 18.8961C14.3324 18.9546 14.205 19.0403 14.0977 19.1481C13.9905 19.2559 13.9055 19.3838 13.8477 19.5245C13.7899 19.6652 13.7603 19.8158 13.7607 19.9679C13.7611 20.12 13.7915 20.2705 13.85 20.4109C13.9086 20.5512 13.9943 20.6786 14.1021 20.7859C14.2099 20.8931 14.3378 20.9781 14.4785 21.0359C14.6191 21.0938 14.7698 21.1233 14.9219 21.1229ZM75.317 34.478H52.8377C52.5305 34.478 52.236 34.6 52.0188 34.8172C51.8016 35.0344 51.6796 35.3289 51.6796 35.6361C51.6796 35.9432 51.8016 36.2378 52.0188 36.455C52.236 36.6721 52.5305 36.7942 52.8377 36.7942H75.317C75.6241 36.7942 75.9187 36.6721 76.1358 36.455C76.353 36.2378 76.475 35.9432 76.475 35.6361C76.475 35.3289 76.353 35.0344 76.1358 34.8172C75.9187 34.6 75.6241 34.478 75.317 34.478ZM69.9033 44.26H54.2953C53.9882 44.26 53.6936 44.382 53.4764 44.5992C53.2593 44.8163 53.1373 45.1109 53.1373 45.4181C53.1373 45.7252 53.2593 46.0198 53.4764 46.2369C53.6936 46.4541 53.9882 46.5761 54.2953 46.5761H69.9033C70.2104 46.5761 70.505 46.4541 70.7222 46.2369C70.9394 46.0198 71.0614 45.7252 71.0614 45.4181C71.0614 45.1109 70.9394 44.8163 70.7222 44.5992C70.505 44.382 70.2104 44.26 69.9033 44.26ZM60.9536 54.4573H53.67C53.3628 54.4573 53.0683 54.5793 52.8511 54.7965C52.6339 55.0137 52.5119 55.3083 52.5119 55.6154C52.5119 55.9226 52.6339 56.2171 52.8511 56.4343C53.0683 56.6515 53.3628 56.7735 53.67 56.7735H60.9536C61.2607 56.7735 61.5553 56.6515 61.7725 56.4343C61.9897 56.2171 62.1117 55.9226 62.1117 55.6154C62.1117 55.3083 61.9897 55.0137 61.7725 54.7965C61.5553 54.5793 61.2607 54.4573 60.9536 54.4573ZM37.1634 33.7152H12.6042C12.297 33.7152 12.0025 33.8372 11.7853 34.0544C11.5681 34.2716 11.4461 34.5661 11.4461 34.8733C11.5758 63.285 11.128 62.3277 11.7981 62.9762C12.0141 63.1859 12.3032 63.3033 12.6042 63.3036C12.7586 63.3036 37.0336 62.5439 37.1958 62.53C37.3614 62.5249 37.524 62.4843 37.6726 62.4109C37.8212 62.3376 37.9524 62.2332 38.0572 62.1048C38.162 61.9765 38.238 61.8271 38.2801 61.6668C38.3223 61.5065 38.3295 61.3391 38.3014 61.1758C38.315 61.1035 38.3217 61.0301 38.3214 60.9565V34.8733C38.3214 34.5661 38.1994 34.2716 37.9822 34.0544C37.7651 33.8372 37.4705 33.7152 37.1634 33.7152ZM36.0053 60.2493L13.7622 60.9503V36.0314H36.0053V60.2493Z" fill="#7B1FA2"/>
<path d="M94.5252 94.0133L81.9113 72.1671C81.9437 72.059 81.9777 71.954 81.9777 71.8367C81.9777 56.292 82.7544 34.0197 81.3168 16.0322C81.3168 15.6285 81.2372 15.2286 81.0826 14.8556C80.928 14.4826 80.7014 14.1437 80.4157 13.8584C80.13 13.573 79.7909 13.3467 79.4178 13.1925C79.0446 13.0382 78.6447 12.959 78.2409 12.9595C58.2662 13.3084 28.2486 12.6753 6.43944 12.9595C5.8712 12.9595 5.33385 13.117 4.87216 13.3934L4.8737 13.3686C3.4423 14.2519 2.32591 16.1481 1.12767 17.3309C-0.637254 19.0294 0.445172 52.81 0.494584 69.9744C0.511569 72.3061 0.71076 76.8164 1.64341 77.5993C5.31841 79.2036 7.55429 78.2633 59.029 78.0842C51.8875 89.9646 51.1 90.9822 50.5997 93.235C50.2059 95.0108 50.2677 97.3331 51.5045 98.6642C53.0625 100.338 55.8126 100.17 58.0979 100.193L88.2128 100.489C90.1121 100.508 92.2183 100.451 93.6064 99.1521C94.4186 98.3908 94.8139 97.2482 94.7475 96.1411C94.973 95.4369 94.9066 94.6757 94.5252 94.0133ZM92.5194 95.5172C92.3016 95.8986 93.9554 95.579 55.3586 95.6902C55.2979 95.6904 55.2381 95.6745 55.1855 95.6441C55.1328 95.6138 55.0892 95.5701 55.0589 95.5174C55.0286 95.4647 55.0128 95.4049 55.0131 95.3441C55.0134 95.2834 55.0298 95.2237 55.0606 95.1714C74.4686 61.7814 73.3507 63.0769 73.7908 63.0769C74.2308 63.0769 73.133 61.8184 92.5194 95.1729C92.5508 95.2248 92.5675 95.2844 92.5675 95.3451C92.5675 95.4058 92.5508 95.4653 92.5194 95.5172ZM76.0946 62.0902C75.8632 61.684 75.5278 61.3468 75.1229 61.1131C74.718 60.8794 74.2582 60.7578 73.7908 60.7607C73.6919 60.7607 73.6024 60.7869 73.5066 60.7962C72.4427 60.4905 69.5892 61.8431 68.6782 62.7387C67.4166 63.9786 67.0167 64.7986 61.9767 73.18C36.4926 72.9917 24.9519 73.3684 6.43789 73.2279C6.33809 73.2273 6.23942 73.2068 6.14772 73.1674C6.05602 73.128 5.97316 73.0706 5.90405 72.9986C5.83493 72.9266 5.78097 72.8415 5.74536 72.7482C5.70974 72.655 5.6932 72.5556 5.69672 72.4558C5.00495 56.1469 4.49076 41.2261 4.98642 27.6533H79.6291C80.0954 41.5071 79.7464 56.3584 79.6754 68.2914L76.0946 62.0902ZM6.45488 15.2787C27.634 15.0039 58.8468 15.6184 78.261 15.2787C78.6686 15.2787 79.0022 15.6184 79.0052 16.1264C79.2415 19.0973 79.4083 22.1902 79.538 25.3386H5.09142C5.23657 22.1639 5.42186 19.0386 5.69826 16.0183C5.7023 15.8204 5.7838 15.6319 5.92525 15.4933C6.06671 15.3547 6.25686 15.2787 6.45488 15.2787Z" fill="#7B1FA2"/>
<path d="M70.9836 73.322L72.906 88.1517L74.2494 87.9648L76.2413 73.3312C76.2665 73.1478 76.252 72.9611 76.199 72.7836C76.1459 72.6062 76.0555 72.4422 75.9338 72.3027C75.8121 72.1631 75.6619 72.0512 75.4934 71.9746C75.3248 71.8979 75.1418 71.8582 74.9566 71.8581H72.2699C72.0853 71.8581 71.9029 71.8975 71.7347 71.9736C71.5666 72.0497 71.4167 72.1609 71.2949 72.2996C71.1732 72.4383 71.0824 72.6013 71.0287 72.7779C70.9751 72.9545 70.9597 73.139 70.9836 73.322ZM72.2251 91.0963C72.3486 91.751 72.9972 92.2544 73.6642 92.2389C74.3297 92.2235 74.9458 91.7093 75.1049 91.0623C75.6577 88.8311 71.8051 88.882 72.2251 91.0963ZM78.5652 9.59006C78.8047 9.59002 79.0383 9.51576 79.2338 9.37749C79.4293 9.23923 79.5771 9.04376 79.6569 8.818L82.0441 2.05322C82.0977 1.90919 82.1221 1.75593 82.1159 1.60238C82.1097 1.44883 82.073 1.29805 82.0079 1.15883C81.9428 1.01962 81.8506 0.894746 81.7368 0.791499C81.623 0.688253 81.4897 0.608695 81.3449 0.557461C81.2 0.506228 81.0463 0.484345 80.8929 0.493086C80.7395 0.501827 80.5893 0.541019 80.4512 0.608376C80.313 0.675734 80.1897 0.76991 80.0883 0.885417C79.987 1.00092 79.9096 1.13545 79.8608 1.28116L77.4735 8.04748C77.4118 8.22214 77.3928 8.40907 77.4183 8.59258C77.4437 8.77608 77.5128 8.9508 77.6198 9.10207C77.7267 9.25334 77.8684 9.37674 78.0329 9.46192C78.1974 9.5471 78.38 9.59003 78.5652 9.59006ZM84.1364 12.774C85.0428 12.774 84.8359 12.3695 90.9506 6.04167C91.1496 5.81557 91.2529 5.52091 91.2385 5.22004C91.2241 4.91917 91.0932 4.63571 90.8735 4.42965C90.6537 4.2236 90.3625 4.11111 90.0613 4.116C89.7601 4.12089 89.4727 4.24278 89.2598 4.45586L83.2918 10.8238C83.1379 10.9889 83.0356 11.1953 82.9973 11.4178C82.959 11.6402 82.9865 11.8689 83.0763 12.076C83.1662 12.283 83.3145 12.4593 83.503 12.5833C83.6916 12.7073 83.9107 12.7736 84.1364 12.774ZM87.2602 16.08C87.1147 16.0354 86.9618 16.0199 86.8103 16.0343C86.6588 16.0488 86.5117 16.0929 86.3773 16.1643C86.2428 16.2356 86.1238 16.3327 86.0269 16.4501C85.93 16.5674 85.8572 16.7027 85.8126 16.8482C85.7679 16.9937 85.7524 17.1465 85.7669 17.298C85.7814 17.4495 85.8255 17.5967 85.8968 17.7311C85.9682 17.8655 86.0653 17.9846 86.1826 18.0815C86.3 18.1783 86.4353 18.2512 86.5808 18.2958C88.8783 18.9919 91.3306 18.9919 93.6281 18.2958C93.9219 18.2057 94.1679 18.0026 94.312 17.7311C94.4561 17.4596 94.4864 17.142 94.3963 16.8482C94.3062 16.5543 94.1031 16.3083 93.8316 16.1643C93.5601 16.0202 93.2425 15.9899 92.9487 16.08C91.0947 16.6423 89.1141 16.6423 87.2602 16.08Z" fill="#7B1FA2"/>
</svg>
