<svg width="116" height="116" viewBox="0 0 116 116" fill="none" xmlns="http://www.w3.org/2000/svg">
<path d="M92.683 64.3104L95.8382 60.501C98.0546 58.4408 98.8496 54.9113 97.9665 51.057C96.8498 46.1479 93.7533 41.4801 90.3739 37.7247C92.202 34.6314 95.1376 31.9835 98.7429 30.2296C100.385 29.4563 102.555 29.3372 104.311 27.9777C107.497 25.5185 108.456 20.1144 105.33 15.131C100.87 7.90192 91.5138 6.06912 87.5388 11.1468C85.0564 14.2943 85.7401 18.6528 84.7564 21.8266C83.6969 25.1442 82.1286 27.741 80.6113 29.4021C76.3997 26.7001 71.571 24.5487 66.5892 24.5487C63.8671 24.5951 61.4125 25.6314 59.8241 27.4348L58.9611 28.471C42.1797 25.5324 47.9674 26.2748 41.0615 24.9091C37.8877 24.278 34.5841 25.5695 32.6105 28.1772C32.4589 28.3844 32.7033 27.9297 28.8212 36.5137L15.5307 38.6667C10.1282 39.4709 6.7224 45.588 9.37338 50.2265L16.9397 63.469L11.9037 74.9994C10.2349 78.8228 11.6423 83.2973 15.0698 85.5477V99.3316C15.0698 103.962 18.8297 107.73 23.4527 107.73H84.8554C89.4768 107.73 93.2383 103.962 93.2383 99.3115L93.2074 97.5916L93.4703 97.5498C96.5033 97.0595 99.5734 97.1013 102.56 95.7402C107.594 93.3893 108.406 87.8259 106.79 85.4951C105.16 83.1921 102.209 77.0379 92.683 64.3104ZM86.9712 22.5226C88.0044 19.1849 87.4197 15.046 89.3623 12.5806C92.7913 8.20352 102.345 11.3231 104.637 19.2606C105.287 21.5079 104.899 24.5935 102.893 26.1418C101.606 27.1425 99.5843 27.2677 97.7406 28.137C85.0518 34.3082 86.385 44.9338 85.573 46.1649C85.4122 46.4077 85.2374 46.5299 84.9853 46.5717C84.1609 46.7001 82.6498 45.9994 80.9902 44.6987C79.4389 43.3995 77.9959 41.9765 76.3626 40.7067C75.3495 39.9226 73.0837 37.9382 73.9096 36.4689C74.1725 35.9925 74.9443 35.9121 75.7811 35.5532C76.5962 35.2099 77.5381 34.7969 78.4027 34.2525C82.6993 31.6479 85.4292 27.3466 86.9712 22.5226ZM78.896 31.0493C75.1145 34.1427 73.0187 33.2874 71.8835 35.3382C71.1766 36.5972 70.6338 39.2049 74.9397 42.538C77.8753 44.8193 81.8069 49.4346 85.358 48.8607C87.6718 48.4849 88.1838 46.3675 88.3122 44.029C88.374 42.954 88.3632 42.3895 89.3113 40.0076C98.2681 50.5775 97.8566 59.9952 90.2207 60.3154C80.4505 60.7886 67.5899 49.798 62.8478 41.1769C55.2614 27.3033 65.5468 22.7004 78.896 31.0493ZM11.3887 49.0757C9.63322 46.0071 11.8991 41.5543 15.8879 40.9604L27.6766 39.0502C23.2532 48.87 22.4211 50.9921 18.0981 60.818L11.3887 49.0757ZM14.0304 75.9259C31.2695 36.8076 2.39482 101.966 34.5392 29.4795C35.9869 27.6389 38.3533 26.7403 40.6114 27.1858C47.5436 28.5592 41.3677 27.7054 57.2489 30.5235C55.3279 32.828 55.4161 32.712 55.3589 32.7971C52.5192 36.8246 54.4371 42.7205 56.7818 47.0589C61.7466 56.0899 74.7618 67.2243 85.1214 67.3929L80.3607 91.0724C80.1958 91.8798 79.8731 92.6467 79.4112 93.3292C78.9494 94.0117 78.3574 94.5964 77.6691 95.0497C76.9809 95.503 76.21 95.816 75.4006 95.9709C74.5912 96.1257 73.7592 96.1194 72.9522 95.9521C13.8432 83.5432 18.0471 84.5826 16.7788 83.9067C13.9484 82.3863 12.742 78.8784 14.0304 75.9259ZM73.7565 98.3881L52.1016 101.891C43.6413 103.243 41.7327 102.15 38.0718 95.782L34.9754 90.3655C73.9514 98.4902 72.547 98.32 73.7565 98.3881ZM101.589 93.6321C98.995 94.8122 96.0316 94.7766 93.1146 95.2561L77.3664 97.805C78.6992 97.282 79.8798 96.4335 80.8003 95.3368C81.7208 94.2402 82.3519 92.9304 82.6359 91.5271L87.5156 67.2568C89.0623 67.0217 90.0413 66.5593 90.9802 65.9112C99.9462 78.1283 104.885 86.8175 104.891 86.8237C105.587 87.8306 105.527 91.7962 101.589 93.6321Z" fill="#29A55C"/>
<path d="M38.1198 82.7926C39.6044 82.2911 40.9755 81.5018 42.1548 80.4699C43.3341 79.438 44.2984 78.1837 44.9925 76.7788C45.6866 75.3739 46.0969 73.8459 46.2 72.2823C46.3031 70.7187 46.0969 69.1501 45.5933 67.6662C45.0916 66.1817 44.3022 64.8107 43.2702 63.6315C42.2383 62.4524 40.984 61.4882 39.5792 60.7941C38.1743 60.1 36.6464 59.6896 35.0829 59.5864C33.5193 59.4832 31.9508 59.6893 30.4669 60.1927C28.9807 60.6914 27.6083 61.4799 26.429 62.5127C25.2497 63.5454 24.287 64.8019 23.5966 66.2092C18.9164 75.6795 28.051 86.2123 38.1198 82.7926ZM31.2093 62.389C36.2236 60.6954 41.6926 63.3835 43.3955 68.4101C44.2097 70.8247 44.033 73.4636 42.9043 75.7481C41.7755 78.0326 39.7868 79.7761 37.3743 80.5963C34.9595 81.4098 32.3208 81.2328 30.0363 80.1041C27.7517 78.9755 26.0078 76.9873 25.1866 74.5752C24.3728 72.1604 24.5499 69.5215 25.6789 67.2371C26.8079 64.9527 28.7967 63.2092 31.2093 62.389Z" fill="#29A55C"/>
<path d="M29.9959 73.2065C32.0035 76.3416 34.8757 73.9288 39.4956 71.7201C39.7725 71.5858 39.9846 71.347 40.0854 71.0562C40.1862 70.7654 40.1674 70.4465 40.033 70.1696C39.8987 69.8927 39.6599 69.6805 39.3691 69.5798C39.0783 69.479 38.7594 69.4978 38.4825 69.6321L33.3445 72.1176C33.0738 72.2491 32.7335 72.4533 32.5402 72.4038C32.3562 72.3976 32.1149 72.2135 31.9478 71.9521C31.7066 71.5809 31.5766 71.0736 31.4405 70.5354C31.4057 70.3848 31.3411 70.2427 31.2506 70.1175C31.1601 69.9922 31.0455 69.8863 30.9135 69.806C30.7814 69.7256 30.6347 69.6725 30.4819 69.6496C30.329 69.6268 30.1731 69.6347 30.0234 69.673C29.8737 69.7112 29.7331 69.779 29.6099 69.8723C29.4867 69.9656 29.3834 70.0826 29.3061 70.2164C29.2288 70.3502 29.1789 70.4981 29.1596 70.6514C29.1402 70.8047 29.1516 70.9604 29.1932 71.1092C29.3618 71.7712 29.5536 72.5213 29.9959 73.2065ZM37.4772 37.8837C47.962 39.8232 47.3666 39.7382 47.5692 39.7382C47.8592 39.7391 48.139 39.6314 48.3535 39.4362C48.568 39.241 48.7017 38.9726 48.7281 38.6838C48.7545 38.3949 48.6717 38.1067 48.4961 37.8759C48.3206 37.6451 48.0649 37.4884 47.7795 37.4367L37.8994 35.6024C37.7496 35.5747 37.5958 35.5767 37.4468 35.6084C37.2978 35.6401 37.1565 35.7009 37.031 35.7872C36.9055 35.8735 36.7982 35.9837 36.7152 36.1115C36.6323 36.2393 36.5754 36.3821 36.5476 36.5319C36.5199 36.6817 36.522 36.8355 36.5537 36.9845C36.5854 37.1335 36.6461 37.2748 36.7324 37.4003C36.8188 37.5259 36.9289 37.6332 37.0567 37.7161C37.1845 37.799 37.3274 37.856 37.4772 37.8837ZM32.7598 47.4158C50.8976 50.6298 49.0509 50.3236 49.2318 50.3236C49.5226 50.3243 49.803 50.2159 50.0176 50.0198C50.2322 49.8237 50.3653 49.5541 50.3906 49.2645C50.4159 48.9748 50.3315 48.6863 50.1541 48.4559C49.9768 48.2255 49.7194 48.0702 49.4329 48.0206L33.1651 45.1314C32.551 45.0231 31.9324 45.4407 31.8195 46.0718C31.7066 46.7028 32.1288 47.3029 32.7598 47.4158ZM58.3912 76.2008C74.956 79.902 74.0713 79.7396 74.3126 79.7396C74.597 79.7378 74.8709 79.6316 75.0821 79.4412C75.2934 79.2507 75.4273 78.9893 75.4584 78.7065C75.4895 78.4238 75.4157 78.1395 75.2509 77.9077C75.0861 77.6758 74.8419 77.5126 74.5647 77.449L58.8985 73.9381C58.7499 73.9048 58.5963 73.901 58.4462 73.9271C58.2962 73.9532 58.1528 74.0086 58.0242 74.0901C57.8956 74.1716 57.7843 74.2776 57.6967 74.4021C57.609 74.5267 57.5468 74.6672 57.5135 74.8158C57.4802 74.9644 57.4764 75.1181 57.5025 75.2681C57.5286 75.4181 57.584 75.5615 57.6655 75.6901C57.747 75.8187 57.853 75.93 57.9775 76.0176C58.1021 76.1053 58.2426 76.1675 58.3912 76.2008ZM56.0805 84.276C72.6453 87.9772 71.759 87.8148 72.0003 87.8148C72.2859 87.8146 72.5614 87.7092 72.7741 87.5185C72.9868 87.3279 73.1216 87.0655 73.1529 86.7816C73.1841 86.4977 73.1095 86.2122 72.9433 85.9799C72.7772 85.7476 72.5312 85.5848 72.2524 85.5226L56.5862 82.0117C56.4376 81.9779 56.2838 81.9739 56.1337 81.9998C55.9835 82.0258 55.8399 82.0812 55.7113 82.1628C55.5826 82.2445 55.4714 82.3508 55.384 82.4756C55.2966 82.6005 55.2347 82.7413 55.202 82.8902C55.1684 83.0388 55.1645 83.1925 55.1904 83.3426C55.2163 83.4927 55.2716 83.6362 55.353 83.765C55.4345 83.8937 55.5405 84.0051 55.6651 84.0928C55.7896 84.1805 55.9318 84.2427 56.0805 84.276Z" fill="#29A55C"/>
</svg>
