<svg width="144" height="144" viewBox="0 0 144 144" fill="none" xmlns="http://www.w3.org/2000/svg">
<g clip-path="url(#clip0_1001_6623)">
<path d="M110.601 67.8088C113.493 68.1898 116.235 67.1698 118.25 65.3048L123.137 70.2836C123.399 70.5501 123.755 70.7019 124.128 70.7056C124.501 70.7094 124.861 70.5647 125.127 70.3035C125.394 70.0423 125.545 69.6859 125.549 69.3128C125.553 68.9396 125.408 68.5803 125.147 68.3138L120.054 63.1245C120.739 61.9737 121.183 60.6958 121.359 59.3684C122.063 54.0251 118.382 49.1184 113.154 48.4296C107.926 47.7408 103.102 51.527 102.398 56.8703C101.694 62.2135 105.375 67.1203 110.601 67.8088ZM112.787 51.2193C116.477 51.7055 119.071 55.1957 118.569 59.0008C118.068 62.806 114.658 65.5052 110.969 65.0191C107.279 64.5329 104.687 61.043 105.188 57.2378C105.689 53.4326 109.099 50.7334 112.787 51.2193Z" fill="#29A55C"/>
<path d="M115.366 82.434C125.794 83.7132 130.054 81.6501 132.144 71.5171C133.339 65.7168 133.996 59.8184 134.106 53.8972C134.144 51.8815 134.11 49.8165 133.407 47.9264C132.092 44.391 129.713 42.1438 125.542 41.5942L25.6029 28.4271C20.879 27.8047 16.6415 30.3116 16.1539 34.0126C12.9226 59.1415 12.8127 57.9653 13.0174 59.4132C12.4548 60.9833 12.7494 62.8404 13.6636 64.274C15.9525 67.8678 20.5854 68.5066 24.5181 68.9585C26.0466 69.1334 27.5877 69.2986 29.1188 69.2524C25.6872 71.3888 22.2684 73.5457 18.8626 75.7231C18.6415 75.8643 18.4643 76.0646 18.351 76.3012C18.2377 76.5378 18.1929 76.8014 18.2215 77.0622C18.2501 77.323 18.3511 77.5706 18.513 77.777C18.6749 77.9834 18.8913 78.1405 19.1377 78.2304C24.4329 80.1749 29.8666 81.9012 35.319 83.3707C32.3323 88.1663 29.2836 92.9229 26.1735 97.6393C26.0642 97.8041 25.9909 97.99 25.9584 98.185C25.9258 98.38 25.9347 98.5797 25.9845 98.771C26.0342 98.9624 26.1238 99.1411 26.2472 99.2955C26.3707 99.4499 26.5253 99.5765 26.701 99.6672C29.2351 100.97 32.0927 102.775 34.6518 104.088C34.9582 104.248 35.1214 104.23 35.3108 104.228C36.4987 104.532 37.7527 104.622 38.334 103.599C40.6346 99.5503 43.6009 94.384 46.2491 90.5268C51.1523 95.676 53.1898 97.9046 56.3287 101.122C56.5511 101.352 56.8461 101.497 57.1636 101.534C57.4812 101.571 57.8017 101.498 58.071 101.325C58.3497 101.192 58.827 100.973 60.0428 100.62C60.6445 100.446 61.1786 100.092 61.5737 99.6054C61.9688 99.1192 62.206 98.5239 62.2536 97.8992C62.8011 90.3644 63.1746 82.818 63.3738 75.266C67.5579 76.2657 115.151 82.4056 115.366 82.434ZM125.174 44.3839C127.832 44.734 130.747 46.6584 130.412 49.0872C127.755 67.0431 128.304 65.0624 127.208 70.3786C126.308 74.7405 125.28 76.7526 120.737 76.154L94.841 72.869C94.991 72.5633 99.1888 41.5487 98.9266 40.9257L125.174 44.3839ZM45.509 85.6896C45.3554 85.5329 45.1674 85.4142 44.9599 85.343C44.7524 85.2718 44.5311 85.25 44.3137 85.2794C44.0963 85.3089 43.8887 85.3887 43.7076 85.5125C43.5265 85.6363 43.3768 85.8007 43.2704 85.9926C40.4841 91.0105 37.6463 95.9997 34.7576 100.959C32.9119 99.9462 31.1205 98.8663 29.3701 97.9054C32.5442 93.0558 35.6595 88.168 38.7151 83.243C38.8313 83.0558 38.9019 82.844 38.9212 82.6246C38.9405 82.4051 38.9081 82.1842 38.8264 81.9796C38.7448 81.775 38.6162 81.5925 38.4511 81.4467C38.286 81.3008 38.089 81.1958 37.8759 81.14C32.8131 79.8297 27.7523 78.2888 22.7982 76.5557C34.382 69.1853 46.1788 62.0075 58.2861 55.4175C57.4926 69.339 56.8989 83.022 56.1155 96.8521C52.4941 93.0601 49.0578 89.3283 45.5087 85.6915L45.509 85.6896ZM63.5163 68.899C63.5865 64.8724 63.6201 60.8452 63.617 56.818C63.6155 55.9468 63.2889 55.1076 62.701 54.4646L61.1886 52.8179C61.171 52.5905 61.0964 52.3712 60.9717 52.1803C60.847 51.9893 60.6762 51.8328 60.475 51.7253C60.2739 51.6177 60.049 51.5625 59.8209 51.5648C59.5928 51.5671 59.369 51.6268 59.1701 51.7384C51.3493 55.9564 43.64 60.3779 36.05 64.9983L21.045 63.0214C17.915 62.609 15.508 60.4566 15.7898 58.3178L18.9434 34.382C19.2237 32.2544 22.105 30.8063 25.2351 31.2187L96.5551 40.6152C96.138 41.1525 92.1607 72.2018 92.2278 72.5399L63.5163 68.899Z" fill="#29A55C"/>
<path d="M60.2746 42.1227C60.0899 42.1308 59.9085 42.1752 59.741 42.2535C59.5734 42.3317 59.4229 42.4422 59.2981 42.5786C59.1733 42.7151 59.0766 42.8748 59.0135 43.0486C58.9505 43.2225 58.9223 43.407 58.9307 43.5918L59.1318 48.1687C59.155 48.5364 59.3214 48.8802 59.5953 49.1265C59.8692 49.3728 60.2288 49.5018 60.5968 49.4859C60.9648 49.4699 61.3118 49.3103 61.5634 49.0413C61.815 48.7723 61.9511 48.4153 61.9424 48.0471L61.7418 43.4664C61.7244 43.094 61.5604 42.7436 61.2854 42.4919C61.0105 42.2401 60.6471 42.1074 60.2746 42.1227ZM68.9569 47.4406C69.221 47.1768 69.3694 46.8189 69.3696 46.4456C69.3699 46.0724 69.2218 45.7143 68.958 45.4502C68.6942 45.1861 68.3363 45.0377 67.9631 45.0375C67.5898 45.0372 67.2317 45.1853 66.9677 45.4491L64.0603 48.3583C63.9271 48.4883 63.821 48.6435 63.7481 48.8149C63.6753 48.9863 63.6372 49.1704 63.6361 49.3566C63.635 49.5428 63.6708 49.7273 63.7415 49.8996C63.8122 50.0718 63.9165 50.2283 64.0481 50.36C64.1798 50.4916 64.3362 50.5958 64.5085 50.6666C64.6807 50.7373 64.8653 50.7732 65.0515 50.772C65.2377 50.7709 65.4218 50.7329 65.5931 50.66C65.7645 50.5872 65.9197 50.4811 66.0498 50.3479L68.9569 47.4406ZM69.7895 52.5094L66.448 52.8544C66.2606 52.8685 66.0779 52.92 65.9108 53.0059C65.7436 53.0917 65.5954 53.2102 65.4748 53.3543C65.3541 53.4984 65.2636 53.6652 65.2085 53.8449C65.1534 54.0246 65.1349 54.2134 65.154 54.4004C65.1731 54.5873 65.2295 54.7686 65.3198 54.9334C65.4101 55.0982 65.5325 55.2432 65.6797 55.3599C65.827 55.4767 65.9962 55.5627 66.1772 55.613C66.3583 55.6632 66.5476 55.6767 66.734 55.6526L70.081 55.3084C70.2649 55.2893 70.4433 55.2341 70.6059 55.1461C70.7685 55.058 70.9121 54.9388 71.0286 54.7952C71.1451 54.6517 71.2322 54.4866 71.2849 54.3093C71.3376 54.1321 71.3549 53.9462 71.3358 53.7623C71.3167 53.5784 71.2615 53.4001 71.1735 53.2375C71.0854 53.0749 70.9662 52.9313 70.8226 52.8147C70.6791 52.6982 70.5139 52.6111 70.3367 52.5584C70.1595 52.5057 69.9736 52.4884 69.7897 52.5076L69.7895 52.5094Z" fill="#29A55C"/>
</g>
<defs>
<clipPath id="clip0_1001_6623">
<rect width="127.56" height="127.56" fill="white" transform="translate(16.8584 0.233398) rotate(7.50557)"/>
</clipPath>
</defs>
</svg>
