<svg width="99" height="99" viewBox="0 0 99 99" fill="none" xmlns="http://www.w3.org/2000/svg">
<path d="M92.6966 87.5091C89.6045 83.583 86.0147 78.9504 82.8101 74.8751C83.4611 73.1609 83.1261 71.3436 81.5624 70.4404C88.6687 59.6874 81.0878 45.7135 69.2702 44.8781C75.5994 18.799 46.9938 -3.34712 23.0277 10.5549C15.2487 14.4444 9.06461 21.59 6.73743 30.001C3.59113 41.3426 7.64335 54.3577 16.6754 61.9196C24.3866 68.375 35.0433 70.8215 45.4207 69.601C47.5092 69.3632 49.581 68.9954 51.6238 68.4997C53.1969 72.4584 56.1235 75.564 58.7463 76.9487C63.5377 79.7464 69.7313 79.9471 74.7287 77.5793C75.0868 78.0024 75.5234 78.3319 75.9832 78.4838C86.7986 91.7024 87.28 92.451 89.279 92.7141C90.1944 92.8334 91.7852 92.3479 92.3507 91.9302C93.5848 91.0189 93.5821 88.6307 92.6966 87.5091ZM48.6904 38.4363C41.8736 39.066 35.014 39.0806 28.1947 38.4797C27.7551 33.8435 28.0836 29.1665 29.167 24.6373C35.2901 25.8714 41.146 25.8389 46.9341 24.7797C48.1167 28.7628 48.826 32.8381 48.6904 38.4363ZM67.2088 44.8442C64.5792 44.9323 62.3266 45.5629 60.1567 46.6533C57.7523 47.9213 56.2374 49.3792 54.5382 51.3497C54.5246 51.3483 54.5246 51.3483 54.5219 51.3741C53.8994 52.082 53.2335 52.9703 52.5026 54.2858C52.3874 54.1571 52.2406 54.0608 52.0767 54.0064C50.8562 53.6348 49.6044 53.3351 48.3513 53.0775C49.4851 49.4863 50.3503 45.5589 50.6541 40.2848C56.5383 39.652 62.3652 38.5684 68.0835 37.0435C68.1703 41.4239 67.3092 44.2515 67.2088 44.8442ZM9.47553 37.3324C15.0212 38.7544 20.6648 39.7625 26.3598 40.3485C26.905 44.5065 28.0279 48.8435 29.658 53.1263C25.3454 54.0254 21.2389 55.5077 17.4349 57.5745C12.1607 51.96 9.48367 44.7045 9.47553 37.3324ZM50.5592 64.4462C48.034 65.5588 45.3623 66.3032 42.6256 66.6567C44.3561 63.147 46.2249 59.1897 47.699 55.0195C50.8467 55.6447 51.0623 55.9105 51.6766 55.9688C50.4981 58.7232 50.1523 61.4979 50.5592 64.4462ZM40.2496 66.8724C39.9418 66.8859 39.6326 66.8913 39.3233 66.8968C36.6014 63.0782 34.3032 58.9747 32.4693 54.6587C36.843 53.9749 41.2963 53.974 45.6702 54.656C44.0876 59.0554 42.0533 63.2365 40.2496 66.8724ZM30.4215 55.0371C32.1466 59.174 34.2829 63.1272 36.7982 66.8371C30.4567 66.3896 24.0353 63.7559 18.9578 59.0826C22.5668 57.1948 26.4271 55.8326 30.4215 55.0371ZM46.3388 52.7045C41.146 51.8772 36.3845 51.9559 31.6841 52.7262C30.1041 48.6442 28.9934 44.5079 28.4334 40.537C35.3294 41.1202 41.6695 41.1079 48.6022 40.4868C48.2808 45.5182 47.4468 49.249 46.3374 52.7059L46.3388 52.7045ZM26.0506 37.213C26.0709 37.5643 26.1075 37.921 26.1374 38.2749C20.5375 37.6813 14.9895 36.6723 9.53927 35.2561C9.93717 29.5276 12.0605 24.054 15.6298 19.5558C19.1518 21.6049 23.0738 23.1578 27.1884 24.1749C26.1695 28.4412 25.7856 32.8346 26.0492 37.213H26.0506ZM16.9751 17.9759C21.559 12.9852 27.663 9.67612 34.65 8.67934C31.5118 12.5973 29.1643 17.2069 27.7092 22.2098C23.8929 21.2713 20.2584 19.846 16.9751 17.9759ZM91.099 88.769C91.3512 89.089 91.3377 90.0899 91.141 90.296C90.7613 90.5754 89.7442 90.6283 89.5231 90.452C86.4894 86.5991 83.2142 82.2228 79.9486 78.0566C80.5453 77.7339 81.0986 77.2728 81.6438 76.6869C84.9732 80.9236 88.0924 84.9487 91.099 88.769ZM80.4558 74.9768C79.794 75.7729 79.1892 76.2407 78.4921 76.4889C77.4587 76.8551 76.3141 76.8144 75.9466 75.6983C77.6014 74.749 79.0805 73.5218 80.3188 72.0705C81.4282 72.396 81.241 74.0275 80.4545 74.9754L80.4558 74.9768ZM79.9242 53.4518C84.5853 60.6869 81.9856 70.0512 74.7708 74.0315C70.9871 76.1295 66.684 76.3384 62.8772 74.9849L62.8786 74.9822C54.389 72.2577 50.3652 61.1643 55.6 53.4626L55.7248 53.2782C61.1427 44.8699 74.0818 44.4739 79.9242 53.4518ZM67.9683 34.9754C62.3139 36.5044 56.5497 37.5935 50.7273 38.2329C50.8372 32.4949 50.0954 28.3207 48.9291 24.3647C53.4275 23.3395 57.7251 21.6877 61.5332 19.4364C61.5441 19.431 61.5495 19.4202 61.559 19.4147C65.4132 24.1166 67.4516 29.293 67.9683 34.9754ZM60.1947 17.8511C56.5941 19.9355 52.55 21.472 48.3134 22.4214C46.7755 17.8402 44.5975 13.3825 41.5325 8.5044C48.666 9.2096 55.3302 12.6814 60.1947 17.8511ZM39.044 8.37149C42.4303 13.5832 44.7046 18.0979 46.309 22.8255C40.7012 23.8155 35.2888 23.7775 29.6946 22.6668C31.2759 17.2923 33.934 12.4007 37.54 8.41625C38.4812 8.37556 38.054 8.36607 39.044 8.37149Z" fill="#29A55C"/>
<path d="M58.274 58.5904C58.3107 58.4616 58.3216 58.3269 58.3061 58.194C58.2906 58.061 58.249 57.9324 58.1837 57.8155C58.1184 57.6986 58.0307 57.5958 57.9255 57.5129C57.8204 57.43 57.7 57.3687 57.5711 57.3325C57.4422 57.2962 57.3075 57.2858 57.1745 57.3018C57.0416 57.3177 56.9132 57.3598 56.7965 57.4255C56.6799 57.4912 56.5774 57.5793 56.4949 57.6847C56.4123 57.7901 56.3514 57.9108 56.3157 58.0398C55.2416 61.8587 56.5557 66.1429 59.584 68.702C59.7901 68.8762 60.057 68.9615 60.326 68.939C60.5949 68.9165 60.8439 68.788 61.0182 68.5819C61.1924 68.3758 61.2777 68.109 61.2552 67.84C61.2327 67.5711 61.1042 67.3221 60.8981 67.1478C58.5045 65.1257 57.4264 61.6065 58.274 58.5904ZM62.9256 68.9203C62.3642 68.9203 61.9085 69.4221 61.9085 69.9835C61.9085 70.2533 62.0156 70.512 62.2064 70.7027C62.3971 70.8935 62.6559 71.0007 62.9256 71.0007C63.1954 71.0007 63.4541 70.8935 63.6448 70.7027C63.8356 70.512 63.9427 70.2533 63.9427 69.9835V69.894C63.9427 69.3326 63.4871 68.9203 62.9256 68.9203ZM77.286 32.5751C77.1737 32.5027 77.0482 32.4532 76.9167 32.4294C76.7851 32.4056 76.6502 32.4079 76.5196 32.4362C76.389 32.4646 76.2653 32.5184 76.1555 32.5945C76.0457 32.6707 75.952 32.7678 75.8797 32.8802L72.831 37.6282C72.7589 37.7406 72.7096 37.8662 72.686 37.9977C72.6624 38.1292 72.665 38.2641 72.6935 38.3946C72.722 38.5251 72.776 38.6488 72.8523 38.7584C72.9286 38.8681 73.0257 38.9617 73.1382 39.0338C73.2507 39.1059 73.3762 39.1552 73.5078 39.1788C73.6393 39.2024 73.7741 39.1999 73.9047 39.1714C74.0352 39.1428 74.1588 39.0889 74.2685 39.0126C74.3782 38.9363 74.4717 38.8391 74.5439 38.7267L77.5925 33.9801C77.7381 33.7531 77.7876 33.4776 77.7302 33.2141C77.6727 32.9507 77.5129 32.7208 77.286 32.5751ZM77.2182 42.2852L82.1018 38.8487C82.3224 38.6935 82.4724 38.457 82.5187 38.1912C82.565 37.9255 82.5038 37.6522 82.3486 37.4315C82.1934 37.2109 81.9569 37.0609 81.6911 37.0146C81.4253 36.9683 81.1521 37.0295 80.9314 37.1847L76.0492 40.6212C75.9362 40.6964 75.8394 40.7935 75.7645 40.9067C75.6896 41.0198 75.6381 41.1469 75.6131 41.2803C75.5881 41.4137 75.59 41.5507 75.6187 41.6834C75.6475 41.816 75.7025 41.9416 75.7805 42.0526C75.8585 42.1637 75.958 42.258 76.073 42.33C76.1881 42.4021 76.3163 42.4503 76.4503 42.472C76.5843 42.4937 76.7213 42.4883 76.8532 42.4563C76.985 42.4242 77.1092 42.366 77.2182 42.2852ZM78.7575 45.8519L83.8499 47.0087C84.113 47.0685 84.389 47.0212 84.6173 46.8774C84.8455 46.7335 85.0073 46.5049 85.067 46.2418C85.1267 45.9787 85.0795 45.7027 84.9357 45.4744C84.7918 45.2462 84.5632 45.0844 84.3001 45.0247L79.2077 43.8692C78.9446 43.8095 78.6686 43.8568 78.4403 44.0006C78.212 44.1444 78.0503 44.373 77.9906 44.6361C77.9309 44.8992 77.9781 45.1753 78.1219 45.4036C78.2658 45.6318 78.4944 45.7922 78.7575 45.8519Z" fill="#29A55C"/>
</svg>
