<svg width="121" height="121" viewBox="0 0 121 121" fill="none" xmlns="http://www.w3.org/2000/svg">
<path d="M110.648 78.6238C108.552 76.6048 106.276 74.4549 104.196 72.4412C105.464 71.1402 106.692 69.7855 107.968 68.4908C108.427 67.8655 110.36 66.5299 110.239 65.6146C110.228 64.0716 108.522 64.1663 107.421 64.2207L104.991 64.2277C102.613 64.2674 100.105 64.3371 97.7252 64.3686C99.7367 60.1038 98.2324 45.2624 94.8705 41.8456C96.1198 40.6276 97.3355 39.3516 98.5903 38.1592C99.0847 37.6331 99.794 37.2602 99.9305 36.4851C100.456 33.7432 100.951 30.7482 101.48 28.0141L99.431 26.2853C96.8278 27.3612 93.8454 28.5194 91.1888 29.5119C90.4526 29.8216 89.3892 31.4128 88.8186 31.9418C84.5221 23.8096 75.6032 19.0862 66.8167 17.422C49.7078 14.2378 31.5309 24.7503 25.3466 40.9369C23.9808 44.3711 23.1376 48.0883 22.8671 51.7771C22.6868 55.824 23.4314 59.8582 23.7496 63.8807C20.841 63.8279 17.3826 63.7691 14.4583 63.8308C13.324 63.9545 11.344 63.4807 10.5009 64.3913C8.8768 66.0086 11.5325 67.737 12.5199 68.7783C13.8288 69.9977 15.1344 71.221 16.3911 72.4954C14.9471 73.9811 13.5462 75.5161 12.0949 76.9954C12.0857 77.0065 10.226 78.8803 10.218 78.8898C9.34749 79.715 10.0016 81.3301 11.2252 81.282L12.6167 81.2761C17.2965 81.2645 22.0687 81.1179 26.7359 81.0356C28.9432 92.3801 40.9162 101.077 51.7728 103.32C68.3193 106.957 88.2037 98.3742 93.4616 81.5392C97.7985 81.6065 102.398 81.7507 106.75 81.6655C107.323 81.6619 108.905 81.6549 109.462 81.6411C110.961 81.667 111.787 79.6458 110.648 78.6238ZM93.5516 43.5483C93.6015 43.7165 93.6712 43.9254 93.6489 44.0986C93.5758 44.2051 93.5998 44.2845 93.648 44.3595C94.0013 45.4935 94.2181 46.6955 94.4618 47.8579C94.736 49.9962 94.8771 52.1856 95.022 54.3219C95.1348 56.7158 94.9577 59.2307 95.2268 61.6028C95.1672 61.8564 95.409 62.0732 95.3754 62.3118C95.4809 62.4527 95.3792 62.6078 95.5005 62.7435C95.5803 63.2905 95.6883 63.8611 95.7374 64.4153C91.5411 64.3596 87.2988 64.8083 83.164 65.4556C83.2497 64.1653 82.9336 62.8113 82.0102 61.8736C82.9656 60.1992 81.7261 57.6492 80.8319 56.1323C80.6286 55.6769 80.3573 55.2793 80.0589 54.8916C79.6228 54.0093 78.9728 53.2148 78.3734 52.4931C84.3314 51.2648 89.2208 47.3439 93.4737 43.2069C93.4965 43.3221 93.5243 43.4351 93.5516 43.5483ZM79.9495 82.6696C80.1908 84.1905 79.2197 85.0371 77.7273 85.0034C76.1017 84.9804 74.4912 85.0603 72.8635 85.0141C68.7672 84.9875 63.8444 84.9921 59.7469 85.0487C54.6983 85.0252 47.3611 85.1261 42.326 85.0419C40.9779 84.9037 40.3753 83.9781 40.5106 82.7371C40.4317 78.2115 40.065 73.7047 40.0372 69.1715C43.5104 72.2389 48.0394 73.8535 52.1989 75.791C54.4977 76.7125 56.9646 78.0711 59.4763 78.2013C62.8718 78.574 65.9036 76.3355 68.9233 75.133C72.7087 73.1861 76.7977 71.7055 80.1078 68.955C80.0841 73.2338 79.9488 78.383 79.9495 82.6696ZM65.2553 41.5148C64.7739 42.0712 64.2303 42.5707 63.6354 43.0036C61.6173 42.5518 59.5211 42.4966 57.4675 42.6996C55.9274 41.5661 54.585 40.0345 53.8503 38.2505C52.5687 34.6241 54.5199 30.2739 58.1775 28.9809C65.945 26.6403 70.8053 35.951 65.2553 41.5148ZM54.8999 46.8371C56.9266 46.1903 59.0541 46.0252 61.1674 46.0008C64.0838 50.9267 69.9511 53.5514 75.5897 52.8905C75.6318 53.041 75.7893 53.1664 75.7678 53.3189C75.7092 53.413 75.7315 53.4474 75.7743 53.4686C76.1557 54.0265 76.4933 54.6452 76.8038 55.2524C77.3788 56.9563 78.3845 58.4843 78.8204 60.2388C75.9323 60.1297 72.7781 60.2558 69.8942 60.2875C71.5701 57.2935 70.4886 53.8493 66.9488 53.1257C64.3108 52.8878 61.6386 53.3501 59.0018 53.3339C57.5766 53.5323 55.9436 53.397 54.5074 53.5008C50.0681 54.0591 49.7731 57.4188 51.4523 60.9121C48.8233 61.2066 45.9708 61.1814 43.4434 61.6587C43.6065 61.7189 43.8741 61.6785 44.0029 61.7632C43.8446 61.9183 43.5017 61.9239 43.9513 61.9991C43.5283 62.0548 43.0709 62.0287 42.6709 62.1528C44.3438 62.6576 46.1724 62.4321 47.9017 62.5197C50.0144 62.768 52.2042 62.5064 54.3484 62.7104C59.4442 62.8759 64.924 63.0064 70.0491 63.0042C72.4819 63.0289 75.2942 63.0482 77.7326 63.062C80.8537 63.0923 80.1163 65.2899 80.132 67.5131C80.0984 67.5405 79.7071 67.6711 79.649 67.691C79.5331 67.7568 79.3869 67.6116 79.2763 67.7106C78.1479 68.3555 76.8316 68.666 75.626 69.1212C73.0359 69.9951 70.4445 71.3241 67.873 72.3299C64.9666 73.2889 62.0585 75.3873 58.8888 74.7501C54.4553 73.2086 50.1613 70.8118 45.7477 69.2364C43.7592 68.8574 41.9396 67.7875 39.9411 67.5172C39.8966 66.4094 39.8995 65.2891 39.9269 64.1851C39.9852 62.9594 41.5657 62.0783 42.6709 61.8385C42.0323 61.6981 41.4319 61.5718 40.7811 61.5868C41.7588 58.645 43.2621 55.4915 45.3854 53.0468C47.9949 50.2578 51.2537 48.0207 54.8999 46.8371ZM52.5646 60.8284C52.5544 60.6551 52.5043 60.4073 52.6461 60.2773C52.8037 60.1757 52.6454 59.963 52.6592 59.8122C52.6866 59.1627 52.8683 58.5078 52.8828 57.8503C52.9832 57.7051 53.0512 57.5892 52.9946 57.4207C53.527 55.5995 57.2149 56.8441 58.708 56.687C60.5603 56.5967 62.421 56.6693 64.2752 56.5825C65.37 56.6178 66.8878 56.2761 67.4969 57.3917C67.7174 57.6078 67.6063 58.0449 67.7578 58.306C67.8442 58.9616 67.9611 59.6355 68.0039 60.3001C62.9534 60.3315 57.5856 60.3773 52.5646 60.8284ZM92.1226 32.8604L92.6502 32.2847L93.2971 32.0524C94.2041 31.7344 96.7431 30.8441 97.6109 30.5299C97.3256 32.1109 97.0694 33.6859 96.7361 35.2569C92.2202 39.3276 88.0611 44.225 82.7025 47.1841C76.4865 50.5385 68.7677 51.0169 63.2293 46.1484C76.2985 49.6259 84.0677 41.879 92.1226 32.8604ZM24.8016 62.6482C25.0044 52.9019 25.3916 44.4445 31.1749 36.0362C36.4844 28.3984 44.8136 22.692 54.0091 21.0249C62.8975 19.1656 72.1782 21.5205 79.8915 26.0493C83.0121 27.7741 85.4609 30.4261 88.1848 32.6557C82.5796 39.3385 76.5451 44.7559 67.3776 45.0993C66.9266 44.6102 66.3547 44.2029 65.7621 43.9031C73.8838 39.1865 70.8315 26.4254 61.6643 25.3141C58.6683 25.0276 55.4986 25.9048 53.2945 28.0093C48.8271 32.0008 48.6936 40.2419 54.1369 43.4123C46.6755 45.8282 38.3725 53.6485 39.575 62.087C38.5806 62.7063 37.9979 63.9659 37.9742 65.1638C33.6726 64.1004 29.2205 63.9264 24.8045 63.9148C24.8212 63.4918 24.8399 63.071 24.8016 62.6482ZM25.2021 78.4155C21.9545 78.3458 18.5866 78.34 15.345 78.2819C21.719 71.6908 22.255 73.6154 16.0032 67.3338C23.2763 67.365 30.6619 67.2513 37.8452 66.3856C37.4822 70.5502 37.2145 74.6933 37.1993 78.8806C33.2394 78.824 29.2019 78.4072 25.2021 78.4155ZM92.1606 81.7427C88.6557 87.9495 83.3581 93.2682 77.0465 96.7099C68.7967 101.023 58.7973 101.978 49.8968 99.2338C43.2476 97.2602 37.5594 92.926 32.8735 87.943C30.8802 85.8821 29.4756 83.3525 27.8603 81.0092C30.9917 80.9763 34.0801 80.3882 37.1792 80.0027C37.1702 81.0462 37.1555 82.5416 37.1639 83.5793C37.1216 86.8753 40.5016 88.7927 43.4726 88.5516C48.3238 88.6114 54.283 88.5722 59.1404 88.549C63.9964 88.5272 69.7546 88.3672 74.5709 88.3784C77.1578 88.2641 80.1901 88.8072 82.1079 86.5677C83.7439 84.8948 83.2141 82.4462 83.2335 80.3331C86.1871 81.0269 89.2211 81.4223 92.2582 81.4959C92.2225 81.5769 92.19 81.6592 92.1606 81.7427ZM101.379 78.1737C95.3112 78.1473 89.2261 78.438 83.2253 79.1223C83.1517 75.7726 83.1858 69.9716 83.166 66.6146C90.2679 66.9938 97.5277 67.1813 104.708 67.2152C97.9246 73.6865 99.4015 71.9507 105.19 78.1633L101.379 78.1737Z" fill="#37A4DA"/>
</svg>
