<svg width="92" height="145" viewBox="0 0 92 145" fill="none" xmlns="http://www.w3.org/2000/svg">
<path d="M84.1925 17.9721C69.5648 -1.27954 36.6049 -8.13659 2.37355 14.3352C1.55713 14.8997 1.00538 15.7451 0.836174 16.6909C0.666964 17.6368 0.893713 18.6079 1.46798 19.397C2.04224 20.1861 2.91848 20.7306 3.90951 20.914C4.90054 21.0974 5.92776 20.9054 6.77174 20.3788C37.1478 0.438759 65.643 6.09146 77.9203 22.2712C85.4921 32.2499 85.3186 46.6422 77.5229 55.0348C68.6503 64.6025 52.1986 66.1374 39.0798 73.1498C20.438 83.1436 9.94681 104.871 14.1211 124.821C14.3543 125.745 14.9553 126.549 15.7982 127.062C16.6411 127.575 17.6602 127.758 18.642 127.572C19.6238 127.387 20.4918 126.848 21.0642 126.067C21.6366 125.287 21.8688 124.326 21.7121 123.387C18.1566 106.464 27.0686 88.0323 42.88 79.5542C55.4407 72.8217 72.6702 71.3904 83.321 59.8969C93.5778 48.8536 93.9524 30.8273 84.1938 17.9673L84.1925 17.9721ZM15.3307 137.503L13.7877 136.831C13.3274 136.625 12.8284 136.508 12.32 136.487C11.8115 136.466 11.3037 136.541 10.8262 136.708C10.3487 136.876 9.91116 137.132 9.53903 137.462C9.1669 137.792 8.8677 138.189 8.65887 138.63C8.23024 139.515 8.18887 140.525 8.54384 141.439C8.89881 142.353 9.62108 143.096 10.5519 143.504C12.0877 144.163 12.2053 144.255 12.6822 144.381C13.6177 144.626 14.6156 144.527 15.4781 144.105C16.3407 143.683 17.0048 142.968 17.3387 142.103C17.6727 141.237 17.6521 140.284 17.2811 139.432C16.91 138.581 16.2107 137.891 15.3307 137.503Z" fill="#FFB236"/>
</svg>
