<svg width="125" height="125" viewBox="0 0 125 125" fill="none" xmlns="http://www.w3.org/2000/svg">
<path d="M15.0241 91.9825C10.1803 92.5901 6.41992 96.722 6.41992 101.727C6.41992 106.606 10.2064 111.371 15.9564 111.543C22.7411 112.338 28.2984 107.514 28.2984 101.8C28.2984 96.2342 23.0224 92.0467 18.3244 92.1213C18.0938 92.0742 17.8616 92.0354 17.6283 92.005C17.6283 83.3696 17.7498 81.1891 17.4894 72.8783C21.8383 72.597 26.3678 73.3349 31.2498 73.2863C31.0987 79.5016 30.8748 85.3644 30.5675 91.005C30.5623 91.0953 30.6022 91.1752 30.6144 91.262C29.4512 91.8505 27.8817 92.5068 27.0675 93.038C41.7151 104.854 56.3557 108.01 74.9546 109.606C75.1524 109.622 75.3511 109.591 75.535 109.517C75.7189 109.442 75.8828 109.326 76.0137 109.177C79.1508 107.203 82.4685 105.05 85.6178 102.375C85.7658 102.249 85.8837 102.092 85.963 101.915C86.0423 101.737 86.081 101.545 86.0762 101.351C85.8185 90.9682 85.9587 80.5798 86.4963 70.2082L105.611 69.3002C105.945 69.2845 106.261 69.1407 106.492 68.8986C106.723 68.6564 106.852 68.3346 106.852 67.9998C106.852 62.1144 106.748 60.3158 107 54.5206C107.455 54.479 107.901 54.4113 108.338 54.3175C114.057 53.9043 118.576 48.9581 118.576 42.9026C118.576 36.8453 114.569 31.4564 105.922 31.4564C102.857 31.4601 99.9186 32.6793 97.7516 34.8466C95.5846 37.014 94.3658 39.9524 94.3626 43.0172C94.3626 48.8713 98.7428 53.7116 104.397 54.4634C104.165 59.7654 104.232 61.6856 104.246 66.7585L86.6213 67.597C86.8211 64.0824 87.0671 60.5705 87.3592 57.0623C87.4338 56.1439 87.4147 55.3818 86.7272 54.9877C84.2081 53.5484 81.7793 52.6231 79.1578 51.7116C79.3487 47.9755 79.4112 44.1943 79.0258 40.4286C78.3661 33.9443 76.4789 28.4738 73.4182 24.1665C63.8696 10.7186 46.9703 10.7429 41.3088 19.2446C39.6595 21.722 39.0866 24.7029 38.7099 27.5554C38.0971 32.2163 37.8648 36.9193 38.0154 41.6179C37.3505 42.0814 35.7168 43.6161 32.3366 45.6283C31.538 46.104 31.4755 47.0571 31.4789 47.913C31.5137 56.1595 31.4599 63.6648 31.314 70.6838C26.1092 70.7498 21.005 69.8158 15.998 70.3991C15.6734 70.4369 15.3749 70.5953 15.1617 70.8429C14.9484 71.0905 14.8361 71.4093 14.847 71.7359C15.1578 81.0207 15.0241 82.9477 15.0241 91.9825ZM96.9668 43.0172C96.9691 40.6427 97.9132 38.3662 99.592 36.6871C101.271 35.0079 103.547 34.0633 105.922 34.0606C110.861 34.0606 114.878 38.0779 114.878 43.0172C114.878 47.9564 110.861 51.972 105.922 51.972C103.548 51.9693 101.271 51.0249 99.5927 49.3462C97.9139 47.6674 96.9696 45.3913 96.9668 43.0172ZM73.8661 106.875C59.1855 105.357 44.8175 99.5762 33.2046 90.4738C33.8383 78.5536 34.1196 65.7029 34.0866 50.3453C38.8279 54.571 44.9078 57.8262 52.2307 60.0224C59.4512 62.1891 66.8921 63.0849 74.5102 63.8384C73.4095 78.1439 73.1855 92.9582 73.8661 106.875ZM84.1213 56.5606C80.3001 58.7307 78.2359 59.9356 75.6664 61.347C75.6526 61.347 75.6421 61.3366 75.6265 61.3349C67.8401 60.571 60.248 59.7099 52.979 57.5276C45.3748 55.2463 39.2151 51.7828 34.6109 47.2533C35.604 46.6283 36.5727 45.9686 37.5154 45.2672C37.4076 45.5541 37.4064 45.8701 37.5119 46.1578C38.8991 49.7897 46.0779 49.1352 47.7671 48.2654C49.7029 47.2759 49.913 44.8922 48.1387 44.7863C48.0953 44.1578 48.0553 43.5276 48.0171 42.8974C54.9093 45.2311 61.6447 48.0041 68.1821 51.1995C68.0501 52.6977 67.9008 54.1943 67.7341 55.6891C67.6821 55.7342 67.6196 55.762 67.5744 55.8158C67.3523 56.0797 67.244 56.421 67.2733 56.7648C67.3026 57.1085 67.4671 57.4266 67.7307 57.6491C73.3123 62.3418 81.498 58.1404 79.5866 55.8453C79.4168 55.6504 79.1914 55.5123 78.9408 55.4495L79.0102 54.42C80.8053 55.0554 82.4633 55.7168 84.1213 56.5606ZM68.3748 48.413C61.7257 45.203 54.8778 42.4224 47.873 40.0884C47.7428 36.4477 47.8435 32.8036 48.571 29.2776C50.5866 19.5172 60.9668 23.2238 65.472 31.4911C67.2498 34.7498 68.2498 38.7724 68.4442 43.446C68.5137 45.0918 68.4651 46.7533 68.3748 48.413ZM41.2915 27.8957C41.6786 24.9582 42.1977 22.6092 43.4772 20.6908C48.1352 13.6873 62.8678 13.8106 71.2967 25.6752C74.0918 29.6092 75.821 34.6613 76.4355 40.6925C76.9737 45.9495 76.623 51.3436 76.255 56.5797C74.2498 57.479 72.1595 57.3661 70.2914 56.2724C70.7585 52.0519 71.2289 47.6977 71.0467 43.3384C70.8348 38.2602 69.7272 33.8557 67.7585 30.2446C63.3696 22.1908 53.6404 17.2481 46.781 23.7359C45.6612 24.795 44.788 26.2134 44.1161 27.8505C41.88 33.2932 41.8765 41.1543 42.4668 46.2498C42.3956 46.2446 42.3227 46.2498 42.2515 46.2429C41.7834 46.2104 41.3213 46.1182 40.8765 45.9686C40.3649 39.9468 40.5029 33.8874 41.2915 27.8957ZM9.02582 101.727C9.02582 97.7429 12.2689 94.5016 16.2533 94.5016C20.2376 94.5016 23.4789 97.7429 23.4789 101.727C23.4789 105.712 20.2376 108.953 16.2533 108.953C12.2689 108.953 9.02582 105.712 9.02582 101.727Z" fill="#29A55C"/>
</svg>
