<svg width="40" height="40" viewBox="0 0 40 40" fill="none" xmlns="http://www.w3.org/2000/svg">
<rect width="40" height="40" rx="10" fill="white"/>
<g clip-path="url(#clip0_1001_6371)">
<path fill-rule="evenodd" clip-rule="evenodd" d="M29.0963 15.2401H24.4247C24.1921 13.7766 23.8383 12.4284 23.3761 11.2732C23.0892 10.5553 22.7668 9.93323 22.4156 9.41266C25.4033 10.2773 27.8466 12.4366 29.0963 15.2401ZM22.4156 29.5881C22.7668 29.0669 23.0893 28.4452 23.3761 27.7271C23.8383 26.5716 24.1921 25.2235 24.4247 23.76H29.0963C27.8466 26.5641 25.4033 28.7232 22.4156 29.5881ZM9.90362 23.76H14.5753C14.8078 25.2235 15.1618 26.5717 15.6238 27.7272C15.9113 28.4452 16.2333 29.0669 16.5844 29.5881C13.5965 28.7232 11.1535 26.5641 9.90362 23.76ZM16.5844 9.41266C16.2333 9.93323 15.9113 10.5553 15.6238 11.2732C15.1618 12.4284 14.8078 13.7766 14.5753 15.2401H9.90362C11.1535 12.4366 13.5965 10.2773 16.5844 9.41266ZM19.5 9C18.6539 9 17.7253 10.058 17.0165 11.83C16.6189 12.8247 16.3082 13.9807 16.0941 15.2401H22.9059C22.6916 13.9807 22.3813 12.8247 21.9835 11.83C21.2747 10.058 20.3462 9 19.5 9ZM9 19.5C9 18.5453 9.12891 17.6198 9.36885 16.7401H14.3831C14.2951 17.6344 14.2495 18.5593 14.2495 19.5C14.2495 20.4408 14.2951 21.3656 14.3831 22.2601H9.3689C9.12367 21.3606 8.99961 20.4324 9 19.5ZM15.8901 22.2602C15.7974 21.371 15.7494 20.4452 15.7494 19.5001C15.7494 18.5556 15.7974 17.6299 15.8901 16.7402H23.1098C23.2027 17.6299 23.2505 18.5556 23.2505 19.5001C23.2505 20.4452 23.2027 21.371 23.1098 22.2602H15.8901ZM19.5 30.0001C20.3462 30.0001 21.2747 28.9421 21.9835 27.1703C22.3813 26.176 22.6916 25.0196 22.9059 23.76H16.0941C16.3082 25.0196 16.6189 26.176 17.0165 27.1703C17.7253 28.9421 18.6539 30.0001 19.5 30.0001ZM30.0001 19.5C30.0001 20.4549 29.8712 21.3802 29.6312 22.2601H24.6169C24.705 21.3656 24.7505 20.4408 24.7505 19.5C24.7505 18.5593 24.705 17.6344 24.6169 16.7401H29.6312C29.8764 17.6396 30.0005 18.5678 30.0001 19.5Z" fill="#433C8C"/>
</g>
<defs>
<clipPath id="clip0_1001_6371">
<rect width="21" height="21" fill="white" transform="translate(9 9)"/>
</clipPath>
</defs>
</svg>
